<svg width="158" height="127" viewBox="0 0 158 127" fill="none" xmlns="http://www.w3.org/2000/svg">
<path d="M157.997 117.761C157.973 120.611 157.77 123.457 157.39 126.28C157.377 126.379 157.362 126.478 157.349 126.577L131.405 126.428C131.329 126.329 131.254 126.23 131.181 126.129C130.939 125.795 130.712 125.452 130.504 125.097C129.502 123.387 129.044 121.384 129.503 120.003L129.511 119.981C129.611 119.679 129.767 119.399 129.971 119.159C131.019 117.946 133.137 118.148 135.06 119.127C133.335 117.186 131.963 114.736 131.858 112.549C131.756 110.416 132.84 108.892 134.016 107.597C134.055 107.554 134.093 107.512 134.132 107.471C134.151 107.449 134.17 107.429 134.189 107.408C135.107 106.421 136.176 105.448 137.725 105.566C139.423 105.695 141.305 107.158 142.625 108.863C143.945 110.567 144.823 112.502 145.712 114.391C146.602 116.279 147.565 118.215 148.994 119.829C147.059 117.311 145.499 114.446 144.922 111.66C144.346 108.874 144.853 106.198 146.578 104.886C147.101 104.5 147.707 104.249 148.345 104.153C148.419 104.14 148.494 104.13 148.571 104.121C150.168 103.934 152.074 104.502 153.695 105.859C155.481 107.354 156.72 109.57 157.336 111.674C157.952 113.778 158.017 115.803 157.997 117.761Z" fill="#F2F2F2"/>
<path d="M141.132 126.576L140.642 126.573C140.486 126.468 140.33 126.364 140.173 126.261C140.076 126.195 139.977 126.131 139.879 126.066C138.253 124.992 136.616 123.962 134.97 122.975C133.325 121.988 131.672 121.046 130.01 120.15C129.919 120.107 129.87 120 129.892 119.896C129.894 119.889 129.897 119.883 129.9 119.877C129.923 119.83 129.975 119.811 130.051 119.851C130.255 119.961 130.46 120.072 130.663 120.185C132.329 121.096 133.988 122.054 135.64 123.056C137.291 124.058 138.932 125.105 140.564 126.195C140.598 126.218 140.632 126.242 140.667 126.264C140.822 126.368 140.977 126.472 141.132 126.576Z" fill="white"/>
<path d="M147.317 126.577L147.008 126.575C146.939 126.478 146.87 126.381 146.801 126.284C145.165 124 143.529 121.716 141.894 119.431C139.216 115.692 136.538 111.952 133.862 108.213C133.846 108.193 133.834 108.17 133.827 108.145C133.804 108.062 133.865 108.014 133.944 108.022C134.01 108.032 134.07 108.07 134.107 108.126C135.608 110.223 137.109 112.319 138.61 114.415C141.274 118.136 143.938 121.856 146.601 125.576C146.77 125.812 146.94 126.049 147.109 126.286C147.179 126.383 147.248 126.48 147.317 126.577Z" fill="white"/>
<path d="M154.054 124.706C154.037 125.238 154.002 125.761 153.955 126.28C153.946 126.379 153.937 126.478 153.928 126.577L153.592 126.575C153.602 126.476 153.612 126.377 153.621 126.278C153.692 125.529 153.743 124.771 153.749 123.993C153.758 121.836 153.545 119.683 153.112 117.569C152.652 115.292 151.992 113.058 151.139 110.894C150.243 108.611 149.163 106.403 147.91 104.29C147.886 104.256 147.875 104.214 147.88 104.173C147.894 104.079 148.021 104.051 148.117 104.141C148.136 104.159 148.152 104.179 148.165 104.201C148.32 104.464 148.472 104.727 148.622 104.991C149.829 107.116 150.863 109.332 151.712 111.618C152.522 113.789 153.137 116.026 153.552 118.302C153.941 120.415 154.109 122.56 154.054 124.706Z" fill="white"/>
<path d="M106.831 121.607C106.818 123.032 106.711 124.455 106.51 125.866C106.503 125.916 106.495 125.966 106.488 126.015L92.7531 125.941C92.7127 125.891 92.673 125.841 92.6346 125.791C92.5064 125.624 92.3862 125.453 92.2758 125.275C91.7456 124.42 91.5028 123.419 91.7461 122.728L91.7504 122.717C91.8029 122.566 91.8857 122.426 91.9939 122.306C92.5486 121.699 93.6701 121.801 94.6878 122.29C93.775 121.319 93.0481 120.094 92.9929 119.001C92.9387 117.934 93.5127 117.172 94.1353 116.525C94.1558 116.504 94.1762 116.483 94.1966 116.462C94.2065 116.451 94.217 116.441 94.2269 116.43C94.7127 115.937 95.279 115.451 96.0986 115.509C96.9976 115.574 97.9943 116.306 98.6931 117.158C99.392 118.01 99.8564 118.978 100.327 119.922C100.798 120.866 101.308 121.834 102.065 122.641C101.04 121.382 100.214 119.95 99.9092 118.557C99.6041 117.164 99.8726 115.826 100.786 115.17C101.063 114.977 101.384 114.851 101.721 114.803C101.76 114.797 101.8 114.791 101.841 114.787C102.686 114.693 103.695 114.977 104.554 115.656C105.473 116.423 106.142 117.433 106.481 118.564C106.807 119.616 106.842 120.628 106.831 121.607Z" fill="#F2F2F2"/>
<path d="M97.8364 126.577L97.5668 126.575C97.4812 126.523 97.3952 126.471 97.3087 126.419C97.2552 126.386 97.2011 126.354 97.147 126.322C96.2526 125.784 95.3526 125.269 94.4471 124.776C93.5424 124.283 92.6331 123.812 91.7193 123.364C91.6693 123.342 91.642 123.289 91.6543 123.236C91.6553 123.233 91.6568 123.23 91.6588 123.227C91.6716 123.204 91.7 123.194 91.7416 123.214C91.8537 123.269 91.9664 123.324 92.0785 123.381C92.9948 123.837 93.9072 124.315 94.8157 124.817C95.7235 125.318 96.6262 125.841 97.5236 126.386C97.5425 126.398 97.5614 126.409 97.5803 126.421C97.6659 126.473 97.7508 126.525 97.8364 126.577Z" fill="white"/>
<path d="M101.21 126.577L101.056 126.576C101.021 126.523 100.987 126.47 100.952 126.417C100.134 125.171 99.3162 123.926 98.4985 122.68C97.1595 120.64 95.8209 118.6 94.4827 116.56C94.4748 116.55 94.4689 116.537 94.4653 116.524C94.4539 116.478 94.4844 116.452 94.5236 116.457C94.557 116.462 94.5867 116.482 94.6051 116.513C95.3559 117.657 96.1064 118.8 96.8567 119.943C98.1888 121.973 99.5206 124.002 100.852 126.031C100.937 126.16 101.022 126.289 101.106 126.418C101.141 126.471 101.176 126.524 101.21 126.577Z" fill="white"/>
<path d="M104.579 125.08C104.572 125.345 104.556 125.607 104.534 125.866C104.53 125.916 104.526 125.966 104.522 126.015L104.369 126.014C104.374 125.965 104.378 125.915 104.383 125.865C104.415 125.491 104.438 125.112 104.441 124.723C104.445 123.644 104.348 122.568 104.151 121.511C103.942 120.372 103.642 119.256 103.254 118.174C102.847 117.032 102.356 115.928 101.786 114.872C101.776 114.855 101.771 114.834 101.773 114.813C101.779 114.766 101.837 114.752 101.881 114.797C101.889 114.806 101.897 114.816 101.902 114.827C101.973 114.958 102.042 115.09 102.11 115.222C102.659 116.284 103.129 117.392 103.515 118.536C103.883 119.621 104.163 120.74 104.351 121.878C104.528 122.934 104.604 124.007 104.579 125.08Z" fill="white"/>
<path fill-rule="evenodd" clip-rule="evenodd" d="M2.66852 68.6625H28.2567C29.7298 68.6608 30.9236 67.47 30.9253 66.0005V35.3388C30.9236 33.8693 29.7298 32.6784 28.2567 32.6768H2.66852C1.19544 32.6784 0.00167866 33.8693 0 35.3388V66.0005C0.00167866 67.47 1.19544 68.6608 2.66852 68.6625ZM0.340099 35.3393C0.341549 34.0573 1.38298 33.0184 2.66808 33.0169H28.2563C29.5414 33.0184 30.5828 34.0573 30.5843 35.3393V66.0009C30.5828 67.2829 29.5414 68.3218 28.2563 68.3233H2.66808C1.38298 68.3218 0.341549 67.2829 0.340099 66.0009V35.3393Z" fill="#3F3D56"/>
<path d="M21.4759 34.926H9.44927C8.2681 34.9247 7.3109 34.0159 7.30957 32.8944V32.4593C7.3109 31.3378 8.2681 30.429 9.44927 30.4277H21.4759C22.6571 30.429 23.6143 31.3378 23.6156 32.4593V32.8944C23.6143 34.0159 22.6571 34.9247 21.4759 34.926Z" fill="#CCCCCC"/>
<path d="M26.9052 51.794H3.46051C3.02786 51.7945 2.62785 51.5803 2.41138 51.2321C2.19491 50.884 2.19491 50.4549 2.41138 50.1068C2.62785 49.7587 3.02786 49.5444 3.46051 49.5449H26.9052C27.5729 49.5457 28.1138 50.0489 28.1138 50.6695C28.1138 51.29 27.5729 51.7933 26.9052 51.794Z" fill="#313130"/>
<path d="M26.9052 57.4171H3.46051C3.02786 57.4176 2.62785 57.2033 2.41138 56.8552C2.19491 56.5071 2.19491 56.078 2.41138 55.7299C2.62785 55.3817 3.02786 55.1675 3.46051 55.168H26.9052C27.5729 55.1687 28.1138 55.672 28.1138 56.2925C28.1138 56.9131 27.5729 57.4163 26.9052 57.4171Z" fill="#313130"/>
<path d="M21.2628 46.7335H10.2241C9.78553 46.734 9.38008 46.5197 9.16066 46.1716C8.94124 45.8235 8.94124 45.3944 9.16066 45.0463C9.38008 44.6981 9.78553 44.4839 10.2241 44.4844H21.2628C21.7013 44.4839 22.1068 44.6981 22.3262 45.0463C22.5456 45.3944 22.5456 45.8235 22.3262 46.1716C22.1068 46.5197 21.7013 46.734 21.2628 46.7335Z" fill="#313130"/>
<path fill-rule="evenodd" clip-rule="evenodd" d="M56.647 37.7367H82.2353C83.7084 37.7351 84.9021 36.5442 84.9038 35.0747V4.41303C84.9021 2.94351 83.7084 1.75264 82.2353 1.75098H56.647C55.1739 1.75264 53.9802 2.94351 53.9785 4.41303V35.0747C53.9802 36.5442 55.1739 37.7351 56.647 37.7367ZM54.319 4.41285C54.3204 3.13085 55.3618 2.09195 56.6469 2.09051H82.2352C83.5203 2.09195 84.5617 3.13085 84.5632 4.41285V35.0745C84.5617 36.3565 83.5203 37.3954 82.2352 37.3969H56.6469C55.3618 37.3954 54.3204 36.3565 54.319 35.0745V4.41285Z" fill="#3F3D56"/>
<path d="M75.4544 4.56267H63.4278C62.2466 4.56141 61.2894 3.65259 61.2881 2.53112V2.096C61.2894 0.974532 62.2466 0.0657142 63.4278 0.0644531H75.4544C76.6356 0.0657142 77.5928 0.974532 77.5941 2.096V2.53112C77.5928 3.65259 76.6356 4.56141 75.4544 4.56267Z" fill="#CCCCCC"/>
<path d="M81.4435 21.4308H58.0014C57.5688 21.4312 57.1688 21.217 56.9524 20.8689C56.7359 20.5207 56.7359 20.0917 56.9524 19.7435C57.1688 19.3954 57.5688 19.1812 58.0014 19.1816H81.4435C81.8761 19.1812 82.276 19.3954 82.4925 19.7435C82.7089 20.0917 82.7089 20.5207 82.4925 20.8689C82.276 21.217 81.8761 21.4312 81.4435 21.4308Z" fill="#313130"/>
<path d="M81.4448 26.4913H58.0001C57.5678 26.4913 57.1683 26.277 56.9522 25.929C56.736 25.5811 56.736 25.1524 56.9522 24.8045C57.1683 24.4565 57.5678 24.2422 58.0001 24.2422H81.4448C82.1131 24.2422 82.6548 24.7457 82.6548 25.3667C82.6548 25.9878 82.1131 26.4913 81.4448 26.4913Z" fill="#313130"/>
<path d="M75.2426 16.3712H64.2027C63.7641 16.3717 63.3586 16.1574 63.1392 15.8093C62.9197 15.4612 62.9197 15.0321 63.1392 14.684C63.3586 14.3358 63.7641 14.1216 64.2027 14.1221H75.2426C75.9201 14.1221 76.4693 14.6256 76.4693 15.2466C76.4693 15.8677 75.9201 16.3712 75.2426 16.3712Z" fill="#313130"/>
<path fill-rule="evenodd" clip-rule="evenodd" d="M112.404 102.076L134.691 89.872C135.974 89.1679 136.447 87.5539 135.749 86.264L121.159 59.3658C120.458 58.0775 118.852 57.6021 117.568 58.3032L95.2802 70.507C93.9979 71.211 93.5248 72.825 94.2226 74.115L108.813 101.013C109.513 102.301 111.12 102.777 112.404 102.076ZM94.5193 73.9522C93.9105 72.8268 94.3233 71.4187 95.442 70.8046L117.73 58.6008C118.85 57.9892 120.251 58.4039 120.863 59.5278L135.453 86.4259C136.061 87.5513 135.649 88.9594 134.53 89.5735L112.242 101.777C111.122 102.389 109.721 101.974 109.109 100.85L94.5193 73.9522Z" fill="#3F3D56"/>
<path d="M112.497 63.6287L102.245 69.5202C101.237 70.0976 99.9766 69.7061 99.4267 68.645L99.2138 68.2331C98.6662 67.1707 99.0375 65.8414 100.044 65.2616L110.296 59.3701C111.304 58.7927 112.564 59.1842 113.114 60.2453L113.327 60.6572C113.875 61.7196 113.504 63.0489 112.497 63.6287Z" fill="#CCCCCC"/>
<path d="M125.333 75.9713L105.208 87.0713C104.837 87.276 104.386 87.2648 104.025 87.0419C103.665 86.819 103.449 86.4182 103.459 85.9906C103.47 85.563 103.705 85.1735 104.076 84.9689L124.201 73.8689C124.775 73.5525 125.493 73.7666 125.806 74.3472C126.118 74.9278 125.907 75.6549 125.333 75.9713V75.9713Z" fill="#CCCCCC"/>
<path d="M128.145 79.9079L108.02 91.0079C107.648 91.2125 107.198 91.2013 106.837 90.9784C106.476 90.7555 106.26 90.3548 106.271 89.9272C106.281 89.4996 106.516 89.1101 106.887 88.9054L127.012 77.8054C127.586 77.489 128.305 77.7031 128.617 78.2837C128.93 78.8643 128.718 79.5915 128.145 79.9079V79.9079Z" fill="#CCCCCC"/>
<path d="M117.457 74.2128L108.033 79.2044C107.659 79.4026 107.205 79.3917 106.841 79.1759C106.478 78.9601 106.26 78.5722 106.271 78.1582C106.281 77.7443 106.518 77.3672 106.892 77.169L116.315 72.1775C116.689 71.9793 117.144 71.9902 117.507 72.206C117.871 72.4218 118.088 72.8097 118.078 73.2237C118.067 73.6376 117.831 74.0147 117.457 74.2128V74.2128Z" fill="#CCCCCC"/>
<path d="M35.4938 34.8015L47.4353 27.862L47.6059 28.1561L35.6644 35.0956L35.4938 34.8015Z" fill="#3F3D56"/>
<path d="M47.8006 29.8651L49.4801 27.0537L46.1064 27.0614L47.8006 29.8651Z" fill="#3F3D56"/>
<path d="M82.4851 73.7229C82.4582 73.7229 82.4317 73.7164 82.4077 73.7039L36.6396 49.8694C36.5566 49.8259 36.5239 49.7225 36.5666 49.6383C36.6093 49.554 36.7112 49.5207 36.7944 49.5638L82.5626 73.3983C82.6322 73.4346 82.6683 73.5144 82.6498 73.5915C82.6314 73.6686 82.5633 73.7229 82.485 73.7229H82.4851Z" fill="#3F3D56"/>
<path d="M81.5303 74.285L84.9039 74.1299L83.0739 71.4736L81.5303 74.285Z" fill="#3F3D56"/>
<path d="M130.138 93.2045C129.673 92.9632 129.335 92.5196 129.214 91.9929C129.093 91.4663 129.202 90.9107 129.511 90.4758L128.199 77.0967H131.034L132.076 90.1607C132.757 90.7645 132.897 91.8041 132.403 92.5807C131.908 93.3572 130.935 93.6252 130.138 93.2045L130.138 93.2045Z" fill="#A0616A"/>
<circle cx="127.918" cy="65.5696" r="4.21708" fill="#A0616A"/>
<path d="M126.518 84.951L120.388 83.579C120.057 83.5043 119.815 83.2122 119.797 82.8652C119.726 81.4633 119.676 77.8366 120.729 74.451C121.14 73.1396 122.052 72.0544 123.256 71.4426C124.46 70.8308 125.854 70.7444 127.121 71.203C128.46 71.6851 129.534 72.7301 130.074 74.0751C130.614 75.4202 130.567 76.9375 129.947 78.2455C128.588 81.1064 127.732 83.1782 127.403 84.4035C127.297 84.7982 126.908 85.0388 126.518 84.951Z" fill="#313130"/>
<path d="M120.889 124.328L118.984 124.328L118.078 116.456L120.89 116.456L120.889 124.328Z" fill="#A0616A"/>
<path d="M116.75 123.203H120.89V126.015H114.143C114.143 124.462 115.31 123.203 116.75 123.203Z" fill="#2F2E41"/>
<path d="M141.694 121.659L139.818 122.641L134.946 116.219L137.715 114.77L141.694 121.659Z" fill="#A0616A"/>
<path d="M138.021 122.88L141.541 120.943L142.76 123.161L137.023 126.318C136.35 125.093 136.797 123.553 138.021 122.88Z" fill="#2F2E41"/>
<path d="M120.497 119.828L117.277 119.582C116.905 119.554 116.607 119.265 116.572 118.896C116.113 114.147 114.1 90.0802 119.545 82.6705L119.56 82.6498L119.584 82.6409C119.633 82.6232 124.489 80.905 127.275 84.0538C127.453 84.2574 127.509 84.5392 127.422 84.7947L127.316 85.1111C127.254 85.2932 127.286 85.4935 127.401 85.6482C128.174 86.6854 130.776 90.68 131.799 98.5351C131.805 98.5851 131.818 98.6341 131.837 98.6809L139.388 117.088C139.466 117.278 139.463 117.491 139.381 117.679C139.299 117.867 139.143 118.014 138.95 118.087L136.574 118.985C136.217 119.118 135.815 118.972 135.629 118.641L124.729 99.0161C124.64 98.8559 124.457 98.7706 124.276 98.8047C124.095 98.8388 123.956 98.9846 123.932 99.1661L121.317 119.166C121.267 119.545 120.942 119.829 120.556 119.83C120.536 119.83 120.517 119.829 120.497 119.828Z" fill="#2F2E41"/>
<path d="M111.5 70.5829C111.521 70.6733 111.535 70.7653 111.541 70.8579L118.887 75.0132L120.673 74.0053L122.576 76.4488L119.592 78.5343C119.097 78.8803 118.428 78.8644 117.951 78.4951L110.375 72.6355C109.675 72.8895 108.888 72.6924 108.398 72.1403C107.908 71.5883 107.818 70.7966 108.171 70.1519C108.524 69.5072 109.247 69.144 109.987 69.2398C110.727 69.3356 111.329 69.8704 111.5 70.5829V70.5829Z" fill="#A0616A"/>
<path d="M118.094 74.2792C118.139 74.0632 118.279 73.8771 118.478 73.7695L121.896 71.9124C122.842 71.2034 124.2 71.3714 124.932 72.2882C125.665 73.2049 125.496 74.5247 124.554 75.2389L121.828 77.9887C121.671 78.1475 121.45 78.2319 121.224 78.2198C120.997 78.2078 120.787 78.1005 120.648 77.9259L118.241 74.8943C118.102 74.7198 118.048 74.4952 118.094 74.2792Z" fill="#313130"/>
<path d="M127.478 80.2949C127.319 80.1505 127.223 79.9355 127.217 79.706L127.106 75.7446C126.914 74.555 127.618 73.4158 128.68 73.1976C129.743 72.9793 130.763 73.7642 130.961 74.9525L132.098 78.7197C132.163 78.9372 132.141 79.176 132.037 79.3737C131.932 79.5715 131.756 79.7086 131.554 79.7494L128.047 80.4581C127.845 80.499 127.638 80.4394 127.478 80.2949Z" fill="#313130"/>
<path d="M126.311 64.2972C125.252 65.0376 123.862 65.7988 122.781 65.0103C122.072 64.4925 121.848 63.5338 122.136 62.6924C122.653 61.1793 124.076 60.5132 125.436 60.0027C127.204 59.3389 129.129 58.8108 130.954 59.2862C132.779 59.7615 134.392 61.5678 134.062 63.4632C133.798 64.9875 132.391 66.2558 132.591 67.7905C132.791 69.335 134.491 70.1479 135.991 70.424C137.491 70.7 139.17 70.7887 140.248 71.8902C141.624 73.2953 141.28 75.8067 139.986 77.2902C138.692 78.7737 136.739 79.4462 134.846 79.9034C132.339 80.509 129.627 80.8274 127.246 79.8222C124.864 78.817 123.011 76.1111 123.701 73.5737C123.992 72.5019 124.679 71.5962 125.342 70.7143C126.005 69.8325 126.677 68.9104 126.93 67.8285C127.141 66.9269 126.985 65.8801 126.4 65.2039C126.182 64.961 126.142 64.602 126.3 64.315L126.311 64.2972Z" fill="#2F2E41"/>
<path d="M157.268 126.577H92.3842C92.2901 126.577 92.2139 126.451 92.2139 126.296C92.2139 126.141 92.2901 126.015 92.3842 126.015H157.268C157.362 126.015 157.438 126.141 157.438 126.296C157.438 126.451 157.362 126.577 157.268 126.577Z" fill="#3F3D56"/>
</svg>
