<?xml version="1.0" encoding="UTF-8"?>
<svg width="205px" height="116px" viewBox="0 0 205 116" version="1.1" xmlns="http://www.w3.org/2000/svg" xmlns:xlink="http://www.w3.org/1999/xlink">
    <title>512A2A3A-3CEB-4FBB-84E8-1175AB3517F8</title>
    <g id="Mobile" stroke="none" stroke-width="1" fill="none" fill-rule="evenodd">
        <g id="EXISTING-USER---DELETE-MODAL---CART" transform="translate(-81.000000, -228.000000)" fill-rule="nonzero">
            <g id="Modal" transform="translate(14.000000, 137.000000)">
                <g id="undraw_Throw_away_re_x60k-2" transform="translate(67.000000, 91.000000)">
                    <path d="M43.0596008,115 L12.0401318,115 C12.0401318,115 11.4113588,105.477291 15.1314888,105.369078 C18.8516189,105.260865 18.4324369,109.58937 23.0959471,103.637676 C27.7594573,97.685983 33.4181939,98.0106208 34.1517624,101.527644 C34.8853309,105.044668 32.7371334,107.857968 36.6668545,106.992267 C40.5965755,106.126566 46.2557534,108.399024 43.0596008,115 Z" id="a935b196-91fc-4d65-bd04-49275a33d175" fill="#E6E6E6"></path>
                    <path d="M27.1091001,115 L27,114.995687 C27.2542606,108.748773 28.5779319,104.735494 29.6438973,102.467809 C30.8010474,100.006271 31.9161652,99.0097608 31.9274197,99 L32,99.0805834 C31.9889751,99.0903442 30.8869493,100.076866 29.7389866,102.521834 C28.6789908,104.779068 27.362442,108.776466 27.1091001,115 Z" id="af9a6d89-7824-4af5-a475-6980c18ad0f3" fill="#FFFFFF"></path>
                    <path d="M38.0966614,114 L38,113.969964 C38.7495408,111.335907 40.1006813,108.941072 41.9323794,107 L42,107.079494 C40.1818792,109.007065 38.8407502,111.384848 38.0966614,114 L38.0966614,114 Z" id="ae138407-70d7-43ff-b006-9d3240c337f6" fill="#FFFFFF"></path>
                    <path d="M16.8694195,114 L16.7609875,113.985857 C17.1139214,111.740771 16.740523,109.447285 15.6897898,107.406349 C15.2590632,106.55034 14.6888622,105.763528 14,105.074634 L14.0757413,105 C14.7739244,105.697234 15.3519747,106.493737 15.7887829,107.360424 C16.8489706,109.420034 17.2256579,111.73445 16.8694195,114 Z" id="a7d931fe-d47e-4aa5-ae01-a0d26a3448cc" fill="#FFFFFF"></path>
                    <path d="M46.7802747,115 L8.06283828,115 L8.05398074,114.865593 C8.03183688,114.531164 7.5378073,106.640424 10.0314277,103.824913 C10.5317076,103.223449 11.2566224,102.866792 12.027254,102.84297 C13.6526135,102.795518 14.6741099,103.419876 15.498083,103.920724 C17.0510321,104.865206 18.0767358,105.489336 21.8068694,100.762611 C25.84746,95.6422007 30.2073651,94.5403804 32.7136075,95.1529316 C34.3329881,95.5488877 35.4490388,96.6675088 35.7756608,98.2224989 C36.0856749,99.6948469 35.9864704,101.078195 35.9071953,102.190005 C35.8223843,103.379463 35.7555099,104.318723 36.2320458,104.744648 C36.6306353,105.099964 37.423607,105.132204 38.7300949,104.846362 C41.3873584,104.265142 45.0960125,104.762357 46.9572042,107.228228 C47.9585496,108.554817 48.7475354,110.965971 46.8192479,114.920309 L46.7802747,115 Z M8.32701456,114.711433 L46.6060025,114.711433 C48.0429177,111.722465 48.0878698,109.197337 46.7346583,107.404864 C45.0271451,105.142875 41.4449325,104.547578 38.7887762,105.128571 C37.3691331,105.439161 36.523459,105.38785 36.0471445,104.962379 C35.4645395,104.442005 35.5360642,103.438947 35.6264112,102.169799 C35.7043575,101.076606 35.8011262,99.7159615 35.5004126,98.2840265 C35.1974845,96.8421018 34.1578302,95.8033984 32.6480616,95.43446 C30.2217586,94.8409801 25.982759,95.9287239 22.0254294,100.944697 C18.1427245,105.865086 16.9728642,105.154 15.3543693,104.16865 C14.52021,103.661445 13.5733385,103.086355 12.0350043,103.131082 C11.3412054,103.153935 10.6891178,103.476268 10.23958,104.018578 C7.99906396,106.549154 8.27231922,113.644577 8.327236,114.711433 L8.32701456,114.711433 Z" id="b274f1e0-b558-44b1-a0b2-dcd77bbddb14" fill="#2F2E41"></path>
                    <path d="M174.162902,115 L135.837321,115 L135.829977,114.783417 L134,62 L176,62 L174.162902,115 Z M136.267275,114.551123 L173.732948,114.551123 L175.539335,62.4488767 L134.460665,62.4488767 L136.267275,114.551123 Z" id="bca7d782-7e31-494e-97b0-f49b8df7894d" fill="#3F3D56"></path>
                    <g id="e7d5632f-8461-4dcf-9cd9-df8e3f64d5e2" transform="translate(142.000000, 71.000000)" fill="#3F3D56">
                        <rect id="ad932c98-7027-4b28-8e73-a76d8a4136e0" x="0.182166293" y="0.201596395" width="2.8889624" height="36.447986"></rect>
                        <rect id="ae1e5d8b-7977-4a56-a24c-fbb057f76b38" x="11.5571773" y="0.201596395" width="2.8889624" height="36.447986"></rect>
                        <rect id="bffa0855-fc38-45cc-9e39-6daa1d3e4103" x="22.9321751" y="0.201596395" width="2.8889624" height="36.447986"></rect>
                    </g>
                    <path d="M200.86462,78 L200.676135,77.8802716 L153,47.5810108 L157.135596,41 L157.324084,41.1197284 L205,71.4188816 L200.86462,78 Z M153.615082,47.4415832 L200.725769,77.3814413 L204.384934,71.5585289 L157.27447,41.6183413 L153.615082,47.4415832 Z" id="Shape" fill="#3F3D56"></path>
                    <path d="M189.038638,44.3468415 C186.233899,42.5313236 182.652244,42.5528288 179.868538,44.401901 C177.084831,46.2509732 175.608968,49.5889147 176.08989,52.9480242 L178.342999,54.4043737 C177.180715,51.6440941 177.911664,48.4313545 180.14603,46.4795175 C182.380395,44.5276805 185.597174,44.2918704 188.080848,45.8978454 C190.564522,47.5038204 191.735956,50.5771034 190.97042,53.4787043 C190.204885,56.3803052 187.680886,58.4336363 184.744478,58.5436505 L186.997587,60 C190.1707,59.0036745 192.485863,56.208399 192.925076,52.8432842 C193.364288,49.4781693 191.847097,46.1596223 189.040626,44.3468415 L189.038638,44.3468415 Z" id="b31113e7-cae2-4653-b248-af5e4acb0a6c" fill="#3F3D56"></path>
                    <rect id="bbfb7505-c422-4cd7-b125-b9dee40ff3b1" fill="#3F3D56" x="0" y="114.777028" width="202" height="1"></rect>
                    <g id="b91459ce-423d-4e92-a857-d0ba85dc07c7" transform="translate(64.000000, 0.000000)">
                        <polygon id="bc369f15-2cd9-428d-9eec-3a8fd8cc1bba" fill="#FEB8B8" points="24.301054 110.920838 21.0551771 110.920838 19.5102431 98.4451199 24.3019455 98.4451199"></polygon>
                        <path d="M14.7954397,113.923947 L24.9964169,113.923947 L24.9964169,109.996497 L18.6820675,109.996497 C16.5355423,109.996497 14.7954397,111.730515 14.7954397,113.869535 L14.7954397,113.869535 L14.7954397,113.923947 Z" id="fafca8b8-1a63-4513-a3fa-e64917847011" fill="#2F2E41"></path>
                        <polygon id="a38ea43e-f1b1-406e-84c8-61e7480f01b4" fill="#FEB8B8" points="23.1602076 91.5889628 25.3991584 93.9309084 35.5290401 86.4404582 32.2247713 82.984062"></polygon>
                        <path d="M27.70569,95.0038747 L23.348789,90.4482699 L20.4953391,93.1582196 L27.5340156,100.517903 L27.5735483,100.480369 C28.3198456,99.7716059 28.7530334,98.7964426 28.7778152,97.7694043 C28.802597,96.742366 28.4169429,95.7475825 27.7056923,95.0038947 L27.70569,95.0038747 Z" id="b5ba90e2-8a51-4a77-95c4-5b486c8770ec" fill="#2F2E41"></path>
                        <path d="M0.56787245,57.4096617 C0.152035182,56.7429751 0.053811756,55.9270111 0.299620608,55.1812334 C0.545429461,54.4354558 1.11003295,53.8364349 1.8415738,53.545285 L14.5850506,21.1806863 L19.5523744,24.1444855 L5.39612549,55.1927532 C5.81483228,56.4784309 5.20224708,57.8729741 3.97030106,58.4386262 C2.73835503,59.0042783 1.27654995,58.5621984 0.56787245,57.4096617 L0.56787245,57.4096617 Z" id="b1536285-e66e-494f-8c4f-a2304265e4c3" fill="#FEB8B8"></path>
                        <path d="M48.9377656,59.7294004 C48.1517391,59.6734028 47.4309979,59.2732645 46.9695557,58.6366972 C46.5081135,58.0001299 46.3533921,57.1925528 46.5470405,56.4313548 L27.7470747,27.1444877 L33.071659,24.8791635 L49.9732191,54.5333684 C51.2651692,54.9495286 52.0397743,56.2637015 51.7753544,57.5908197 C51.5109345,58.9179379 50.2912643,59.8375379 48.9377656,59.7302887 L48.9377656,59.7294004 Z" id="acd6249e-4699-4411-813c-091b3a750afe" fill="#FEB8B8"></path>
                        <polygon id="ece4d731-f277-435f-bbc1-e3b70679d22f" fill="#2F2E41" points="14.7105196 54.1689155 18.0381898 103.45371 25.9906328 102.754568 27.6278238 66.3934491 32.0718491 82.0095284 41.6614943 82.7086697 37.8657974 51.8380745"></polygon>
                        <path d="M33.4752697,79.6789118 L32.0711894,82.0097527 L22.2486453,88.7688585 L29.2654805,92.498204 C29.2654805,92.498204 42.8313472,85.039735 41.6619489,82.708894 L33.4752697,79.6789118 Z" id="b91f5bf0-a8c5-41a2-a26e-8e2fd84207c6" fill="#2F2E41"></path>
                        <path d="M7.7467341,34.2287296 L10.5150009,26.4555582 C11.7590173,22.9620962 14.3537113,20.1096913 17.7208298,18.5340302 L17.7208298,18.5340302 C21.4676894,17.1585006 25.5427896,16.9362075 29.4179325,17.8959639 L30.4253043,18.1451495 C33.1115929,18.793975 35.6284678,20.0053127 37.8085376,21.6985993 C39.5143837,23.0386941 41.0490657,24.7354664 41.1856849,26.560607 C41.1863826,26.5644925 41.1875035,26.5682905 41.1890279,26.5719337 C41.6615121,28.6355996 41.8953026,39.357024 41.8953026,39.357024 L37.7276359,39.357024 L38.386885,53.8077939 L38.3336191,53.7031892 C38.3336191,53.7031892 14.2957655,58.2362807 14.2957655,55.9054397 L14.2957655,40.9880574 L13.8030002,35.5868137 L7.7467341,34.2287296 Z" id="b0b7866d-f3ba-460a-97cc-8103175b89de" fill="#CCCCCC"></path>
                        <ellipse id="bd3b9138-8795-4826-98b2-48d72249760b" fill="#FEB8B8" cx="30.1837134" cy="9.23731937" rx="6.66135779" ry="6.63806633"></ellipse>
                        <path d="M31.1815174,6.26041679 L36.3538815,6.46696106 C37.0046616,6.46496224 37.7151708,6.44208691 38.2108334,6.02277983 C38.9574475,5.39004368 38.8324175,4.19608454 38.4325889,3.30416864 C37.3182395,0.820751407 34.8325717,-0.068943589 32.1030843,0.00412422268 C29.3735969,0.0771920344 26.5135078,0.999090169 25.043681,3.29106529 C23.5738541,5.58304042 23.1767,8.47732529 23.7303088,11.1406359 C25.0327561,8.38469256 27.7071342,6.52641384 30.7524929,6.26130515 L31.1815174,6.26041679 Z" id="e83e2647-99b5-4c80-ac3e-9e5d1f9bc81d" fill="#2F2E41"></path>
                    </g>
                    <g id="ff061cc6-72bd-494d-9c36-32e4a4020cd7" transform="translate(107.000000, 36.000000)">
                        <path d="M19.3312378,35.4333713 L0.388262841,22.3582551 C0.0218489561,22.1042989 -0.0670760386,21.6063565 0.189365322,21.2445129 L15.0573698,0.351831507 C15.315233,-0.00903065246 15.8208362,-0.0966082988 16.1882466,0.155947587 L35.1312192,13.2310638 C35.4976343,13.4850193 35.5865594,13.9829628 35.3301168,14.344806 L20.4624979,35.2369433 C20.2047884,35.5982265 19.6988631,35.6860737 19.3312378,35.4333713 Z" id="bc404282-8d4f-43f7-bc12-02f97785eba1" fill="#302B27"></path>
                        <path d="M23.5912776,21.2459876 L12.4758627,13.5737319 C12.1261497,13.3323471 11.93376,12.9255555 11.9711649,12.5065916 C12.0085699,12.0876277 12.2700867,11.720142 12.6572047,11.5425628 C13.0443226,11.3649837 13.4982291,11.4042896 13.8479421,11.6456744 L24.9633571,19.3179301 C25.5039664,19.6910787 25.6350664,20.4251856 25.2561772,20.957604 C24.8772879,21.4900223 24.131887,21.619136 23.5912776,21.2459876 L23.5912776,21.2459876 Z" id="ae4af9f3-88ec-4cab-9b9e-a4fc234f7062" fill="#FFFFFF"></path>
                        <path d="M21.0402501,24.8307211 L9.92483513,17.1584654 C9.57470791,16.91724 9.38195529,16.5102958 9.41925863,16.0910795 C9.45656197,15.6718631 9.71824717,15.3041403 10.1056404,15.1265685 C10.4930337,14.9489967 10.9472098,14.9885858 11.2969123,15.2304079 L22.4123272,22.9026636 C22.9522778,23.2760438 23.0829582,24.009659 22.7043013,24.5417516 C22.3256445,25.0738442 21.5808564,25.2031798 21.0402501,24.8307211 L21.0402501,24.8307211 Z" id="fe48f3fd-992f-41c2-af3b-c30882e26a16" fill="#FFFFFF"></path>
                        <path d="M18.4617828,28.4540117 L7.34637008,20.7817471 C6.80576005,20.4085992 6.67465896,19.6744922 7.05354761,19.1420732 C7.43243626,18.6096542 8.17783722,18.4805395 8.71844726,18.8536874 L19.8338622,26.5259431 C20.3744722,26.8990911 20.5055732,27.633198 20.1266846,28.165617 C19.747796,28.698036 19.0023951,28.8271507 18.461785,28.4540028 L18.4617828,28.4540117 Z" id="e216638f-22ba-49ea-a46c-300c78c4e875" fill="#FFFFFF"></path>
                        <path d="M23.5600336,14.1546254 L19.2547119,11.1829375 C18.9045846,10.9417122 18.711832,10.534768 18.7491354,10.1155516 C18.7864387,9.69633528 19.0481239,9.32861245 19.4355171,9.15104064 C19.8229104,8.97346883 20.2770865,9.01305794 20.626789,9.25488007 L24.932113,12.2265657 C25.472723,12.5997143 25.6038235,13.3338218 25.2249343,13.8662407 C24.846045,14.3986597 24.1006436,14.5277739 23.5600336,14.1546254 L23.5600336,14.1546254 Z" id="ee43e3d8-5f22-4b53-a964-043fec166479" fill="#FFFFFF"></path>
                    </g>
                </g>
            </g>
        </g>
    </g>
</svg>