<?xml version="1.0" encoding="UTF-8"?>
<svg width="300px" height="235px" viewBox="0 0 300 235" version="1.1" xmlns="http://www.w3.org/2000/svg" xmlns:xlink="http://www.w3.org/1999/xlink">
    <title>F9608DB9-85DE-45D7-9BC2-1261CBF1C890</title>
    <defs>
        <linearGradient x1="0.0418254486%" y1="50.0117741%" x2="100%" y2="50.0117741%" id="linearGradient-1">
            <stop stop-color="#808080" stop-opacity="0.25" offset="0%"></stop>
            <stop stop-color="#808080" stop-opacity="0.12" offset="54%"></stop>
            <stop stop-color="#808080" stop-opacity="0.1" offset="100%"></stop>
        </linearGradient>
    </defs>
    <g id="Mobile" stroke="none" stroke-width="1" fill="none" fill-rule="evenodd">
        <g id="FREE-EXPLORE---WISH-LIST-1" transform="translate(-38.000000, -137.000000)" fill-rule="nonzero">
            <g id="undraw_empty_xct9-2" transform="translate(38.000000, 137.000000)">
                <ellipse id="Oval" fill="#302B27" opacity="0.1" cx="105.5" cy="220" rx="52.5" ry="10"></ellipse>
                <path d="M174.302733,33.1361298 C155.070283,32.4698176 136.753097,26.2528872 119.262027,19.4529335 C101.770957,12.6529799 84.4462995,5.12127275 65.6744531,1.5190226 C53.6006821,-0.798196943 39.7914736,-1.12837842 30.0652977,5.34436834 C20.7016618,11.5910449 17.6765328,22.3442524 16.051046,32.3300111 C14.8267306,39.8438706 14.1075938,47.753353 17.4596031,54.7883006 C19.7893685,59.6726067 23.9199473,63.7775656 26.7786644,68.4566238 C36.7247417,84.7336782 29.6938427,104.806332 18.9186781,120.699662 C13.866891,128.154029 7.99790314,135.275241 4.09614055,143.202571 C0.19437796,151.129901 -1.60940718,160.244099 1.80500654,168.35288 C5.18673223,176.384322 13.24879,182.404928 21.9824384,186.643744 C39.7201542,195.255234 60.6137512,197.718209 81.0021694,199.116275 C126.120571,202.203918 171.476704,200.868319 216.713971,199.526771 C233.456188,199.032986 250.269724,198.530277 266.73855,195.939394 C275.885256,194.499684 285.326154,192.215185 291.967769,186.700262 C300.395338,179.70101 302.484401,167.850172 296.835314,159.075078 C287.361727,144.350769 261.175641,140.694976 254.545913,124.896834 C250.902683,116.19908 254.643977,106.513757 259.94241,98.4495951 C271.305959,81.1463011 290.351197,65.966877 291.352639,46.1916838 C292.042059,32.6096242 282.886438,19.0067424 268.729548,12.5786147 C253.892152,5.84112786 233.313549,6.6888911 222.371973,17.8406961 C211.094601,29.3107841 191.285652,33.7280768 174.302733,33.1361298 Z" id="Path" fill="#302B27" opacity="0.1"></path>
                <path d="M159,107.767778 L149.877524,101.644289 L149.877524,101.644289 L154.478969,94.8239391 L130.384671,92.9112756 L121.726806,99.5774267 L110.88884,93.5280725 L101.849755,94.6104325 L101.742537,92.2381367 C101.630652,89.7650119 101.381086,87.2999692 100.994988,84.8543661 C101.033706,84.1130236 101.060511,83.2619625 101.057532,82.3367672 C101.057532,78.437306 100.527398,73.2686665 98.198382,69.8229069 L98.7344726,65.0249387 L94.3861816,59.9096759 C95.084483,58.5247284 95.8806945,57.1909102 96.7688068,55.9182883 C96.9177209,55.7047816 97.066635,55.4972058 97.2274622,55.2955606 C102.871306,54.889305 107.323837,50.2692589 107.323837,44.6202296 C107.323837,44.3592771 107.323837,44.0983245 107.294054,43.8403374 C107.294054,43.7365494 107.273206,43.6297961 107.261293,43.5260082 C107.812275,43.8225451 108.369213,44.1190821 108.926152,44.4156191 C109.030392,44.5638876 109.149523,44.7121561 109.280568,44.8871129 L109.280568,44.8871129 L109.307372,44.9197319 L109.474156,45.1243425 L109.527765,45.1866152 C109.587331,45.2577841 109.649875,45.3259876 109.712418,45.3971565 L109.754114,45.4446024 C109.911963,45.6195592 110.078747,45.7974814 110.257444,45.9724382 C110.278717,45.9896741 110.298631,46.0085101 110.31701,46.0287802 L110.540381,46.2363561 L110.602925,46.2926981 C110.793535,46.4617242 110.996058,46.6248195 111.198581,46.7790188 L111.264103,46.8264647 L111.520235,47.0014215 L111.603627,47.0547981 C111.701911,47.1141055 111.803172,47.1763783 111.901455,47.2327203 L111.937195,47.2534779 C112.053348,47.3157507 112.172479,47.3750581 112.29161,47.4314001 L112.351176,47.4551231 C112.452437,47.4986152 112.551714,47.5401303 112.649004,47.5796686 L112.741331,47.6122877 C112.845571,47.6478721 112.946832,47.6804912 113.05405,47.7101449 L113.119573,47.7279371 C113.250617,47.7605561 113.381661,47.7872445 113.515684,47.8080021 L113.530575,47.8080021 C113.656774,47.8283281 113.78407,47.8412005 113.911795,47.8465519 L113.998166,47.8465519 C114.112255,47.8524979 114.226579,47.8524979 114.340668,47.8465519 L114.415125,47.8465519 C114.557985,47.8383603 114.700212,47.8215255 114.841019,47.7961406 C115.507393,47.7089039 116.147222,47.4803728 116.717337,47.125967 C116.862488,47.0293233 116.991186,46.9101933 117.098557,46.773088 C117.694213,45.9961612 117.038991,45.1451 117.038991,45.1451 L117.038991,45.1451 C116.806685,44.5935413 115.299675,44.2050778 115.299675,44.2050778 C115.299675,44.2050778 110.534424,42.2242109 110.534424,40.6466342 C110.534424,39.0690575 109.343112,30.884637 97.045787,29.0134887 C97.045787,29.0134887 89.0461227,28.5657179 86.7975201,32.8299196 L86.7498676,33.3281017 C86.0886891,33.7402881 85.5406853,34.5676262 84.8884417,34.8107865 C84.6066486,34.871048 84.3348913,34.9708927 84.0813274,35.1073235 L84.0813274,35.0509815 L84.0813274,35.0509815 C84.0060313,35.116551 83.9443183,35.1961278 83.8996522,35.2852457 C83.7595484,35.5628078 83.6755597,35.8650651 83.6524548,36.1748566 C83.5853572,36.5532867 83.4533813,36.9174053 83.2622999,37.2512858 C83.2090261,37.346159 83.1493222,37.4373081 83.083603,37.5240998 L83.083603,37.5240998 L83.0329722,37.6041648 C83.3787445,37.6309942 83.725946,37.5750727 84.045588,37.4410695 C83.9952183,37.8470568 83.8952008,38.2453927 83.7477598,38.6272174 C84.134402,38.6396621 84.4928239,38.4264683 84.6650705,38.0815894 L84.6650705,38.0578664 L84.7037882,38.0044897 C84.7786823,37.8672156 84.8405032,37.7232612 84.8884417,37.5745111 L84.8556806,37.6100956 C84.9152462,37.4173465 84.9688553,37.2216321 85.0343775,37.0318485 C85.0643969,36.9249475 85.1138611,36.8244378 85.1803133,36.7353115 C85.3415211,36.5735014 85.5703425,36.4975583 85.7968175,36.530701 L85.674708,39.1016765 L85.7283171,39.1016765 C85.6565805,39.2886919 85.5688975,39.4692501 85.4662283,39.6413738 C85.0433123,40.3234089 84.2749157,40.7889719 83.9919789,41.5362451 C83.8699856,41.8966628 83.8233622,42.278125 83.854978,42.6571548 C83.854978,42.8795576 83.8817825,43.1049257 83.8996522,43.3273284 L83.8996522,43.3095362 C83.9413481,43.9026101 83.9532613,44.4660304 83.6316068,44.9434549 C83.411214,45.2696456 83.0567985,45.5157713 82.934689,45.8864425 C82.9009104,45.9897293 82.8857851,46.0981595 82.8900147,46.2067024 C82.9139101,46.5316654 82.982041,46.851889 83.0925379,47.1585861 C83.0938293,47.152725 83.0938293,47.1466549 83.0925379,47.1407939 C83.1668185,47.3664021 83.1842065,47.6067421 83.1431687,47.8406211 C83.009146,48.4336951 82.2854236,48.9289118 82.321163,49.4952974 C82.3191196,49.5697874 82.3302078,49.6440574 82.3539241,49.7147348 C82.4931707,49.9913823 82.7342918,50.2038387 83.0270157,50.3078087 C83.4861995,50.5677929 84.013569,50.6835593 84.5399827,50.6399301 C84.7372843,50.6044376 84.928064,50.5394538 85.1058562,50.4471811 C84.8973765,50.9246056 84.6829402,51.3960994 84.4655257,51.8438703 C84.4327646,51.9150391 84.3970252,51.986208 84.3612858,52.0573769 C84.3612858,52.0573769 82.5207078,50.8326792 81.475331,53.3295205 C81.1701619,53.84839 80.9518771,54.4132695 80.8290439,55.001989 C80.7766713,55.2374872 80.7029034,55.4677569 80.6086511,55.6899548 C80.1445558,56.4722338 79.449972,57.0934068 78.619159,57.4691766 C76.4867094,58.4418179 67.8735191,69.1379065 67.7216267,71.9075618 C67.6470845,72.988719 67.4634922,74.0596673 67.1736229,75.1042304 C66.495599,77.5641253 66.32139,80.1346692 66.6613585,82.6629578 C66.7677814,83.4800574 66.9441417,84.286607 67.1885143,85.0738034 C68.1028468,87.8404934 68.7133945,93.0032021 68.7133945,93.0032021 L69.702184,101.964549 C69.6654775,103.201382 69.7192285,104.439234 69.8630112,105.668296 C68.8533737,106.815894 64.7999325,111.599036 66.3486389,112.900833 C67.5399516,113.926851 69.6247487,113.757825 70.7952133,113.547284 C69.8094021,115.975921 68.2577174,120.198608 68.052216,123.098739 C67.7543878,127.389629 68.5615021,133.074243 69.8391849,135.256755 C71.1168677,137.439267 75.3758104,143.037885 75.3758104,143.037885 C75.3758104,143.037885 75.1762655,150.718193 76.6981674,153.508606 C78.2200692,156.299019 78.8335952,162.087421 78.8335952,162.087421 C78.8335952,162.087421 80.2542356,166.97435 79.5424263,168.771364 C78.830617,170.568378 80.861805,172.062924 78.7293554,173.257968 C76.5969058,174.453012 73.8687999,201.387466 73.8687999,201.387466 C73.8687999,201.387466 72.769814,219.040312 73.8687999,219.938819 C73.9276079,219.981385 73.99045,220.018132 74.0564316,220.048537 L74.0564316,225.979277 C74.0564316,225.979277 73.2939915,227.224732 76.3943827,227.476788 C78.5178974,227.645814 84.5370044,228.028347 88.107964,228.25075 L90.8747876,228.422741 C90.8747876,228.422741 97.427007,229.721573 100.321897,228.422741 C103.216786,227.123909 108.348366,227.153563 107.585925,223.72263 C107.484826,223.255725 107.349447,222.796837 107.180879,222.349664 C106.343982,220.220529 104.923342,219.977368 102.305432,219.384294 C102.15354,219.351675 102.007604,219.322022 101.873581,219.298299 C99.1156927,218.820874 98.2102951,220.098949 96.6645669,218.435376 C95.321362,216.997172 91.0445496,215.386976 89.58817,214.876932 C89.6239093,214.770179 89.6685836,214.666391 89.7043229,214.556673 C89.2919203,214.48701 88.9083521,214.300689 88.5993805,214.019941 L92.5456036,214.269032 L94.8954677,214.414335 C94.8954677,214.414335 100.464854,215.520418 102.936828,214.414335 C105.408802,213.308252 109.757093,213.337906 109.107827,210.422947 C109.022304,210.025732 108.907834,209.635246 108.765325,209.254591 C108.053516,207.445716 106.844333,207.247036 104.619557,206.745889 C104.491491,206.7192 104.37236,206.692512 104.253228,206.671754 C101.909321,206.265499 101.140924,207.350824 99.827502,205.939308 C98.7017115,204.735368 95.1486216,203.386125 93.8709388,202.926492 C93.8709388,202.26818 92.9774544,201.331124 92.4145592,200.391101 C91.7533807,199.293915 92.9744761,195.453761 92.9744761,195.453761 L93.671394,179.520829 C93.9367901,179.40313 94.217525,179.323268 94.5053128,179.2836 C94.5053128,179.2836 97.6563347,176.288576 96.9445254,173.097838 C96.7994927,172.132788 96.7238506,171.158658 96.718176,170.18288 C97.754618,169.225066 99.1812149,167.810584 99.5862612,166.938765 C100.24744,165.518353 99.5862612,158.63573 99.5862612,158.63573 L99.5862612,132.318074 L104.85782,132.848875 L109.64094,133.338161 L111.097319,133.48643 L115.88044,133.966819 L126.873277,135.072902 L136.779041,133.204719 L141.064788,132.398139 L149.877524,130.737532 L149.877524,109.268255 L159,107.767778 Z M86.4460829,36.6255928 L85.8325569,36.5603547 C86.0350801,36.5692508 86.2495163,36.6078006 86.4460829,36.6255928 Z" id="Shape" fill="url(#linearGradient-1)"></path>
                <path d="M137.748739,121.474384 C134.815689,125.61152 124.271372,123.420081 124.271372,123.420081 L116.099894,115.883035 L115,114.862483 L116.844889,111 C116.844889,111 117.431499,111.159009 118.437535,111.442335 C123.719959,112.95437 140.224234,117.996414 137.748739,121.474384 Z" id="Path" fill="#EFB7B9"></path>
                <path d="M118,111.452931 C117.684615,112.719953 116.820513,114.617525 115.961538,116 L115,114.955003 L116.612821,111 C116.612821,111 117.130769,111.162818 118,111.452931 Z" id="Path" fill="#000000" opacity="0.1"></path>
                <path d="M90.2287236,66.1249307 C90.2287236,66.1249307 82.640969,69.5116201 83.0132654,77.8281875 C83.281146,83.1861141 83.8612711,88.5236024 84.7506484,93.8131236 C84.7506484,93.8131236 83.1994136,106.328115 89.6584601,109.554242 C96.1175066,112.780368 102.094932,115.432631 102.094932,115.432631 C102.094932,115.432631 112.200119,116.526838 113.45588,116.978793 C114.711642,117.430748 118.635528,110.520593 117.911618,109.444227 C117.187708,108.36786 107.912801,106.111058 106.730908,104.315132 C105.549015,102.519205 102.815887,101.410131 102.815887,101.410131 C102.815887,101.410131 99.9941164,99.6915125 99.8020588,98.1394038 C99.6100011,96.587295 100.354594,95.4306469 100.543697,94.749741 C100.7328,94.068835 101.211466,87.4946733 101.211466,87.4946733 C101.211466,87.4946733 104.396669,64.0941064 90.2287236,66.1249307 Z" id="Path" fill="#DCE6F2"></path>
                <path d="M95,94 C95,94 84.008653,95.6182117 85.072533,99 C85.072533,99 89.0628631,95.349424 95,94 Z" id="Path" fill="#000000" opacity="0.1"></path>
                <path d="M95,95 C95,95 88.9738278,99.7484945 90.1529291,99.991776 C91.3320305,100.235058 95,95 95,95 Z" id="Path" fill="#000000" opacity="0.1"></path>
                <path d="M97.9332307,97 C97.9332307,97 96.3382553,100.206639 97.3185966,99.9894445 C98.2989379,99.7722498 97.9332307,97 97.9332307,97 Z" id="Path" fill="#000000" opacity="0.1"></path>
                <path d="M118.349835,111.05024 L117.719556,110.868358 C117.899215,110.272022 117.949284,109.788991 117.802023,109.565365 C117.080442,108.485997 107.841269,106.225885 106.666124,104.42197 C105.490979,102.618054 102.7637,101.50887 102.7637,101.50887 C102.7637,101.50887 99.9510098,99.7854599 99.7595701,98.2290239 C99.5681305,96.6725878 100.310327,95.512715 100.498822,94.8299107 C100.687316,94.1471064 101.164443,87.551634 101.164443,87.551634 C101.164443,87.551634 104.33056,64.0888078 90.2082033,66.1252941 C90.2082033,66.1252941 82.6448637,69.5244073 83.0130169,77.8641614 C83.280137,83.2371554 83.8593845,88.5895769 84.7477548,93.8936637 C84.7477548,93.8936637 83.2015114,106.443548 89.6397747,109.678668 C96.078038,112.913789 102.03623,115.573446 102.03623,115.573446 C102.03623,115.573446 112.105956,116.667722 113.360622,117.123919 C113.834804,117.296856 114.691864,116.405335 115.531254,115.179865 L116.00838,115.630098 L124.213779,123.400352 C124.213779,123.400352 134.801865,125.663446 137.747091,121.396664 C140.235807,117.806723 123.665967,112.606676 118.349835,111.05024 Z" id="Path" fill="#000000" opacity="0.1"></path>
                <path d="M85.6561067,34.8610308 C85.3867929,34.9229552 85.1288478,35.0401546 84.8940775,35.2072647 C84.6189768,35.4758387 84.6189768,35.9353268 84.5502016,36.3365699 C84.4694106,36.8947281 84.281217,37.4237784 84,37.8832973 C84.3130417,37.9103103 84.6270544,37.849306 84.9160856,37.7053265 C84.868998,38.1482194 84.7766296,38.5828072 84.6409848,38.9996591 C84.9911014,39.0101345 85.3139856,38.778464 85.4662872,38.4075019 C85.6118497,38.0428714 85.7270138,37.6624997 85.8101631,37.2717251 C85.8360032,37.1548469 85.8808451,37.0449622 85.9422115,36.948142 C86.1953042,36.5954364 86.6657265,36.7539921 87.0563697,36.7992937 C87.7184099,36.8649528 88.3586741,36.5032661 88.7289824,35.854431 C89.1443846,35.1134256 89.1691436,33.2172284 88.1787808,33.0166069 C87.1444019,32.8159854 86.5006661,34.492146 85.6561067,34.8610308 Z" id="Path" fill="#965D7B"></path>
                <g id="Group" opacity="0.1" transform="translate(83.000000, 35.000000)" fill="#000000">
                    <path d="M1.04066478,0.507920792 C1.06930693,0.362376238 1.0884017,0.210891089 1.12340877,0.0653465347 L1.12340877,0.0653465347 C0.821074965,0.311881188 0.805162659,0.730693069 0.725601132,1.1019802 C0.685515323,1.31620253 0.622615004,1.52615456 0.537835926,1.72871287 C0.788418134,1.35594372 0.95917921,0.941361763 1.04066478,0.507920792 L1.04066478,0.507920792 Z" id="Path"></path>
                    <path d="M1.14250354,2.96138614 C1.30098073,2.57920125 1.4078842,2.18009496 1.46074965,1.77326733 C1.14210248,1.89844785 0.797113611,1.95431355 0.451909477,1.93663366 C0.351425361,2.14553924 0.228821671,2.34454812 0.0859264498,2.53069307 C0.446789451,2.55675466 0.809091171,2.50175464 1.14250354,2.37029703 C1.08963809,2.77712466 0.982734623,3.17623095 0.824257426,3.55841584 C1.22906766,3.56727618 1.60218749,3.35484662 1.77899576,3.01485149 C1.85828226,2.87984318 1.92227717,2.73749007 1.96994342,2.59009901 C1.78017317,2.8376356 1.46815646,2.9776431 1.14250354,2.96138614 L1.14250354,2.96138614 Z" id="Path"></path>
                    <path d="M3.93670438,0.941584158 C3.48479491,0.9 2.9374116,0.754455446 2.64462518,1.07821782 C2.57492635,1.16781725 2.52317328,1.26844822 2.49186704,1.37524752 C2.46322489,1.45247525 2.43776521,1.53267327 2.41548798,1.61287129 C2.71782178,1.39009901 3.20792079,1.50891089 3.61845827,1.54752475 C4.38394787,1.60586625 5.12363401,1.27430518 5.55339463,0.68019802 C5.64985538,0.53596714 5.72178397,0.378654662 5.76661952,0.213861386 C5.32404996,0.725099208 4.63832794,0.997797936 3.93670438,0.941584158 Z" id="Path"></path>
                </g>
                <polygon id="Path" fill="#DCE6F2" points="94.5190989 60 99 65.4746269 98.4152791 71 93 62.3880597"></polygon>
                <polygon id="Path" fill="#000000" opacity="0.1" points="99 65.4746269 98.4502695 70.6716418 98.4149927 71 93.5262126 63.2268657 93 62.3880597 93.1528662 62.1462687 94.5169035 60 94.8196962 60.3701493"></polygon>
                <path d="M101.199151,52.1490281 C99.6308936,52.5965443 98.1325394,54.1326134 96.8286978,55.9982721 C95.9474337,57.2855178 95.1592913,58.6334818 94.4702336,60.0319654 C94.0416982,60.8846652 93.6648302,61.7041037 93.3517866,62.4177106 L93.1329601,62.9257019 C92.6041292,64.1684665 92.3093211,65 92.3093211,65 C92.3093211,65 80.3042521,56.0194384 82.2037884,55.4146868 C82.8420325,55.212095 83.6808677,53.8514039 84.5105852,52.136933 L84.6139199,51.9192225 C85.1397116,50.8185745 85.6563854,49.5909287 86.1153134,48.4358531 C87.0544441,46.062203 87.7504342,44 87.7504342,44 C87.7504342,44 105.985982,50.7883369 101.199151,52.1490281 Z" id="Path" fill="#EFB7B9"></path>
                <path d="M108,44 C108,44 110.772317,48.5640496 114.496097,47.9416792 C118.219877,47.3193088 116.687808,45.4909229 116.687808,45.4909229 L108,44 Z" id="Path" fill="#444053"></path>
                <path d="M102.898241,213.515032 C100.489605,214.60621 95.0433443,213.515032 95.0433443,213.515032 L92.7479856,213.37309 C89.7670003,213.183834 84.7768308,212.864465 83.0120875,212.722523 C80.4365161,212.512568 81.068485,211.465747 81.068485,211.465747 L81.068485,205.140463 L93.5647756,202 C93.5647756,202 98.5042683,203.676688 99.8576356,205.140463 C101.14244,206.536225 101.893649,205.46279 104.186026,205.864958 C104.299304,205.885658 104.418543,205.909315 104.543745,205.938886 C106.719864,206.432725 107.900334,206.627896 108.597885,208.416954 C108.738057,208.792819 108.850634,209.178251 108.934736,209.570232 C109.578629,212.450468 105.303896,212.429768 102.898241,213.515032 Z" id="Path" fill="#A36468"></path>
                <path d="M108,207.719181 C107.561921,208.014919 107.101424,208.27 106.623457,208.481686 C105.019434,209.272548 103.494155,210.236707 101.872633,210.983458 C100.251112,211.730209 98.5041859,212.262702 96.7485102,212.120914 C95.8298426,212.048444 94.8907603,211.805829 94.0129224,212.089405 C93.4700345,212.315872 92.9587163,212.622301 92.4934755,213 C89.5770707,212.798346 84.695009,212.458054 82.9684973,212.306814 C80.4487235,212.083104 81.0670014,210.967704 81.0670014,210.967704 L81.0670014,210.179992 C81.1574099,210.179992 81.2594841,210.151635 81.3761403,210.142182 C81.9796808,210.13176 82.5807005,210.228628 83.1551472,210.428909 C84.4208669,210.800709 85.6807538,211.166207 86.9464735,211.531705 C87.1568665,210.673963 87.6840531,209.947197 88.4046759,209.521465 C89.1271095,209.107136 89.9379374,208.906067 90.7552982,208.938558 C92.7180387,208.966916 94.5757886,209.972036 96.5356126,210.072863 C97.0835316,210.127292 97.6351562,210.027421 98.1367189,209.782985 C98.4050281,209.638046 98.6412569,209.42694 98.9037333,209.266247 C99.3237978,209.046708 99.7676155,208.884759 100.224865,208.784167 C101.510059,208.438533 102.771908,207.998492 104.001609,207.467113 C104.351578,207.319023 104.759874,207.051201 104.713212,206.647893 C104.651967,206.112249 103.873287,206.049232 103.669139,205.5577 C103.596116,205.378016 103.604742,205.171834 103.69247,205 C103.803293,205.022056 103.91995,205.047263 104.042439,205.078771 C106.162665,205.604963 107.317561,205.812918 108,207.719181 Z" id="Path" fill="#000000" opacity="0.1"></path>
                <path d="M100.804949,227.434567 C97.9683084,228.706791 91.5485418,227.434567 91.5485418,227.434567 L88.846268,227.279203 C85.3467488,227.059349 79.4525073,226.692925 77.3713086,226.519973 C74.3346097,226.273736 75.0810942,225.054277 75.0810942,225.054277 L75.0810942,217.664239 L89.8107259,214 C89.8107259,214 95.6333049,215.955238 97.2277957,217.664239 C98.7416663,219.291162 99.6165461,218.039457 102.330764,218.50848 C102.465131,218.531931 102.60547,218.561245 102.751781,218.59349 C105.316702,219.179769 106.708149,219.399623 107.529282,221.486774 C107.695528,221.924967 107.828272,222.374716 107.926411,222.832283 C108.666924,226.191657 103.64159,226.165275 100.804949,227.434567 Z" id="Path" fill="#A36468"></path>
                <path d="M107,221.0462 C106.480874,221.378724 105.935449,221.665973 105.369469,221.904921 C103.468652,222.793773 101.65891,223.878473 99.7375278,224.719116 C97.8161456,225.559759 95.7449308,226.156344 93.6619644,225.999665 C92.5749439,225.918313 91.4614824,225.638098 90.4302818,225.963509 C89.7841449,226.221585 89.1760722,226.570412 88.6234774,227 C85.1802665,226.774021 79.3808651,226.397389 77.3331535,226.219618 C74.345316,225.966522 75.0797893,224.71309 75.0797893,224.71309 L75.0797893,223.827251 C75.2014338,223.806879 75.3240011,223.7928 75.447026,223.785069 C76.1627392,223.771662 76.8756309,223.880619 77.5564334,224.107466 L82.0484722,225.348845 C82.3013677,224.381114 82.9314283,223.562764 83.790643,223.08604 C84.6469353,222.617885 85.6090462,222.391219 86.5787037,222.429193 C88.9055152,222.462337 91.1059973,223.592233 93.4298709,223.706729 C94.0770549,223.767275 94.7285524,223.65626 95.3218741,223.384332 C95.6421045,223.218614 95.9094528,222.980583 96.2326211,222.802812 C96.7294927,222.553268 97.2558604,222.37096 97.7985182,222.260462 C99.3136003,221.86836 100.801514,221.373121 102.252364,220.778038 C102.666607,220.609307 103.15136,220.308001 103.09554,219.856043 C103.022092,219.253432 102.099594,219.181118 101.855749,218.626716 C101.772493,218.424028 101.783296,218.193562 101.885128,218 C102.017333,218.024104 102.155414,218.054235 102.299371,218.087379 C104.823021,218.665886 106.192079,218.900904 107,221.0462 Z" id="Path" fill="#000000" opacity="0.1"></path>
                <path d="M93.9141913,176 L93.1064132,194.701625 C93.1064132,194.701625 91.8962586,198.520531 92.5527674,199.612922 C93.2092763,200.705314 94.3165677,201.794729 93.9141913,202.440639 C93.5118149,203.086549 88.6711967,210.069521 87.1070719,207.390631 C85.5429471,204.711742 84,193.103221 84,193.103221 L85.4431093,178.765209 L93.9141913,176 Z" id="Path" fill="#444053"></path>
                <path d="M97.4901644,129 L99.7112991,131.942981 L99.7112991,157.539797 C99.7112991,157.539797 100.360876,164.363242 99.7112991,165.772431 C99.0617219,167.181621 95.7689347,170 95.7689347,170 L93,155.908104 L93.5986886,141.000362 L97.4901644,129 Z" id="Path" fill="#444053"></path>
                <path d="M93.9141913,176 L93.1064132,194.701625 C93.1064132,194.701625 91.8962586,198.520531 92.5527674,199.612922 C93.2092763,200.705314 94.3165677,201.794729 93.9141913,202.440639 C93.5118149,203.086549 88.6711967,210.069521 87.1070719,207.390631 C85.5429471,204.711742 84,193.103221 84,193.103221 L85.4431093,178.765209 L93.9141913,176 Z" id="Path" fill="#000000" opacity="0.1"></path>
                <path d="M97.4901644,129 L99.7112991,131.942981 L99.7112991,157.539797 C99.7112991,157.539797 100.360876,164.363242 99.7112991,165.772431 C99.0617219,167.181621 95.7689347,170 95.7689347,170 L93,155.908104 L93.5986886,141.000362 L97.4901644,129 Z" id="Path" fill="#000000" opacity="0.1"></path>
                <path d="M100,118.104575 L100,131.920014 L97.5062214,142.674564 C97.5062214,142.674564 96.706895,168.626986 97.4044345,171.782601 C98.101974,174.938216 95.009449,177.901416 95.009449,177.901416 C95.009449,177.901416 93.2132099,178.099752 93.2132099,179.479224 C93.2132099,180.858696 90.2194781,184.807655 90.2194781,184.807655 L90.3182712,192.504279 C90.3182712,192.504279 91.6175509,206.911765 89.6207317,209.673669 C87.6239126,212.435572 90.3182712,212.832244 90.3182712,212.832244 C87.8244926,220.922579 75.8495653,219.048748 74.7688281,218.160676 C73.6880909,217.272604 74.7688281,199.80719 74.7688281,199.80719 C74.7688281,199.80719 77.4452243,173.165033 79.5408366,171.980937 C81.6364489,170.796841 79.6426235,169.316721 80.340163,167.540578 C81.0377025,165.764434 79.6426235,160.930362 79.6426235,160.930362 C79.6426235,160.930362 79.0438771,155.205259 77.5470112,152.443355 C76.0501453,149.681452 76.2477316,142.082516 76.2477316,142.082516 C76.2477316,142.082516 72.056507,136.555749 70.8111146,134.385893 C69.5657222,132.216038 68.763402,126.591582 69.0627752,122.346599 C69.266349,119.478126 70.7901585,115.301228 71.7571339,112.897514 C72.2211623,111.74598 72.5564603,111 72.5564603,111 L72.8408648,111.074006 L89.1926281,115.307149 L100,118.104575 Z" id="Path" fill="#444053"></path>
                <path d="M101.1936,52.1569793 C99.6142488,52.6037716 98.1052954,54.1373562 96.7922305,56 L96.4494257,56 C92.5318346,56.0027296 88.9121957,53.9378299 86.9610778,50.5871683 C86.5604969,49.9050792 86.2381522,49.1811235 86,48.4286782 C86.945774,46.0588675 87.6466875,44 87.6466875,44 C87.6466875,44 106.014293,50.798489 101.1936,52.1569793 Z" id="Path" fill="#000000" opacity="0.1"></path>
                <path d="M107,44.4952095 C107.007119,48.8938623 104.265246,52.8295589 100.13334,54.3516232 C96.0014336,55.8736876 91.3576096,54.6586498 88.5035177,51.3087271 C85.6494258,47.9588045 85.1916194,43.1859246 87.357004,39.3557023 C87.6753042,38.7877998 88.047052,38.2514781 88.4672084,37.7540065 C89.1598159,36.9298586 89.9738724,36.2156975 90.8814625,35.6360132 C93.9999387,33.6566947 97.9304886,33.460156 101.231297,35.1184922 C104.532106,36.7768283 106.7173,40.0459353 106.985301,43.7266302 C106.991175,43.984779 107,44.2399942 107,44.4952095 Z" id="Path" fill="#EFB7B9"></path>
                <path d="M98,70.6652787 L97.9640318,71 L92.9794419,63.0884049 C92.4579034,64.3390455 92.1671606,65.1758488 92.1671606,65.1758488 C92.1671606,65.1758488 80.3276357,56.1262012 82.2009782,55.5176169 C82.8304213,55.3137412 83.6576894,53.9444266 84.4759654,52.2190903 L84.5778753,52 C85.4471062,54.6290839 90.4976377,59.8842088 92.5987787,61.9899103 C92.8415639,62.233344 93.0423863,62.4341768 93.1982484,62.580237 L93.5189646,62.8845291 L93.6868161,63.0549327 C94.4511399,63.855221 97.6762864,67.3850096 98,70.6652787 Z" id="Path" fill="#000000" opacity="0.1"></path>
                <path d="M102,96.5065615 L101.459176,113.902224 L101.364086,117 C101.364086,117 94.9574047,116.405987 88.9786275,115.752573 C84.1647016,115.226872 79.6271307,114.65959 78.9288143,114.326943 C78.0373465,113.908164 76.1266339,113.584427 74.6200534,113.379493 C73.4552022,113.222079 72.539962,113.138917 72.539962,113.138917 C72.539962,113.138917 72.1982327,113.2399 71.6722667,113.334942 C70.5252448,113.542846 68.5105277,113.71214 67.3367618,112.693408 C65.8361244,111.38955 69.7793835,106.652299 70.7629696,105.514764 L70.9798934,105.268249 L70.6084485,101.837826 L69.6426917,92.9424853 C69.6426917,92.9424853 69.0483799,87.8191257 68.1569121,85.0718169 C67.9185796,84.2907194 67.7466098,83.4909155 67.6428324,82.6809158 C67.3116078,80.1717197 67.4812849,77.6217887 68.1420543,75.1785352 C68.4243671,74.1403564 68.6035282,73.0768744 68.676935,72.0035373 C68.825513,69.2562285 77.2201677,58.6382514 79.3002592,57.6729807 C80.2359782,57.2368468 80.9889264,56.4863798 81.4278956,55.5523553 C81.5728155,55.2586743 81.6815757,54.9485145 81.7517955,54.6286656 C82.6432633,50.767583 84.8986767,52.3001358 84.8986767,52.3001358 C85.4424721,55.3206904 93.8608993,63.3161014 93.8608993,63.3161014 L94.0273066,63.482425 C94.8623148,64.3378033 98.5827069,68.3533292 98.3182381,71.7807825 C98.2653913,73.0564531 98.4559922,74.3305178 98.8798628,75.5349429 C100.592231,80.9240414 101.5766,86.5176373 101.806849,92.1672987 L102,96.5065615 Z" id="Path" fill="#DCE6F2"></path>
                <path d="M89.9348764,76 C89.9348764,76 87.83744,80.7364337 86.2643627,81.5026215 C84.6912855,82.2688093 90.6839608,83.1185812 89.9348764,76 Z" id="Path" fill="#000000" opacity="0.1"></path>
                <path d="M92,85 C92,85 87,85.7050781 87,86.7626953 C87,87.8203125 92,85 92,85 Z" id="Path" fill="#000000" opacity="0.1"></path>
                <path d="M96,91 C96,91 89.1461337,105.549825 87.2299991,105.990729 C85.3138644,106.431633 96,91 96,91 Z" id="Path" fill="#000000" opacity="0.1"></path>
                <path d="M94,64.5108748 L88.1095664,67 L81,56.561157 C81.1493866,56.2667482 81.261499,55.95582 81.3338831,55.6351786 C82.2528275,51.7645294 84.5777568,53.3008794 84.5777568,53.3008794 C85.1383129,56.328918 93.8162111,64.3441392 93.8162111,64.3441392 L94,64.5108748 Z" id="Path" fill="#000000" opacity="0.1"></path>
                <path d="M94,63.5108748 L88.1095664,66 L81,55.561157 C81.1493866,55.2667482 81.261499,54.95582 81.3338831,54.6351786 C82.2528275,50.7645294 84.5777568,52.3008794 84.5777568,52.3008794 C85.1383129,55.328918 93.8162111,63.3441392 93.8162111,63.3441392 L94,63.5108748 Z" id="Path" fill="#DCE6F2"></path>
                <path d="M100.906036,116.619577 C100.906036,116.619577 94.5752222,116.02633 88.6672455,115.373759 L99.2675416,118.176849 L99.2675416,121.439706 C98.8035952,121.863878 98.4013124,122.083379 98.1399755,121.970662 C96.9184455,121.451571 86.949469,119.820143 86.949469,119.820143 C86.949469,119.820143 81.1589471,116.853909 74.9103515,113.294429 C74.7586796,113.20955 74.6116478,113.116473 74.469896,113.015603 C73.741309,112.515892 73.1135059,111.880698 72.6199828,111.143909 C71.4659893,109.456122 70.9022063,107.287805 70.6584876,105.161016 C70.5214729,103.942155 70.4704471,102.714993 70.5057963,101.488818 C70.5360637,100.098457 70.6616495,98.7118833 70.8816517,97.3390575 C70.2773417,92.0219054 69.9831966,86.6734463 70.0007407,81.3213954 C70.0741499,73.015941 77.7821215,70.0497073 77.7821215,70.0497073 C91.9501073,68.789058 87.5572976,91.925681 87.5572976,91.925681 C87.5572976,91.925681 86.7380503,98.4513952 86.5148862,99.1187977 C86.2917221,99.7862003 85.490093,100.898538 85.5987387,102.455811 C85.7073844,104.013083 88.4147177,105.875878 88.4147177,105.875878 C88.4147177,105.875878 91.0574508,107.127629 92.1468441,108.981525 C92.939664,110.348959 98.0900572,112.202855 101,113.525795 L100.906036,116.619577 Z" id="Path" fill="#000000" opacity="0.1"></path>
                <path d="M105.999792,38.5327915 C106.005209,39.032689 105.904808,39.5277838 105.705595,39.983518 C105.554775,40.3554025 105.379822,40.7163736 105.181925,41.0639754 C104.872291,41.7033829 104.432799,42.2664955 103.893343,42.7150113 C103.213748,43.2157851 102.354694,43.3553948 101.539769,43.5587393 C100.724844,43.7620838 99.8775571,44.086828 99.4127262,44.8030863 C99.160807,45.2635308 98.9923244,45.7674768 98.9155336,46.2902326 C98.8375989,46.8125383 98.6354459,47.30679 98.3271401,47.7288191 C97.9969462,48.1526318 97.4307014,48.2924283 96.9502992,48.0687383 C96.7042544,47.8976199 96.5176757,47.6498439 96.417803,47.361585 C96.0824187,46.5815919 95.9971016,45.716619 95.8617711,44.8759261 C95.7264406,44.0352331 95.5352127,43.1702602 95.0350782,42.4934569 C94.5349437,41.8166535 93.6494114,41.3705096 92.863906,41.634554 C92.332662,41.845537 91.9077166,42.2707677 91.6871189,42.8121311 C91.4697206,43.3485031 91.3204057,43.9116024 91.2428818,44.487447 C90.8780778,46.5471953 90.4475699,48.5948037 89.951358,50.6302721 C89.9362191,50.713711 89.9030342,50.7925534 89.8542731,50.8609315 C89.7760598,50.9413533 89.6704981,50.9870911 89.5600763,50.9884012 C88.9010755,51.079451 88.2685525,50.6029571 87.6036678,50.654552 C87.535156,50.6592596 87.4672065,50.6704346 87.400672,50.6879369 C85.1986172,46.7398848 85.6229031,41.7930063 88.4627223,38.3051671 L88.5156777,38.2899921 C88.9579645,38.1280204 89.3598911,37.8668 89.6924648,37.525174 C90.1171545,37.0867508 90.5104494,36.6171174 90.8692519,36.1199724 L91.1046093,35.8164731 C91.780838,34.9760618 92.551107,34.2211682 93.3993441,33.5675436 C93.6308862,33.3718533 93.8964872,33.2235228 94.1819076,33.1305047 C94.4261679,33.0814145 94.6764967,33.0732163 94.9232834,33.1062247 C95.9392881,33.2320485 96.9635892,33.2716363 97.9858718,33.2245895 C98.6981937,33.1090757 99.4161392,33.0340991 100.13645,33 C101.998716,33.0546299 103.587378,34.4112716 104.764165,35.8984179 C105.396688,36.6602011 105.961546,37.5373139 105.999792,38.5327915 Z" id="Path" fill="#000000" opacity="0.1"></path>
                <path d="M86.0681672,40.2684682 C85.6548244,40.935891 84.9084284,41.3896214 84.6289017,42.1214446 C84.2185326,43.184052 84.9114021,44.5071884 84.2750327,45.4556312 C84.0639007,45.7747062 83.7159791,46.0118169 83.5970316,46.3777285 C83.3948207,46.9953873 83.9479269,47.6540282 83.8051898,48.2892508 C83.6624527,48.9244733 82.8119776,49.4601679 83.037978,50.080754 C83.1715333,50.3514033 83.4058039,50.5610537 83.6921896,50.6662126 C84.1427785,50.9206595 84.6613982,51.0339967 85.1790342,50.9911421 C85.9908513,50.8594139 86.5945102,50.0748994 87.418222,50.0163536 C88.0873021,49.9695169 88.7266452,50.4261746 89.3927516,50.3412831 C89.5043888,50.3374593 89.6105053,50.2925412 89.6901205,50.2154095 C89.7406543,50.1501708 89.7743307,50.0738233 89.7882523,49.9929352 C90.287832,48.031649 90.7239731,46.0567021 91.0966755,44.0680944 C91.1726175,43.5125246 91.3225927,42.9692268 91.5427288,42.4522287 C91.7674303,41.9312385 92.19636,41.5216681 92.7322045,41.3164391 C93.5261794,41.0646919 94.4182862,41.4920767 94.926787,42.144863 C95.4352878,42.7976493 95.6285776,43.6319278 95.7653673,44.4427879 C95.902157,45.253648 95.988394,46.0879265 96.3244209,46.8402408 C96.426524,47.11926 96.6160451,47.3591282 96.8656323,47.5252273 C97.3116857,47.7799018 97.9123709,47.5779186 98.2543451,47.1973705 C98.5676303,46.7901558 98.7721191,46.3120723 98.8490829,45.8069064 C98.9266628,45.3036154 99.0969754,44.8185062 99.3516364,44.3754602 C99.8214793,43.6846191 100.680875,43.3713987 101.501614,43.1752701 C102.322352,42.9791415 103.187695,42.8415587 103.880565,42.3585554 C104.425109,41.9264123 104.869242,41.3844001 105.183041,40.7690353 C105.623147,40.0137938 106.033516,39.1941518 105.997832,38.3247458 C105.959174,37.3763029 105.388225,36.5303152 104.778619,35.7926374 C103.589143,34.3582639 101.980378,33.049764 100.098032,33 C99.3697404,33.0299784 98.6438855,33.1023112 97.9242656,33.2166197 C96.890883,33.2623651 95.8554249,33.2231988 94.8286553,33.099528 C94.5789835,33.0701292 94.3261908,33.0790167 94.0792856,33.1258736 C93.7904519,33.2127069 93.5224148,33.3560848 93.291258,33.5474038 C92.4330375,34.1767847 91.6534694,34.9039035 90.9688068,35.7136005 C90.527351,36.289809 90.0485836,36.8373747 89.5354887,37.3528845 C89.1991918,37.6829113 88.7930379,37.9357955 88.346013,38.0934896 C88.0486441,38.1754538 87.7512752,38.116908 87.4687748,38.2076541 C86.5915365,38.4798923 86.4755626,39.6069001 86.0681672,40.2684682 Z" id="Path" fill="#965D7B"></path>
                <path d="M114.497353,47.9411763 C112.065026,48.3480253 110.049235,46.5573363 108.933405,45.2509914 C108.5907,44.8542544 108.278808,44.4362431 108,44 L116.348962,45.4336582 L116.686447,45.4917795 C116.686447,45.4917795 118.221853,47.321216 114.497353,47.9411763 Z" id="Path" fill="#000000" opacity="0.1"></path>
                <g id="Group" opacity="0.1" transform="translate(83.000000, 37.000000)" fill="#000000">
                    <path d="M1.02769717,10.133081 C1.06065139,9.73319447 1.00213042,9.33088151 0.856905087,8.95894001 C0.856905087,8.9895166 0.830402868,9.02009319 0.821568795,9.05066977 C0.694947081,9.46039604 0.86573916,9.8854106 0.974692728,10.3104252 C0.998092456,10.2533243 1.01585157,10.1939052 1.02769717,10.133081 L1.02769717,10.133081 Z" id="Path"></path>
                    <path d="M1.72853363,5.12769365 C1.69823852,5.55050647 1.70612543,5.97533568 1.75209116,6.39662202 C1.78228304,5.97380625 1.77439632,5.54898706 1.72853363,5.12769365 L1.72853363,5.12769365 Z" id="Path"></path>
                    <path d="M22.1794128,2.26878276 C21.8694923,2.91296558 21.4295937,3.48028366 20.8896381,3.9321491 C20.2094145,4.43666278 19.3525094,4.57731508 18.5338853,4.78217822 C17.7152612,4.98704135 16.8701349,5.31421083 16.4048737,6.03581829 C16.1531406,6.49989739 15.9845292,7.00752532 15.9072209,7.53407105 C15.830522,8.06159265 15.6280759,8.56084748 15.3182827,8.98645894 C14.9796432,9.38395457 14.3848156,9.59799068 13.943112,9.32891672 C13.6959586,9.15542044 13.5082857,8.90486982 13.4071782,8.61342458 C13.0744281,7.82760629 12.9860874,6.95923122 12.8535763,6.1092021 C12.7210652,5.25917298 12.5237709,4.3907979 12.0231734,3.70894001 C11.522576,3.02708212 10.636224,2.57760629 9.84999146,2.8436226 C9.31881635,3.05709101 8.89377555,3.48519732 8.67211506,4.02999418 C8.45412564,4.57001653 8.30561293,5.13750984 8.2304114,5.71782178 C7.86330659,7.79499126 7.43141857,9.85789167 6.93474735,11.906523 C6.92096154,11.9910134 6.88761359,12.0707611 6.83757255,12.1389051 C6.75873374,12.2194718 6.65365203,12.2663904 6.54310345,12.2703844 C5.88349266,12.3590565 5.25038409,11.8820617 4.58782861,11.9309843 C3.7721492,11.9921374 3.17437692,12.81159 2.37047627,12.946127 C1.85769808,12.9938798 1.34327957,12.8752977 0.898130761,12.6067268 C0.693454688,12.5152888 0.509786255,12.3798086 0.359252305,12.2092312 C0.219651842,12.4167997 0.17949157,12.679403 0.250298737,12.9216657 C0.380004688,13.2063374 0.612892005,13.4261752 0.898130761,13.5331974 C1.34327957,13.8017683 1.85769808,13.9203504 2.37047627,13.8725976 C3.17437692,13.7380606 3.7721492,12.918608 4.58782861,12.8574549 C5.25038409,12.8085323 5.88349266,13.2855271 6.54310345,13.196855 C6.65365203,13.192861 6.75873374,13.1459424 6.83757255,13.0653757 C6.88761359,12.9972316 6.92096154,12.9174839 6.93474735,12.8329936 C7.42945545,10.7945545 7.86134346,8.73165405 8.2304114,6.64429237 C8.30561293,6.06398042 8.45412564,5.49648712 8.67211506,4.95646476 C8.89377555,4.41166791 9.31881635,3.9835616 9.84999146,3.77009319 C10.636224,3.50407688 11.5196313,3.95355271 12.0231734,4.6354106 C12.5267156,5.31726849 12.7181205,6.18870122 12.8535763,7.03567268 C12.9890321,7.88264415 13.0744281,8.75407688 13.4071782,9.53989517 C13.5082857,9.83134041 13.6959586,10.081891 13.943112,10.2553873 C14.3848156,10.5214036 14.9796432,10.3104252 15.3182827,9.91292953 C15.6280759,9.48731807 15.830522,8.98806324 15.9072209,8.46054164 C15.9845292,7.93399591 16.1531406,7.42636798 16.4048737,6.96228888 C16.8701349,6.24068142 17.7211506,5.9165696 18.5338853,5.70864881 C19.34662,5.50072801 20.2035251,5.36313337 20.8896381,4.85861969 C21.4295937,4.40675425 21.8694923,3.83943617 22.1794128,3.19525335 C22.615227,2.40943506 23.0215944,1.55329062 22.9862581,0.645165987 C22.9804635,0.528404636 22.968668,0.412047918 22.9509218,0.296592895 C22.8088482,0.996430794 22.5475789,1.66430723 22.1794128,2.26878276 L22.1794128,2.26878276 Z" id="Path"></path>
                </g>
                <path d="M105.667864,39.5229104 C106.435545,40.897545 106.890542,42.4267162 107,44 C104.332735,42.4925624 101.824128,40.837396 100.557851,40.2615548 C98.3515941,39.2576014 90.1013321,39.4083452 87,39.5018063 C87.324425,38.918152 87.7033259,38.3669544 88.1315671,37.8556845 C88.8402297,37.0079733 89.6730183,36.2739686 90.6012573,35.6789446 C93.0856691,34.0910024 96.1094376,33.6026702 98.9622796,34.3286571 C101.815122,35.0546439 104.245613,36.930968 105.682832,39.5168807 L105.667864,39.5229104 Z" id="Path" fill="#000000" opacity="0.1"></path>
                <path d="M115.492148,46.8858652 C113.982419,47.3129733 111.518516,46.4876158 108.96359,45.3044111 C108.609802,44.8907327 108.287824,44.4548715 108,44 L116.618952,45.4948782 C117.190201,45.8527255 117.334583,46.3635236 115.492148,46.8858652 Z" id="Path" fill="#000000" opacity="0.1"></path>
                <path d="M97.2101358,29.0133112 C97.2101358,29.0133112 89.3040083,28.5732086 87.0812571,32.7541837 L86.7228459,36.4598479 L86.1204743,36.3952995 L86,38.9156206 C86,38.9156206 98.0835747,38.4021675 100.833401,39.6109828 C103.583228,40.819798 112.127869,46.9108185 115.552352,45.8839123 C118.976834,44.8570062 115.251166,43.9034505 115.251166,43.9034505 C115.251166,43.9034505 110.537608,41.9581968 110.537608,40.4325077 C110.537608,38.9068185 109.369007,30.8470722 97.2101358,29.0133112 Z" id="Path" fill="#444053"></path>
                <path d="M82,169 C82,169 86.8854167,173.313609 89,172.981793 C89,172.981793 83.0208333,172.517251 82,169 Z" id="Path" fill="#000000" opacity="0.1"></path>
                <path d="M81,171 C81,171 81.4627497,173.200983 82.6967488,172.985097 C83.9307479,172.769211 81,171 81,171 Z" id="Path" fill="#000000" opacity="0.1"></path>
                <path d="M89,212 C89,212 81.9455717,217.8392 83.1351536,217.997016 C84.3247355,218.154832 89,212 89,212 Z" id="Path" fill="#000000" opacity="0.1"></path>
                <polygon id="Path" fill="#302B27" points="98 102.781344 121 99 121 121 99.147013 119.84417"></polygon>
                <polygon id="Path" fill="#000000" opacity="0.05" points="98 102.781344 121 99 121 121 99.147013 119.84417"></polygon>
                <polygon id="Path" fill="#302B27" points="121 99 148 101.085322 146.505848 120.230453 121 121"></polygon>
                <polygon id="Path" fill="#000000" opacity="0.1" points="121 99 148 101.085322 146.505848 120.230453 121 121"></polygon>
                <polygon id="Path" fill="#302B27" points="129.456483 93 121 99.867284 148.505166 102 153 94.9722222"></polygon>
                <polygon id="Path" fill="#302B27" points="90 95.5778864 110.489321 93 121 99.1728772 98.240656 103"></polygon>
                <polygon id="Path" fill="#302B27" points="126 104.870463 126 134 115.242011 132.918639 110.56242 132.451023 109.13677 132.304893 104.460162 131.834355 98 131.185538 98 103 120.962505 104.531442"></polygon>
                <polygon id="Path" fill="#302B27" points="148 101 148 129.718775 139.571429 131.358582 135.472303 132.156326 126 134 126 104.551437"></polygon>
                <polygon id="Path" fill="#000000" opacity="0.05" points="148 101 148 129.718775 139.571429 131.358582 135.472303 132.156326 126 134 126 104.551437"></polygon>
                <polygon id="Path" fill="#302B27" points="90 109.36186 98.2431012 103 126 104.940701 121.913929 112"></polygon>
                <polygon id="Path" fill="#FFFFFF" opacity="0.1" points="90 109.36186 98.2431012 103 126 104.940701 121.913929 112"></polygon>
                <polygon id="Path" fill="#302B27" points="148.196224 101 126 104.533216 133.224215 111 157 107.014109"></polygon>
                <polygon id="Path" fill="#FFFFFF" opacity="0.1" points="148.196224 101 126 104.533216 133.224215 111 157 107.014109"></polygon>
                <polygon id="Path" fill="#FFFFFF" opacity="0.1" points="140 132.215442 136 133 136 126.964716 139.746799 126"></polygon>
                <polygon id="Path" fill="#FFFFFF" opacity="0.1" points="116 129 116 133 111 132.534207 111 129"></polygon>
                <polygon id="Path" fill="#FFFFFF" opacity="0.1" points="110 131 110 133 105 132.559508 105 131"></polygon>
                <path d="M123.703778,126.802523 C120.501238,130.85964 109.925406,128.056541 109.925406,128.056541 L102.06652,119.936405 L101,118.83582 L103.085375,115 C103.085375,115 103.681197,115.194742 104.676219,115.537015 C109.943281,117.360505 126.399871,123.388643 123.703778,126.802523 Z" id="Path" fill="#000000" opacity="0.1"></path>
                <path d="M122.703778,126.802523 C119.501238,130.85964 108.925406,128.056541 108.925406,128.056541 L101.06652,119.936405 L100,118.83582 L102.085375,115 C102.085375,115 102.681197,115.194742 103.676219,115.537015 C108.943281,117.360505 125.399871,123.388643 122.703778,126.802523 Z" id="Path" fill="#EFB7B9"></path>
                <path d="M104,115.543933 C103.526742,116.799163 102.324149,118.658099 101.160454,120 L100,118.885236 L102.269044,115 C102.269044,115 102.920583,115.19725 104,115.543933 Z" id="Path" fill="#000000" opacity="0.1"></path>
                <path d="M78.7728087,69.0508424 C78.7728087,69.0508424 71.0740612,72.0177239 71.0007398,80.3249921 C70.9832167,85.6782118 71.2770098,91.0278389 71.8805966,96.3461522 C71.8805966,96.3461522 69.6809545,108.732882 75.9132739,112.29314 C82.1455933,115.853398 87.9379842,118.82028 87.9379842,118.82028 C87.9379842,118.82028 97.895031,120.452064 99.118032,120.971269 C100.341033,121.490473 104.590742,114.81499 103.930849,113.702409 C103.270956,112.589828 94.2054979,109.845463 93.1291397,107.991162 C92.0527814,106.136861 89.4014795,104.887804 89.4014795,104.887804 C89.4014795,104.887804 86.6973861,103.021636 86.5888704,101.464023 C86.4803547,99.90641 87.2780916,98.7938294 87.5039215,98.1262811 C87.7297514,97.4587328 88.5480183,90.9315934 88.5480183,90.9315934 C88.5480183,90.9315934 92.9238397,67.7750833 78.7728087,69.0508424 Z" id="Path" fill="#DCE6F2"></path>
                <path d="M82,97 C82,97 71.2103501,98.2121212 72.0461681,102 C72.0461681,102 76.146235,98.1787879 82,97 Z" id="Path" fill="#000000" opacity="0.1"></path>
                <path d="M82,98 C82,98 76.0397392,102.669773 77.1341791,102.986368 C78.2286191,103.302963 82,98 82,98 Z" id="Path" fill="#000000" opacity="0.1"></path>
                <path d="M83.9790501,100 C83.9790501,100 82.3684294,103.158719 83.2787802,102.993757 C84.1891311,102.828794 83.9790501,100 83.9790501,100 Z" id="Path" fill="#000000" opacity="0.1"></path>
                <path d="M193.780427,33.0141667 C193.780427,33.0141667 182.823854,32.3550521 184.104043,40.0284126 C184.104043,40.0284126 183.847428,41.3840588 185.078601,42 C185.078601,42 185.098784,41.4243541 186.203091,41.6229519 C186.596356,41.6890209 186.996078,41.7083438 187.393898,41.6805165 C187.933021,41.6446232 188.445499,41.4333205 188.852852,41.0789665 L188.852852,41.0789665 C188.852852,41.0789665 191.935109,39.8096672 193.134566,34.7785216 C193.134566,34.7785216 194.022625,33.6790378 193.999558,33.3969713 L192.148474,34.1884845 C192.148474,34.1884845 192.779919,35.5211048 192.281106,36.6292233 C192.281106,36.6292233 192.22344,34.2374144 191.86591,34.2921007 C191.793827,34.2921007 190.905768,34.7554957 190.905768,34.7554957 C190.905768,34.7554957 191.992775,37.0753489 191.171032,38.7648698 C191.171032,38.7648698 191.48243,35.9039094 190.565538,34.9224331 L189.262282,35.6822857 C189.262282,35.6822857 190.533821,38.0798511 189.671712,40.0370473 C189.671712,40.0370473 189.893727,37.0350537 188.988368,35.8664924 L187.806211,36.7846477 C187.806211,36.7846477 189.002784,39.1505526 188.273307,40.7738741 C188.273307,40.7738741 188.178158,37.2797032 187.549597,37.0149061 C187.549597,37.0149061 186.517372,37.9244267 186.361673,38.2985965 C186.361673,38.2985965 187.17765,40.0255344 186.670187,40.9206638 C186.670187,40.9206638 186.35879,38.592176 186.093526,38.5806631 C186.093526,38.5806631 185.064184,40.1233942 184.957502,41.1710698 C185.007354,40.1943458 185.312533,39.2476753 185.842678,38.4252387 C185.24943,38.5372815 184.702099,38.8204714 184.268391,39.2397777 C184.268391,39.2397777 184.426973,38.1489286 186.096409,38.053947 C186.096409,38.053947 186.961402,36.8825075 187.174766,36.8105518 C187.174766,36.8105518 185.513981,36.6723967 184.507706,37.1185224 C184.507706,37.1185224 185.392882,36.0909943 187.480397,36.5428764 L188.633721,35.5930606 C188.633721,35.5930606 186.448173,35.3052376 185.519747,35.6247211 C185.519747,35.6247211 186.586571,34.7152005 188.948001,35.3771934 L190.216657,34.6202189 C190.216657,34.6202189 188.35404,34.2172668 187.243966,34.3640565 C187.243966,34.3640565 188.414589,33.7337242 190.588604,34.4158646 L191.496846,34.0100342 C191.496846,34.0100342 190.130158,33.7423589 189.732261,33.6991854 C189.334365,33.656012 189.311298,33.5466392 189.311298,33.5466392 C190.175913,33.4029898 191.063522,33.5026575 191.87456,33.8344622 C191.87456,33.8344622 193.820793,33.1350524 193.780427,33.0141667 Z" id="Path" fill="#302B27"></path>
                <path d="M228.805335,73.0141667 C228.805335,73.0141667 217.820858,72.3550521 219.104308,80.0284126 C219.104308,80.0284126 218.84704,81.3840588 220.081348,82 C220.081348,82 220.101583,81.4243541 221.211593,81.6229519 C221.605859,81.6890209 222.006599,81.7083438 222.405432,81.6805165 C222.939579,81.6419559 223.446744,81.4318819 223.850758,81.0818447 L223.850758,81.0818447 C223.850758,81.0818447 226.943755,79.8096672 228.146267,74.7785216 C228.146267,74.7785216 229.033697,73.681916 228.999009,73.3998495 L227.14321,74.1884845 C227.14321,74.1884845 227.776263,75.5211048 227.279071,76.6292233 C227.279071,76.6292233 227.218367,74.2374144 226.862817,74.2921007 C226.790551,74.2921007 225.89734,74.7554957 225.89734,74.7554957 C225.89734,74.7554957 226.990006,77.0782271 226.16617,78.7648698 C226.16617,78.7648698 226.478361,75.9039094 225.556243,74.9224331 L224.264121,75.673651 C224.264121,75.673651 225.538899,78.0712164 224.674594,80.0284126 C224.674594,80.0284126 224.897174,77.026419 223.989509,75.8578577 L222.807233,76.7788912 C222.807233,76.7788912 224.003963,79.1419179 223.275518,80.7652394 C223.275518,80.7652394 223.180127,77.2710685 222.549965,77.0062714 C222.549965,77.0062714 221.515111,77.915792 221.356125,78.2899619 C221.356125,78.2899619 222.177071,80.0168997 221.668316,80.9120292 C221.668316,80.9120292 221.356125,78.5835413 221.090185,78.5720284 C221.090185,78.5720284 220.058223,80.1147595 219.951269,81.1624351 C220.002913,80.1855917 220.309808,79.2391009 220.841589,78.416604 C220.24608,78.5289201 219.696502,78.8120319 219.260403,79.231143 C219.260403,79.231143 219.422279,78.1402939 221.095967,78.0453123 C221.095967,78.0453123 221.948709,76.8738728 222.177071,76.8019171 C222.177071,76.8019171 220.512055,76.6637621 219.503218,77.1098877 C219.503218,77.1098877 220.390648,76.0823596 222.480589,76.5486329 L223.63685,75.598817 C223.63685,75.598817 221.442845,75.3109941 220.514946,75.6304776 C220.514946,75.6304776 221.584487,74.720957 223.951931,75.3829498 L225.223818,74.6259754 C225.223818,74.6259754 223.353566,74.2259015 222.240665,74.3698129 C222.240665,74.3698129 223.41716,73.7394806 225.596712,74.4216211 L226.507267,74.0157907 C226.507267,74.0157907 225.137098,73.7481153 224.735297,73.7049419 C224.333497,73.6617684 224.313262,73.5523957 224.313262,73.5523957 C225.181028,73.4086602 226.071849,73.5083223 226.885942,73.8402187 C226.885942,73.8402187 228.840023,73.1350524 228.805335,73.0141667 Z" id="Path" fill="#302B27" opacity="0.1"></path>
                <path d="M159.60398,65.8727182 C159.60398,65.8727182 162.169299,55.1434427 154.24173,55.1058367 C154.24173,55.1058367 152.925355,54.6198518 152.095657,55.7306746 C152.095657,55.7306746 152.661493,55.849278 152.277428,56.908031 C152.144598,57.2824178 152.056057,57.6706952 152.013567,58.0651381 C151.956777,58.6028495 152.079264,59.1441662 152.36245,59.6069833 L152.36245,59.6069833 C152.36245,59.6069833 153.104194,62.8758109 157.932858,64.9238904 C157.932858,64.9238904 158.882759,65.9884289 159.170075,66 L158.700988,64.0358107 C158.700988,64.0358107 157.252682,64.4321199 156.226554,63.7465339 C156.226554,63.7465339 158.63942,64.0965588 158.642352,63.7465339 C158.642352,63.6742147 158.349172,62.7167086 158.349172,62.7167086 C158.349172,62.7167086 155.830762,63.3936163 154.276911,62.2914718 C154.276911,62.2914718 157.094365,63.0898757 158.240696,62.3522199 L157.712973,60.9289782 C157.712973,60.9289782 155.074359,61.7765591 153.268374,60.5876316 C153.268374,60.5876316 156.244145,61.3223946 157.575179,60.6281303 L156.85689,59.3032427 C156.85689,59.3032427 154.276911,60.0785045 152.772901,59.0804996 C152.772901,59.0804996 156.291053,59.5838412 156.672187,59.0110732 C156.672187,59.0110732 155.939238,57.8337167 155.590355,57.6138664 C155.590355,57.6138664 153.725734,58.128779 152.904832,57.4721207 C152.904832,57.4721207 155.294244,57.5617965 155.349948,57.3130185 C155.349948,57.3130185 153.9808,56.0315224 152.937082,55.7422456 C153.909728,55.9607557 154.80797,56.4253329 155.543446,57.0902754 C155.532695,56.4840101 155.343206,55.8939609 154.998133,55.3922207 C154.998133,55.3922207 156.065305,55.7393529 155.877671,57.4171581 C155.877671,57.4171581 156.903798,58.4585545 156.936048,58.6957615 C156.936048,58.6957615 157.361158,57.0787043 157.088501,56.0054875 C157.088501,56.0054875 157.968039,57.0584549 157.138342,59.0400008 L157.888881,60.3562102 C157.888881,60.3562102 158.569057,58.2444897 158.396081,57.2725198 C158.396081,57.2725198 159.126098,58.4816967 158.05013,60.7033423 L158.592511,62.088978 C158.592511,62.088978 159.316664,60.3128186 159.363573,59.1962103 C159.363573,59.1962103 159.794547,60.4632426 158.730306,62.4968583 L158.98244,63.4630427 C158.98244,63.4630427 159.486708,62.1584045 159.598116,61.7707736 C159.709525,61.3831427 159.823865,61.3802499 159.823865,61.3802499 C159.819397,62.2603105 159.566614,63.1217534 159.093848,63.8680302 C159.093848,63.8680302 159.477913,65.8871821 159.60398,65.8727182 Z" id="Path" fill="#302B27" opacity="0.1"></path>
                <path d="M135,69.8328646 C135,69.8328646 125.822839,63.1003712 122.542275,70.3931685 C122.542275,70.3931685 121.540966,71.4105624 122.259623,72.6284861 C122.259623,72.6284861 122.602413,72.1537022 123.462396,72.9410766 C123.767005,73.2189986 124.104128,73.4605328 124.466712,73.6606248 C124.957824,73.928814 125.524809,74.0323625 126.081435,73.9555215 L126.081435,73.9555215 C126.081435,73.9555215 129.497312,74.6013455 133.430381,70.9711662 C133.430381,70.9711662 134.834619,70.528821 134.966924,70.2693118 L132.895147,69.9124867 C132.895147,69.9124867 132.678647,71.4076134 131.611186,72.0770291 C131.611186,72.0770291 132.93123,69.9950578 132.588439,69.8446605 C132.51928,69.8122218 131.484895,69.6972121 131.484895,69.6972121 C131.484895,69.6972121 131.100007,72.2982017 129.416125,73.2802079 C129.416125,73.2802079 131.331541,71.0065538 131.093993,69.6500286 L129.521367,69.5674575 C129.521367,69.5674575 129.25375,72.3365382 127.377424,73.5279212 C127.377424,73.5279212 129.29284,71.0832269 129.181584,69.5733555 L127.623992,69.6972121 C127.623992,69.6972121 127.308264,72.3896197 125.741652,73.368677 C125.741652,73.368677 127.663082,70.3253422 127.269174,69.7473446 C127.269174,69.7473446 125.846895,69.9449254 125.495083,70.1749449 C125.495083,70.1749449 125.221452,72.1035698 124.259234,72.5930984 C124.259234,72.5930984 125.326695,70.4256071 125.110196,70.2752098 C125.110196,70.2752098 123.327084,71.0154007 122.626469,71.8588055 C123.232532,71.0512684 124.043066,70.4129009 124.977891,70.0068537 C124.396245,69.7697669 123.756724,69.7041781 123.137648,69.8181198 C123.137648,69.8181198 123.901409,68.974715 125.410889,69.8328646 C125.410889,69.8328646 126.824148,69.3108973 127.064703,69.3757746 C127.064703,69.3757746 125.696548,68.3229931 124.562934,68.1401571 C124.562934,68.1401571 125.928082,67.7567913 127.476653,69.3197442 L129.037251,69.1634489 C129.037251,69.1634489 127.30225,67.6889651 126.306955,67.4412518 C126.306955,67.4412518 127.759304,67.2613647 129.434166,69.154602 L130.973716,69.2224283 C130.973716,69.2224283 129.581506,67.8305155 128.532086,67.329191 C128.532086,67.329191 129.912269,67.4471497 131.415735,69.2548669 L132.4411,69.4170602 C132.4411,69.4170602 131.403708,68.4203091 131.078959,68.1607999 C130.75421,67.9012907 130.799314,67.7921789 130.799314,67.7921789 C131.635839,68.1554722 132.353074,68.739434 132.871091,69.4789885 C132.871091,69.4789885 134.96091,69.9537723 135,69.8328646 Z" id="Path" fill="#302B27" opacity="0.1"></path>
                <path d="M165,6.83485865 C165,6.83485865 155.822839,0.0977855457 152.542275,7.39529818 C152.542275,7.39529818 151.540966,8.41293838 152.259623,9.63115694 C152.259623,9.63115694 152.602413,9.15625818 153.462396,9.9438232 C153.768601,10.2203766 154.106662,10.4609281 154.469719,10.6605959 C154.960755,10.929056 155.527811,11.0326425 156.084442,10.955564 L156.084442,10.955564 C156.084442,10.955564 159.500319,11.6015443 163.433388,7.96753644 C163.433388,7.96753644 164.837626,7.52803386 164.966924,7.26551218 L162.895147,6.91450005 C162.895147,6.91450005 162.681654,8.4099887 161.611186,9.07956645 C161.611186,9.07956645 162.934237,6.99709114 162.591446,6.84665737 C162.522287,6.81421087 161.487902,6.69917329 161.487902,6.69917329 C161.487902,6.69917329 161.090987,9.30669195 159.407104,10.2830366 C159.407104,10.2830366 161.319513,8.00883198 161.084973,6.65197838 L159.512346,6.56938729 C159.512346,6.56938729 159.241722,9.33913845 157.368403,10.5278602 C157.368403,10.5278602 159.28382,8.08257402 159.172563,6.57233697 L157.617978,6.6962236 C157.617978,6.6962236 157.299243,9.39223272 155.732631,10.3715271 C155.732631,10.3715271 157.657069,7.3274555 157.26316,6.74931788 C157.26316,6.74931788 155.840881,6.94694655 155.489069,7.17702173 C155.489069,7.17702173 155.215439,9.10611359 154.25322,9.59576076 C154.25322,9.59576076 155.320681,7.42774468 155.104182,7.27436123 C155.104182,7.27436123 153.32107,8.01768103 152.620455,8.86129 C153.225602,8.05269645 154.036393,7.41397217 154.971877,7.00888987 C154.389634,6.76998197 153.74862,6.70433144 153.128627,6.82011024 C153.128627,6.82011024 153.895395,5.97650126 155.404875,6.83485865 C155.404875,6.83485865 156.818134,6.3098153 157.058689,6.37765798 C157.058689,6.37765798 155.690534,5.32462159 154.55692,5.13879164 C154.55692,5.13879164 155.919061,4.7582827 157.467632,6.31866434 L159.02823,6.16233121 C159.02823,6.16233121 157.296236,4.68749034 156.297935,4.43676739 C156.297935,4.43676739 157.750283,4.25978648 159.428152,6.15348216 L160.967702,6.21837516 C160.967702,6.21837516 159.575492,4.82612538 158.523065,4.32762917 C158.523065,4.32762917 159.906255,4.44561643 161.409721,6.25377134 L162.432079,6.41600384 C162.432079,6.41600384 161.39168,5.43081014 161.066931,5.17713751 C160.742182,4.92346488 160.787286,4.81137697 160.787286,4.81137697 C161.624063,5.17435911 162.3414,5.75854485 162.859063,6.49859493 C162.859063,6.49859493 164.948882,6.94694655 165,6.83485865 Z" id="Path" fill="#302B27" opacity="0.1"></path>
                <path d="M200,15.6185739 C200,15.6185739 196.365442,4.71204069 189.510427,8.99793673 C189.510427,8.99793673 188.110228,9.29997309 188,10.7225644 C188,10.7225644 188.551142,10.5171796 188.795432,11.6649178 C188.886192,12.0731864 189.023146,12.4694647 189.203575,12.84588 C189.449798,13.35246 189.851127,13.7646401 190.347567,14.0208015 L190.347567,14.0208015 C190.347567,14.0208015 192.766634,16.5126015 198.057597,15.6880422 C198.057597,15.6880422 199.454816,16.1169339 199.711023,15.9689361 L198.22145,14.4859375 C198.22145,14.4859375 197.190665,15.6246146 195.933466,15.5793091 C195.933466,15.5793091 198.206554,14.5765484 198.018868,14.2533695 C197.980139,14.1899419 197.202582,13.5043193 197.202582,13.5043193 C197.202582,13.5043193 195.397219,15.4766168 193.460775,15.3467411 C193.460775,15.3467411 196.323734,14.5191615 196.907646,13.2324866 L195.67428,12.2689906 C195.67428,12.2689906 193.868918,14.4496931 191.655412,14.3832451 C191.655412,14.3832451 194.634558,13.4137084 195.388282,12.0726669 L194.047666,11.2903927 C194.047666,11.2903927 192.260179,13.3835048 190.40715,13.3170568 C190.40715,13.3170568 193.71996,11.8461397 193.728898,11.1333338 C193.728898,11.1333338 192.456802,10.4899964 192.036743,10.4839556 C192.036743,10.4839556 190.708044,11.9548728 189.653426,11.8219768 C189.653426,11.8219768 191.762661,10.5987295 191.673287,10.3480393 C191.673287,10.3480393 189.796425,9.95841237 188.738828,10.2725302 C189.69539,9.93487149 190.722435,9.85677738 191.717974,10.0460029 C191.378018,9.51411176 190.892461,9.09426141 190.320755,8.83785745 C190.320755,8.83785745 191.428997,8.56300436 192.170804,10.1456749 C192.170804,10.1456749 193.624628,10.5111389 193.779543,10.7014218 C193.779543,10.7014218 193.26713,9.03720145 192.447865,8.23378472 C192.447865,8.23378472 193.779543,8.68985963 194.142999,10.8977455 L195.507448,11.6528364 C195.507448,11.6528364 194.944389,9.41474691 194.265144,8.63247272 C194.265144,8.63247272 195.555114,9.30903418 195.835154,11.8612415 L197.056604,12.7945339 C197.056604,12.7945339 196.716981,10.8252567 196.144985,9.80437382 C196.144985,9.80437382 197.205561,10.6923607 197.396226,13.0754277 L198.138034,13.7942742 C198.138034,13.7942742 197.863952,12.3626218 197.750745,11.9578931 C197.637537,11.5531644 197.729891,11.5259811 197.729891,11.5259811 C198.203487,12.3095055 198.45404,13.2105931 198.453823,14.1295346 C198.453823,14.1295346 199.89573,15.6971033 200,15.6185739 Z" id="Path" fill="#302B27" opacity="0.1"></path>
                <path d="M176.786723,16.0724643 C176.786723,16.0724643 165.090778,14.8026901 166.056696,22.8937395 C166.056696,22.8937395 165.707978,24.2959072 166.982497,25 C166.982497,25 167.034959,24.3982113 168.216897,24.6690162 C168.634598,24.7566476 169.061108,24.7980318 169.48833,24.7923829 C170.065408,24.7822213 170.623359,24.5889097 171.07762,24.2417462 L171.07762,24.2417462 C171.07762,24.2417462 174.444448,23.077285 176.015223,17.8868573 C176.015223,17.8868573 177.021259,16.7885929 176.999657,16.4907075 L174.978326,17.2188718 C174.978326,17.2188718 175.595526,18.6421021 174.978326,19.7734649 C174.978326,19.7734649 175.043132,17.2730328 174.669726,17.3121491 C174.592576,17.3121491 173.6174,17.745437 173.6174,17.745437 C173.6174,17.745437 174.654296,20.2278154 173.685292,21.957958 C173.685292,21.957958 174.17288,18.9851217 173.243993,17.9139378 L171.809003,18.6360843 C171.809003,18.6360843 173.043403,21.208731 172.009593,23.2066696 C172.009593,23.2066696 172.410773,20.0833861 171.506575,18.8166209 L170.195024,19.719304 C170.195024,19.719304 171.343017,22.2498255 170.47585,23.9077535 C170.47585,23.9077535 170.565344,20.2548959 169.908026,19.9449747 C169.908026,19.9449747 168.753861,20.8476578 168.565615,21.2207668 C168.565615,21.2207668 169.346374,23.0562224 168.756947,23.9739502 C168.756947,23.9739502 168.550185,21.5276791 168.278617,21.5036075 C168.278617,21.5036075 167.093593,23.0592314 166.920777,24.1574958 C167.027823,23.1392773 167.406604,22.166173 168.019393,21.3351067 C167.379019,21.4213909 166.778403,21.6880568 166.291232,22.1023873 C166.291232,22.1023873 166.519597,20.9740334 168.309477,20.9619977 C168.309477,20.9619977 169.281568,19.7855007 169.543878,19.7223129 C169.543878,19.7223129 167.775599,19.4906242 166.673897,19.9028495 C166.673897,19.9028495 167.676847,18.8737908 169.880252,19.4725706 L171.179459,18.542807 C171.179459,18.542807 168.831012,18.0794297 167.837319,18.3803241 C167.837319,18.3803241 169.028516,17.477641 171.515833,18.3051005 L172.913791,17.5799451 C172.913791,17.5799451 170.941836,17.0624068 169.747554,17.155684 C169.747554,17.155684 171.034416,16.5538953 173.321143,17.3873727 L174.314836,17.0112547 C174.314836,17.0112547 172.867501,16.6592083 172.441633,16.5930115 C172.015765,16.5268148 172.000335,16.4124749 172.000335,16.4124749 C172.933275,16.3081055 173.877623,16.4580947 174.72836,16.8457628 C174.72836,16.8457628 176.808325,16.1988399 176.786723,16.0724643 Z" id="Path" fill="#302B27" opacity="0.1"></path>
                <path d="M274.795695,103.072659 C274.795695,103.072659 263.089531,101.801628 264.056804,109.891654 C264.056804,109.891654 263.707597,111.29521 264.983903,112 C264.983903,112 265.036438,111.397615 266.220034,111.665677 C266.637837,111.756367 267.065302,111.797827 267.493249,111.789165 C268.071424,111.78054 268.630648,111.586866 269.084768,111.237983 L269.084768,111.237983 C269.084768,111.237983 272.456316,110.072369 274.013842,104.879813 C274.013842,104.879813 275.021289,103.777449 274.999657,103.482281 L272.975492,104.208154 C272.975492,104.208154 273.593557,105.635806 272.975492,106.768289 C272.975492,106.768289 273.040388,104.262369 272.666459,104.304536 C272.589201,104.304536 271.612657,104.735241 271.612657,104.735241 C271.612657,104.735241 272.651007,107.220078 271.680644,108.951934 C271.680644,108.951934 272.168916,105.979165 271.238727,104.903909 L269.801724,105.629782 C269.801724,105.629782 271.037856,108.204977 270.005686,110.204894 C270.005686,110.204894 270.404338,107.078517 269.498872,105.807486 L268.185483,106.711063 C268.185483,106.711063 269.335085,109.24409 268.466703,110.900648 C268.466703,110.900648 268.556322,107.244173 267.898082,106.936957 C267.898082,106.936957 266.74539,107.840534 266.553789,108.214012 C266.553789,108.214012 267.338733,110.051286 266.74539,110.969922 C266.74539,110.969922 266.538338,108.521229 266.266389,108.497133 C266.266389,108.497133 265.079703,110.054298 264.906644,111.15365 C265.013841,110.134423 265.393153,109.160355 266.006801,108.328466 C265.365072,108.413293 264.763178,108.680416 264.276218,109.096506 C264.276218,109.096506 264.504902,107.964023 266.297292,107.951975 C266.297292,107.951975 267.273836,106.774313 267.533424,106.714075 C267.533424,106.714075 265.762665,106.479145 264.659418,106.891778 C264.659418,106.891778 265.663775,105.864712 267.87336,106.464085 L269.171297,105.533401 C269.171297,105.533401 266.847371,105.105708 265.836833,105.400876 C265.836833,105.400876 267.0297,104.497299 269.520505,105.322566 L270.920423,104.599705 C270.920423,104.599705 268.945704,104.081654 267.749746,104.175023 C267.749746,104.175023 269.038413,103.572639 271.328347,104.406941 L272.323432,104.027439 C272.323432,104.027439 270.874068,103.675044 270.447603,103.611794 C270.021138,103.548543 270.005686,103.431078 270.005686,103.431078 C270.93967,103.32471 271.885596,103.473845 272.737536,103.861783 C272.737536,103.861783 274.826598,103.202172 274.795695,103.072659 Z" id="Path" fill="#302B27" opacity="0.1"></path>
                <path d="M291.807739,113.07227 C291.807739,113.07227 280.088516,111.804195 281.056868,119.891562 C281.056868,119.891562 280.710365,121.295179 281.985,122 C281.985,122 282.037595,121.397589 283.222511,121.668674 C283.640056,121.757135 284.066823,121.797572 284.494053,121.789156 C285.069937,121.777682 285.62661,121.585405 286.08116,121.240962 L286.08116,121.240962 C286.08116,121.240962 289.453376,120.075297 291.012639,114.879503 C291.012639,114.879503 292.024303,113.780103 291.999553,113.481909 L289.97313,114.207815 C289.97313,114.207815 290.591885,115.635529 289.97313,116.768061 C289.97313,116.768061 290.038099,114.265044 289.663752,114.3042 C289.586408,114.3042 288.608775,114.734924 288.608775,114.734924 C288.608775,114.734924 289.648283,117.219869 288.676838,118.951801 C288.676838,118.951801 289.165654,115.978903 288.234428,114.906611 L286.795822,115.629504 C286.795822,115.629504 288.033332,118.204811 287.000011,120.204815 C287.000011,120.204815 287.399108,117.078303 286.492632,115.810228 L285.177777,116.713844 C285.177777,116.713844 286.328662,119.246982 285.462405,120.906624 C285.462405,120.906624 285.54903,117.246978 284.890056,116.939748 C284.890056,116.939748 283.736078,117.843365 283.544263,118.216859 C283.544263,118.216859 284.330083,120.054213 283.736078,120.972889 C283.736078,120.972889 283.528795,118.524089 283.256542,118.5 C283.256542,118.5 282.068532,120.057225 281.898375,121.156625 C282.005479,120.137801 282.384072,119.163885 282.996665,118.331317 C282.354678,118.417691 281.752548,118.684632 281.264151,119.099391 C281.264151,119.099391 281.496184,117.966859 283.290574,117.957823 C283.290574,117.957823 284.265113,116.780109 284.528084,116.716856 C284.528084,116.716856 282.755351,116.484928 281.650873,116.897579 C281.650873,116.897579 282.65635,115.867457 284.8684,116.466856 L286.167785,115.536131 C286.167785,115.536131 283.841266,115.108419 282.829601,115.4036 C282.829601,115.4036 284.023799,114.499984 286.517382,115.328299 L287.918863,114.602394 C287.918863,114.602394 285.94194,114.08432 284.744649,114.177694 C284.744649,114.177694 286.034753,113.575283 288.327241,114.409622 L289.323437,114.033115 C289.323437,114.033115 287.872456,113.680705 287.448609,113.61444 C287.024761,113.548175 287.003105,113.433717 287.003105,113.433717 C287.938396,113.329239 288.885123,113.479384 289.738003,113.867452 C289.738003,113.867452 291.838677,113.201788 291.807739,113.07227 Z" id="Path" fill="#302B27" opacity="0.1"></path>
                <path d="M254,24.8328646 C254,24.8328646 244.822839,18.1003712 241.542275,25.3931685 C241.542275,25.3931685 240.540966,26.4105624 241.259623,27.6284861 C241.259623,27.6284861 241.602413,27.1537022 242.462396,27.9410766 C242.767005,28.2189986 243.104128,28.4605328 243.466712,28.6606248 C243.957899,28.9286086 244.524814,29.0321443 245.081435,28.9555215 L245.081435,28.9555215 C245.081435,28.9555215 248.497312,29.6013455 252.433388,25.9711662 C252.433388,25.9711662 253.834619,25.528821 253.966924,25.2693118 L251.90116,24.9036398 C251.90116,24.9036398 251.684661,26.3987665 250.6172,27.0681822 C250.6172,27.0681822 251.937244,24.9862109 251.594453,24.8358136 C251.525294,24.8033749 250.493916,24.6883652 250.493916,24.6883652 C250.493916,24.6883652 250.106021,27.2893548 248.422138,28.271361 C248.422138,28.271361 250.337555,25.9977069 250.100007,24.6411817 L248.527381,24.5586106 C248.527381,24.5586106 248.259764,27.3276913 246.383438,28.5190743 C246.383438,28.5190743 248.301861,26.07438 248.187598,24.5645086 L246.630006,24.6883652 C246.630006,24.6883652 246.329313,27.3807728 244.747666,28.3598301 C244.747666,28.3598301 246.672103,25.3164953 246.275188,24.7384976 C246.275188,24.7384976 244.852908,24.9360785 244.501097,25.166098 C244.501097,25.166098 244.230473,27.0947229 243.268255,27.5842515 C243.268255,27.5842515 244.332709,25.4167602 244.11621,25.2663629 C244.11621,25.2663629 242.333098,26.0065538 241.632483,26.8499586 C242.238545,26.0424215 243.04908,25.404054 243.983905,24.9980068 C243.402259,24.76092 242.762738,24.6953312 242.143661,24.8092729 C242.143661,24.8092729 242.910429,23.9658681 244.41991,24.8240177 C244.41991,24.8240177 245.830162,24.3020504 246.070716,24.3669277 C246.070716,24.3669277 244.702562,23.3141462 243.568948,23.1313102 C243.568948,23.1313102 244.934096,22.7479444 246.482666,24.3108973 L248.043265,24.154602 C248.043265,24.154602 246.311271,22.6801182 245.312969,22.4324049 C245.312969,22.4324049 246.765318,22.2525178 248.44018,24.1457551 L249.982737,24.2135814 C249.982737,24.2135814 248.58752,22.8216686 247.5381,22.3203441 C247.5381,22.3203441 248.921289,22.4383028 250.421749,24.24602 L251.447113,24.4082133 C251.447113,24.4082133 250.409721,23.4114622 250.084973,23.151953 C249.760224,22.8924438 249.808335,22.8069238 249.808335,22.8069238 C250.643675,23.1708095 251.359787,23.7547052 251.877105,24.4937333 C251.877105,24.4937333 253.96091,24.9537723 254,24.8328646 Z" id="Path" fill="#302B27" opacity="0.1"></path>
                <path d="M261,73.6385841 C261,73.6385841 257.80486,63.011673 250.618831,66.8266848 C250.618831,66.8266848 249.179195,67.0384687 249,68.4136136 C249,68.4136136 249.570995,68.2424458 249.768413,69.3535861 C249.841618,69.7527698 249.963955,70.1422911 250.132878,70.5140459 C250.358158,71.0139661 250.74858,71.4296943 251.244495,71.697715 L251.244495,71.697715 C251.244495,71.697715 253.595292,74.1927037 259.019742,73.6356829 C259.019742,73.6356829 260.422931,74.1056692 260.690205,73.9780186 L259.253607,72.4868277 C259.253607,72.4868277 258.151101,73.5370438 256.875475,73.4384048 C256.875475,73.4384048 259.232346,72.5680599 259.050114,72.2576369 C259.013667,72.1938116 258.254366,71.5004368 258.254366,71.5004368 C258.254366,71.5004368 256.328778,73.3165565 254.360668,73.1047725 C254.360668,73.1047725 257.315869,72.4375081 257.965831,71.2364322 L256.750949,70.2558436 C256.750949,70.2558436 254.813212,72.2692415 252.562642,72.1125794 C252.562642,72.1125794 255.624146,71.3089609 256.468489,70.0585655 L255.138193,69.2491447 C255.138193,69.2491447 253.209567,71.1784092 251.338648,71.0333517 C251.338648,71.0333517 254.779803,69.7655493 254.822323,69.0837792 C254.822323,69.0837792 253.552771,68.4107125 253.124525,68.3875033 C253.124525,68.3875033 251.70615,69.739439 250.627942,69.56537 C250.627942,69.56537 252.832954,68.4832412 252.753986,68.2395446 C252.753986,68.2395446 250.85877,67.7840642 249.768413,68.0364642 C250.755952,67.7567436 251.802769,67.7277458 252.805619,67.9523308 C252.484398,67.4273849 252.009262,67.0037907 251.438876,66.733848 C251.438876,66.733848 252.580866,66.5162618 253.2612,68.0683768 C253.2612,68.0683768 254.722096,68.4803401 254.873956,68.6718159 C254.873956,68.6718159 254.427487,67.0500733 253.628702,66.2464549 C253.628702,66.2464549 254.965072,66.7396503 255.235383,68.8748964 L256.589977,69.661108 C256.589977,69.661108 256.116173,67.4852457 255.460137,66.7193422 C255.460137,66.7193422 256.741838,67.4243216 256.914958,69.8844965 L258.129841,70.8331724 C258.129841,70.8331724 257.871678,68.9300183 257.33713,67.9320228 C257.33713,67.9320228 258.378891,68.8313792 258.463933,71.1232874 L259.186788,71.8485748 C259.186788,71.8485748 258.974184,70.4618252 258.883068,70.0672689 C258.791951,69.6727126 258.883068,69.6175907 258.883068,69.6175907 C259.332509,70.3892735 259.548104,71.2652602 259.505695,72.1473932 C259.505695,72.1473932 260.890661,73.7082117 261,73.6385841 Z" id="Path" fill="#302B27" opacity="0.1"></path>
                <path d="M191,98.5340227 C191,98.5340227 184.833429,89.1922522 179.107543,94.7833802 C179.107543,94.7833802 177.797562,95.3639751 178.026959,96.7428877 C178.026959,96.7428877 178.524994,96.4235606 179.03812,97.4396015 C179.222499,97.7996752 179.451553,98.1369415 179.720276,98.4440305 C180.080172,98.86317 180.573326,99.1569286 181.123828,99.280087 L181.123828,99.280087 C181.123828,99.280087 184.096942,101.045095 189.107469,99.0478491 C189.107469,99.0478491 190.583462,99.1233264 190.800786,98.9288272 L188.989752,97.8837565 C188.989752,97.8837565 188.24421,99.1900948 186.997615,99.4368476 C186.997615,99.4368476 188.995789,97.9853606 188.727152,97.718287 C188.67584,97.6660335 187.746175,97.2073636 187.746175,97.2073636 C187.746175,97.2073636 186.439213,99.4658774 184.501406,99.7939134 C184.501406,99.7939134 187.124387,98.3569413 187.396042,97.0273792 L185.950233,96.4148517 C185.950233,96.4148517 184.691565,98.8678647 182.500213,99.3178257 C182.500213,99.3178257 185.186581,97.7240929 185.624247,96.2958297 L184.115052,95.8778015 C184.115052,95.8778015 182.841291,98.2495313 181.015165,98.612403 C181.015165,98.612403 183.924894,96.4700082 183.764919,95.8023241 C183.764919,95.8023241 182.358349,95.4975119 181.953885,95.590407 C181.953885,95.590407 180.997055,97.271229 179.916471,97.3931539 C179.916471,97.3931539 181.703358,95.7616825 181.555457,95.5468624 C181.555457,95.5468624 179.614632,95.6194368 178.648748,96.156487 C179.510334,95.6196525 180.503167,95.30937 181.528292,95.256565 C181.069325,94.8387793 180.493301,94.5592576 179.871196,94.4524412 C179.871196,94.4524412 180.89443,93.9386148 181.984069,95.2449531 C181.984069,95.2449531 183.493264,95.2449531 183.701533,95.3901018 C183.701533,95.3901018 182.796016,93.9386148 181.802965,93.3957587 C181.802965,93.3957587 183.221609,93.5118776 184.102979,95.4888029 L185.627266,95.8778015 C185.627266,95.8778015 184.537627,93.918294 183.689459,93.35802 C183.689459,93.35802 185.117158,93.688959 186.001546,96.0084353 L187.426226,96.5890301 C187.426226,96.5890301 186.623334,94.8327308 185.817424,94.0111891 C185.817424,94.0111891 187.073074,94.591784 187.824654,96.7719175 L188.730171,97.274132 C188.730171,97.274132 188.126493,95.9997264 187.912187,95.6484665 C187.697881,95.2972066 187.782396,95.2159234 187.782396,95.2159234 C188.435558,95.8364271 188.896432,96.6194025 189.113506,97.4773402 C189.113506,97.4773402 190.918503,98.6327238 191,98.5340227 Z" id="Path" fill="#302B27" opacity="0.1"></path>
                <path d="M231,49.7368399 C231,49.7368399 225.103857,40.2708373 219.165229,45.6577116 C219.165229,45.6577116 217.830025,46.2062143 218.018167,47.5745843 C218.018167,47.5745843 218.524938,47.2685775 219.010467,48.2934116 C219.184089,48.6577127 219.403139,49.0008257 219.662897,49.3153588 C220.011367,49.7410762 220.497769,50.0455019 221.046655,50.1814158 L221.046655,50.1814158 C221.046655,50.1814158 223.975002,52.0232303 229.076091,50.1814158 C229.076091,50.1814158 230.556955,50.2997769 230.781512,50.1121312 L229.000227,49.0208995 C229.000227,49.0208995 228.211243,50.2940032 226.948867,50.5047437 C226.948867,50.5047437 229.003262,49.110392 228.745324,48.8476881 C228.690702,48.7928378 227.774266,48.3078459 227.774266,48.3078459 C227.774266,48.3078459 226.387474,50.5162911 224.436254,50.7847688 C224.436254,50.7847688 227.118802,49.4337199 227.431361,48.1230871 L225.999051,47.4822049 C225.999051,47.4822049 224.654742,49.8869564 222.436481,50.2709083 C222.436481,50.2709083 225.188824,48.7668561 225.674353,47.3609569 L224.175282,46.8990599 C224.175282,46.8990599 222.815801,49.2085451 220.970791,49.5260994 C220.970791,49.5260994 223.962863,47.4822049 223.823274,46.8153411 C223.823274,46.8153411 222.421309,46.4689183 222.00254,46.5497503 C222.00254,46.5497503 220.985963,48.1923716 219.896558,48.2818642 C219.896558,48.2818642 221.744603,46.7171879 221.605013,46.4977868 C221.605013,46.4977868 219.650758,46.5122211 218.664528,47.017421 C219.547999,46.510466 220.555338,46.2318298 221.586806,46.2091012 C221.138268,45.7799614 220.567625,45.4849463 219.94511,45.3603654 C219.94511,45.3603654 220.992032,44.8782603 222.0693,46.2091012 C222.0693,46.2091012 223.586578,46.2581777 223.789894,46.4054074 C223.789894,46.4054074 222.931114,44.9619792 221.947918,44.3672867 C221.947918,44.3672867 223.36809,44.523177 224.190455,46.515108 L225.707733,46.9481365 C225.707733,46.9481365 224.679019,44.9677529 223.841481,44.3846078 C223.841481,44.3846078 225.267723,44.7570123 226.080984,47.0867056 L227.492053,47.7131534 C227.492053,47.7131534 226.742517,45.9435104 225.974774,45.1149825 C225.974774,45.1149825 227.215908,45.729883 227.904752,47.9181203 L228.793877,48.4435281 C228.793877,48.4435281 228.223381,47.158877 228.0231,46.8037936 C227.822819,46.4487103 227.907787,46.3707651 227.907787,46.3707651 C228.543884,47.0067996 228.981945,47.7983034 229.173197,48.6571555 C229.173197,48.6571555 230.911998,49.8321061 231,49.7368399 Z" id="Path" fill="#302B27"></path>
                <path d="M194.998468,69.7689783 C194.998468,69.7689783 195.308883,58.5745962 187.092197,60.1523871 C187.092197,60.1523871 185.62083,59.9379015 185,61.2130621 C185,61.2130621 185.62083,61.2130621 185.446998,62.3442529 C185.390132,62.7476048 185.38388,63.1559081 185.428373,63.5606504 C185.484488,64.1096378 185.729925,64.6258869 186.126807,65.0297294 L186.126807,65.0297294 C186.126807,65.0297294 187.607486,68.1265479 193.073895,69.1784085 C193.073895,69.1784085 194.287618,70.0451651 194.591824,69.9981546 L193.660579,68.1412387 C193.660579,68.1412387 192.248191,68.8287677 191.034468,68.3616006 C191.034468,68.3616006 193.610913,68.2176308 193.539517,67.8591755 C193.539517,67.7857216 193.005604,66.8925216 193.005604,66.8925216 C193.005604,66.8925216 190.540908,68.0824756 188.693939,67.3009255 C188.693939,67.3009255 191.798089,67.5212874 192.813146,66.5546334 L191.947088,65.2530294 C191.947088,65.2530294 189.407893,66.6280873 187.26603,65.8171557 C187.26603,65.8171557 190.509867,65.9405584 191.73911,64.9797807 L190.705428,63.8045175 C190.705428,63.8045175 188.200379,65.1031833 186.424805,64.4156543 C186.424805,64.4156543 190.187035,64.2011688 190.4602,63.5518359 C190.4602,63.5518359 189.442039,62.5322951 189.032291,62.3765727 C189.032291,62.3765727 187.213259,63.2580201 186.219931,62.7820385 C186.219931,62.7820385 188.703251,62.3883253 188.718772,62.1268292 C188.718772,62.1268292 187.020802,61.1307937 185.87537,61.0573397 C186.931588,61.0752135 187.964408,61.3548146 188.870875,61.8682713 C188.72945,61.2677124 188.405783,60.7193287 187.93963,60.2904805 C187.93963,60.2904805 189.122312,60.4168213 189.283727,62.1121385 C189.283727,62.1121385 190.578158,62.940699 190.66197,63.1698753 C190.66197,63.1698753 190.751991,61.4745582 190.233597,60.4638318 C190.233597,60.4638318 191.375925,61.3305884 190.947552,63.4695675 L192.012276,64.6272017 C192.012276,64.6272017 192.254399,62.3883253 191.86638,61.4569292 C191.86638,61.4569292 192.884542,62.5117279 192.257503,64.9386465 L193.117353,66.2049926 C193.117353,66.2049926 193.483643,64.2922517 193.288081,63.1669372 C193.288081,63.1669372 194.008244,64.3422004 193.350164,66.5781386 L193.821995,67.4889676 C193.821995,67.4889676 194.061015,66.0874663 194.092056,65.6790623 C194.123098,65.2706583 194.241055,65.2442149 194.241055,65.2442149 C194.427916,66.120695 194.353762,67.0290838 194.026869,67.86799 C194.026869,67.86799 194.861885,69.8071743 194.998468,69.7689783 Z" id="Path" fill="#302B27"></path>
                <ellipse id="Oval" fill="#302B27" opacity="0.1" cx="208" cy="212.5" rx="8" ry="1.5"></ellipse>
                <ellipse id="Oval" fill="#302B27" opacity="0.1" cx="178" cy="233.5" rx="8" ry="1.5"></ellipse>
                <ellipse id="Oval" fill="#302B27" opacity="0.1" cx="28" cy="222.5" rx="8" ry="1.5"></ellipse>
                <ellipse id="Oval" fill="#302B27" opacity="0.1" cx="239" cy="231.5" rx="8" ry="1.5"></ellipse>
                <ellipse id="Oval" fill="#302B27" cx="247" cy="215" rx="12" ry="2"></ellipse>
                <path d="M251.845866,211.240102 C252.381121,210.818078 252.770771,210.24749 252.96267,209.604699 C253.108467,208.953933 252.822705,208.175843 252.184115,207.938172 C251.466795,207.672206 250.699903,208.153207 250.116716,208.639867 C249.533529,209.126527 248.871612,209.683922 248.110552,209.582063 C248.905228,208.881568 249.263713,207.82836 249.055315,206.806404 C249.022276,206.598193 248.931568,206.402601 248.792881,206.240521 C248.393398,205.827426 247.673162,206.005679 247.194948,206.331062 C245.678662,207.366629 245.255851,209.364198 245.247103,211.163708 C245.095474,210.515771 245.223776,209.83954 245.22086,209.183115 C245.217944,208.52669 245.028408,207.768407 244.448137,207.423218 C244.091959,207.23051 243.689495,207.13288 243.281762,207.140276 C242.599433,207.11764 241.838374,207.182717 241.37474,207.666547 C240.791553,208.266384 240.946097,209.276486 241.447638,209.930082 C241.949179,210.583677 242.716071,211.00526 243.421727,211.463626 C243.986497,211.790884 244.4687,212.236545 244.83304,212.767988 C244.874559,212.842012 244.908732,212.919699 244.935098,213 L249.20986,213 C250.166852,212.532303 251.053683,211.940221 251.845866,211.240102 Z" id="Path" fill="#302B27"></path>
                <path d="M22,216.573359 C22,216.573359 26.5646468,216.427616 27.9474226,215.404314 C29.3301983,214.381011 34.9743023,213.162351 35.3162791,214.802736 C35.6582559,216.443121 42.1796048,222.955045 37.0231894,222.998458 C31.866774,223.041871 25.0421066,222.161211 23.668252,221.286752 C22.2943974,220.412294 22,216.573359 22,216.573359 Z" id="Path" fill="#A8A8A8"></path>
                <path d="M37.1158535,221.471664 C31.957245,221.512195 25.1296749,220.689998 23.7552359,219.873591 C22.7080443,219.254048 22.2915477,217.027746 22.1517238,216 L22,216 C22,216 22.2974976,219.58698 23.6630116,220.400492 C25.0285257,221.214004 31.8650207,222.039096 37.0236293,221.998565 C38.5111173,221.998565 39.0257882,221.471664 38.9990134,220.707368 C38.7907651,221.173473 38.2225446,221.462979 37.1158535,221.471664 Z" id="Path" fill="#000000" opacity="0.2"></path>
            </g>
        </g>
    </g>
</svg>