<?xml version="1.0" encoding="UTF-8"?>
<svg width="62px" height="61px" viewBox="0 0 62 61" version="1.1" xmlns="http://www.w3.org/2000/svg" xmlns:xlink="http://www.w3.org/1999/xlink">
    <title>undraw_No_data_re_kwbl</title>
    <g id="Mobile" stroke="none" stroke-width="1" fill="none" fill-rule="evenodd">
        <g id="FREE-EXPLORE---PRODUCT-MANAGEMENT---EMPTY" transform="translate(-157.000000, -133.000000)" fill-rule="nonzero">
            <g id="undraw_No_data_re_kwbl" transform="translate(157.000000, 133.000000)">
                <path d="M39,13.9487955 L22.5811179,13.9487955 C21.8020789,13.949763 21.1707793,14.5943392 21.1698317,15.3897618 L21.1698317,52.6483486 L20.9816602,52.7069527 L16.9538437,53.9663573 C16.5563781,54.0900971 16.1358412,53.8618616 16.0139516,53.4562552 L4.03304145,13.4982533 C3.91163227,13.0923994 4.13524607,12.6628596 4.53264241,12.5385697 L10.7394999,10.5980683 L28.733399,4.97445697 L34.9402094,3.03395561 C35.1309787,2.97400824 35.3372667,2.99399261 35.5135899,3.08950247 C35.6899131,3.18501232 35.8217918,3.34820434 35.8801486,3.54309706 L38.9426209,13.7566666 L39,13.9487955 Z" id="Path" fill="#F2F2F2"></path>
                <path d="M42.9416601,13.604249 L39.1916416,1.16719486 C39.0656375,0.748682745 38.7809896,0.39817226 38.400367,0.192833304 C38.0197444,-0.0125056524 37.5743535,-0.0558378468 37.1622535,0.0723769231 L28.2962269,2.82786285 L10.0155097,8.51062988 L1.14948316,11.2670864 C0.291896495,11.5344649 -0.190545741,12.4563846 0.0711946242,13.3276347 L12.8879876,55.8323881 C13.0976114,56.525745 13.7279936,56.9992885 14.4423153,57 C14.6033684,57 14.7635152,56.9755355 14.9173738,56.9272061 L20.9950307,55.038451 L21.1862118,54.9782749 L21.1862118,54.775423 L20.9950307,54.8346285 L14.8609906,56.7418247 C14.1040339,56.9761101 13.3031313,56.5441111 13.070579,55.7760943 L0.254765823,13.2703703 C0.143001639,12.9012413 0.180466909,12.5021303 0.358896389,12.1610853 C0.537325868,11.8200403 0.842057578,11.5650859 1.2058644,11.4524678 L10.0718909,8.69601128 L28.3526569,3.01421678 L37.2186835,0.25776027 C37.3553119,0.215423333 37.4973561,0.193836944 37.6402054,0.193701774 C38.2695042,0.195136459 38.8244864,0.612639261 39.0090932,1.22349063 L42.7418863,13.6042509 L42.8011639,13.7983676 L43,13.7983676 L42.9416601,13.604249 Z" id="Path" fill="#3F3D56"></path>
                <path d="M11.1164507,12 C10.7338487,11.9997279 10.3961304,11.750447 10.2837141,11.3853301 L9.03815086,7.32353106 C8.97055361,7.10318004 8.99341716,6.86504369 9.10171029,6.66152486 C9.21000342,6.45800602 9.39485239,6.3057814 9.61558046,6.23834865 L26.6293108,1.03809778 C27.088871,0.898091267 27.575205,1.15599398 27.7163158,1.61453604 L28.961879,5.67638241 C29.1020217,6.13518309 28.8437305,6.62065996 28.3844978,6.76161212 L11.3707201,11.961863 C11.28833,11.9871073 11.2026335,12 11.1164507,12 L11.1164507,12 Z" id="Path" fill="#313130"></path>
                <circle id="Oval" fill="#313130" cx="18" cy="3" r="2"></circle>
                <circle id="Oval" fill="#FFFFFF" cx="18" cy="3" r="1"></circle>
                <path d="M57.1859155,56 L24.8140845,56 C24.3646927,55.9994748 24.0005178,55.6300459 24,55.1741706 L24,15.8258294 C24.000502,15.3699475 24.3646861,15.0005092 24.8140845,15 L57.1859155,15 C57.6353071,15.0005258 57.9994817,15.3699544 58,15.8258294 L58,55.1741706 C57.9994654,55.6300388 57.6353003,55.9994577 57.1859155,56 Z" id="Path" fill="#E6E6E6"></path>
                <path d="M42.7932243,14 L22.6285047,14 C21.7296338,14.0012686 21.0012721,14.7276083 21,15.6239837 L21,54.5804878 L21.1915888,54.5222154 L21.1915888,15.6239837 C21.1925537,14.832999 21.8353179,14.1920191 22.6285047,14.1910569 L42.8526283,14.1910569 L42.7932243,14 Z M60.3714953,14 L22.6285047,14 C21.7296338,14.0012686 21.0012721,14.7276083 21,15.6239837 L21,59.3760163 C21.0012716,60.2723919 21.7296336,60.998732 22.6285047,61 L60.3714953,61 C61.2703664,60.998732 61.9987284,60.2723919 62,59.3760163 L62,15.6239837 C61.9987279,14.7276083 61.2703662,14.0012686 60.3714953,14 L60.3714953,14 Z M61.8084112,59.3760163 C61.8074463,60.167001 61.1646821,60.8079809 60.3714953,60.8089431 L22.6285047,60.8089431 C21.8353179,60.8079809 21.1925537,60.167001 21.1915888,59.3760163 L21.1915888,15.6239837 C21.1925537,14.832999 21.8353179,14.1920191 22.6285047,14.1910569 L60.3714953,14.1910569 C61.1646821,14.1920191 61.8074463,14.832999 61.8084112,15.6239837 L61.8084112,59.3760163 Z" id="Shape" fill="#3F3D56"></path>
                <path d="M50.1534653,18 L32.8465347,18 C32.3792246,17.9994587 32.0005261,17.6098301 32,17.1290323 L32,12.8709677 C32.0005266,12.3901702 32.3792248,12.0005419 32.8465347,12 L50.1534653,12 C50.6207752,12.0005419 50.9994734,12.3901702 51,12.8709677 L51,17.1290323 C50.9994739,17.6098301 50.6207754,17.9994587 50.1534653,18 Z" id="Path" fill="#313130"></path>
                <circle id="Oval" fill="#313130" cx="41" cy="11" r="2"></circle>
                <circle id="Oval" fill="#FFFFFF" cx="41" cy="11" r="1"></circle>
            </g>
        </g>
    </g>
</svg>