<svg width="52" height="51" viewBox="0 0 52 51" fill="none" xmlns="http://www.w3.org/2000/svg">
<path d="M0.219727 0.480469V50.8405H51.4697V0.480469H0.219727ZM38.3097 46.2705L31.0697 46.2105C33.2797 45.4405 37.3197 36.6905 34.9797 32.7805C34.9797 32.7805 35.1497 39.9005 29.4997 40.5305C30.3497 39.5305 29.2697 24.4505 23.5697 24.3205C27.4797 26.5305 27.8897 39.9605 25.4197 40.3205C22.9497 40.6805 20.1897 38.3705 18.9597 36.1605C18.9597 42.8705 27.5297 46.3805 27.5297 46.3805L20.6997 46.2305C11.6097 42.7405 5.31974 27.1005 14.5797 20.7305C13.0497 24.6405 13.8697 27.1705 14.7497 28.5005C17.4597 32.6105 22.2697 30.2705 19.4397 26.5005C16.6097 22.7305 15.1897 17.3405 19.4397 15.7205C17.9097 19.0005 20.7397 22.3105 23.4397 20.7805C26.1397 19.2505 22.0497 6.37049 28.5097 3.78049C27.1997 6.52049 26.2097 14.4505 30.4597 19.7205C32.3397 22.0105 33.9397 21.9105 34.1797 19.8005C34.4197 17.6905 34.1797 15.7505 32.1297 13.9405C35.5997 13.7405 39.5597 19.1005 36.8897 26.3905C35.2997 30.6905 37.1097 33.5505 39.8197 29.4505C41.0816 27.1742 41.5296 24.5357 41.0897 21.9705C47.6497 29.7205 39.5997 45.7805 38.3097 46.2705Z" fill="black"/>
</svg>
