<?xml version="1.0" encoding="UTF-8"?>
<svg width="58px" height="58px" viewBox="0 0 58 58" version="1.1" xmlns="http://www.w3.org/2000/svg" xmlns:xlink="http://www.w3.org/1999/xlink">
    <title>Google Plus</title>
    <g id="Symbols" stroke="none" stroke-width="1" fill="none" fill-rule="evenodd">
        <g id="Button/Social-Media-2" transform="translate(-224.000000, 5.000000)">
            <g id="Google-Plus" transform="translate(224.000000, -5.000000)">
                <circle id="Oval-1-Copy-6" fill="#DD4B39" cx="29" cy="29" r="29"></circle>
                <path d="M14.0257498,29.0247961 C14.1091951,24.1308079 18.6990165,19.8446481 23.6915521,20.0079211 C26.0834308,19.899288 28.3321662,20.9196637 30.1643347,22.35291 C29.3826535,23.2235918 28.5729372,24.0629122 27.7074808,24.8475927 C25.5052505,23.3551801 22.3725886,22.9290537 20.1703583,24.652635 C17.0192263,26.7887637 16.876083,31.8324457 19.9064996,34.1318475 C22.8538008,36.7535922 28.4248466,35.4516109 29.2391803,31.4376806 C27.3928294,31.4105223 25.5421907,31.4376806 23.6961696,31.3788377 C23.6915521,30.2992957 23.6869345,29.2197538 23.6915521,28.1402118 C26.7777089,28.1311591 29.8638657,28.1266327 32.95464,28.1492646 C33.1396709,30.6892111 32.7973143,33.3924307 31.205587,35.4926717 C28.7949083,38.8172988 23.9550809,39.7878842 20.1795933,38.3636907 C16.3902532,36.9485499 13.7064808,33.0251472 14.0257498,29.0247961" id="Fill-186" fill="#FFFFFF"></path>
                <path d="M39.6799731,26 L42.3244624,26 C42.3288979,26.884559 42.3333333,27.7732367 42.3422043,28.6577957 C43.2267633,28.6666667 44.115441,28.6666667 45,28.6755376 L45,31.3200269 C44.115441,31.3288979 43.2311988,31.3333333 42.3422043,31.3422043 C42.3333333,32.2311988 42.3288979,33.1157578 42.3244624,34 L39.6755376,34 C39.6666667,33.1157578 39.6666667,32.2311988 39.6577957,31.3466397 C38.7732367,31.3377688 37.8842422,31.3288979 37,31.3200269 L37,28.6755376 C37.8842422,28.6666667 38.7688012,28.6622312 39.6577957,28.6577957 C39.6622312,27.7688012 39.6711021,26.884559 39.6799731,26" id="Fill-187" fill="#FFFFFF"></path>
            </g>
        </g>
    </g>
</svg>