<svg width="35" height="35" viewBox="0 0 35 35" fill="none" xmlns="http://www.w3.org/2000/svg">
<path d="M17.5 0C14.0388 0 10.6554 1.02636 7.77753 2.94928C4.89967 4.87221 2.65665 7.60533 1.33212 10.803C0.00758191 14.0007 -0.338976 17.5194 0.336266 20.9141C1.01151 24.3087 2.67822 27.4269 5.12564 29.8744C7.57306 32.3218 10.6913 33.9885 14.0859 34.6637C17.4806 35.339 20.9993 34.9924 24.197 33.6679C27.3947 32.3433 30.1278 30.1003 32.0507 27.2225C33.9736 24.3446 35 20.9612 35 17.5C35 12.8587 33.1563 8.40752 29.8744 5.12563C26.5925 1.84374 22.1413 0 17.5 0ZM17.5 7.73904C18.0874 7.73904 18.6617 7.91324 19.1501 8.2396C19.6385 8.56596 20.0192 9.02983 20.244 9.57254C20.4688 10.1153 20.5277 10.7125 20.4131 11.2886C20.2985 11.8647 20.0156 12.394 19.6002 12.8094C19.1848 13.2247 18.6556 13.5076 18.0794 13.6222C17.5033 13.7368 16.9061 13.678 16.3634 13.4532C15.8207 13.2284 15.3568 12.8477 15.0304 12.3593C14.7041 11.8708 14.5299 11.2966 14.5299 10.7092C14.5336 9.92256 14.8477 9.16923 15.4039 8.61302C15.9601 8.05681 16.7134 7.74271 17.5 7.73904V7.73904ZM21.4602 25.6713C21.4602 25.8969 21.3705 26.1133 21.211 26.2728C21.0515 26.4323 20.8352 26.5219 20.6096 26.5219H14.3904C14.1649 26.5219 13.9485 26.4323 13.789 26.2728C13.6295 26.1133 13.5398 25.8969 13.5398 25.6713V23.998C13.5398 23.7724 13.6295 23.5561 13.789 23.3965C13.9485 23.237 14.1649 23.1474 14.3904 23.1474H15.241V18.6295H14.3904C14.1649 18.6295 13.9485 18.5399 13.789 18.3803C13.6295 18.2208 13.5398 18.0045 13.5398 17.7789V16.1056C13.5398 15.88 13.6295 15.6636 13.789 15.5041C13.9485 15.3446 14.1649 15.255 14.3904 15.255H18.8944C19.12 15.255 19.3364 15.3446 19.4959 15.5041C19.6554 15.6636 19.745 15.88 19.745 16.1056V23.1613H20.5956C20.8212 23.1613 21.0376 23.251 21.1971 23.4105C21.3566 23.57 21.4462 23.7864 21.4462 24.0119L21.4602 25.6713Z" fill="#0091FF"/>
</svg>
