<svg width="35" height="36" viewBox="0 0 35 36" fill="none" xmlns="http://www.w3.org/2000/svg">
<path d="M17.5 0.44458C14.0388 0.44458 10.6554 1.47094 7.77753 3.39386C4.89967 5.31679 2.65665 8.04991 1.33212 11.2476C0.00758191 14.4453 -0.338976 17.964 0.336266 21.3587C1.01151 24.7533 2.67822 27.8715 5.12564 30.3189C7.57306 32.7664 10.6913 34.4331 14.0859 35.1083C17.4806 35.7836 20.9993 35.437 24.197 34.1125C27.3947 32.7879 30.1278 30.5449 32.0507 27.6671C33.9736 24.7892 35 21.4057 35 17.9446C35 13.3033 33.1563 8.8521 29.8744 5.57021C26.5925 2.28832 22.1413 0.44458 17.5 0.44458ZM17.5 8.18362C18.0874 8.18362 18.6617 8.35782 19.1501 8.68418C19.6385 9.01054 20.0192 9.47441 20.244 10.0171C20.4688 10.5598 20.5277 11.157 20.4131 11.7332C20.2985 12.3093 20.0156 12.8386 19.6002 13.2539C19.1848 13.6693 18.6556 13.9522 18.0794 14.0668C17.5033 14.1814 16.9061 14.1226 16.3634 13.8978C15.8207 13.673 15.3568 13.2923 15.0304 12.8038C14.7041 12.3154 14.5299 11.7412 14.5299 11.1537C14.5336 10.3671 14.8477 9.61381 15.4039 9.0576C15.9601 8.50139 16.7134 8.18729 17.5 8.18362V8.18362ZM21.4602 26.1159C21.4602 26.3415 21.3705 26.5578 21.211 26.7173C21.0515 26.8769 20.8352 26.9665 20.6096 26.9665H14.3904C14.1649 26.9665 13.9485 26.8769 13.789 26.7173C13.6295 26.5578 13.5398 26.3415 13.5398 26.1159V24.4426C13.5398 24.217 13.6295 24.0006 13.789 23.8411C13.9485 23.6816 14.1649 23.592 14.3904 23.592H15.241V19.0741H14.3904C14.1649 19.0741 13.9485 18.9844 13.789 18.8249C13.6295 18.6654 13.5398 18.4491 13.5398 18.2235V16.5502C13.5398 16.3246 13.6295 16.1082 13.789 15.9487C13.9485 15.7892 14.1649 15.6996 14.3904 15.6996H18.8944C19.12 15.6996 19.3364 15.7892 19.4959 15.9487C19.6554 16.1082 19.745 16.3246 19.745 16.5502V23.6059H20.5956C20.8212 23.6059 21.0376 23.6955 21.1971 23.8551C21.3566 24.0146 21.4462 24.2309 21.4462 24.4565L21.4602 26.1159Z" fill="#3182CE"/>
</svg>
