<?xml version="1.0" encoding="UTF-8"?>
<svg width="236px" height="204px" viewBox="0 0 236 204" version="1.1" xmlns="http://www.w3.org/2000/svg" xmlns:xlink="http://www.w3.org/1999/xlink">
    <title>49EA5776-97A6-48FE-BE01-7310DE8D0AC6</title>
    <g id="Mobile" stroke="none" stroke-width="1" fill="none" fill-rule="evenodd">
        <g id="FREE-EXPLORE---SIGN-UP-3" transform="translate(-70.000000, -204.000000)" fill-rule="nonzero">
            <g id="undraw_Mailbox_re_dvds" transform="translate(70.000000, 204.000000)">
                <path d="M68.4879222,201.007165 C72.2290364,197.785355 74.501445,192.695798 73.9055076,187.74109 C73.3095702,182.786383 69.6184933,178.231489 64.8306685,177.179338 C60.0428437,176.127186 54.5850197,179.039715 53.1307942,183.806407 C52.3304666,174.616421 51.408231,165.04137 46.6141727,157.215235 C42.2732686,150.128859 34.7547431,145.058282 26.6063639,144.151162 C18.4579848,143.244041 9.87878197,146.670139 4.79693385,153.224883 C-0.284914273,159.779627 -1.52918327,169.308859 2.03001279,176.834241 C4.65194343,182.377934 9.48246862,186.503615 14.5436558,189.860069 C30.8981711,200.614604 50.5132789,204.988032 69.7799446,202.175673" id="Path" fill="#F2F2F2"></path>
                <path d="M12.3625175,147.192411 C19.1582526,152.663553 25.3926256,158.782605 30.9754605,165.461058 C39.7125717,175.877019 46.7827392,187.555208 51.9396528,200.088782 C52.3171473,201.003126 50.8150184,201.40114 50.4417202,200.496966 C47.1622984,192.572573 43.105036,184.984937 38.3281103,177.842857 C30.8790151,166.685943 21.7528571,156.716542 11.264078,148.27815 C10.4885695,147.653957 11.5934035,146.573388 12.3625175,147.192431 L12.3625175,147.192411 Z" id="Path" fill="#FFFFFF"></path>
                <path d="M73.5120777,201.007165 C69.7709636,197.785355 67.498555,192.695798 68.0944924,187.74109 C68.6904298,182.786383 72.3815066,178.231489 77.1693314,177.179338 C81.9571562,176.127186 87.414984,179.039715 88.8692056,183.806407 C89.6695371,174.616421 90.5917687,165.04137 95.385831,157.215235 C99.726731,150.128859 107.245256,145.058282 115.39364,144.151162 C123.542023,143.244041 132.121217,146.670139 137.203065,153.224883 C142.284913,159.779627 143.529182,169.308859 139.96999,176.834241 C137.34806,182.377934 132.517531,186.503615 127.456343,189.860069 C111.101828,200.614604 91.4867208,204.988032 72.2200553,202.175673" id="Path" fill="#F2F2F2"></path>
                <path d="M127.637487,147.192411 C120.841749,152.663552 114.607375,158.782604 109.024539,165.461058 C100.287428,175.877019 93.2172608,187.555208 88.0603472,200.088782 C87.6828527,201.003126 89.1849816,201.40114 89.5582798,200.496966 C97.9958801,180.127283 111.465748,162.173662 128.735922,148.27815 C129.51143,147.653957 128.406596,146.573388 127.637487,147.192431 L127.637487,147.192411 Z" id="Path" fill="#FFFFFF"></path>
                <circle id="Oval" fill="#F2F2F2" cx="84.5" cy="78.507326" r="12.5"></circle>
                <path d="M43.7044687,35.007326 L130,35.007326 L130,39.7765788 L54.7208646,39.7765788 C45.7818877,39.7765539 37.2090199,43.3635736 30.8882019,49.7485312 C24.5673839,56.1334889 21.0163866,64.7933598 21.0163919,73.8230633 L21.0163919,128.007326 L11.5737697,128.007326 C10.7046081,128.007326 10,127.295566 10,126.417583 L10,69.0538105 C10,60.0241074 13.55099,51.3642366 19.8718074,44.9792787 C26.1926248,38.5943209 34.7654922,35.007326 43.7044687,35.007326 Z" id="Path" fill="#F2F2F2"></path>
                <path d="M59,200.177656 L59,128.007326 L81,128.007326 L81,200.177656 C80.9988156,201.187683 80.147128,202.006188 79.0961538,202.007326 L60.9038462,202.007326 C59.852872,202.006188 59.0011844,201.187683 59,200.177656 Z" id="Path" fill="#3F3D56"></path>
                <path d="M6,127.952241 L6,68.6283277 C6.02199421,48.9646356 21.8077036,33.0295849 41.2871661,33.007326 L131,33.007326 L131,130.007326 L8.03583062,130.007326 C6.9120054,130.006028 6.00128569,129.086695 6,127.952241 L6,127.952241 Z M130.185668,33.8293599 L41.2871661,33.8293599 C22.2572478,33.8511341 6.83584621,49.4184315 6.81433225,68.6283277 L6.81433225,127.952241 C6.81433225,128.632928 7.36152081,129.185292 8.03583062,129.185292 L130.185668,129.185292 L130.185668,33.8293599 Z" id="Shape" fill="#3F3D56"></path>
                <path d="M82.7368421,86.007326 C78.727383,86.0026759 75.4782006,82.6572669 75.4736842,78.5290651 L75.4736842,24.9348622 C75.4729548,24.2468187 74.9314107,23.6892365 74.2631579,23.6884854 L46.0175439,23.6884854 C44.9038198,23.6871576 44.0012897,22.7578984 44,21.6111907 L44,2.08462069 C44.0012897,0.93791299 44.9038198,0.0086538791 46.0175439,0.00732600733 L87.9824561,0.00732600733 C89.0961867,0.00863788812 89.9987259,0.937906356 90,2.08462069 L90,78.5290651 C89.9954836,82.6572669 86.7463012,86.0026759 82.7368421,86.007326 Z" id="Path" fill="#313130"></path>
                <path d="M134.45679,31.007326 L134.45679,31.007326 C147.3845,30.9805483 157.886451,41.3379176 157.91358,54.1412347 L157.91358,121.107747 L204.004115,121.107747 C207.859736,121.099781 210.991877,124.188805 211,128.007326 L111,128.007326 L111,54.1412306 C111.027131,41.3379151 121.529082,30.9805483 134.45679,31.007326 Z" id="Path" fill="#3F3D56"></path>
                <path d="M127.042397,69.8930351 L131.903794,90.007326 L227,66.9492919 L222.138602,46.835001 C222.019244,46.3351501 221.652856,45.9312159 221.167517,45.7644019 C220.991219,45.7023034 220.804775,45.674202 220.618039,45.6815826 L165.648372,17.1736163 C164.982823,16.8332315 164.168915,17.0291902 163.730526,17.6353624 L137.23822,54.638479 L127.250888,68.5920642 C127.214218,68.6415133 127.200838,68.704494 127.21423,68.7646131 C127.010969,69.1034634 126.94923,69.5088994 127.042397,69.8930351 Z" id="Path" fill="#FFFFFF"></path>
                <path d="M129.005051,69.8363961 C129.014488,69.8893115 129.044403,69.936259 129.088192,69.9668723 C129.140004,70.0027021 129.204123,70.0154757 129.265537,70.0022025 C129.314957,69.9889289 129.358228,69.9586404 129.387867,69.9165747 L129.421943,69.8689129 L129.938675,69.13953 L139.323008,55.9343966 L165.640038,18.8884524 C165.950367,18.4546288 166.528194,18.3148287 166.999641,18.5595084 L221.198677,46.8858831 L221.685057,47.1406965 C221.704713,47.1490294 221.724849,47.156155 221.745357,47.1620343 C221.782026,47.1552993 221.819194,47.1517061 221.856464,47.1512931 C221.907337,47.1341032 221.949775,47.0979315 221.975085,47.0501857 C222.001725,46.9993827 222.007254,46.939971 221.990453,46.885049 C221.973652,46.830127 221.935901,46.7842047 221.885523,46.7574064 L221.818368,46.7213574 L167.19621,18.1738469 C166.534868,17.8329901 165.726106,18.0292206 165.290489,18.6362333 L138.965662,55.6906672 L129.041469,69.6636038 C129.005032,69.7131238 128.991739,69.7761935 129.005051,69.8363961 L129.005051,69.8363961 Z" id="Path" fill="#3F3D56"></path>
                <path d="M157.606806,69.8057402 L159.691724,70.0409326 L175.165315,71.784022 L185.423226,72.9388458 L186.029139,73.007326 L198.829168,62.8405854 L199.319564,62.4511557 L202.34282,60.0501448 L213.098771,51.5081507 L213.163351,50.9081609 L216.989075,15.7959125 C217.097648,14.7892466 216.384745,13.8830415 215.395116,13.7697565 L164.338127,8.0183473 C163.348307,7.90842298 162.45744,8.63314583 162.34561,9.63926555 L159.647675,34.4066422 L158.151128,48.1380829 L156.81239,60.4226359 L156.1918,66.1276105 L156.010717,67.7800998 C155.903191,68.7871256 156.616889,69.6928987 157.606806,69.8057402 L157.606806,69.8057402 Z" id="Path" fill="#E6E6E6"></path>
                <path d="M171.409593,39.5289616 L193.986846,42.0844588 L201.993538,42.9904663 C202.955244,43.0993188 203.90072,42.6755689 204.473816,41.8788392 C205.046912,41.0821094 205.16056,40.033442 204.77195,39.1278598 C204.38334,38.2222775 203.551511,37.59736 202.589805,37.4885075 L192.631176,36.3613489 L172.007508,34.0243153 C170.520574,33.8564285 169.18183,34.9517633 169.016781,36.4712724 C168.851731,37.9907814 169.922829,39.3594992 171.409593,39.5289616 Z" id="Path" fill="#FFFFFF"></path>
                <path d="M170.23427,49.4996999 C170.292527,49.5103436 170.350784,49.5209916 170.41008,49.5268319 L196.617114,52.4939121 L200.992728,52.9902989 C202.479894,53.1584165 203.818836,52.0626261 203.983339,50.5427825 C204.147842,49.0229388 203.075612,47.6545758 201.588446,47.486458 L195.261528,46.7710941 L174.501991,44.4202494 L171.00847,44.0246119 C169.556105,43.8590277 168.237174,44.9010285 168.028159,46.379159 C167.819144,47.8572896 168.795455,49.2382684 170.23427,49.4996745 L170.23427,49.4996999 Z" id="Path" fill="#FFFFFF"></path>
                <path d="M165.389531,60.2188395 C165.824807,60.9598157 166.572085,61.4504407 167.410629,61.5457906 L178.15235,62.7655112 L197.283462,64.9384813 L197.287678,64.9374326 L197.899419,65.007326 L200.985582,62.5362242 C201.004652,62.3485121 201.004805,62.1592849 200.986038,61.9715407 C200.851965,60.6729756 199.855296,59.6446117 198.589586,59.4988808 L195.932062,59.1961594 L185.389822,58.0000833 L177.80444,57.1375611 L168.006282,56.0242302 C166.981948,55.9079948 165.982037,56.3978678 165.426751,57.2879857 C164.871466,58.1781035 164.857046,59.314192 165.389552,60.2188225 L165.389531,60.2188395 Z" id="Path" fill="#FFFFFF"></path>
                <path d="M183.233309,28.8223688 L188.439567,29.3770276 L190.739111,29.6226833 L194.212712,29.9924718 C195.591091,30.139135 196.832088,29.1831844 196.984558,27.8572964 C197.137027,26.5314084 196.143232,25.3376696 194.764853,25.1910062 L183.787926,24.0223173 C182.409957,23.8749964 181.168738,24.8300941 181.015585,26.1555876 C180.862432,27.4810812 181.855341,28.6750332 183.233309,28.8223541 L183.233309,28.8223688 Z" id="Path" fill="#FFFFFF"></path>
                <path d="M136.052788,43.3379563 L143.020366,71.0823315 L154.649412,73.2138022 L165.406643,75.1879619 L176.948192,77.3048728 L180.636037,77.9813658 C181.072773,78.0609299 181.523915,77.9556555 181.874547,77.6923587 L184.833105,75.4649273 L186.70633,74.0548393 L200,64.0458258 L191.547409,30.3882514 C191.463915,30.0533968 191.28188,29.7489087 191.023181,29.5113814 C190.562102,29.0842661 189.906937,28.9132203 189.285268,29.0576596 L137.433171,41.1573844 C136.427731,41.3926446 135.809994,42.3684759 136.052788,43.3379563 L136.052788,43.3379563 Z" id="Path" fill="#313130"></path>
                <path d="M152.075486,66.8797674 C152.425347,68.3722338 153.875019,69.2891745 155.315428,68.9290837 L184.947812,61.4933492 C186.387104,61.1299541 187.271343,59.6278591 186.924825,58.1349119 C186.917255,58.0993528 186.907594,58.064307 186.895896,58.0299706 C186.502676,56.5934041 185.085225,55.7350863 183.684883,56.0855871 L154.052499,63.5213174 C152.612681,63.8839741 151.728089,65.3866742 152.075486,66.8797674 L152.075486,66.8797674 Z" id="Path" fill="#FFFFFF"></path>
                <path d="M155,73.1371518 L165.560424,75.007326 L187.930622,69.9700452 C189.38275,69.6430566 190.274961,68.2829813 189.923431,66.9322322 C189.5719,65.581483 188.109746,64.7515611 186.657618,65.0785498 L156.788646,71.8044118 C156.164438,71.9438513 155.614562,72.2866364 155.238627,72.7706724 C155.1481,72.8863439 155.068272,73.0089422 155,73.1371518 Z" id="Path" fill="#FFFFFF"></path>
                <path d="M177,77.7310306 L180.273963,77.9971151 C180.661684,78.02841 181.062196,77.9870025 181.373476,77.8834401 L184,77.007326 L177,77.7310306 Z" id="Path" fill="#FFFFFF"></path>
                <path d="M158.072077,49.7395995 C158.404378,51.3303944 159.781304,52.3077465 161.14943,51.9239271 L172.050797,48.8541489 C173.41786,48.466815 174.257726,46.8657616 173.928598,45.2744584 C173.843706,44.8637617 173.683515,44.4792566 173.458996,44.1472719 C172.843037,43.2307428 171.823489,42.817429 170.851245,43.0901172 L159.949878,46.1598955 C158.581676,46.5454154 157.741041,48.1479348 158.072077,49.7395859 L158.072077,49.7395995 Z" id="Path" fill="#FFFFFF"></path>
                <path d="M166.155302,75.0965652 L177.239857,77.218352 L180.780061,77.8965442 C181.199188,77.9752935 181.631786,77.8699483 181.968703,77.6070886 L184.81171,75.3744952 L183.814052,75.6174378 L181.707999,77.2701556 C181.467301,77.4579223 181.158267,77.5331776 180.858848,77.4769386 L178.237499,76.9753931 L167.152944,74.8536103 L166.155302,75.0965652 Z M199.264804,63.4819597 L199.372712,63.9303667 L199.864356,63.5458585 L199.264804,63.4819597 Z M166.155302,75.0965652 L177.239857,77.218352 L180.780061,77.8965442 C181.199188,77.9752935 181.631786,77.8699483 181.968703,77.6070886 L184.81171,75.3744952 L183.814052,75.6174378 L181.707999,77.2701556 C181.467301,77.4579223 181.158267,77.5331776 180.858848,77.4769386 L178.237499,76.9753931 L167.152944,74.8536103 L166.155302,75.0965652 Z M166.155302,75.0965652 L177.239857,77.218352 L180.780061,77.8965442 C181.199188,77.9752935 181.631786,77.8699483 181.968703,77.6070886 L184.81171,75.3744952 L183.814052,75.6174378 L181.707999,77.2701556 C181.467301,77.4579223 181.158267,77.5331776 180.858848,77.4769386 L178.237499,76.9753931 L167.152944,74.8536103 L166.155302,75.0965652 Z M130.041642,69.8926611 L142.549493,121.867274 C142.742751,122.666981 143.543185,123.158302 144.338549,122.96543 L234.866644,100.920559 C235.661674,100.726205 236.150125,99.9209868 235.958329,99.1208998 L223.450479,47.1462912 C223.333238,46.6531967 222.973351,46.2547225 222.496624,46.0901634 C222.323454,46.0289042 222.140319,46.0011827 221.956896,46.0084635 C221.743073,46.0146783 221.533513,46.0701318 221.344328,46.1705609 C221.256962,46.2122616 221.17455,46.2637408 221.098654,46.3240223 L213.66898,52.159919 L202.878859,60.6385729 L199.264068,63.478883 L199.264804,63.4819393 L199.261693,63.4826963 L186.005499,73.8922544 L183.81406,75.6174338 L181.708007,77.2701515 C181.467309,77.4579182 181.158275,77.5331735 180.858856,77.4769346 L178.237507,76.9753891 L167.152952,74.8536063 L156.058631,72.7309851 L131.759372,68.0793965 C131.552189,68.0380898 131.338544,68.0427313 131.133328,68.0929975 C130.857002,68.1609125 130.605886,68.3072459 130.409854,68.5145891 C130.334806,68.5960139 130.268004,68.6847525 130.210435,68.779492 C130.010778,69.1137609 129.950131,69.5137167 130.041642,69.8926611 L130.041642,69.8926611 Z M166.155302,75.0965652 L177.239857,77.218352 L180.780061,77.8965442 C181.199188,77.9752935 181.631786,77.8699483 181.968703,77.6070886 L184.81171,75.3744952 L183.814052,75.6174378 L181.707999,77.2701556 C181.467301,77.4579223 181.158267,77.5331776 180.858848,77.4769386 L178.237499,76.9753931 L167.152944,74.8536103 L166.155302,75.0965652 Z M166.155302,75.0965652 L177.239857,77.218352 L180.780061,77.8965442 C181.199188,77.9752935 181.631786,77.8699483 181.968703,77.6070886 L184.81171,75.3744952 L183.814052,75.6174378 L181.707999,77.2701556 C181.467301,77.4579223 181.158267,77.5331776 180.858848,77.4769386 L178.237499,76.9753931 L167.152944,74.8536103 L166.155302,75.0965652 Z M166.155302,75.0965652 L177.239857,77.218352 L180.780061,77.8965442 C181.199188,77.9752935 181.631786,77.8699483 181.968703,77.6070886 L184.81171,75.3744952 L183.814052,75.6174378 L181.707999,77.2701556 C181.467301,77.4579223 181.158267,77.5331776 180.858848,77.4769386 L178.237499,76.9753931 L167.152944,74.8536103 L166.155302,75.0965652 Z" id="Shape" fill="#FFFFFF"></path>
                <path d="M166.155302,75.0965529 L177.239857,77.2183398 L180.780061,77.896532 C181.199188,77.9752813 181.631786,77.8699361 181.968703,77.6070764 L184.81171,75.374483 L183.814052,75.6174256 L181.707999,77.2701434 C181.467301,77.4579101 181.158267,77.5331654 180.858848,77.4769264 L178.237499,76.9753809 L167.152944,74.8535981 L166.155302,75.0965529 Z M199.264804,63.4819475 L199.372712,63.9303545 L199.864356,63.5458463 L199.264804,63.4819475 Z M166.155302,75.0965529 L177.239857,77.2183398 L180.780061,77.896532 C181.199188,77.9752813 181.631786,77.8699361 181.968703,77.6070764 L184.81171,75.374483 L183.814052,75.6174256 L181.707999,77.2701434 C181.467301,77.4579101 181.158267,77.5331654 180.858848,77.4769264 L178.237499,76.9753809 L167.152944,74.8535981 L166.155302,75.0965529 Z M166.155302,75.0965529 L177.239857,77.2183398 L180.780061,77.896532 C181.199188,77.9752813 181.631786,77.8699361 181.968703,77.6070764 L184.81171,75.374483 L183.814052,75.6174256 L181.707999,77.2701434 C181.467301,77.4579101 181.158267,77.5331654 180.858848,77.4769264 L178.237499,76.9753809 L167.152944,74.8535981 L166.155302,75.0965529 Z M130.622535,68.8115289 L130.677513,68.8530401 C130.686717,68.8378723 130.70273,68.8242956 130.714892,68.8084033 C130.963887,68.5477251 131.326421,68.4303282 131.679832,68.4959335 L155.827182,73.1167061 L166.155302,75.0965448 L177.239857,77.2183317 L180.780061,77.8965238 C181.199188,77.9752732 181.631786,77.8699279 181.968703,77.6070683 L184.81171,75.3744749 L183.814052,75.6174175 L181.707999,77.2701353 C181.467301,77.4579019 181.158267,77.5331573 180.858848,77.4769183 L178.237499,76.9753728 L167.152944,74.85359 L156.058631,72.7309729 L131.759372,68.0793843 C131.552189,68.0380776 131.338544,68.0427191 131.133328,68.0929853 L130.622535,68.8115289 Z M130.041642,69.8926611 L142.549493,121.867274 C142.742751,122.666981 143.543185,123.158302 144.338549,122.96543 L234.866644,100.920559 C235.661674,100.726205 236.150125,99.9209868 235.958329,99.1208998 L223.450479,47.1462912 C223.333238,46.6531967 222.973351,46.2547225 222.496624,46.0901634 C222.323454,46.0289042 222.140319,46.0011827 221.956896,46.0084635 C221.743073,46.0146783 221.533513,46.0701318 221.344328,46.1705609 C221.256962,46.2122616 221.17455,46.2637408 221.098654,46.3240223 L213.66898,52.159919 L202.878859,60.6385729 L199.264068,63.478883 L199.264804,63.4819393 L199.261693,63.4826963 L186.005499,73.8922544 L183.81406,75.6174338 L181.708007,77.2701515 C181.467309,77.4579182 181.158275,77.5331735 180.858856,77.4769346 L178.237507,76.9753891 L167.152952,74.8536063 L156.058631,72.7309729 L131.759372,68.0793843 C131.552189,68.0380776 131.338544,68.0427191 131.133328,68.0929853 C130.857002,68.1609002 130.605886,68.3072337 130.409854,68.5145769 C130.334806,68.5960017 130.268004,68.6847403 130.210435,68.7794798 C130.010778,69.1137487 129.950131,69.5137045 130.041642,69.8926489 L130.041642,69.8926611 Z M130.454147,69.792212 C130.37937,69.4819318 130.447996,69.1542769 130.640867,68.9007211 C130.649463,68.8823214 130.661973,68.8660467 130.677513,68.8530483 C130.686717,68.8378804 130.70273,68.8243038 130.714892,68.8084115 C130.963887,68.5477332 131.326421,68.4303363 131.679832,68.4959416 L155.827182,73.1167142 L166.155302,75.0965529 L177.239857,77.2183398 L180.780061,77.896532 C181.199188,77.9752813 181.631786,77.8699361 181.968703,77.6070764 L184.81171,75.374483 L186.609623,73.9614927 L199.372704,63.9303342 L199.864348,63.545826 L202.877067,61.1782681 L213.605676,52.7501073 L221.361875,46.657081 C221.479793,46.5645924 221.615935,46.4984168 221.761247,46.4629548 C221.801818,46.4529639 221.843098,46.4461525 221.884716,46.4425817 C221.920964,46.435947 221.957705,46.4319515 221.994546,46.4319515 C222.118515,46.4308189 222.241768,46.4510418 222.358939,46.4917889 C222.698607,46.6107726 222.955325,46.8946103 223.041073,47.2459833 L235.548924,99.220596 C235.615387,99.4956654 235.570367,99.7860317 235.423787,100.027676 C235.277207,100.269321 235.041105,100.4424 234.767535,100.508755 L144.239448,122.553614 C143.670706,122.691161 143.098793,122.338909 142.962002,121.766808 L130.454147,69.792212 Z M166.155302,75.0965652 L177.239857,77.218352 L180.780061,77.8965442 C181.199188,77.9752935 181.631786,77.8699483 181.968703,77.6070886 L184.81171,75.3744952 L183.814052,75.6174378 L181.707999,77.2701556 C181.467301,77.4579223 181.158267,77.5331776 180.858848,77.4769386 L178.237499,76.9753931 L167.152944,74.8536103 L166.155302,75.0965652 Z M166.155302,75.0965652 L177.239857,77.218352 L180.780061,77.8965442 C181.199188,77.9752935 181.631786,77.8699483 181.968703,77.6070886 L184.81171,75.3744952 L183.814052,75.6174378 L181.707999,77.2701556 C181.467301,77.4579223 181.158267,77.5331776 180.858848,77.4769386 L178.237499,76.9753931 L167.152944,74.8536103 L166.155302,75.0965652 Z M166.155302,75.0965652 L177.239857,77.218352 L180.780061,77.8965442 C181.199188,77.9752935 181.631786,77.8699483 181.968703,77.6070886 L184.81171,75.3744952 L183.814052,75.6174378 L181.707999,77.2701556 C181.467301,77.4579223 181.158267,77.5331776 180.858848,77.4769386 L178.237499,76.9753931 L167.152944,74.8536103 L166.155302,75.0965652 Z" id="Shape" fill="#3F3D56"></path>
                <path d="M212.087143,90.3160747 C211.685768,88.4273481 212.708931,86.5267674 214.374315,86.0675281 L225.174481,83.1040337 C226.838386,82.6544673 228.50967,83.814986 228.912128,85.6994092 C229.314586,87.5838324 228.296606,89.4822677 226.635524,89.945056 L215.835359,92.9085504 C214.169058,93.3635037 212.4923,92.2037637 212.087143,90.3160747 Z" id="Path" fill="#313130"></path>
                <circle id="Oval" fill="#FFFFFF" cx="83" cy="78.007326" r="3"></circle>
            </g>
        </g>
    </g>
</svg>