<svg width="121" height="71" viewBox="0 0 121 71" fill="none" xmlns="http://www.w3.org/2000/svg">
<path fill-rule="evenodd" clip-rule="evenodd" d="M23.448 34.8458L24.1492 32.147C26.8431 31.3553 32.3415 30.9955 33.3748 33.8383C33.9652 35.4936 32.2677 42.3666 31.9356 44.3817L29.3155 44.4177C28.7251 43.698 29.2048 45.0294 28.7989 43.2662C26.2895 45.4612 20.9387 45.1014 21.3446 40.6753C21.7505 36.2852 25.6622 36.861 29.906 36.2132C29.8322 33.4065 26.2157 34.1621 23.4111 34.8099L23.448 34.8458ZM43.1908 34.414C40.7922 34.414 40.4232 33.9102 38.3197 34.8099C38.578 37.3647 39.9434 36.3572 41.8255 37.5807C45.405 39.8837 41.5671 47.0086 33.0427 43.9499L33.5224 41.359C35.9211 41.8268 37.1388 42.2946 38.984 41.2871C39.4268 37.6526 32.8213 40.0276 34.6664 34.1981C35.6628 31.0315 40.0541 31.4633 43.6706 31.7872L43.1539 34.414H43.1908ZM6.43603 28.9084L12.0821 29.0883L12.6725 37.7246L15.7354 30.8156C16.7687 28.3327 16.0676 28.8724 22.5624 28.9444L19.6471 44.3817L16.4735 44.3457L18.2079 33.2625L13.5213 44.4177L9.72034 44.3097C9.60964 42.1507 9.42512 34.558 8.83468 33.1186L6.91576 44.3457L3.59454 44.3097L6.43603 28.9084ZM60.2767 61.6902L61.8266 59.891C58.7268 59.4952 58.1732 60.3588 56.7709 57.9119L63.8931 57.8399C64.3359 57.1202 65.074 56.4365 65.443 55.6089C57.3245 55.0691 55.0365 57.0842 53.7449 53.6297H66.7715L68.2107 51.4347L52.1212 51.3627L51.3832 49.5275L68.7273 49.4555C69.7237 48.9158 69.7237 48.304 69.982 47.1885L53.5604 47.1525C50.6082 47.1885 50.4237 47.8362 49.8702 45.2094H70.5355L71.1998 42.9783L65.1478 42.9064L64.8526 44.4177L61.3837 44.2738L63.561 31.7152L66.8453 32.147C66.8453 32.219 66.9191 32.4709 66.9191 32.5788C66.9191 32.6508 66.956 32.7587 66.956 32.7947L67.1405 33.4424C68.0631 32.3629 68.6535 31.5713 70.7939 31.6432L69.6868 34.558C69.0595 35.3496 67.2143 34.45 66.4394 36.6091L70.0558 36.753C70.4617 34.486 70.9046 33.8023 71.5688 31.9671L71.6057 30.8875L48.9845 30.9235L48.9107 31.7152C50.1285 31.7152 50.0916 31.4993 50.7927 32.075L50.4606 34.1981C48.1727 34.7379 48.2465 33.4065 48.0251 36.3212C48.3572 36.861 47.9513 36.5731 48.6524 36.753L50.0916 36.789C52.4165 29.4122 59.3541 31.0315 60.9409 33.3345C61.7897 34.558 62.6384 38.5882 60.535 38.9121L53.4866 38.984C53.8187 42.6185 58.0994 41.8628 60.8671 40.9632C60.7564 42.4745 60.8671 43.698 59.4279 44.2018C58.2839 44.5976 55.8853 44.4897 54.6306 44.2018C51.5308 43.5181 50.2023 42.0067 49.9809 38.7322L48.6524 38.6962C47.4346 38.1564 48.3941 38.6962 47.7667 37.2208C47.2501 40.2435 45.8478 42.1867 49.6857 41.7549C49.4643 43.5541 49.7226 44.1658 47.6929 44.3817C41.7886 45.0654 43.7075 41.2151 44.6669 36.0693C46.1799 27.8649 44.9991 28.8724 49.2797 28.9444L71.2736 28.9804L70.8308 26.7493L49.575 26.6774L49.9809 24.8781L70.0927 24.7702C69.5761 21.7115 69.4654 22.4672 62.1587 22.4672H51.0142C51.7891 19.8403 51.3832 20.56 58.6161 20.56H68.3952L67.3619 18.293L53.1914 18.257L54.1509 16.3858L65.9965 16.3139C64.4835 13.2912 64.5574 14.1548 56.1805 14.0108C57.2507 11.42 59.1327 12.0677 62.417 12.0677C61.4945 10.6283 60.8302 10.7363 60.2767 9.51279C58.9113 8.82909 57.6935 7.60562 56.3281 6.67002C45.8847 -0.526867 31.7142 -1.28254 20.3482 4.11513C10.1263 8.93704 0.0888085 20.0922 0.199516 35.5295C0.347126 57.588 20.2006 73.6731 42.6742 69.9307C53.2283 68.1674 55.8853 63.9932 60.2398 61.6542L60.2767 61.6902Z" fill="#E41D2C"/>
<path fill-rule="evenodd" clip-rule="evenodd" d="M84.374 32.0391C95.8138 29.7721 93.9317 35.2777 93.0092 39.7397C92.714 41.0712 92.714 43.698 91.6438 44.4177C91.3855 44.4177 89.8725 44.4537 89.7249 44.3817C88.6916 43.9859 89.1713 45.1734 89.0237 43.3382C85.9239 45.0654 81.0159 45.4613 81.6063 40.6394C82.0861 36.789 86.0715 36.1773 90.1308 36.3572C89.9832 33.5144 87.3262 33.9822 83.636 34.8819L84.4109 32.0391H84.374ZM95.6662 31.7152L98.7291 31.7512C98.766 31.8232 98.8029 31.9311 98.8029 32.0031L99.2826 33.3345C99.8361 32.5069 100.869 31.7872 102.493 31.7512L102.05 34.3061L100.537 34.8819C97.5113 35.8534 97.6958 39.5598 96.8839 44.4177H93.452L95.6662 31.7152ZM111.94 28.9804H115.077L112.383 44.4537C108.877 44.4897 109.726 44.6696 108.619 43.3742C106.331 46.6847 99.4671 43.6261 101.571 36.789C103.12 31.6792 108.361 30.3118 110.944 33.3345L111.977 28.9444L111.94 28.9804ZM60.3136 9.5488C60.8672 10.7723 61.5683 10.6643 62.454 12.1037C59.1697 12.1037 57.2876 11.42 56.2175 14.0469C64.5943 14.1908 64.5205 13.3272 66.0335 16.3499L54.1878 16.4218L53.2284 18.293L67.3989 18.329L68.4322 20.596H58.653C51.457 20.596 51.8261 19.9123 51.0511 22.5032H62.1957C69.5023 22.5032 69.613 21.7475 70.1297 24.8062L50.0179 24.9142L49.6119 26.7134L70.8677 26.7854L71.3106 29.0164L49.3167 28.9804L49.0215 30.9955L71.6427 30.9595L71.6058 32.0391C73.3033 30.4558 73.0081 29.6281 76.1817 28.7285C78.8017 28.0088 80.4624 28.5486 83.0455 29.0884L82.492 32.3989C78.0637 31.1035 75.1853 31.4273 74.152 35.8894C73.0081 40.6753 76.8828 42.4746 80.979 40.5674C80.61 44.0579 80.0195 44.9215 75.8126 44.3817C72.8974 44.0219 72.0117 42.6545 70.7201 40.9632H65.4431L65.1478 42.9424L71.1998 43.0143L70.5356 45.2454H49.8702C50.4238 47.8722 50.6083 47.2245 53.5605 47.1885L69.9821 47.2245C69.6868 48.304 69.7237 48.9518 68.7274 49.4915L51.3832 49.5635L52.1213 51.3987L68.2107 51.4707L66.7716 53.6657H53.745C55.0366 57.0843 57.3245 55.1051 65.4431 55.6449C65.074 56.4725 64.336 57.1562 63.8932 57.8759L56.771 57.9479C58.1364 60.3588 58.7268 59.5312 61.8266 59.927L60.2767 61.7262C65.5538 65.5046 69.6499 68.6712 78.1744 70.1106C85.9239 71.4061 94.0055 69.9667 100.242 66.98C127.255 53.9896 126.517 16.5658 100.021 4.18712C90.4998 -0.238965 77.8792 -0.634794 68.0262 4.40303C63.2658 6.81399 62.1218 8.54124 60.3505 9.58479L60.3136 9.5488Z" fill="#F8B02B"/>
<path fill-rule="evenodd" clip-rule="evenodd" d="M3.5946 44.3457L6.91582 44.3817L8.83475 33.1546C9.42519 34.594 9.6097 42.1867 9.72041 44.3457L13.5214 44.4537L18.208 33.2985L16.4736 44.3817L19.6472 44.4177L22.5625 28.9804C16.0676 28.9084 16.7688 28.3687 15.7355 30.8516L12.6726 37.7606L12.0822 29.1243L6.43609 28.9444L3.5946 44.3457ZM106.405 41.503C103.637 38.7322 105.999 34.1262 108.582 34.7379C111.128 35.3496 110.649 41.431 106.405 41.503ZM110.907 33.3345C108.324 30.3118 103.12 31.6792 101.534 36.789C99.4302 43.5901 106.294 46.6847 108.582 43.3742C109.689 44.6696 108.84 44.4537 112.346 44.4537L115.04 28.9804H111.903L110.87 33.3705L110.907 33.3345ZM85.5549 41.539C85.0383 39.128 87.3262 38.1924 89.5035 38.6242C89.6142 41.0712 87.8429 42.4026 85.5549 41.539ZM84.374 32.0751L83.5991 34.9178C87.2893 34.0542 89.9832 33.5864 90.0939 36.3932C86.0346 36.2133 82.0492 36.825 81.5694 40.6753C80.9421 45.4972 85.887 45.1014 88.9868 43.3742C89.1344 45.2094 88.6547 44.0219 89.688 44.4177C89.8356 44.4897 91.3486 44.4537 91.6069 44.4537C92.714 43.77 92.714 41.1071 92.9723 39.7757C93.9318 35.2777 95.7769 29.808 84.3371 32.0751H84.374ZM29.3156 38.5163C29.3894 39.7397 29.168 40.6753 28.3561 41.2871C27.8026 41.6829 26.142 42.1507 25.4777 41.539C23.4112 39.7038 27.286 38.4803 29.2787 38.5163H29.3156ZM23.4481 34.8459C26.2527 34.1981 29.8691 33.4425 29.9429 36.2492C25.6992 36.897 21.7875 36.3212 21.3816 40.7113C20.9387 45.1374 26.2896 45.4972 28.8359 43.3022C29.2418 45.0654 28.7621 43.734 29.3525 44.4537L31.9726 44.4177C32.3047 42.3666 34.0022 35.5296 33.4118 33.8743C32.3785 30.9955 26.9169 31.3554 24.1862 32.183L23.485 34.8818L23.4481 34.8459ZM54.0402 36.6451C54.52 34.8099 55.3318 34.0542 57.5091 34.3421C58.284 35.4216 58.284 35.0977 58.4316 36.6451H54.0402ZM50.1286 36.825L49.981 38.7682C50.2024 42.0427 51.5678 43.5181 54.6307 44.2378C55.8853 44.5257 58.284 44.6336 59.428 44.2378C60.8672 43.77 60.7565 42.5105 60.8672 40.9992C58.0995 41.8988 53.8188 42.6545 53.4867 39.02L60.5351 38.9481C62.6385 38.6242 61.7897 34.6299 60.941 33.3705C59.3542 31.0675 52.4165 29.4482 50.0917 36.825H50.1286ZM71.6058 32.0391C70.9415 33.8743 70.4987 34.558 70.0928 36.825V38.8041L70.7201 40.9992C72.0117 42.6905 72.8974 44.0579 75.8127 44.4177C80.0195 44.9575 80.61 44.0939 80.979 40.6034C76.8459 42.5105 73.0081 40.7113 74.1521 35.9254C75.2222 31.4273 78.1006 31.1395 82.492 32.4349L83.0455 29.1243C80.4624 28.6205 78.8018 28.0808 76.1817 28.7645C73.0081 29.6281 73.3033 30.4917 71.6058 32.0751V32.0391ZM43.6706 31.7872C40.0542 31.4993 35.6628 31.0315 34.6665 34.1981C32.8213 40.0276 39.39 37.6526 38.984 41.2871C37.102 42.2946 35.9211 41.8268 33.5225 41.359L33.0427 43.9499C41.5672 47.0086 45.3682 39.9197 41.8255 37.5807C39.9435 36.3572 38.5781 37.4007 38.3198 34.8099C40.4232 33.8743 40.7554 34.414 43.1909 34.414L43.7075 31.7872H43.6706Z" fill="#FEFEFE"/>
<path fill-rule="evenodd" clip-rule="evenodd" d="M47.8036 37.2568L48.0619 36.3932C48.2833 33.4784 48.2095 34.8098 50.4975 34.2701L50.8296 32.147C50.1285 31.5712 50.1654 31.7871 48.9476 31.7871L49.0214 30.9955L49.3166 28.9804C45.0359 28.9084 46.2168 27.9008 44.7038 36.1053C43.7443 41.2511 41.8254 45.1014 47.7298 44.4177C49.7225 44.2018 49.5011 43.59 49.7225 41.7908C45.9216 42.2226 47.3239 40.2795 47.8036 37.2568ZM65.1477 42.9783L65.443 40.9992L65.812 38.8401L66.4762 36.681C67.2881 34.522 69.1332 35.4216 69.7236 34.6299L70.8307 31.7152C68.6535 31.6432 68.063 32.4349 67.1774 33.5144L66.9929 32.8667C66.9929 32.8307 66.956 32.7227 66.956 32.6508C66.956 32.5788 66.8822 32.2909 66.8822 32.219L63.5978 31.7871L61.4206 44.3457L64.8894 44.4897L65.1846 42.9783H65.1477ZM93.4519 44.4177H96.8838C97.6957 39.5598 97.5112 35.8534 100.537 34.8818L102.05 34.3061L102.493 31.7512C100.869 31.7871 99.836 32.5068 99.2825 33.3345L98.8028 32.0031C98.7659 31.9311 98.7659 31.8231 98.729 31.7512L95.6661 31.7152L93.4519 44.4177Z" fill="#FEFEFE"/>
<path fill-rule="evenodd" clip-rule="evenodd" d="M106.405 41.5029C110.685 41.431 111.165 35.3496 108.582 34.7379C105.962 34.1261 103.637 38.7321 106.405 41.5029Z" fill="#F8B02B"/>
<path fill-rule="evenodd" clip-rule="evenodd" d="M29.3156 38.5162C27.3228 38.4802 23.4481 39.7037 25.5146 41.5389C26.1788 42.1147 27.8395 41.6469 28.393 41.287C29.2048 40.7113 29.3894 39.7397 29.3525 38.5162H29.3156ZM65.443 40.9632L70.7201 40.9991L70.0927 38.8041H65.8121L65.443 40.9632Z" fill="#E41D2C"/>
<path fill-rule="evenodd" clip-rule="evenodd" d="M85.5548 41.539C87.8797 42.3666 89.6141 41.0712 89.5034 38.6242C87.2892 38.2284 85.0382 39.164 85.5548 41.539ZM65.812 38.8041H70.0927V36.825L66.4763 36.6451L65.812 38.8041Z" fill="#F8B02B"/>
<path fill-rule="evenodd" clip-rule="evenodd" d="M54.0402 36.6451H58.4316C58.3208 35.1337 58.2839 35.4216 57.509 34.3421C55.3317 34.0542 54.5199 34.8099 54.0402 36.6451Z" fill="#E41D2C"/>
<path fill-rule="evenodd" clip-rule="evenodd" d="M47.8036 37.2568C48.4309 38.7322 47.4715 38.1924 48.6892 38.7322L50.0177 38.7681L50.1653 36.825L48.7261 36.789C47.9881 36.6451 48.394 36.8969 48.0988 36.3572L47.8405 37.2208L47.8036 37.2568Z" fill="#F8B02B"/>
</svg>
