<?xml version="1.0" encoding="UTF-8"?>
<svg width="329px" height="198px" viewBox="0 0 329 198" version="1.1" xmlns="http://www.w3.org/2000/svg" xmlns:xlink="http://www.w3.org/1999/xlink">
    <title>73A05E0B-5D24-40FA-8EC3-8F07349662F4</title>
    <g id="Mobile" stroke="none" stroke-width="1" fill="none" fill-rule="evenodd">
        <g id="FREE-EXPLORE---SIGN-UP-4" transform="translate(-24.000000, -203.000000)" fill-rule="nonzero">
            <g id="undraw_Login_re_4vu2" transform="translate(24.000000, 203.000000)">
                <path d="M252.182464,194.022867 C247.986352,190.473396 245.437566,184.866278 246.105986,179.407704 C246.774405,173.949129 250.914374,168.931035 256.28452,167.771874 C261.654665,166.612712 267.776264,169.821443 269.407354,175.072882 C270.30502,164.948313 271.339415,154.399538 276.716537,145.777522 C281.585387,137.9705 290.018325,132.384267 299.157728,131.384899 C308.297132,130.385531 317.919744,134.160043 323.619654,141.381372 C329.319564,148.6027 330.715165,159.101005 326.723096,167.391685 C323.782276,173.499138 318.364271,178.044383 312.687519,181.742172 C294.343942,193.590389 272.343212,198.408572 250.733304,195.310208 L252.182464,194.022867 Z" id="Path" fill="#F2F2F2"></path>
                <path d="M314.471317,134.435537 C306.846831,140.615891 299.852167,147.528145 293.588498,155.072316 C283.785884,166.838489 275.853505,180.030518 270.067712,194.188815 C269.644161,195.221687 271.329497,195.671311 271.748318,194.649909 C281.214894,171.63972 296.327423,151.358781 315.703709,135.661994 C316.573805,134.95689 315.334244,133.736248 314.471317,134.435537 L314.471317,134.435537 Z" id="Path" fill="#FFFFFF"></path>
                <path d="M105.508427,194.155716 C111.271763,189.242169 114.772485,181.480218 113.854435,173.923902 C112.936385,166.367586 107.250138,159.421005 99.8742781,157.816388 C92.4984177,156.211771 84.0904387,160.65361 81.8501461,167.923193 C80.6172063,153.907727 79.1964688,139.305025 71.8110246,127.369547 C65.1236867,116.562278 53.5410944,108.829225 40.9881813,107.445797 C28.4352683,106.062369 15.2186665,111.287427 7.38987287,121.283952 C-0.43892079,131.280476 -2.35576813,145.813291 3.12731383,157.290099 C7.16650853,165.744665 14.60813,172.036657 22.4050942,177.15552 C47.2801081,193.486458 78.1375386,200.297447 107.498841,195.937788" id="Path" fill="#F2F2F2"></path>
                <path d="M20.0936276,111.514373 C30.5358536,120.025028 40.1154989,129.543544 48.6940004,139.932242 C57.2738571,150.31027 64.8274933,161.49656 71.2488087,173.333986 C74.838031,179.974246 78.0623155,186.805612 80.9072711,193.797592 C81.487324,195.219909 79.1791824,195.839035 78.6055671,194.43254 C73.566454,182.105706 67.3321211,170.302716 59.9919631,159.192814 C52.687462,148.123169 44.3270578,137.788635 35.0282029,128.334398 C29.7687375,122.989653 24.2195576,117.93832 18.4057901,113.20327 C17.2141343,112.232305 18.9118049,110.551415 20.09362,111.514384 L20.0936276,111.514373 Z" id="Path" fill="#FFFFFF"></path>
                <path d="M236,196.226437 L98,196.226437 L98,54.7967643 C98,24.7065233 122.508146,0.226436782 152.632786,0.226436782 L181.367218,0.226436782 C211.491858,0.226436782 236,24.7065233 236,54.7967643 L236,196.226437 Z" id="Path" fill="#F2F2F2"></path>
                <path d="M207,196.226437 L98,196.226437 L98,54.7957022 C97.970097,43.2657322 101.616407,32.0271565 108.40822,22.7162886 C108.658584,22.3745965 108.908306,22.0373267 109.165854,21.7037465 C112.451003,17.3894694 116.36044,13.5899553 120.765131,10.4306105 C121.013933,10.2493374 121.263738,10.071214 121.517247,9.89308303 C125.202947,7.33917872 129.189891,5.25141281 133.38733,3.6773061 C133.636592,3.58270801 133.890365,3.48792865 134.144138,3.39701645 C137.940331,2.04051828 141.87552,1.11132114 145.877024,0.626586624 C146.125091,0.592654577 146.37978,0.566101854 146.634477,0.53954913 C150.533958,0.122065999 154.466778,0.122065999 158.366259,0.53954913 C158.620216,0.566101854 158.874913,0.592654577 159.125922,0.626952947 C163.126396,1.11171923 167.060562,2.04079766 170.855768,3.39703155 C171.109635,3.48794376 171.363427,3.58272312 171.613406,3.67750626 C175.759062,5.23175636 179.699089,7.28836834 183.345557,9.80144574 C183.59887,9.97570577 183.852462,10.1538367 184.102275,10.3319639 C186.571216,12.0966366 188.890294,14.0625861 191.035835,16.2097422 C192.756408,17.9319939 194.359717,19.7678225 195.834976,21.7048757 C196.091695,22.0373493 196.341417,22.3746192 196.591324,22.7157599 C203.383394,32.0267237 207.02987,43.2655025 207,54.7957022 L207,196.226437 Z" id="Path" fill="#CCCCCC"></path>
                <circle id="Oval" fill="#313130" cx="199" cy="127.226437" r="6"></circle>
                <polygon id="Path" fill="#FFB8B8" points="224.999226 192.226437 220.25648 192.226437 218 174.226437 225 174.226817"></polygon>
                <path d="M216.795456,190.226437 L226,190.226437 L226,196.226437 L211,196.226437 L211,196.226437 C211,194.635138 211.610591,193.109014 212.697451,191.983796 C213.784311,190.858578 215.258409,190.226437 216.79546,190.226437 L216.795456,190.226437 Z" id="Path" fill="#2F2E41"></path>
                <polygon id="Path" fill="#FFB8B8" points="247.999226 192.226437 243.25648 192.226437 241 174.226437 248 174.226817"></polygon>
                <path d="M239.795456,190.226437 L249,190.226437 L249,196.226437 L234,196.226437 L234,196.226437 C234,194.635138 234.610591,193.109014 235.697451,191.983796 C236.784311,190.858578 238.258409,190.226437 239.79546,190.226437 L239.795456,190.226437 Z" id="Path" fill="#2F2E41"></path>
                <path d="M201.70325,128.421961 C201.02604,127.431894 200.825559,126.195031 201.155752,125.044186 C201.485946,123.893342 202.312895,122.946731 203.414086,122.459068 L219.221665,79.2264368 L227,83.4385658 L208.951146,124.753219 C209.66992,126.685606 208.818544,128.846046 206.969411,129.782041 C205.120279,130.718035 202.857874,130.133728 201.70325,128.421961 L201.70325,128.421961 Z" id="Path" fill="#FFB8B8"></path>
                <path d="M245.919469,136.667991 C244.886402,136.06588 244.168745,135.029526 243.959605,133.837792 C243.750465,132.646058 244.071325,131.421361 244.835849,130.493244 L240,84.2264368 L248.741382,84.6324185 L250.751145,130.141906 C252.232289,131.582517 252.419424,133.92162 251.186735,135.586601 C249.954047,137.251582 247.691169,137.716166 245.919469,136.668006 L245.919469,136.667991 Z" id="Path" fill="#FFB8B8"></path>
                <circle id="Oval" fill="#FFB8B8" cx="231.5" cy="61.7264368" r="9.5"></circle>
                <path d="M245.065789,126.226437 L217,126.226437 L217.033775,126.007544 C217.084209,125.680315 222.035716,93.1684522 218.383783,82.5320954 C217.624846,80.3673907 218.617149,77.977509 220.684225,76.9916693 L220.68432,76.9916693 C225.904182,74.5278161 235.92407,71.4939109 244.38111,78.8567188 C246.904241,81.0895261 248.232369,84.3820265 247.966508,87.7451069 L245.065789,126.226437 Z" id="Path" fill="#313130"></path>
                <path d="M222.355153,98.2264368 L210,95.6090062 L215.791351,81.2780859 C216.512967,78.3880454 219.338498,76.6531464 222.107855,77.3997004 C224.877213,78.1462545 226.545443,81.0925663 225.837201,83.9862124 L222.355153,98.2264368 Z" id="Path" fill="#313130"></path>
                <path d="M238.836964,102.226437 L238.100835,85.0683608 C237.542621,81.8429245 239.358506,78.793833 242.151202,78.2954387 C244.944705,77.798867 247.672388,80.0359029 248.233115,83.2850438 L251,99.3175823 L238.836964,102.226437 Z" id="Path" fill="#313130"></path>
                <path d="M244.638392,123.226437 C249.153456,140.447718 249.646024,162.343137 248.42793,186.226437 L242.364669,185.467401 L231.375009,139.925232 L225.311749,186.226437 L218.49058,185.846919 C216.452779,160.787447 214.468638,139.274256 217.732673,125.124027 L244.638392,123.226437 Z" id="Path" fill="#2F2E41"></path>
                <path d="M237.503434,68.2615093 C235.747392,70.1328983 232.486217,69.1282938 232.257403,66.5717153 C232.239457,66.3732284 232.240759,66.1734697 232.261289,65.9752338 C232.379429,64.8427781 233.033384,63.8146431 232.876735,62.6189347 C232.841279,62.321344 232.730455,62.0377398 232.554765,61.7949973 C231.155435,59.9203339 227.870606,62.6334854 226.54996,60.9364103 C225.740158,59.8958104 226.692069,58.2574099 226.070652,57.0943535 C225.250478,55.5593037 222.821166,56.3165491 221.297729,55.4758793 C219.602719,54.5405357 219.7041,51.9387444 220.819872,50.3562004 C222.180601,48.4262249 224.566396,47.3963914 226.922466,47.2479698 C229.278536,47.0995482 231.618371,47.7367335 233.817973,48.5943275 C236.317166,49.5687262 238.795473,50.91536 240.333443,53.1138938 C242.203773,55.7875417 242.383766,59.3820055 241.448376,62.5083336 C240.879368,64.4101124 238.937421,66.7333227 237.503434,68.2615093 Z" id="Path" fill="#2F2E41"></path>
                <path d="M317.55118,196.226437 L38.4488203,196.226437 C38.2007336,196.225638 38,196.002015 38,195.726437 C38,195.450859 38.2007336,195.227235 38.4488203,195.226437 L317.55118,195.226437 C317.799266,195.227235 318,195.450859 318,195.726437 C318,196.002015 317.799266,196.225638 317.55118,196.226437 L317.55118,196.226437 Z" id="Path" fill="#3F3D56"></path>
                <path d="M177.545455,155.226437 L128.454545,155.226437 C127.108414,155.233684 126.010408,154.144487 126,152.791549 L126,42.6613249 C126.010408,41.3083863 127.108414,40.21919 128.454545,40.2264368 L177.545455,40.2264368 C178.891586,40.21919 179.989592,41.3083863 180,42.6613249 L180,152.791549 C179.989592,154.144487 178.891586,155.233684 177.545455,155.226437 Z" id="Path" fill="#FFFFFF"></path>
                <rect id="Rectangle" fill="#CCCCCC" x="126" y="76.2264368" width="54" height="1"></rect>
                <rect id="Rectangle" fill="#CCCCCC" x="126" y="119.226437" width="54" height="1"></rect>
                <rect id="Rectangle" fill="#CCCCCC" x="143" y="40.2264368" width="1" height="115"></rect>
                <rect id="Rectangle" fill="#CCCCCC" x="162" y="40.2264368" width="1" height="115"></rect>
            </g>
        </g>
    </g>
</svg>