<?xml version="1.0" encoding="UTF-8"?>
<svg width="214px" height="163px" viewBox="0 0 214 163" version="1.1" xmlns="http://www.w3.org/2000/svg" xmlns:xlink="http://www.w3.org/1999/xlink">
    <title>E8BE9AF3-6EA5-4339-9EA0-19B666258654</title>
    <defs>
        <linearGradient x1="50%" y1="100%" x2="50%" y2="0%" id="linearGradient-1">
            <stop stop-color="#808080" stop-opacity="0.25" offset="0%"></stop>
            <stop stop-color="#808080" stop-opacity="0.12" offset="54%"></stop>
            <stop stop-color="#808080" stop-opacity="0.1" offset="100%"></stop>
        </linearGradient>
        <linearGradient x1="50.0089747%" y1="99.9926529%" x2="50.0089747%" y2="0.00193977786%" id="linearGradient-2">
            <stop stop-color="#808080" stop-opacity="0.25" offset="0%"></stop>
            <stop stop-color="#808080" stop-opacity="0.12" offset="54%"></stop>
            <stop stop-color="#808080" stop-opacity="0.1" offset="100%"></stop>
        </linearGradient>
    </defs>
    <g id="Mobile" stroke="none" stroke-width="1" fill="none" fill-rule="evenodd">
        <g id="FREE-EXPLORE---ONBOARDING-2" transform="translate(-80.000000, -188.000000)">
            <g id="undraw_onboarding_o8mv" transform="translate(81.000000, 189.000000)">
                <ellipse id="Oval" fill="#313130" fill-rule="nonzero" opacity="0.1" cx="160" cy="152.5" rx="21" ry="4.5"></ellipse>
                <path d="M12.3838314,112.467999 C10.0116284,113.288292 7.13238957,114.961763 7.61769523,117.621778 C7.86034806,118.970055 8.94323159,119.969387 9.97178985,120.81343 C14.3651901,124.409375 19.1942483,127.42673 24.3426321,129.792808 C26.7999447,130.918199 29.4129897,131.950417 31.2691028,134.025813 C33.1252158,136.10121 33.9853658,139.00238 34.5883762,141.799415 C36.0034927,148.423606 36.3532272,155.234326 35.6241778,161.970587 C43.0323325,162.113088 51.2354468,161.94501 56.4778345,156.561037 C59.6160237,153.3365 61.2982959,148.553588 64.9887919,146.057997 C67.4497262,144.39366 70.4828866,143.980773 73.412829,143.633656 C87.2802571,141.997942 101.219515,141.007744 115.230604,140.663062 C121.101353,140.518735 127.100673,140.46758 132.582092,138.403146 C138.063511,136.338711 143.039704,131.826185 144.153372,125.707785 C144.325402,124.765088 144.437674,123.725562 145.076902,123.067866 C145.647317,122.477767 146.502034,122.337093 147.300616,122.232958 L195.449094,115.655997 C198.08568,115.290611 200.814619,114.901474 203.034711,113.397908 C205.18237,111.936361 206.631043,109.60154 208.016338,107.325181 C211.190744,102.114767 214.484665,95.8155002 212.286303,89.8578702 C210.527975,85.0968816 205.801678,82.3546545 201.285438,80.6519526 C196.769198,78.9492506 191.907087,77.7526092 188.23651,74.4148018 C182.651873,69.3359268 181.413258,60.904629 179.839636,53.3392976 C178.415732,46.4883531 176.416595,39.7720691 173.863857,33.263126 C171.61117,27.5375165 168.867744,21.8941191 164.778863,17.4382285 C160.689982,12.9823378 155.063695,9.82356987 149.337813,10.0501096 C141.859035,10.3497267 135.280246,16.2306255 127.788793,15.4998521 C121.461711,14.8878294 116.313487,9.77241573 110.616578,6.58989767 C100.503025,0.935538659 88.5659549,1.43246456 77.4998994,3.19545533 C65.7656431,5.06075438 53.9589532,8.32548444 44.4520326,15.66793 C42.2790222,17.3487087 40.2001756,19.288912 38.923532,21.8173879 C36.9678226,25.6959676 37.1362309,30.4222445 36.1565654,34.7319804 C32.2089298,52.0878482 11.0438083,59.3279854 6.69235496,76.5577947 C5.14589588,82.6743679 6.29034804,89.3079632 9.12793747,94.9604953 C12.1792063,101.046011 18.3089065,103.640256 21.4507174,108.863459 C19.3501406,110.798181 15.1652847,111.505205 12.3838314,112.467999 Z" id="Path" fill="#313130" fill-rule="nonzero" opacity="0.1"></path>
                <path d="M164.282398,155 C164.282398,155 162.514716,141.58783 167.824509,132.760319 C170.077274,129.073655 171.182912,124.681415 170.975302,120.243532 C170.862757,118.137735 170.574804,116.047777 170.115075,114" id="Path" stroke="#535461" stroke-width="2"></path>
                <path d="M173.961127,108.946103 C173.727113,110.334249 170.071865,114 170.071865,114 C170.071865,114 167.787818,109.613198 168.016029,108.225052 C168.150435,107.313777 168.85637,106.534866 169.862177,106.188059 C170.867984,105.841252 172.016908,105.980599 172.866822,106.552477 C173.716735,107.124355 174.135178,108.039636 173.961127,108.946103 L173.961127,108.946103 Z" id="Path" fill="#313130" fill-rule="nonzero"></path>
                <path d="M177.28662,118.423193 C176.234185,119.532938 171,121 171,121 C171,121 171.865833,116.018173 172.916402,114.9153 C173.596733,114.196614 174.641865,113.866658 175.658106,114.049723 C176.674346,114.232788 177.507305,114.901061 177.843215,115.802811 C178.179124,116.704561 177.966952,117.70279 177.28662,118.421475 L177.28662,118.423193 Z" id="Path" fill="#313130" fill-rule="nonzero"></path>
                <path d="M175.313385,132.871609 C173.91328,133.408533 169,132.087779 169,132.087779 C169,132.087779 172.206634,127.647378 173.606739,127.112413 C174.976184,126.678024 176.404974,127.538641 176.859215,129.07151 C177.313456,130.604378 176.634383,132.273735 175.313385,132.871609 Z" id="Path" fill="#313130" fill-rule="nonzero"></path>
                <path d="M169.547905,145.504493 C168.204882,146.271646 163,145.91917 163,145.91917 C163,145.91917 165.582874,141.11834 166.925897,140.351187 C168.268873,139.58397 169.944526,140.115625 170.668574,141.538671 C171.392621,142.961718 170.890881,144.737277 169.547905,145.504493 L169.547905,145.504493 Z" id="Path" fill="#313130" fill-rule="nonzero"></path>
                <path d="M164.631127,121.168985 C165.650458,122.299726 171,124 171,124 C171,124 170.431976,119.140646 169.412645,118.004909 C168.39201,116.874571 166.494242,116.666554 165.173863,117.540289 C163.853483,118.414025 163.610492,120.038647 164.631127,121.168985 L164.631127,121.168985 Z" id="Path" fill="#313130" fill-rule="nonzero"></path>
                <path d="M159.109852,133.711085 C160.245381,134.698382 165,135 165,135 C165,135 163.134489,129.570873 161.992472,128.589609 C161.254845,127.930485 160.287909,127.815236 159.462475,128.288059 C158.63704,128.760883 158.08122,129.748394 158.008167,130.87189 C157.935114,131.995386 158.356165,133.080495 159.109852,133.711085 L159.109852,133.711085 Z" id="Path" fill="#313130" fill-rule="nonzero"></path>
                <path d="M156.8473,145.774966 C157.928587,146.847272 163,148 163,148 C163,148 161.798176,142.901188 160.715117,141.828883 C160.018665,141.115284 158.995015,140.835141 158.036278,141.095764 C157.077541,141.356387 156.332316,142.11738 156.086064,143.087244 C155.839811,144.057108 156.130698,145.085518 156.8473,145.778541 L156.8473,145.774966 Z" id="Path" fill="#313130" fill-rule="nonzero"></path>
                <path d="M173.961127,108.946103 C173.727113,110.334249 170.071865,114 170.071865,114 C170.071865,114 167.787818,109.613198 168.016029,108.225052 C168.150435,107.313777 168.85637,106.534866 169.862177,106.188059 C170.867984,105.841252 172.016908,105.980599 172.866822,106.552477 C173.716735,107.124355 174.135178,108.039636 173.961127,108.946103 L173.961127,108.946103 Z" id="Path" fill="#000000" fill-rule="nonzero" opacity="0.25"></path>
                <path d="M177.28662,118.423193 C176.234185,119.532938 171,121 171,121 C171,121 171.865833,116.018173 172.916402,114.9153 C173.596733,114.196614 174.641865,113.866658 175.658106,114.049723 C176.674346,114.232788 177.507305,114.901061 177.843215,115.802811 C178.179124,116.704561 177.966952,117.70279 177.28662,118.421475 L177.28662,118.423193 Z" id="Path" fill="#000000" fill-rule="nonzero" opacity="0.25"></path>
                <path d="M175.313385,132.871609 C173.91328,133.408533 169,132.087779 169,132.087779 C169,132.087779 172.206634,127.647378 173.606739,127.112413 C174.976184,126.678024 176.404974,127.538641 176.859215,129.07151 C177.313456,130.604378 176.634383,132.273735 175.313385,132.871609 Z" id="Path" fill="#000000" fill-rule="nonzero" opacity="0.25"></path>
                <path d="M169.547905,145.504493 C168.204882,146.271646 163,145.91917 163,145.91917 C163,145.91917 165.582874,141.11834 166.925897,140.351187 C168.268873,139.58397 169.944526,140.115625 170.668574,141.538671 C171.392621,142.961718 170.890881,144.737277 169.547905,145.504493 L169.547905,145.504493 Z" id="Path" fill="#000000" fill-rule="nonzero" opacity="0.25"></path>
                <path d="M164.631127,121.168985 C165.650458,122.299726 171,124 171,124 C171,124 170.431976,119.140646 169.412645,118.004909 C168.39201,116.874571 166.494242,116.666554 165.173863,117.540289 C163.853483,118.414025 163.610492,120.038647 164.631127,121.168985 L164.631127,121.168985 Z" id="Path" fill="#000000" fill-rule="nonzero" opacity="0.25"></path>
                <path d="M159.109852,133.711085 C160.245381,134.698382 165,135 165,135 C165,135 163.134489,129.570873 161.992472,128.589609 C161.254845,127.930485 160.287909,127.815236 159.462475,128.288059 C158.63704,128.760883 158.08122,129.748394 158.008167,130.87189 C157.935114,131.995386 158.356165,133.080495 159.109852,133.711085 L159.109852,133.711085 Z" id="Path" fill="#000000" fill-rule="nonzero" opacity="0.25"></path>
                <path d="M156.8473,145.774966 C157.928587,146.847272 163,148 163,148 C163,148 161.798176,142.901188 160.715117,141.828883 C160.018665,141.115284 158.995015,140.835141 158.036278,141.095764 C157.077541,141.356387 156.332316,142.11738 156.086064,143.087244 C155.839811,144.057108 156.130698,145.085518 156.8473,145.778541 L156.8473,145.774966 Z" id="Path" fill="#000000" fill-rule="nonzero" opacity="0.25"></path>
                <path d="M162,155 C162,155 155.947013,143.552894 157.438442,133.12891 C158.089089,128.764814 157.53185,124.267454 155.85039,120.31208 C155.038996,118.441342 154.084859,116.663181 153,115" id="Path" stroke="#535461" stroke-width="2"></path>
                <path d="M154.919551,107.900476 C155.370497,109.284219 153.778579,114 153.778579,114 C153.778579,114 149.560675,110.69644 149.113616,109.309347 C148.820567,108.414585 149.103637,107.453047 149.856195,106.786935 C150.608754,106.120824 151.71647,105.851337 152.762078,106.079987 C153.807686,106.308638 154.632333,107.000688 154.925382,107.895451 L154.919551,107.900476 Z" id="Path" fill="#313130" fill-rule="nonzero"></path>
                <path d="M161.870567,115.38947 C161.37909,116.769092 157.07041,120 157.07041,120 C157.07041,120 155.613463,115.226072 156.099112,113.844766 C156.591021,112.46415 158.280472,111.690733 159.872606,112.117291 C161.46474,112.54385 162.356648,114.008854 161.864739,115.38947 L161.870567,115.38947 Z" id="Path" fill="#313130" fill-rule="nonzero"></path>
                <path d="M164.121315,128.95067 C163.020697,130.014851 158,131 158,131 C158,131 159.365323,125.807751 160.465941,124.750921 C161.567196,123.685088 163.278612,123.763262 164.288497,124.925528 C165.298381,126.087794 165.224311,127.894026 164.123056,128.95986 L164.121315,128.95067 Z" id="Path" fill="#313130" fill-rule="nonzero"></path>
                <path d="M165.329051,140.199549 C164.31478,141.321053 159,143 159,143 C159,143 159.579583,138.174887 160.584195,137.045113 C161.229976,136.294686 162.299861,135.902653 163.379765,136.020745 C164.459669,136.138837 165.380127,136.748522 165.784889,137.61383 C166.189651,138.479138 166.015198,139.46428 165.329051,140.18797 L165.329051,140.199549 Z" id="Path" fill="#313130" fill-rule="nonzero"></path>
                <path d="M150.447767,124.497437 C151.790263,125.267817 157,124.923124 157,124.923124 C157,124.923124 154.421839,120.121899 153.082904,119.353402 C152.214295,118.85543 151.16054,118.885508 150.318578,119.432307 C149.476617,119.979106 148.974363,120.959553 149.00101,122.004324 C149.027657,123.049095 149.579158,123.999464 150.447767,124.497437 L150.447767,124.497437 Z" id="Path" fill="#313130" fill-rule="nonzero"></path>
                <path d="M151.121753,134.966329 C152.50429,135.283606 157,133.254191 157,133.254191 C157,133.254191 153.477978,129.384952 152.09544,129.069609 C151.191605,128.836434 150.251483,129.198404 149.638921,130.015431 C149.026359,130.832457 148.837478,131.976334 149.145379,133.004357 C149.45328,134.032381 150.209648,134.783237 151.121753,134.966329 Z" id="Path" fill="#313130" fill-rule="nonzero"></path>
                <path d="M154.609292,148.829081 C155.999332,149.416083 161,148.302736 161,148.302736 C161,148.302736 157.914112,143.739774 156.520597,143.144945 C155.154131,142.653071 153.68477,143.451208 153.17599,144.961691 C152.667211,146.472173 153.296893,148.166908 154.609292,148.819298 L154.609292,148.829081 Z" id="Path" fill="#313130" fill-rule="nonzero"></path>
                <polygon id="Path" fill="url(#linearGradient-1)" fill-rule="nonzero" points="56 13 56 17.9678791 56 141 148 141 148 17.9678791 148 13"></polygon>
                <rect id="Rectangle" fill="#F6F7F9" fill-rule="nonzero" x="57" y="14" width="90" height="5"></rect>
                <g id="Group" opacity="0.2" transform="translate(57.000000, 14.000000)" fill="#313130" fill-rule="nonzero">
                    <rect id="Rectangle" x="0.0145891784" y="0.0037037037" width="90.9088176" height="4.97962963"></rect>
                </g>
                <rect id="Rectangle" fill="#F6F7F9" fill-rule="nonzero" x="57" y="19" width="90" height="121"></rect>
                <circle id="Oval" fill="#F6F7F9" fill-rule="nonzero" cx="60" cy="16" r="1"></circle>
                <circle id="Oval" fill="#F6F7F9" fill-rule="nonzero" cx="63" cy="16" r="1"></circle>
                <circle id="Oval" fill="#F6F7F9" fill-rule="nonzero" cx="66" cy="16" r="1"></circle>
                <g id="Group" opacity="0.2" transform="translate(75.000000, 27.000000)" fill="#313130" fill-rule="nonzero">
                    <rect id="Rectangle" x="0.00919003115" y="0.14" width="58.9172897" height="1.79285714"></rect>
                </g>
                <rect id="Rectangle" fill="#313130" fill-rule="nonzero" x="125" y="26" width="7" height="2"></rect>
                <g id="Group" opacity="0.2" transform="translate(65.000000, 40.000000)" fill="#313130" fill-rule="nonzero">
                    <rect id="Rectangle" x="0.109950617" y="0.0875172414" width="72.7188148" height="26.9050345"></rect>
                </g>
                <rect id="Rectangle" fill="#F6F7F9" fill-rule="nonzero" x="87" y="49" width="42" height="2"></rect>
                <rect id="Rectangle" fill="#F6F7F9" fill-rule="nonzero" x="87" y="54" width="22" height="2"></rect>
                <rect id="Rectangle" fill="#313130" fill-rule="nonzero" x="125" y="61" width="7" height="2"></rect>
                <circle id="Oval" fill="#F6F7F9" fill-rule="nonzero" cx="75" cy="52" r="4"></circle>
                <g id="Group" opacity="0.2" transform="translate(65.000000, 73.000000)" fill="#313130" fill-rule="nonzero">
                    <rect id="Rectangle" x="0.109950617" y="0.0856551724" width="72.7188148" height="26.9050345"></rect>
                </g>
                <rect id="Rectangle" fill="#F6F7F9" fill-rule="nonzero" x="87" y="84" width="42" height="2"></rect>
                <rect id="Rectangle" fill="#F6F7F9" fill-rule="nonzero" x="87" y="88" width="22" height="2"></rect>
                <rect id="Rectangle" fill="#313130" fill-rule="nonzero" x="125" y="95" width="7" height="2"></rect>
                <circle id="Oval" fill="#F6F7F9" fill-rule="nonzero" cx="75" cy="86" r="4"></circle>
                <g id="Group" opacity="0.2" transform="translate(65.000000, 106.000000)" fill="#313130" fill-rule="nonzero">
                    <rect id="Rectangle" x="0.109950617" y="0.0837931034" width="72.7188148" height="26.9050345"></rect>
                </g>
                <rect id="Rectangle" fill="#F6F7F9" fill-rule="nonzero" x="87" y="118" width="42" height="2"></rect>
                <rect id="Rectangle" fill="#F6F7F9" fill-rule="nonzero" x="87" y="121" width="22" height="2"></rect>
                <rect id="Rectangle" fill="#313130" fill-rule="nonzero" x="125" y="128" width="7" height="2"></rect>
                <circle id="Oval" fill="#F6F7F9" fill-rule="nonzero" cx="75" cy="120" r="4"></circle>
                <path d="M34.4572065,84.9292252 C33.749898,88.1357953 32.4741839,92.0871055 32.4741839,92.0871055 C33.7352766,93.5529141 39.2365653,93.8151208 39.2365653,93.8151208 L39.2457036,93.8041956 L39.3316041,93.8041956 C39.3699852,94.0063133 39.4138493,94.2011475 39.4668518,94.3868772 C39.4571042,94.5701792 39.4479658,94.755909 39.4394367,94.9440666 C39.3609904,95.1632833 39.3341033,95.3975159 39.3608469,95.6287176 C39.3716316,95.68035 39.3850519,95.7314009 39.4010556,95.7816715 C39.2694633,98.6841547 39.1762521,101.779651 39.2566696,103.567756 C39.2571725,104.074258 39.3092227,104.579404 39.4120217,105.075444 C39.5071955,105.453984 39.5611189,105.841644 39.5728567,106.231703 C39.6624125,108.848308 39.0245555,113.243913 39.0245555,113.243913 C39.0245555,113.243913 39.0410045,113.304002 39.0501429,113.334957 C39.0391768,113.409613 39.0318662,113.453314 39.0318662,113.453314 C39.0873213,113.630429 39.1186715,113.814156 39.1250774,113.999579 C39.1725968,116.206485 37.9023657,121.008147 37.9023657,121.008147 C37.9023657,121.008147 36.8752148,128.391816 37.0214284,131.205076 C37.0261833,131.429745 37.0426545,131.654016 37.0707755,131.876981 C37.3851349,134.216812 37.8018438,140.75013 37.8018438,140.75013 C37.874728,140.857873 37.9547122,140.960675 38.0412687,141.057859 C38.0047153,141.20353 37.9608512,141.351021 37.9133317,141.496691 C37.4216436,142.969288 37.2139039,144.521238 37.301062,146.070743 C37.3138557,146.252831 37.3284771,146.451307 37.3467538,146.651603 C37.5569359,149.062449 43.410965,147.562043 43.7966036,147.281628 C43.9281958,147.185121 43.8349846,146.311099 43.6540452,145.202183 L49.6853584,146.6862 C49.6853584,146.6862 53.9621077,147.316225 55.9963052,146.6862 C58.0305026,146.056176 57.9592235,144.319056 55.0495718,144.033178 C53.011719,143.836522 51.3942305,141.946449 50.5955384,140.830249 C50.9044147,139.990823 53.2200734,133.619563 53.6459207,129.675537 C53.9214666,127.127545 54.3727496,124.601475 54.9965693,122.115242 L55.4516593,116.246545 L56.2594897,112.786872 L57.2226722,108.212821 C58.3101362,104.85876 58.6427723,99.2522693 58.6427723,99.2522693 L59.4835008,93.75139 C59.600633,93.1535431 59.6660599,92.5467854 59.6790615,91.9377933 C60.4674286,92.0988182 61.245547,92.3061536 62.0093416,92.5587135 C63.3252645,91.5390205 61.4610404,81.7135506 61.4610404,81.7135506 C61.4610404,81.7135506 60.5636541,75.5079907 59.8033431,69.8505157 C61.5451133,69.5901298 63.4330971,69.998007 63.4330971,69.998007 L74.4777108,70.2401841 C74.7071213,69.9404138 74.9055189,69.6183004 75.0698761,69.2787593 L75.5432428,69.2787593 C75.6019074,69.1974015 75.6481042,69.1078058 75.6803181,69.0129108 L75.8758789,69.0493284 C76.593805,69.2146486 77.2996799,69.4281794 77.9886662,69.6884574 C77.9886662,69.6884574 81.4722064,70.1072598 80.9458373,66.4673202 C80.5547158,63.7542086 77.4549863,64.7393048 75.9051216,65.4130305 L75.7095608,65.5022537 C75.6949395,65.4002844 75.6858011,65.3420162 75.6858011,65.3420162 L75.186847,65.4330602 C75.1559375,65.3572935 75.1211665,65.2831479 75.0826698,65.2109128 C75.0826698,65.2109128 69.665454,65.0015116 65.2735614,64.3459947 C62.1500723,63.8798493 59.7905494,62.1008493 58.6811534,61.1139322 C57.911704,57.2227111 55.6764628,56.0409598 55.6764628,56.0409598 C54.4354744,55.9790499 53.31694,55.4346067 52.6297358,55.0139834 C52.3813223,54.8662441 52.1431855,54.7019927 51.9169443,54.5223457 L51.796318,54.5915391 L51.7816966,54.578793 C52.5255586,53.8905002 53.2968356,53.2586548 53.9749014,52.7287786 L54.2801224,52.4938851 C56.4448789,52.282715 58.3762452,51.0489137 59.4721968,49.1770682 C60.5681484,47.3052228 60.6954086,45.0229651 59.8143092,43.0416956 C59.7850664,42.976144 59.7503407,42.9105923 59.7192703,42.8468615 C60.4181782,42.7698337 60.9729217,42.2254339 61.0607806,41.530365 C61.1284044,40.7674162 60.6002075,39.9553036 60.9456373,39.2706526 C61.0090887,39.1690762 61.0641019,39.0625035 61.1101277,38.9519986 C61.1387701,38.8477204 61.1474504,38.7390018 61.1357151,38.6315236 C61.0841164,37.9790598 60.7506647,37.3810767 60.2218797,36.9927314 C59.437809,36.4264377 58.7414665,36.7141367 57.884289,36.664973 C56.8936915,36.6085257 55.9122323,36.3699904 54.9362562,36.2097529 C53.8158941,36.0276649 52.6681169,35.903845 51.5495825,36.0986792 C50.431048,36.2935134 49.3362733,36.8397775 48.6874502,37.7684264 C48.4096443,38.1653783 48.2213942,38.6187775 47.956382,39.0284755 C47.6584716,39.5019044 47.2728331,39.9116025 46.9310587,40.3522555 C46.3553425,41.0933538 45.8892865,41.9819433 45.9349782,42.9178758 C45.9605656,43.4477519 46.1488157,43.9575984 46.1853691,44.4874746 C46.1871072,44.9811961 46.1504441,45.4743097 46.0757089,45.9623876 C46.0191504,46.5912576 46.0554813,47.2249922 46.1835414,47.8433569 C46.2092637,48.0369896 46.283424,48.2210753 46.3992066,48.3786957 C46.5296605,48.5179674 46.6930197,48.6225044 46.8744009,48.6827827 C47.0641016,48.7573501 47.2589484,48.8182037 47.4574279,48.8648707 C47.2353429,49.3796351 46.9616304,49.8707311 46.6404591,50.3306793 L46.3443764,50.0247714 L45.5438567,51.2702535 L45.5127863,51.186493 C45.4744052,51.2647909 45.4305411,51.339447 45.3848494,51.4141031 L45.3026042,51.186493 C44.9480361,51.8948155 44.2845916,52.4866016 43.5096593,52.9745975 C41.4151487,54.2856313 38.4927033,54.8282536 38.4927033,54.8282536 C33.7846237,55.5092628 34.6545949,60.3546252 34.6545949,60.3546252 C34.6545949,60.3546252 32.6569509,69.0001646 32.095856,74.3444482 C31.5347611,79.6887318 33.6201334,83.0937779 33.6201334,83.0937779 L34.4572065,84.9292252 Z M56.9101405,69.1276263 C57.0929076,69.7230541 57.2537426,70.287527 57.3908179,70.7809855 L57.3030897,70.8155823 C57.2025678,70.3585413 57.0654925,69.7722179 56.9156235,69.1276263 L56.9101405,69.1276263 Z M51.7305219,54.6206732 L51.7049345,54.6370611 L51.7286942,54.6133897 L51.7305219,54.6206732 Z M43.6101811,144.960006 C43.3798946,143.588883 43.0362926,141.933703 42.8242828,140.944965 C42.9741518,140.45879 43.1733679,139.71587 43.4073097,138.610596 C43.9336789,136.132378 44.2480382,127.363019 44.2480382,127.363019 L45.4762329,119.995737 C46.5984227,117.166089 46.8433305,113.804744 46.8433305,113.804744 C47.2947652,112.61753 48.3383651,105.350397 48.5046832,104.183213 C48.4571637,104.989863 48.3438481,107.032891 48.283535,109.301707 C48.283535,109.321737 48.283535,109.343588 48.283535,109.363617 C48.2378432,111.077066 48.2250495,112.914334 48.283535,114.438411 L48.283535,114.438411 C48.299984,114.866318 48.3219161,115.272374 48.3511588,115.647475 C48.3602972,115.743982 48.3657802,115.84413 48.3694355,115.942458 C48.5010278,119.893768 46.7245319,124.864771 46.7245319,124.864771 C46.7245319,124.864771 45.9331505,128.550233 46.0501215,130.609648 C46.0487404,130.979513 46.1016946,131.347589 46.2073011,131.702176 C46.2596506,131.866184 46.289769,132.036425 46.296857,132.208381 C46.3297551,134.178574 45.1618735,138.313793 44.8639632,139.328023 C44.2133125,140.664549 43.7289797,144.071416 43.6101811,144.960006 Z" id="Shape" fill="url(#linearGradient-2)" fill-rule="nonzero"></path>
                <path d="M50.1046423,140.174241 C50.1046423,140.174241 52.0521568,143.842944 54.7911746,144.117104 C57.5301923,144.391265 57.5961509,146.101162 55.6816157,146.723434 C53.7670805,147.345707 49.7418699,146.723434 49.7418699,146.723434 L44,145.249821 C44,145.249821 44.6943011,139.351759 45.6159858,139.043328 C46.5376705,138.734897 50.1046423,140.174241 50.1046423,140.174241 Z" id="Path" fill="#4C4C78" fill-rule="nonzero"></path>
                <path d="M42.7023257,140.413268 C42.7023257,140.413268 44.3442587,147.041995 43.9342659,147.311441 C43.5242731,147.580887 37.295913,149.017933 37.0683572,146.707388 C37.0487403,146.51543 37.0330468,146.328755 37.0212767,146.150885 C36.926752,144.665336 37.1477715,143.1772 37.6725571,141.765782 C37.8517902,141.333455 37.9376727,140.87444 37.9256149,140.413268 C37.8177221,139.483415 42.7023257,140.413268 42.7023257,140.413268 Z" id="Path" fill="#4C4C78" fill-rule="nonzero"></path>
                <path d="M44,53.9037026 C44,53.9037026 48.8652236,64.8040442 48.000632,61.309014 C47.4318218,58.9870682 51.1309844,55.905559 53.6887344,54.094026 C54.9913098,53.1700923 56,52.5766292 56,52.5766292 C56,52.5766292 46.8611155,42.8562928 47.5095592,47.050329 C47.6870535,48.1988106 47.5145272,49.3697166 47.0109022,50.4346256 C46.3444661,51.8044908 45.3086127,52.997972 44,53.9037026 L44,53.9037026 Z" id="Path" fill="#FFB9B9" fill-rule="nonzero"></path>
                <path d="M74,70.2829583 C74.4084055,70.2333308 74.8240323,70.2562907 75.2220951,70.350469 C76.0324522,70.5137077 76.8289573,70.7258691 77.6059091,70.9854345 C77.6059091,70.9854345 81.5407637,71.4014464 80.9370029,67.7868871 C80.495633,65.0901084 76.9979845,66.0681012 75.2470783,66.739559 C74.6516452,66.9676357 74.2560778,67.1610447 74.2560778,67.1610447 L74,70.2829583 Z" id="Path" fill="#FFB9B9" fill-rule="nonzero"></path>
                <path d="M75,68.9626074 C75.2839395,68.9351198 75.5728995,68.9478368 75.8496484,69 C76.146374,68.4754927 75.920573,67.2334512 75.8728074,67 C75.4588391,67.1263264 75.1838251,67.2334512 75.1838251,67.2334512 L75,68.9626074 Z" id="Path" fill="#000000" fill-rule="nonzero" opacity="0.1"></path>
                <path d="M75.2056503,67.0848881 L75.8740138,67 C75.8740138,67 76.2176663,68.5858209 75.7698357,69 L75,69 L75.2056503,67.0848881 Z" id="Path" fill="#CBCDDA" fill-rule="nonzero"></path>
                <path d="M56.8138129,71.6216188 C56.8138129,71.6216188 59.8595683,69.9666607 60.2221583,72.0574244 C60.5847482,74.1481882 61.0661871,77.7394473 61.0661871,77.7394473 L61.9082014,82.3016152 L63,91.4443394 L62.8469065,93 C62.8469065,93 59.6097842,92.0107028 58.8443165,92.3527275 C58.0788489,92.6947522 57.4644604,88.5169023 57.4644604,88.5169023 L56.2014388,84.1809121 L56,74.9867003 L56.8138129,71.6216188 Z" id="Path" fill="#4C4C78" fill-rule="nonzero"></path>
                <path d="M56.8138129,71.6216188 C56.8138129,71.6216188 59.8595683,69.9666607 60.2221583,72.0574244 C60.5847482,74.1481882 61.0661871,77.7394473 61.0661871,77.7394473 L61.9082014,82.3016152 L63,91.4443394 L62.8469065,93 C62.8469065,93 59.6097842,92.0107028 58.8443165,92.3527275 C58.0788489,92.6947522 57.4644604,88.5169023 57.4644604,88.5169023 L56.2014388,84.1809121 L56,74.9867003 L56.8138129,71.6216188 Z" id="Path" fill="#000000" fill-rule="nonzero" opacity="0.1"></path>
                <path d="M58,62 C58,62 60.6372273,64.9836865 64.6392912,65.5861616 C68.641355,66.1886368 73.579643,66.3793362 73.579643,66.3793362 C73.579643,66.3793362 74.8251404,68.6171011 73.0283297,71 L62.9618196,70.7772361 C62.9618196,70.7772361 60.7330348,70.2912057 59.0068191,70.7772361 L58,62 Z" id="Path" fill="#4C4C78" fill-rule="nonzero"></path>
                <path d="M58,62 C58,62 60.6372273,64.9836865 64.6392912,65.5861616 C68.641355,66.1886368 73.579643,66.3793362 73.579643,66.3793362 C73.579643,66.3793362 74.8251404,68.6171011 73.0283297,71 L62.9618196,70.7772361 C62.9618196,70.7772361 60.7330348,70.2912057 59.0068191,70.7772361 L58,62 Z" id="Path" fill="#000000" fill-rule="nonzero" opacity="0.05"></path>
                <g id="Group"></g>
                <path d="M48.0149051,50.2822131 C49.055975,52.4215652 50.8622757,54 53.4889751,54 C53.6046495,54 53.7167647,54 53.8306595,54 C55.0532493,53.0867994 56,52.5002304 56,52.5002304 C56,52.5002304 47.4222961,42.8928124 48.0309216,47.0381277 C48.2177803,48.2984814 48.4331127,49.3296798 48.0149051,50.2822131 Z" id="Path" fill="#000000" fill-rule="nonzero" opacity="0.1"></path>
                <path d="M48,46.4982407 C47.9990349,50.0880861 50.9083892,52.9990227 54.4982367,53 C58.0880842,53.0009768 60.9990226,50.0916243 61,46.5017789 C61.0009769,42.9119336 58.0916227,40.0009968 54.5017752,40 C52.7767181,39.9957814 51.1210425,40.678939 49.9009072,41.8984095 C48.6807719,43.1178801 47.9967128,44.7731825 48,46.4982407 L48,46.4982407 Z" id="Path" fill="#FFB9B9" fill-rule="nonzero"></path>
                <path d="M43,86.5519354 C43,86.5519354 58.3300472,87.8826966 58.9025386,85.9574183 C59.47503,84.03214 57.3384772,78.8195318 57.3384772,78.8195318 L58.0232218,71.5399183 L58.0494142,71.2601455 C58.0494142,71.2601455 56.133626,63.3860149 56.1972362,62.7638887 C56.2627172,62.1988213 53.1046601,55.5855087 52.4554624,54.2400227 L52.3375965,53.9970621 L52.2159889,54.0670053 L52.163604,54.0982957 L51.4152493,54.5289985 L48.4461518,53.8406102 L44.8727578,52 L44.5341273,72.136276 L43,86.5519354 Z" id="Path" fill="#CBCDDA" fill-rule="nonzero"></path>
                <path d="M50.7487201,56.033347 C50.7487201,56.033347 51.9453925,55.7633607 52.4125427,56.7598231 C52.5927143,57.1855659 52.8064911,57.6009243 53.0524744,58.0031809 L53.5196246,60.3122738 L54.3728669,63.9588644 L55,80.122515 L54.71843,83 L53.1569966,80.6909071 L52.8732935,65.5929917 L52.8732935,63.7101929 C52.7811765,62.0855781 52.3404925,60.4878194 51.572099,58.9925384 L51.3587884,58.5680205 L50,57.1168444 L50.7487201,56.033347 Z" id="Path" fill="#000000" fill-rule="nonzero" opacity="0.1"></path>
                <path d="M51.7520239,56.0333558 C51.7520239,56.0333558 52.9471666,55.7632984 53.4137196,56.7600231 C53.593661,57.185878 53.8071645,57.6013456 54.0528334,58.0037081 L54.5193865,60.3134089 L55.3715381,63.9609593 L56,80.1288643 L55.7145292,83 L54.1550916,80.6902993 L53.8717512,65.58841 L53.8717512,63.7051155 C53.7804733,62.0801773 53.3410734,60.4819955 52.5743502,58.9862193 L52.3613123,58.5615897 L51,57.1153617 L51.7520239,56.0333558 Z" id="Path" fill="#4C4C78" fill-rule="nonzero"></path>
                <path d="M45.5741726,51 C45.5741726,51 49.5851064,54.4537593 51,54.8674033 C51,54.8674033 50.2925532,57.4888302 49.5851064,58 C49.5851064,58 45.375591,54.5109296 44.6205674,54.228441 L44,52.9858275 L45.5741726,51 Z" id="Path" fill="#000000" fill-rule="nonzero" opacity="0.1"></path>
                <path d="M45.5741726,51 C45.5741726,51 49.5851064,54.4537593 51,54.8674033 C51,54.8674033 50.2925532,57.4888302 49.5851064,58 C49.5851064,58 45.375591,54.5109296 44.6205674,54.228441 L44,52.9858275 L45.5741726,51 Z" id="Path" fill="#CBCDDA" fill-rule="nonzero"></path>
                <path d="M51,55 L51.0379147,55.0889169 L52.2170616,57.8839258 L54.321327,63.1618958 C54.321327,63.1618958 54.3421801,63.2155814 54.3781991,63.316242 C54.7270142,64.2758729 56.6037915,69.4850582 56.9734597,71 L57,70.7449932 C57,70.7449932 55.0606635,63.5611828 55.1251185,62.9941281 C55.1914692,62.4790815 51.9914692,56.4511901 51.3336493,55.2248086 C51.2293839,55.1610569 51.1440758,55.1073713 51.0909953,55.0671071 L51,55 Z" id="Path" fill="#000000" fill-rule="nonzero" opacity="0.1"></path>
                <path d="M54,57 L55.007103,59.9917427 L56.7499246,65.4606693 C56.7499246,65.4606693 56.7671803,65.5162973 56.7969855,65.6205997 C57.1028813,66.6810083 58.8457029,72.7305519 58.9931603,73.8378966 C59.15003,75.0547588 61.3462048,81.6223381 61.3462048,81.6223381 L62.6011618,93 C63.7196423,92.0334637 62.130553,82.7435897 62.130553,82.7435897 C62.130553,82.7435897 60.3406705,68.9617558 59.9171225,64.3776619 C59.4935745,59.793568 57.1985718,58.4376358 57.1985718,58.4376358 C56.1428392,58.3785311 55.1922092,57.8639722 54.6070855,57.4658844 C54.3955897,57.3257402 54.1927766,57.170099 54,57 Z" id="Path" fill="#4C4C78" fill-rule="nonzero"></path>
                <path d="M38.053093,132.124837 C38.3591044,134.389135 38.7689092,140.709261 38.7689092,140.709261 C40.2005415,142.842037 43.3626593,141.688561 43.3626593,141.688561 C43.3626593,141.688561 43.7008824,141.045173 44.2109014,138.6458 C44.7209204,136.246427 45.0287214,127.765088 45.0287214,127.765088 L46.2205553,120.636284 C47.3085958,117.899221 47.5466047,114.655624 47.5466047,114.655624 C48.0226224,113.411505 49.180455,105.193207 49.180455,105.193207 C49.180455,105.193207 48.7026478,112.560171 49.001501,116.445379 C49.3003542,120.330586 47.4374427,125.570106 47.4374427,125.570106 C47.4374427,125.570106 46.3816139,130.470159 46.9274237,131.989762 C47.4732335,133.509365 45.5655835,139.795722 45.5655835,139.795722 C45.7355898,141.621023 51.1453704,140.876329 51.1453704,140.876329 C51.1453704,140.876329 53.6972549,134.085214 54.1392714,129.995616 C54.4068901,127.530124 54.8451716,125.085866 55.4510045,122.680194 L55.8912314,117.003455 L56.6750501,113.658551 L57.6109797,109.233041 C58.665019,105.987667 58.9889258,100.565083 58.9889258,100.565083 L59.8049562,95.243807 C60.3418183,92.6116059 59.6492662,89.5261898 59.1839857,87.90528 C58.9835572,87.2067958 58.8260776,86.7784633 58.8260776,86.7784633 C58.3572181,87.1090436 55.6729075,87.4893886 54.2842242,87.8110824 C53.5218831,87.9843238 52.7378721,88.0442202 51.9578217,87.9888137 C48.4484848,87.7134918 44.9766486,87.0828262 41.5963829,86.1066388 L41.2384749,86 L41.1668933,86.6078412 L40.9986765,88.0581289 L40.7016128,90.6299014 C40.7016128,90.6299014 39.781789,104.348984 40.3258093,106.208053 C40.8698296,108.067123 39.9517953,114.310825 39.9517953,114.310825 C40.4618143,115.793105 38.8637548,121.818197 38.8637548,121.818197 C38.8637548,121.818197 37.7470816,129.862317 38.053093,132.124837 Z" id="Path" fill="#000000" fill-rule="nonzero" opacity="0.1"></path>
                <path d="M38.0528793,131.124837 C38.3588937,133.389135 38.7687024,139.709261 38.7687024,139.709261 C40.2003486,141.842037 43.3624973,140.688561 43.3624973,140.688561 C43.3624973,140.688561 43.7007237,140.045173 44.2107477,137.6458 C44.7207716,135.246427 45.0285756,126.765088 45.0285756,126.765088 L46.2204211,119.636284 C47.3084722,116.899221 47.5464834,113.655624 47.5464834,113.655624 C48.0225058,112.411505 49.1803497,104.193207 49.1803497,104.193207 C49.1803497,104.193207 48.7025377,111.560171 49.0013939,115.445379 C49.3002501,119.330586 47.4373204,124.570106 47.4373204,124.570106 C47.4373204,124.570106 46.3814813,129.470159 46.9272964,130.989762 C47.4731115,132.509365 45.5654429,138.795722 45.5654429,138.795722 C45.7354509,140.621023 51.1452841,139.876329 51.1452841,139.876329 C51.1452841,139.876329 53.6971936,133.085214 54.1392143,128.995616 C54.4068356,126.530124 54.8451214,124.085866 55.4509602,121.680194 L55.8911914,116.003455 L56.6750177,112.658551 L57.6109565,108.233041 C58.665006,104.987667 58.988916,99.5650833 58.988916,99.5650833 L59.8049543,94.2420297 C60.3418217,91.6116059 59.6492628,88.5261898 59.1839778,86.90528 C58.9835473,86.2067958 58.8260662,85.7784633 58.8260662,85.7784633 C58.3572021,86.1090436 55.6728654,86.4893886 54.2841685,86.8110824 C53.52182,86.9843238 52.7378014,87.0442202 51.9577434,86.9888137 C48.4483723,86.7134918 44.9765023,86.0828262 41.5962037,85.1066388 L41.2382922,85 L41.1667099,85.6078412 L40.9984914,87.0581289 L40.7014248,89.6299014 C40.7014248,89.6299014 39.7815921,103.348984 40.3256177,105.208053 C40.8696433,107.067123 39.9569688,113.312602 39.9569688,113.312602 C40.4669928,114.794882 38.8689176,120.819974 38.8689176,120.819974 C38.8689176,120.819974 37.7468649,128.862317 38.0528793,131.124837 Z" id="Path" fill="#474463" fill-rule="nonzero"></path>
                <path d="M48,45.9751087 C47.9996099,47.0166362 48.3099512,48.0400437 48.9000572,48.9432122 C49.9572082,49.10567 51.0827413,48.9269664 51.8829971,48.3112515 C52.4245098,47.8921104 52.7738131,47.3186345 53.239551,46.8328857 C53.5405684,46.5330861 53.8647679,46.2519075 54.2098381,45.9913545 C54.4340512,45.7944459 54.6922897,45.6299552 54.9749788,45.5039811 C55.264306,45.3738217 55.6062648,45.3702146 55.8990618,45.4942337 C56.268695,45.677811 56.401763,46.08558 56.6124539,46.4121201 C56.7754281,46.6910822 57.0539111,46.9044762 57.3905318,47.0083401 C57.734528,47.1033772 58.1088704,46.9908404 58.3146148,46.7305373 C58.5437874,46.3828777 58.3756043,45.8402687 58.761871,45.6290736 C58.8633623,45.5850467 58.96837,45.5475821 59.0760592,45.5169778 C59.5732158,45.3187793 59.630509,44.7323067 59.6711686,44.2546809 C59.6933466,44.0191171 59.7506398,43.7526863 59.976116,43.6259693 C60.2015923,43.4992522 60.4954507,43.5626107 60.7634348,43.5691091 C60.8427902,43.5706117 60.9220998,43.5646206 61,43.5512387 C59.7001722,40.972723 56.5245009,39.5458692 53.3855979,40.1300287 C50.246695,40.7141883 48.0013422,43.1499115 48.0018485,45.970235 L48,45.9751087 Z" id="Path" fill="#000000" fill-rule="nonzero" opacity="0.1"></path>
                <path d="M61.0937227,39.0072076 C61.6147442,39.3926932 61.9435725,39.9881578 61.9944013,40.6382175 C62.0067085,40.7459058 61.9986821,40.8549732 61.9707471,40.959644 C61.9247877,41.0701247 61.8706547,41.1769565 61.8088069,41.2792337 C61.466731,41.9624946 61.9907622,42.7743261 61.9216192,43.5384028 C61.8308066,44.2832868 61.2093862,44.8462746 60.4659769,44.8571698 C60.2021417,44.8571698 59.9201111,44.7781908 59.6908474,44.9214551 C59.4615837,45.0647195 59.4124558,45.3659421 59.3906212,45.6322669 C59.3487715,46.1741001 59.2941849,46.8371571 58.8047251,47.0594005 C58.6989579,47.0954239 58.5956306,47.138372 58.4954012,47.1879711 C58.1151146,47.4267451 58.2825135,48.0420473 58.0550694,48.4314325 C57.8533844,48.7269072 57.4843723,48.8550452 57.1452929,48.7473488 C56.8142625,48.6292661 56.5403041,48.3881937 56.3792612,48.0732715 C56.1700126,47.705927 56.0444635,47.2430728 55.6769138,47.0355231 C55.3887448,46.8955871 55.0524764,46.8989815 54.7671373,47.0447067 C54.4888884,47.1872364 54.2346636,47.3731957 54.0138425,47.5957236 C53.6745525,47.8907806 53.3554036,48.2086455 53.0585772,48.547146 C52.6000499,49.0981629 52.2561544,49.7446893 51.7212058,50.2185638 C50.7168127,51.1093744 49.1738318,51.1975371 47.9365359,50.6906016 C47.7579361,50.6296879 47.5967828,50.5256522 47.4670912,50.3875423 C47.3503748,50.2276246 47.275298,50.0406877 47.2487449,49.8438724 C47.1230549,49.2254757 47.0868939,48.5919447 47.1413913,47.9630682 C47.215445,47.4768708 47.251946,46.9855983 47.2505645,46.4936899 C47.2159929,45.9647137 47.028579,45.4541048 47.0031053,44.9251286 C46.9576164,43.9902367 47.4179633,43.1012628 47.9856638,42.3537166 C48.3241006,41.9129031 48.7043872,41.5033139 48.9973352,41.0312761 C49.2520726,40.621687 49.437667,40.1680164 49.7124195,39.7712843 C50.3529021,38.8529229 51.4337165,38.301906 52.5363655,38.1017032 C53.6390146,37.9015004 54.772596,38.0282343 55.8788841,38.2119066 C56.8414276,38.3735382 57.8094297,38.6104754 58.7901687,38.6674138 C59.6326217,38.7188421 60.3204127,38.4304766 61.0937227,39.0072076 Z" id="Path" fill="#472727" fill-rule="nonzero"></path>
                <path d="M53,55 L53.7201346,58.123412 L54.9663489,63.8330309 C54.9663489,63.8330309 54.9786876,63.8911071 55,64 L55,64 L53.429613,55.4863884 C53.2799203,55.339804 53.136401,55.177318 53,55 L53,55 Z" id="Path" fill="#000000" fill-rule="nonzero" opacity="0.1"></path>
                <path d="M40.0025051,91.6799182 C40.0025051,91.6799182 39.9351173,95.9380298 40.4993643,97 L42,91.2420345 L40.7387419,90 L40.0025051,91.6799182 Z" id="Path" fill="#FFB9B9" fill-rule="nonzero"></path>
                <path d="M34,92.2962452 C35.1123049,93.7447084 39.9496133,94 39.9496133,94 L44.7447028,85.584429 C44.7447028,85.584429 45.8813647,84.7062982 48.0069225,80.755615 C50.1324803,76.8049317 50.0675282,73.7595379 49.9554858,71.4872613 C49.8434434,69.2149847 48.4940633,62.6824158 48.4940633,62.6824158 C48.2878404,61.2122257 45.3016671,52 45.3016671,52 C44.9882732,52.6988835 44.405328,53.2800793 43.7217071,53.7616933 C41.8786909,55.049015 39.301716,55.5758934 39.301716,55.5758934 C35.1561476,56.2476182 35.9209587,61.0239255 35.9209587,61.0239255 C35.9209587,61.0239255 35.8706208,79.5950338 36.1304292,81.8148036 C36.3902376,84.0345734 34,92.2962452 34,92.2962452 Z" id="Path" fill="#000000" fill-rule="nonzero" opacity="0.1"></path>
                <polygon id="Path" fill="#CBCDDA" fill-rule="nonzero" points="40 92.2311583 40.0903294 93 41.1923486 92.6155792 42 91.4522003 41.3942614 91"></polygon>
                <path d="M39,86.2548112 L40.0126109,86.3209805 L49.7800093,86.9489876 C51.3471056,87.0503487 52.9289215,87.0004727 54.4731434,86.8010089 L59,86.2175157 C58.790752,85.7447058 58.6263428,85.4547638 58.6263428,85.4547638 C58.1368519,85.6785364 55.3344232,85.9359953 53.8846333,86.1537525 C53.0887468,86.2710211 52.2702368,86.3115656 51.4558617,86.2740604 C47.7876979,86.0882613 44.1586633,85.6613531 40.6254087,85 L40.1844932,85.3392682 L39,86.2548112 Z" id="Path" fill="#000000" fill-rule="nonzero" opacity="0.1"></path>
                <g id="Group" opacity="0.1" transform="translate(36.000000, 85.000000)" fill="#000000" fill-rule="nonzero">
                    <path d="M21.6830508,0.932151899 C21.7156935,0.916656243 21.7474344,0.89950059 21.7781356,0.880759494 L21.7874576,0.90556962 L21.6830508,0.932151899 Z" id="Path"></path>
                    <path d="M0.980677966,35.8187342 C0.980677966,35.8187342 2.64745763,29.8111392 2.11423729,28.3331646 C2.11423729,28.3331646 3.07254237,22.1075949 2.50389831,20.2539241 C1.93525424,18.4002532 2.89542373,4.72101266 2.89542373,4.72101266 L3.21050847,2.15670886 L3.39694915,0.710632911 L3.47152542,0.104556962 C3.47152542,0.104556962 3.59830508,0.143544304 3.84440678,0.210886076 L4.07,0.274683544 L4.01779661,0.512151899 L3.84067797,1.95822785 L3.52559322,4.52253165 C3.52559322,4.52253165 2.56915254,18.2 3.1340678,20.055443 C3.69898305,21.9108861 2.74627119,28.1346835 2.74627119,28.1346835 C3.27762712,29.6126582 1.61271186,35.6202532 1.61271186,35.6202532 C1.61271186,35.6202532 0.441864407,43.6410127 0.760677966,45.8987342 C1.07949153,48.1564557 1.50644068,54.4564557 1.50644068,54.4564557 C2.59338983,56.0088608 4.64610169,55.8139241 5.67152542,55.5959494 C5.66033898,55.6225316 5.65288136,55.6367089 5.65288136,55.6367089 C5.65288136,55.6367089 2.35661017,56.781519 0.866949153,54.6602532 C0.866949153,54.6602532 0.441864407,48.358481 0.121186441,46.1007595 C-0.199491525,43.843038 0.980677966,35.8187342 0.980677966,35.8187342 Z" id="Path"></path>
                    <path d="M9.38169492,45.9607595 C8.82237288,44.4455696 9.91491525,39.5597468 9.91491525,39.5597468 C9.91491525,39.5597468 11.8613559,34.3372152 11.5425424,30.461519 C11.4101695,28.8470886 11.4194915,26.6318987 11.4754237,24.5956962 C11.9284746,21.9729114 12.3591525,19.04 12.3591525,19.04 C12.3591525,19.04 11.8613559,26.3837975 12.1820339,30.2594937 C12.5027119,34.1351899 10.5525424,39.3577215 10.5525424,39.3577215 C10.5525424,39.3577215 9.45254237,44.2435443 10.0211864,45.7587342 C10.5898305,47.2739241 8.60237288,53.5420253 8.60237288,53.5420253 C8.7440678,55.0005063 12.3871186,54.8144304 13.8227119,54.681519 L13.7686441,54.821519 C13.7686441,54.821519 8.13254237,55.5640506 7.95728814,53.7440506 C7.96474576,53.7440506 9.94847458,47.4741772 9.38169492,45.9607595 Z" id="Path"></path>
                </g>
                <path d="M33,92.2962452 C34.1122933,93.7447084 38.9495512,94 38.9495512,94 L43.742967,85.584429 C43.742967,85.584429 44.879617,84.7062982 47.0067765,80.755615 C49.1339359,76.8049317 49.0673607,73.7595379 48.9553194,71.4872613 C48.8432782,69.2149847 47.4939122,62.6824158 47.4939122,62.6824158 C47.2876914,61.2122257 44.3015493,52 44.3015493,52 C43.9881586,52.6988835 43.4052195,53.2800793 42.7216057,53.7616933 C40.876985,55.049015 38.3032845,55.5758934 38.3032845,55.5758934 C34.1577593,56.2476182 34.9225624,61.0239255 34.9225624,61.0239255 C34.9225624,61.0239255 34.8770964,79.5877915 35.1320308,81.8075613 C35.3869651,84.0273311 33,92.2962452 33,92.2962452 Z" id="Path" fill="#4C4C78" fill-rule="nonzero"></path>
                <path d="M44.7895285,56.6845675 L45.9601459,57.1342562 L45.1797343,57.6917216 L51,72 C50.865069,69.6679364 49.3589476,62.963486 49.3589476,62.963486 C49.1273769,61.454613 45.7741599,52 45.7741599,52 C45.4222454,52.7172721 44.7676478,53.3137601 44,53.8080461 L44.7895285,56.6845675 Z" id="Path" fill="#000000" fill-rule="nonzero" opacity="0.1"></path>
                <polygon id="Path" fill="#000000" fill-rule="nonzero" opacity="0.1" points="43 81.7863488 36.8110449 81 36 82.2398317 42.3234976 83"></polygon>
                <path d="M39.0690888,57.3442147 C39.0690888,57.3442147 41.3712823,59.8847053 40.5081538,65.5209651 C39.6450252,71.1572249 38.2509795,77.2943243 38.2509795,77.2943243 L42,89.4306107 C42,89.4306107 39.3873286,92.6134825 38.1035026,93 L34.3622441,83.2971406 C34.3622441,83.2971406 32.6142536,79.9328052 33.078418,74.6558434 C33.5425824,69.3788815 35.2253726,60.8373892 35.2253726,60.8373892 C35.2253726,60.8373892 35.2176106,55.6366421 39.0690888,57.3442147 Z" id="Path" fill="#000000" fill-rule="nonzero" opacity="0.1"></path>
                <path d="M39.0810044,57.3442147 C39.0810044,57.3442147 41.3835951,59.8847053 40.5203177,65.5209651 C39.6570402,71.1572249 38.262754,77.2943243 38.262754,77.2943243 L42,89.4306107 C42,89.4306107 39.3915358,92.6134825 38.104383,93 L34.3624791,83.2971406 C34.3624791,83.2971406 32.614187,79.9328052 33.0784315,74.6558434 C33.542676,69.3788815 35.2257565,60.8373892 35.2257565,60.8373892 C35.2257565,60.8373892 35.2257565,55.6366421 39.0810044,57.3442147 Z" id="Path" fill="#4C4C78" fill-rule="nonzero"></path>
                <path d="M42.653533,90.0197657 C42.653533,90.0197657 40.871973,94.8926857 41.0073412,96.2046257 C41.1427095,97.5165657 41.6643033,96.8099923 41.6643033,96.8099923 L42.3695436,94.9020567 L43,91.3410767 C43,91.3410767 42.9375223,89.8098553 42.653533,90.0197657 Z" id="Path" fill="#000000" fill-rule="nonzero" opacity="0.1"></path>
                <path d="M42.6576173,90.0197436 C42.6576173,90.0197436 40.8717262,94.8926791 41.0073515,96.2046232 C41.1429768,97.5165674 41.6655609,96.8099917 41.6655609,96.8099917 L42.3683465,94.9039243 L43,91.342933 C43,91.342933 42.9383521,89.8098326 42.6576173,90.0197436 Z" id="Path" fill="#000000" fill-rule="nonzero" opacity="0.1"></path>
                <path d="M42.6566695,90.0197436 C42.6566695,90.0197436 40.8717301,94.8926791 41.0073552,96.2046232 C41.1429802,97.5165674 41.6655634,96.8099917 41.6655634,96.8099917 L42.3683477,94.9039243 L43,91.342933 C43,91.342933 42.9383523,89.8098326 42.6566695,90.0197436 Z" id="Path" fill="#474463" fill-rule="nonzero"></path>
            </g>
        </g>
    </g>
</svg>