<svg width="1050" height="593" viewBox="0 0 1050 593" fill="none" xmlns="http://www.w3.org/2000/svg">
<path d="M794.248 274.661C793.269 272.444 791.605 274.547 791.346 274.776C790.158 274.445 788.937 274.249 787.706 274.19C781.754 273.809 773.767 275.506 767.547 277.181C767.523 277.183 767.5 277.193 767.483 277.209C761.999 278.683 757.923 280.161 757.923 280.161L754.914 281.538L753.785 282.037C753.922 281.273 754.309 280.577 754.887 280.059C755.683 279.584 751.138 281.203 748.985 281.983L748.898 282.022L747.9 282.387C743.785 285.496 732.572 283.395 732.572 283.395L729.345 278.8C731.12 273.619 726.566 264.644 726.566 264.644C726.566 264.644 725.49 261.435 726.507 255.914C727.524 250.393 722.961 249.2 722.961 249.2L725.603 241.66C724.982 240.836 724.53 239.896 724.274 238.896C724.018 237.896 723.963 236.855 724.111 235.834C724.216 235.247 724.419 234.682 724.712 234.163L724.694 234.123L724.742 234.016C726.902 230.071 725.818 220.16 725.818 220.16C725.818 220.16 724.498 218.892 726.216 213.109L726.195 213.061C726.426 212.294 726.719 211.453 727.067 210.501C727.043 210.445 727.117 210.356 727.14 210.279C730.335 201.992 726.674 199.811 726.674 199.811L715.964 194.42C716.394 190.944 694.471 177.051 694.471 177.051C694.471 177.051 690.993 173.735 690.23 169.429C690.092 168.395 689.692 167.415 689.066 166.581C688.709 166.112 688.238 165.741 687.698 165.505C687.368 165.364 687.013 165.292 686.654 165.291L686.16 165.462L686.542 164.8C686.705 164.547 686.854 164.282 687.014 164.021C687.591 163.994 688.157 163.944 688.725 163.873C694.267 163.297 699.574 161.337 704.16 158.172C708.746 155.007 712.462 150.74 714.967 145.763C715.099 145.524 715.216 145.273 715.325 145.026C715.434 144.778 715.636 144.376 715.78 144.036C715.846 143.884 715.915 143.739 715.965 143.594C716.015 143.449 716.177 143.063 716.275 142.792C716.408 142.942 716.537 143.085 716.678 143.231C717.238 143.825 717.841 144.378 718.482 144.884C718.538 144.932 718.599 144.975 718.662 145.014C718.67 145.039 718.681 145.062 718.694 145.085C718.802 145.18 718.923 145.259 719.036 145.342C719.823 145.9 720.68 146.351 721.585 146.685C721.808 146.77 722.036 146.84 722.267 146.896C722.608 146.999 722.957 147.07 723.311 147.109C723.369 147.127 723.428 147.139 723.488 147.145C723.552 147.161 723.616 147.17 723.681 147.174V147.174C723.726 146.717 723.76 146.256 723.786 145.798C724.019 141.761 723.407 137.72 721.99 133.933C721.801 133.479 721.64 133.014 721.508 132.541C721.401 132.182 721.354 131.808 721.37 131.434C721.397 130.7 721.652 129.993 722.1 129.411C722.839 128.505 723.671 127.679 724.582 126.947L724.79 126.751L725.046 126.514L725.532 126.024L725.607 125.934C725.75 125.785 725.87 125.628 726.002 125.474C726.036 125.416 726.075 125.361 726.119 125.309C726.262 125.119 726.389 124.917 726.497 124.705L726.549 124.606C726.651 124.421 726.737 124.227 726.806 124.027C726.841 123.935 726.846 123.838 726.881 123.747C726.927 123.612 726.961 123.473 726.983 123.332L727.051 122.969C727.053 122.863 727.063 122.757 727.081 122.652C727.145 121.151 726.814 119.66 726.121 118.328C725.139 116.407 723.716 114.756 722.866 112.767C720.848 108.008 722.263 101.989 719.886 97.4271C717.818 93.4784 713.426 91.6398 709.219 90.4788C705.012 89.3179 700.537 88.4748 697.247 85.6075C694.786 83.4563 693.218 80.3793 690.86 78.1164C685.917 73.3775 677.482 73.2014 671.928 77.7165C668.606 80.4285 666.422 84.3847 663.358 87.4005C661.33 89.3885 658.962 90.9286 656.95 92.929C654.576 95.2996 652.788 98.1904 651.725 101.372C651.535 101.931 651.369 102.479 651.232 103.072L651.108 103.63C651.018 104.049 650.928 104.469 650.869 104.894C650.837 105.079 650.809 105.253 650.789 105.442C650.702 106.03 650.647 106.622 650.623 107.216C650.592 107.77 650.597 108.319 650.606 108.875C650.681 112.033 651.255 115.179 651.051 118.308C651.013 119.017 650.925 119.722 650.787 120.419C650.597 121.386 650.307 122.341 650.028 123.3C649.953 123.56 649.879 123.821 649.797 124.066C649.773 124.188 649.74 124.307 649.698 124.423C649.654 124.623 649.59 124.823 649.537 125.026C649.485 125.23 649.475 125.272 649.45 125.388C649.425 125.503 649.356 125.819 649.326 126.031C649.297 126.244 649.274 126.235 649.257 126.347C649.207 126.663 649.176 126.981 649.145 127.298L649.17 127.354C649.103 128.406 649.276 129.46 649.676 130.435C649.878 130.916 650.157 131.36 650.504 131.75C650.594 131.849 650.689 131.944 650.79 132.032C651.023 132.235 651.285 132.4 651.568 132.524C651.589 132.828 651.597 133.147 651.625 133.448C651.685 134.143 651.769 134.847 651.864 135.536C651.939 136.007 652.017 136.419 652.114 136.898C652.455 138.671 652.942 140.412 653.57 142.105V142.105L653.177 142.591C652.479 143.431 651.73 144.228 650.936 144.978V144.978L650.841 145.02C650.124 145.546 645.147 149.112 643.077 149.628L635.69 151.458C635.69 151.458 633.809 151.501 631.701 151.435C630.134 151.442 628.574 151.226 627.068 150.795C625.132 149.96 613.49 148.134 611.587 148.984C610.755 149.206 609.871 149.126 609.093 148.756C608.205 148.306 607.348 147.801 606.524 147.242C606.524 147.242 606.299 147.227 605.936 147.179C605.357 146.836 604.97 146.561 604.97 146.561C604.97 146.561 601.624 146.273 598.131 145.784L598.016 148.684C598.005 148.831 598.006 148.983 597.999 149.138C597.015 176.828 596.426 208.208 596.32 242.053C596.336 242.078 596.348 242.104 596.355 242.133C596.311 251.016 596.308 260.073 596.348 269.305L596.367 271.861L596.377 275.237L596.443 284.135L596.463 287.232C596.516 293.153 596.578 299.14 596.65 305.192C596.694 308.902 596.745 312.643 596.804 316.416C596.817 316.723 596.817 317.046 596.821 317.358C596.818 317.521 596.825 317.688 596.825 317.859C596.842 318.393 596.844 318.934 596.857 319.479C596.857 319.868 596.869 320.281 596.87 320.669C596.939 324.437 597.017 328.202 597.082 331.896L596.615 332.472L597.099 332.686C597.103 332.997 597.105 333.301 597.124 333.624C597.428 349.141 597.8 364.313 598.243 379.141L598.296 380.808L598.299 381.138C598.422 385.054 598.554 388.936 598.698 392.786C598.824 396.224 598.947 399.633 599.066 403.012C600.825 450.212 603.322 492.422 606.289 526.324C605.956 526.86 605.613 527.458 605.282 528.108C605.627 527.49 605.948 526.864 606.286 526.382C606.564 525.935 606.869 525.505 607.199 525.096C607.915 524.185 608.496 523.177 608.925 522.101C609.126 521.633 609.315 521.159 609.49 520.674C610.431 517.762 611.133 514.778 611.587 511.751C611.703 511.357 611.851 510.974 612.031 510.606L612.284 510.038L612.322 509.954C612.465 509.654 612.613 509.323 612.789 508.969L612.82 508.909L613.082 508.384L613.112 508.324L613.392 507.754C614.259 506.041 615.34 503.996 616.374 502.058L616.753 501.368L618.023 499.022L618.657 497.877L620.061 495.358C620.065 495.316 620.073 495.275 620.082 495.234C620.164 494.904 620.359 494.162 620.637 493.137C620.641 493.114 620.651 493.093 620.667 493.077C620.695 492.946 620.73 492.816 620.771 492.689C621.178 491.331 621.73 489.615 622.429 487.844C622.517 487.634 622.598 487.409 622.701 487.192L622.961 486.555L623.409 485.569C623.85 484.602 624.348 483.662 624.9 482.754C625.595 481.567 626.22 480.34 626.771 479.079L626.892 478.816C626.967 478.622 627.055 478.412 627.154 478.206C627.226 478.059 627.289 477.907 627.343 477.753L627.544 477.284L627.873 476.502L628.08 476.003L628.571 474.836L629.102 473.481L629.182 473.275C629.449 472.568 629.72 471.85 630.003 471.136L630.323 470.292C630.453 469.94 630.579 469.58 630.712 469.237C630.938 468.652 631.156 468.091 631.376 467.472L631.85 466.16C631.999 465.724 632.159 465.311 632.303 464.906C632.54 464.26 632.763 463.649 632.966 463.055L633.012 462.921L633.55 461.411C633.55 461.411 633.55 461.411 633.573 461.334C633.711 460.979 633.824 460.654 633.928 460.332L634.032 460.03C634.147 459.751 634.234 459.476 634.314 459.25C634.633 458.359 634.81 457.835 634.81 457.835L638.362 446.531L641.888 434.802L642.052 434.293C642.052 434.293 642.675 430.675 643.553 427.524L643.67 427.101C643.959 426.002 644.355 424.933 644.853 423.91C645.255 423.091 645.58 422.235 645.822 421.355C645.862 421.337 645.855 421.236 645.882 421.167C646.917 417.708 647.967 412.582 648.291 410.91L648.403 410.367C648.87 409.426 649.25 408.444 649.538 407.434C649.902 406.24 650.07 404.995 650.036 403.747C650.036 402.613 650.175 401.484 650.449 400.384C650.447 400.369 650.441 400.355 650.432 400.344L650.482 400.113L650.675 399.325C651.284 399.185 651.882 399.003 652.466 398.78C655.121 397.726 657.584 396.24 659.754 394.382C659.818 394.331 659.879 394.276 659.937 394.216V394.216C660.521 393.777 660.951 393.417 661.178 393.221L661.377 393.048L663.116 383.638L663.161 383.418C663.161 383.418 664.676 379.796 666.001 376.048C666.145 375.642 666.281 375.24 666.42 374.846C667.35 372.137 668.088 369.551 667.956 368.413C667.644 365.559 669.775 358.54 669.775 358.54C669.775 358.54 673.043 345.624 674.373 340.706C674.426 340.502 674.478 340.299 674.529 340.134L674.712 339.474C674.83 339.496 674.945 339.528 675.058 339.568C675.375 339.689 675.681 339.84 675.97 340.02C676 340.046 676.033 340.069 676.067 340.09L676.159 339.632C676.228 339.336 676.307 338.892 676.431 338.334C676.77 338.454 677.092 338.614 677.392 338.812L677.509 338.883C677.509 338.883 683.983 308.616 683.715 301.004C683.717 299.391 683.902 297.783 684.266 296.212C685.584 290.017 688.911 282.07 690.511 278.429L690.993 277.371C691.238 276.807 691.393 276.491 691.393 276.491L691.953 276.985C691.974 277.032 691.995 277.08 692.075 277.111C693.443 278.358 696.342 281.18 696.021 282.452C695.623 284.109 698.618 297.743 698.618 297.743C698.618 297.743 697.591 304.768 703.564 312.224C709.536 319.68 720.198 318.492 722.211 317.394C723.501 316.681 737.403 316.379 747.305 316.286L749.744 316.262L752.2 316.232L756.039 316.216L756.257 316.215C756.575 316.226 756.898 316.226 757.206 316.213L757.275 315.917L757.301 315.763L758.261 315.785L757.266 315.683C757.388 315.079 757.584 313.995 757.781 312.55C757.781 312.456 757.791 312.363 757.81 312.271L757.867 311.8L757.96 310.999C757.961 310.894 757.977 310.801 757.985 310.712L758.065 309.861C758.074 309.817 758.08 309.773 758.083 309.729C758.186 308.544 758.263 307.237 758.267 305.849C758.28 305.663 758.286 305.461 758.287 305.27L760.26 304.19L761.621 303.446L762.388 303.031L763.375 302.471L763.902 302.353L784.104 295.117L785.583 294.596C787.52 293.936 789.298 292.879 790.802 291.492C792.307 290.105 793.505 288.42 794.321 286.543C795.137 284.667 795.552 282.641 795.539 280.594C795.527 278.548 795.087 276.527 794.248 274.661V274.661Z" fill="url(#paint0_linear)"/>
<path d="M755.835 317.389C755.835 317.389 761.808 290.629 746.694 283.955L725.788 301.958L730.974 310.255C730.974 310.255 746.778 317.716 755.835 317.389Z" fill="#65617D"/>
<path opacity="0.1" d="M725.788 301.958L730.974 310.255C730.974 310.255 742.12 315.491 751.047 316.998C752.635 317.281 754.247 317.408 755.859 317.378C755.859 317.378 755.901 317.236 755.954 316.947C755.96 316.914 755.964 316.88 755.966 316.847C756.613 313.441 756.968 309.987 757.026 306.521C757.037 305.215 757.006 303.833 756.928 302.452C756.519 297.229 755.243 291.677 751.86 287.759C750.62 286.302 749.099 285.111 747.387 284.256C747.243 284.187 747.095 284.11 746.934 284.048C746.865 284.008 746.792 283.973 746.717 283.944L746.255 284.339L739.183 290.426L725.788 301.958Z" fill="black"/>
<path d="M597.624 284.572L596.395 287.271L596.375 284.174L597.624 284.572Z" fill="#65617D"/>
<path opacity="0.1" d="M597.624 284.572L596.395 287.271L596.375 284.174L597.624 284.572Z" fill="black"/>
<path d="M750.154 284.695C750.154 284.695 744.71 300.785 754.287 305.224C754.287 305.224 757.747 304.758 762.637 303.595C773.895 300.899 792.689 294.495 793.876 281.492C795.564 262.873 756.577 281.715 756.577 281.715L753.606 283.094L750.154 284.695Z" fill="#A1616A"/>
<path opacity="0.1" d="M750.155 284.696C750.155 284.696 744.71 300.786 754.288 305.224C754.288 305.224 757.748 304.759 762.637 303.596L763.919 302.887C761.905 303.037 759.883 302.744 757.994 302.029C755.541 301.033 753.194 298.946 752.955 294.664C752.798 292.226 752.792 289.78 752.938 287.34C753.009 285.905 753.233 284.482 753.607 283.094L750.155 284.696Z" fill="black"/>
<path d="M742.194 314.669L745.588 312.808L757.002 306.53L762.821 303.323C760.81 303.473 758.79 303.179 756.904 302.462C754.447 301.458 752.096 299.382 751.857 295.1C751.703 292.659 751.696 290.211 751.836 287.769C752.132 283.839 752.91 282.052 753.591 281.637C754.272 281.223 749.888 282.779 747.787 283.547L747.707 283.582C747.106 283.79 746.718 283.943 746.718 283.943L746.232 284.348L739.329 290.133L739.156 290.428C737.839 292.691 730.193 306.98 742.194 314.669Z" fill="#E7EFFD"/>
<path d="M652.674 359.467L652.794 392.794C652.794 392.794 651.656 395.956 650.784 399.142C650.775 399.201 650.759 399.259 650.737 399.315L650.54 400.115C650.513 400.188 650.492 400.264 650.478 400.341C650.488 400.353 650.494 400.366 650.496 400.381C650.111 401.725 649.907 403.115 649.891 404.513C649.919 405.497 649.813 406.479 649.577 407.435C649.283 408.633 648.865 409.798 648.33 410.91C648.31 410.964 648.286 411.017 648.257 411.066C648.257 411.066 647.09 417.023 645.92 421.168C645.894 421.236 645.887 421.306 645.861 421.355C645.575 422.438 645.192 423.494 644.719 424.51C644.302 425.34 643.964 426.208 643.709 427.102L643.592 427.524C642.651 430.789 641.927 434.803 641.927 434.803L638.31 446.306L634.601 457.964L634.245 459.071L633.963 459.85L633.859 460.153L633.504 461.155C633.504 461.155 633.465 461.172 633.481 461.231L632.943 462.742L632.897 462.876C632.679 463.457 632.475 464.069 632.234 464.727C632.09 465.132 631.93 465.544 631.781 465.981L631.306 467.292C631.088 467.873 630.863 468.438 630.643 469.057C630.51 469.401 630.384 469.76 630.254 470.112L629.934 470.956C629.651 471.67 629.38 472.388 629.113 473.095L629.033 473.301L628.502 474.657L628.011 475.823L627.804 476.323L627.475 477.105L627.274 477.573C627.22 477.728 627.157 477.88 627.085 478.027C627.001 478.245 626.91 478.447 626.823 478.637L626.701 478.899C626.15 480.222 625.512 481.506 624.791 482.744C624.084 483.927 623.457 485.156 622.913 486.423V486.423L622.653 487.06C622.549 487.277 622.469 487.503 622.381 487.712C621.69 489.48 621.138 491.196 620.723 492.557C620.682 492.684 620.647 492.814 620.619 492.945C620.603 492.962 620.592 492.983 620.589 493.006C620.303 494.015 620.116 494.772 620.034 495.103L619.987 495.275L618.583 497.795L617.949 498.939L616.679 501.286L616.3 501.976C615.258 503.917 614.185 505.958 613.318 507.671L613.038 508.241L613.008 508.302L612.746 508.826L612.716 508.887C612.539 509.24 612.391 509.572 612.249 509.872L612.21 509.956L611.957 510.523C611.803 510.854 611.678 511.198 611.585 511.552C611.123 514.611 610.403 517.627 609.433 520.565C609.258 521.051 609.069 521.524 608.867 521.993C608.458 522.993 607.915 523.932 607.253 524.786C606.886 525.227 606.549 525.694 606.245 526.181C603.278 492.279 600.781 450.068 599.023 402.869C598.896 399.487 598.773 396.078 598.654 392.642C598.526 388.786 598.394 384.904 598.256 380.995L598.252 380.665L598.199 378.997C597.737 364.197 597.364 349.025 597.08 333.481C597.068 333.173 597.067 332.87 597.055 332.543L596.571 332.329L597.038 331.752C596.953 327.992 596.904 324.291 596.826 320.526C596.825 320.137 596.814 319.725 596.813 319.336C596.8 318.791 596.798 318.25 596.781 317.716C596.781 317.545 596.774 317.378 596.778 317.214C596.77 316.895 596.769 316.572 596.76 316.272C596.707 312.497 596.655 308.756 596.606 305.049L617.522 314.515L618.394 314.899L632.924 321.347L633.804 321.727L638.329 323.735L640.774 324.82L641.951 325.335L656.504 331.792L656.694 331.879L657.376 332.176L652.674 359.467Z" fill="#3F3D56"/>
<path d="M645.038 152.778L655.199 181.061C655.199 181.061 683.585 181.814 682.471 177.424C682.047 175.712 683.948 171.739 686.451 167.518C690.389 160.849 695.812 153.543 695.812 153.543C695.812 153.543 656.483 128.386 656.964 137.062C657.14 140.233 655.603 143.181 653.576 145.644C651.131 148.464 648.248 150.873 645.038 152.778V152.778Z" fill="#A1616A"/>
<path opacity="0.1" d="M656.964 137.063C657.14 140.233 657.648 140.759 655.629 143.218C658.593 151.538 662.825 161.073 671.579 164.85C676.261 166.885 681.354 167.799 686.452 167.518C690.39 160.849 695.813 153.543 695.813 153.543C695.813 153.543 656.483 128.387 656.964 137.063Z" fill="black"/>
<path d="M654.678 120.646C652.956 124.631 652.035 128.915 651.968 133.256C651.901 137.596 652.69 141.907 654.289 145.942C655.888 149.978 658.267 153.659 661.289 156.775C664.31 159.891 667.916 162.382 671.901 164.104C675.885 165.827 680.17 166.748 684.51 166.815C688.85 166.881 693.161 166.093 697.196 164.493C701.232 162.894 704.913 160.516 708.029 157.494C711.145 154.472 713.636 150.866 715.358 146.882L715.535 146.443C718.953 138.374 719.025 129.279 715.736 121.156C712.447 113.034 706.067 106.551 697.998 103.134C689.93 99.716 680.834 99.6436 672.712 102.932C664.59 106.221 658.107 112.602 654.689 120.67L654.678 120.646Z" fill="#A1616A"/>
<path opacity="0.1" d="M650.982 351.384C650.56 353.137 648.773 353.585 644.563 351.276C642.65 350.304 640.668 349.475 638.633 348.797C638.251 348.662 637.849 348.526 637.448 348.371C633.28 346.955 628.046 345.383 622.326 343.505L621.962 343.39C619.415 342.55 616.748 341.649 614.06 340.681L612.454 340.099C608.758 338.74 604.987 337.235 601.276 335.541L601.116 335.479C599.753 334.866 598.39 334.233 597.05 333.629C597.038 333.321 597.037 333.018 597.025 332.69L596.541 332.477L597.008 331.9C596.923 328.139 596.873 324.438 596.796 320.674C596.795 320.285 596.784 319.872 596.783 319.483C596.77 318.938 596.768 318.397 596.751 317.864C596.751 317.693 596.744 317.525 596.748 317.362L598.19 318.111C600.535 319.335 602.915 320.553 605.305 321.748L605.513 321.855C606.862 322.522 608.203 323.193 609.556 323.868C609.595 323.85 609.666 323.923 609.72 323.938C611.213 324.674 612.719 325.376 614.213 326.026L615.078 326.394C616.675 327.085 618.24 327.704 619.791 328.291C623.436 329.662 626.951 330.825 630.105 331.71C630.412 331.803 630.707 331.891 631.018 331.972C633.812 332.77 636.348 333.415 638.497 333.852L639.482 334.082L640.695 334.334C643.521 334.928 645.204 335.191 645.204 335.191C645.204 335.191 645.804 336.226 646.609 337.789C647.075 338.694 647.619 339.774 648.148 340.908C649.823 344.612 651.53 349.1 650.982 351.384Z" fill="black"/>
<path d="M650.982 351.383C650.228 352.447 648.392 352.442 644.902 350.518C642.913 349.507 640.848 348.651 638.728 347.956L638.617 347.92L637.546 347.538C633.527 346.18 628.559 344.672 623.145 342.886C623.023 342.855 622.904 342.816 622.789 342.768C619.809 341.805 616.687 340.715 613.529 339.585C613.001 339.4 612.466 339.2 611.919 338.995C608.511 337.728 605.046 336.334 601.631 334.795L601.475 334.721L597.059 332.722L596.575 332.508L597.042 331.932C596.957 328.171 596.907 324.47 596.83 320.706C596.829 320.317 596.817 319.904 596.816 319.515C596.803 318.97 596.802 318.429 596.785 317.896C596.785 317.725 596.777 317.557 596.781 317.394C596.773 317.075 596.773 316.752 596.764 316.452C599.318 317.783 601.941 319.141 604.569 320.467C604.595 320.474 604.619 320.486 604.641 320.502L605.871 321.136C607.272 321.837 608.667 322.522 610.065 323.214C611.292 323.841 612.567 324.407 613.809 324.96C614.026 325.064 614.247 325.156 614.468 325.248C614.689 325.34 615.047 325.505 615.329 325.627C620.218 327.694 625.227 329.463 630.329 330.927C630.628 331.023 630.931 331.107 631.235 331.192C633.928 331.958 636.376 332.576 638.45 333.056C638.835 333.132 639.208 333.224 639.566 333.303L640.779 333.556C643.729 334.151 645.501 334.442 645.501 334.442C645.501 334.442 646.499 336.185 647.68 338.578C648.165 339.57 648.677 340.664 649.168 341.795C650.815 345.588 652.141 349.75 650.982 351.383Z" fill="#5F5D7E"/>
<path opacity="0.1" d="M695.04 197.359L656.496 331.777L653.17 343.398L652.681 345.106C651.576 343.934 650.403 342.828 649.167 341.796C648.838 341.524 648.49 341.231 648.115 340.941C645.809 339.029 643.18 337.547 640.351 336.565C639.944 336.441 639.537 336.336 639.14 336.255L638.492 336.143C637.877 336.054 637.254 336.026 636.633 336.062C634.449 336.032 632.288 335.611 630.252 334.817V334.817L629.357 334.51C624.338 332.528 619.481 330.16 614.83 327.424C614.539 327.259 614.259 327.098 613.998 326.937C612.495 326.073 611.581 325.508 611.581 325.508C611.581 325.508 610.654 325.044 609.188 324.391C607.986 323.82 606.442 323.097 604.811 322.393C602.234 321.183 599.547 320.22 596.788 319.518C596.775 318.973 596.774 318.433 596.756 317.899C596.757 317.728 596.749 317.56 596.753 317.397C596.745 317.078 596.745 316.755 596.736 316.455C596.682 312.68 596.631 308.939 596.582 305.232C596.512 299.185 596.45 293.198 596.395 287.271L596.375 284.174L596.309 275.277L596.298 271.901L596.28 269.345C596.252 260.126 596.254 251.069 596.287 242.172L627.783 173.175L632.715 167.444L637.473 161.942L642.327 161.279L643.048 161.169L647.761 160.53L647.816 160.506L648.955 160.354L651.292 160.033L658.387 173.318L658.44 173.437L658.608 173.819L661.7 175.7L663.631 176.889L664.227 176.863L666.749 176.746L667.509 176.704L667.79 176.694L669.996 176.593L676.259 176.304L679.294 179.711L681.219 181.919L682.263 183.1L683.126 183.915L695.04 197.359Z" fill="black"/>
<path d="M695.696 195.834L656.687 331.863L653.317 343.58L653.154 343.405C651.467 341.642 649.63 340.03 647.663 338.585C647.31 338.324 646.929 338.064 646.553 337.813C644.726 336.536 642.708 335.559 640.573 334.919C640.166 334.814 639.765 334.725 639.368 334.663C639.069 334.608 638.767 334.571 638.463 334.55C638.074 334.523 637.683 334.521 637.293 334.545C635.026 334.51 632.784 334.062 630.678 333.223L629.771 332.911C626.351 331.588 623.016 330.055 619.785 328.321C618.059 327.403 616.51 326.539 615.253 325.822L614.42 325.335C614.193 325.208 613.985 325.081 613.789 324.959C612.79 324.375 612.201 324.008 612.201 324.008C612.201 324.008 608.532 322.154 604.605 320.508C604.583 320.492 604.559 320.48 604.532 320.474C602.476 319.554 600.356 318.78 598.191 318.157C597.719 318.036 597.237 317.954 596.752 317.91C596.752 317.739 596.745 317.571 596.749 317.408C596.741 317.089 596.74 316.766 596.731 316.466C596.678 312.691 596.626 308.95 596.577 305.243C596.508 299.196 596.445 293.209 596.39 287.282L596.371 284.185L596.304 275.288L596.294 271.912L596.276 269.356C596.248 260.137 596.25 251.08 596.282 242.183C596.275 242.155 596.263 242.128 596.247 242.104L628.405 171.637L632.629 166.732L638.091 160.396L642.757 159.759L643.482 159.657L647.29 159.142L648.183 159.014L649.24 158.87L651.929 158.508L659.285 172.275L660.176 172.831L660.32 172.919L660.505 173.037L663.203 174.694L664.298 175.368L667.408 175.229L671.279 175.047L676.938 174.788L680.876 179.23L681.577 180.022L682.596 181.167L683.091 181.727L683.405 182.073L695.696 195.834Z" fill="#E7EFFD"/>
<path opacity="0.1" d="M674.555 181.407C674.555 181.407 664.336 186.52 663.745 188.234C663.154 189.949 661.709 194.006 661.709 194.006L662.341 206.528C662.341 206.528 659.582 220.615 658.428 223.29C657.274 225.965 651.714 251.08 651.714 251.08L641.649 289.079L628.199 338.763L616.198 347.646L611.012 337.241L636.182 249.197L640.99 231.774C640.99 231.774 651.338 201.162 652.705 198.108C654.071 195.054 658.901 187.63 658.901 187.63C658.901 187.63 660.558 179.301 654.431 174.506C648.305 169.711 655.104 174.351 655.104 174.351L660.432 172.87L663.266 175.759C663.266 175.759 674.055 176.965 674.555 181.407Z" fill="black"/>
<path d="M675.644 180.971C675.644 180.971 665.425 186.085 664.834 187.799C664.243 189.513 662.798 193.571 662.798 193.571L663.478 206.071C663.478 206.071 660.679 220.176 659.494 222.846C658.309 225.516 652.784 250.644 652.784 250.644L642.723 288.632L629.276 338.324L617.272 347.198L612.126 336.842L637.288 248.802L642.101 231.367C642.101 231.367 652.449 200.755 653.776 197.719C655.103 194.682 659.972 187.241 659.972 187.241C659.972 187.241 661.629 178.912 655.506 174.124C649.383 169.337 656.183 173.958 656.183 173.958L661.511 172.478L664.345 175.366C664.345 175.366 675.12 176.54 675.644 180.971Z" fill="#1B264F"/>
<path opacity="0.1" d="M685.893 169.522C685.893 169.522 686.579 170.729 684.635 175.937C682.691 181.145 681.29 194.157 681.29 194.157C681.29 194.157 672.004 179.267 664.937 177.414L685.893 169.522Z" fill="black"/>
<path d="M686.54 168C686.54 168 687.234 169.204 685.286 174.404C683.339 179.604 681.945 192.632 681.945 192.632C681.945 192.632 672.659 177.742 665.58 175.885L686.54 168Z" fill="#E7EFFD"/>
<path opacity="0.1" d="M651.458 149.809L664.431 177.191C664.431 177.191 642.33 180.043 638.934 181.601C635.539 183.158 645.141 154.642 645.141 154.642L651.458 149.809Z" fill="black"/>
<path d="M651.356 147.944L664.328 175.326C664.328 175.326 642.227 178.178 638.832 179.735C635.436 181.293 645.031 152.78 645.031 152.78L651.356 147.944Z" fill="#E7EFFD"/>
<path opacity="0.1" d="M685.159 169.171C685.159 169.171 687.943 169.023 688.704 173.302C689.464 177.581 692.86 180.839 692.86 180.839C692.86 180.839 714.456 194.553 714.024 198.002L724.578 203.319C724.578 203.319 728.182 205.478 725.096 213.669C722.011 221.86 723.742 223.498 723.742 223.498C723.742 223.498 724.79 233.329 722.658 237.272C720.526 241.215 723.463 244.875 723.463 244.875L689.636 279.413C689.636 279.413 681.656 296.234 681.933 303.718C682.211 311.202 675.725 341.248 675.725 341.248C675.725 341.248 673.645 339.745 673.111 341.329C672.577 342.914 668.044 360.766 668.044 360.766C668.044 360.766 665.951 367.722 666.228 370.562C666.505 373.403 661.466 385.448 661.466 385.448L659.764 394.985C659.764 394.985 650.239 403.733 643.499 399.009C636.758 394.286 635.831 359.606 635.831 359.606L640.784 324.693L647.48 290.994L654.593 269.266L671.548 221.67L680.307 189.159C680.307 189.159 682.404 170.587 685.159 169.171Z" fill="black"/>
<path d="M686.542 168C686.542 168 689.322 167.845 690.069 172.092C690.815 176.34 694.217 179.632 694.217 179.632C694.217 179.632 715.821 193.343 715.389 196.792L725.943 202.109C725.943 202.109 729.546 204.268 726.461 212.459C723.376 220.65 725.107 222.288 725.107 222.288C725.107 222.288 726.155 232.119 724.023 236.062C721.891 240.005 724.828 243.665 724.828 243.665L690.971 278.178C690.971 278.178 683.086 295.043 683.312 302.54C683.539 310.037 677.1 340.061 677.1 340.061C677.1 340.061 675.021 338.558 674.487 340.143C673.952 341.728 669.419 359.58 669.419 359.58C669.419 359.58 667.326 366.535 667.607 369.384C667.887 372.232 662.842 384.262 662.842 384.262L661.135 393.81C661.135 393.81 651.615 402.547 644.866 397.827C638.118 393.107 637.255 358.399 637.255 358.399L642.235 323.483L648.93 289.784L656.019 268.067L672.975 220.471L681.733 187.959C681.733 187.959 683.82 169.364 686.542 168Z" fill="#1B264F"/>
<path opacity="0.1" d="M725.788 301.956L730.974 310.254C730.974 310.254 742.12 315.49 751.047 316.996L755.954 316.946L756.906 316.953L755.919 316.867C751.112 316.284 747.79 314.827 745.58 312.812C736.645 304.776 745.253 288 747.355 284.269C747.56 283.894 747.692 283.655 747.755 283.561L747.794 283.544L747.675 283.596C747.438 283.767 747.187 283.918 746.926 284.051C746.707 284.162 746.481 284.261 746.251 284.349V284.349L739.329 290.133L739.156 290.428L725.788 301.956Z" fill="black"/>
<path d="M721.68 241.077L724.813 243.633L722.186 251.119C722.186 251.119 726.656 252.296 725.661 257.76C724.666 263.223 725.685 266.41 725.685 266.41C725.685 266.41 730.165 275.304 728.386 280.411L731.594 285.005C731.594 285.005 742.653 287.06 746.705 283.979C746.705 283.979 727.916 314.873 755.846 317.413C755.846 317.413 723.28 317.557 721.267 318.675C719.254 319.792 708.766 320.989 702.884 313.607C697.001 306.226 698.04 299.271 698.04 299.271C698.04 299.271 695.114 285.749 695.519 284.108C695.923 282.467 690.957 278.213 690.957 278.213L691.454 246.968L721.68 241.077Z" fill="#1B264F"/>
<path opacity="0.1" d="M651.351 147.956L651.372 148.004L650.946 150.177L649.261 158.851L648.965 160.33L648.555 162.497L647.827 166.351L643.003 178.625L642.198 180.671L634.508 200.213L617.557 243.391L601.213 265.807C601.213 265.807 598.777 268.782 596.296 271.873L596.278 269.317C596.25 260.098 596.253 251.041 596.285 242.144C596.278 242.116 596.266 242.089 596.25 242.065C596.38 208.209 596.968 176.829 597.928 149.15C598.15 149.15 598.372 149.17 598.591 149.209C601.811 149.77 605.488 150.14 606.893 150.288L607.478 150.343C608.301 150.902 609.159 151.408 610.046 151.858C611.448 152.559 613.061 153.137 613.999 152.723C615.89 151.887 627.361 153.647 629.291 154.513C630.124 154.797 630.994 154.963 631.873 155.005C634.479 155.25 637.785 155.166 637.785 155.166L644.804 153.385L645.079 153.32L645.159 153.285C647.016 152.74 650.088 149.397 651.011 148.325L651.278 148.027L651.351 147.956Z" fill="black"/>
<path d="M651.366 147.949L650.686 150.32L648.212 158.906L647.814 160.307L647.776 160.39L646.279 165.6L641.022 178.977L640.199 181.069L634.3 196.088L616.013 242.648L599.669 265.064L596.294 269.224C596.266 260.006 596.268 250.948 596.3 242.052C596.293 242.023 596.282 241.996 596.265 241.972C596.396 208.116 596.984 176.736 597.944 149.057C597.952 148.902 597.951 148.75 597.962 148.603C601.817 149.226 605.986 149.568 605.986 149.568C605.986 149.568 606.358 149.831 606.929 150.177C607.933 150.799 608.994 151.322 610.098 151.74C610.858 152.09 611.716 152.161 612.523 151.941C614.414 151.105 625.885 152.865 627.815 153.731C629.13 154.132 630.499 154.331 631.874 154.321C634.109 154.435 636.305 154.376 636.305 154.376L643.595 152.541C645.524 152.05 650.025 148.846 651.109 148.053C651.178 148.031 651.244 148.002 651.307 147.966C651.307 147.966 651.307 147.966 651.307 147.966L651.355 147.945L651.366 147.949Z" fill="#1B264F"/>
<path opacity="0.1" d="M599.39 381.673L598.217 381.166L598.213 380.835C598.585 381.141 598.979 381.421 599.39 381.673Z" fill="black"/>
<path opacity="0.1" d="M601.885 391.7L599.01 403.075C598.883 399.693 598.76 396.284 598.641 392.849L601.885 391.7Z" fill="black"/>
<path d="M610.046 323.214L609.555 323.887L609.189 324.39L601.613 334.841L601.457 334.768L597.041 332.768L596.557 332.555L597.024 331.978L604.829 322.433L605.329 321.823L605.873 321.164C607.261 321.833 608.648 322.521 610.046 323.214Z" fill="#3F3D56"/>
<path opacity="0.1" d="M719.723 218.618C719.723 218.618 713.013 218.734 710.201 221.762C707.388 224.79 719.723 218.618 719.723 218.618Z" fill="black"/>
<path opacity="0.1" d="M720.557 264.326C720.557 264.326 724.426 277.811 719.452 280.179C714.478 282.548 720.557 264.326 720.557 264.326Z" fill="black"/>
<path opacity="0.1" d="M614.562 303.84C614.124 302.742 607.779 269.146 602.697 269.681L614.562 303.84Z" fill="black"/>
<path opacity="0.1" d="M654.677 120.646C652.516 125.64 651.623 131.091 652.078 136.514L652.324 136.576C654.412 137.002 656.392 135.187 658.467 134.422C659.74 133.955 661.127 133.898 662.434 134.259C663.741 134.619 664.903 135.38 665.756 136.434C666.584 137.583 667.075 138.939 667.174 140.352C667.273 141.764 666.976 143.177 666.317 144.429C669.046 140.764 670.616 136.3 673.331 132.622C676.045 128.944 680.684 126.03 684.621 127.633C686.315 128.328 687.993 129.828 689.759 129.095C690.808 128.632 691.494 127.521 692.441 126.827C697.18 123.518 704.694 129.476 707.161 133.295C709.56 136.984 712.057 142.528 715.516 146.403C717.209 142.408 718.097 138.118 718.132 133.779C718.166 129.441 717.346 125.138 715.718 121.116C714.089 117.094 711.685 113.433 708.641 110.341C705.598 107.248 701.975 104.786 697.98 103.093C693.985 101.401 689.695 100.512 685.356 100.478C681.018 100.443 676.715 101.264 672.693 102.892C668.671 104.52 665.01 106.925 661.918 109.969C658.825 113.012 656.363 116.635 654.67 120.63L654.677 120.646Z" fill="black"/>
<path d="M692.776 126.082C691.826 126.768 691.161 127.907 690.094 128.35C688.354 129.119 686.65 127.583 684.956 126.888C681.02 125.265 676.378 128.171 673.674 131.873C670.969 135.575 669.393 140.023 666.655 143.692C667.319 142.44 667.618 141.028 667.519 139.614C667.42 138.201 666.926 136.844 666.095 135.697C665.241 134.643 664.08 133.882 662.773 133.521C661.465 133.161 660.078 133.218 658.805 133.685C656.731 134.45 654.766 136.258 652.667 135.827C650.568 135.397 649.516 132.757 649.696 130.436C649.877 128.115 650.884 125.903 651.332 123.607C652.184 119.26 651.001 114.883 651.226 110.472C651.504 105.138 653.738 100.094 657.501 96.3037C659.477 94.3288 661.85 92.7773 663.845 90.8033C666.881 87.8095 669.037 83.8753 672.322 81.1888C677.818 76.6903 686.141 76.8494 691.004 81.5378C693.329 83.7681 694.86 86.8238 697.279 88.9458C700.527 91.7839 704.948 92.6128 709.079 93.7506C713.209 94.8885 717.527 96.6653 719.567 100.616C721.903 105.13 720.495 111.099 722.48 115.806C723.347 117.768 724.712 119.416 725.667 121.321C726.623 123.225 727.117 125.656 726.059 127.624C724.697 130.173 721.098 131.44 720.977 134.304C721.013 135.162 721.217 136.004 721.578 136.783C723.137 140.987 723.699 145.495 723.219 149.952C715.479 149.136 711.342 138.419 707.541 132.568C705.029 128.73 697.523 122.769 692.776 126.082Z" fill="#464353"/>
<path opacity="0.1" d="M702.327 244.367C702.327 244.367 689.774 273.427 691.021 277.368C692.268 281.308 702.327 244.367 702.327 244.367Z" fill="black"/>
<g opacity="0.1">
<path opacity="0.1" d="M721.629 131.633C721.726 128.845 725.183 127.555 726.605 125.123C726.623 125.985 726.421 126.839 726.021 127.603C725.022 129.469 722.822 130.659 721.668 132.281C721.633 132.067 721.62 131.85 721.629 131.633V131.633Z" fill="#A1616A"/>
<path opacity="0.1" d="M667.472 140.815C670.118 137.196 671.688 132.817 674.363 129.223C677.039 125.629 681.717 122.631 685.646 124.238C687.339 124.933 689.026 126.429 690.784 125.7C691.84 125.233 692.516 124.118 693.466 123.432C698.213 120.119 705.719 126.08 708.193 129.897C711.907 135.615 715.934 145.954 723.33 147.196C723.332 148.145 723.279 149.014 723.181 149.931C715.441 149.115 711.304 138.398 707.503 132.547C705.029 128.731 697.491 122.783 692.776 126.082C691.825 126.768 691.161 127.907 690.093 128.35C688.353 129.119 686.649 127.583 684.956 126.888C681.019 125.266 676.377 128.172 673.673 131.874C670.969 135.575 669.392 140.023 666.655 143.693C667.114 142.797 667.392 141.819 667.472 140.815V140.815Z" fill="#A1616A"/>
<path opacity="0.1" d="M650.375 127.761C650.195 130.082 651.209 132.721 653.347 133.153C655.484 133.586 657.41 131.775 659.484 131.011C660.758 130.544 662.146 130.486 663.455 130.847C664.763 131.207 665.926 131.966 666.782 133.019C667.568 134.113 668.049 135.397 668.174 136.739C668.3 138.08 668.066 139.431 667.496 140.652C667.654 138.875 667.151 137.102 666.084 135.673C665.231 134.619 664.069 133.858 662.762 133.498C661.455 133.137 660.067 133.194 658.794 133.661C656.72 134.426 654.755 136.234 652.656 135.804C650.557 135.373 649.505 132.733 649.685 130.412C649.836 129.062 650.13 127.732 650.563 126.444C650.475 126.879 650.413 127.319 650.375 127.761V127.761Z" fill="#A1616A"/>
<path opacity="0.1" d="M651.881 107.808C651.68 112.209 652.903 116.568 651.987 120.943C651.817 121.825 651.562 122.688 651.307 123.551C652.147 119.22 650.966 114.851 651.167 110.469C651.262 108.495 651.633 106.544 652.272 104.673C652.06 105.706 651.929 106.754 651.881 107.808V107.808Z" fill="#A1616A"/>
</g>
<path d="M796.462 279.648C796.633 279.572 796.71 279.372 796.635 279.201C796.559 279.03 796.359 278.952 796.188 279.028C796.017 279.104 795.939 279.304 796.015 279.475C796.09 279.646 796.291 279.723 796.462 279.648Z" fill="#E6E8EC"/>
<path d="M1049.58 584.92H0V592.59H1049.58V584.92Z" fill="#85848B"/>
<path d="M420.15 341.23C426.78 342.08 433.66 342.62 440.01 340.56C441.01 340.25 442.11 339.56 442.01 338.56C441.938 338.196 441.784 337.854 441.56 337.56C439.166 333.97 437.155 330.139 435.56 326.13C435.497 325.921 435.367 325.738 435.19 325.61C434.983 325.535 434.757 325.535 434.55 325.61C431.62 326.38 429.09 328.27 426.18 329.08C424.696 329.487 423.147 329.602 421.62 329.42C420.3 329.27 418.5 328.18 417.3 328.32C417.98 332.69 419.64 336.77 420.15 341.23Z" fill="#6C63FF"/>
<path d="M545.54 330.16C549.91 327.16 554.44 324.01 557.02 319.38C557.204 319.104 557.311 318.783 557.33 318.45C557.286 318.124 557.158 317.814 556.96 317.551C554.502 313.644 551.338 310.229 547.63 307.48C545.695 308.847 543.947 310.461 542.43 312.28C541.33 313.44 538.29 315.281 538.26 317.051C538.26 318.051 539.42 319.211 539.96 320.051C540.69 321.131 541.38 322.23 542.04 323.35C542.42 323.9 545.89 329.94 545.54 330.16Z" fill="#6C63FF"/>
<path d="M446.14 354.62C446.218 355.651 445.935 356.676 445.34 357.52C444.873 357.99 444.295 358.334 443.66 358.52C434.39 361.84 423.66 357.7 414.41 360.97C412.51 361.64 410.71 362.61 408.8 363.25C406.523 363.935 404.174 364.351 401.8 364.49C398.53 364.8 395.24 365 391.96 365.09C389.468 365.267 386.963 365.048 384.54 364.44C383.328 364.13 382.195 363.568 381.215 362.791C380.234 362.014 379.429 361.039 378.85 359.93C378.347 358.936 378.247 357.787 378.57 356.72C378.715 356.355 378.921 356.017 379.18 355.72C379.807 355.017 380.543 354.42 381.36 353.95L384.77 351.75C386.369 350.62 388.106 349.699 389.94 349.01C391.29 348.57 392.72 348.38 394.09 348.01C398.88 346.61 402.54 342.81 405.94 339.16L410.58 334.21C411.014 333.666 411.564 333.225 412.19 332.92C412.833 332.706 413.517 332.641 414.19 332.73C418.697 333.052 423.049 334.511 426.84 336.97C427.809 337.697 428.855 338.314 429.96 338.81C432.68 339.87 436.17 339.07 438.68 337.73C439.87 337.09 439.61 336.73 440.11 335.59C440.61 334.45 441.83 333.72 442.89 334.76C443.21 335.12 443.436 335.553 443.55 336.02C444.55 339.32 444.17 342.87 444.17 346.33C444.141 346.871 444.208 347.413 444.37 347.93C444.625 348.452 444.93 348.947 445.28 349.41C445.351 349.533 445.415 349.66 445.47 349.79C446.082 351.322 446.312 352.98 446.14 354.62V354.62Z" fill="#514E7F"/>
<path d="M446.14 354.62C446.218 355.65 445.935 356.675 445.34 357.52C444.873 357.989 444.295 358.333 443.66 358.52C434.39 361.84 423.66 357.7 414.41 360.97C412.51 361.64 410.71 362.61 408.8 363.25C406.523 363.934 404.174 364.351 401.8 364.49C398.53 364.8 395.24 365 391.96 365.09C389.468 365.266 386.963 365.047 384.54 364.44C383.328 364.13 382.195 363.568 381.215 362.791C380.234 362.014 379.429 361.039 378.85 359.93C378.347 358.936 378.247 357.786 378.57 356.72C378.715 356.354 378.921 356.016 379.18 355.72C379.72 356.85 380.11 358.35 380.45 358.89C380.909 359.69 381.534 360.383 382.282 360.923C383.031 361.463 383.886 361.837 384.79 362.02C386.143 362.103 387.5 361.93 388.79 361.51C397.19 359.43 406.12 359.4 414.19 356.25C416.96 355.16 419.6 353.71 422.51 353.05C425.42 352.39 428.51 352.57 431.51 352.32C436.25 351.94 440.84 350.51 445.51 349.76C446.113 351.304 446.329 352.973 446.14 354.62V354.62Z" fill="#464353"/>
<path d="M566.77 329.55C566.33 333.07 564.1 336.1 561.65 338.67C559.2 341.24 556.43 343.55 554.48 346.51C552.08 350.18 551 354.73 547.88 357.83C546.682 358.957 545.337 359.916 543.88 360.68C542.248 361.643 540.523 362.437 538.73 363.05C534.07 364.54 529.05 364.2 524.18 363.84C522.599 363.825 521.034 363.523 519.56 362.95C518.889 362.609 518.247 362.214 517.64 361.77C516.419 361.018 515.392 359.991 514.64 358.77C514.271 358.106 514.167 357.327 514.35 356.59C514.628 355.778 515.106 355.049 515.74 354.47C516.836 353.33 518.012 352.271 519.26 351.3C520.972 350.195 522.515 348.848 523.84 347.3C524.653 346.077 525.252 344.724 525.61 343.3C526.318 340.805 526.751 338.239 526.9 335.65C526.894 333.929 527.072 332.213 527.43 330.53C528.17 327.89 530.13 325.53 529.91 322.8C529.821 322.409 529.856 322 530.01 321.63C530.243 321.341 530.567 321.139 530.93 321.06C532.458 320.451 534.07 320.076 535.71 319.95C536.533 319.893 537.358 320.02 538.126 320.321C538.893 320.622 539.585 321.089 540.15 321.69C540.83 322.51 541.28 323.69 542.28 324.01C542.775 324.145 543.295 324.166 543.8 324.07C546.26 323.82 548.86 323.51 550.8 321.92C551.697 321.116 552.417 320.134 552.916 319.038C553.415 317.942 553.682 316.754 553.7 315.55C553.7 314.64 553.29 313.69 554.7 313.55C555.76 313.41 556.6 314.55 557.14 315.25C559.09 317.86 561.09 320.59 561.82 323.77C562.104 323.66 562.405 323.602 562.71 323.6C563.334 323.594 563.949 323.74 564.505 324.024C565.06 324.307 565.539 324.721 565.9 325.23C566.696 326.52 567.005 328.052 566.77 329.55Z" fill="#514E7F"/>
<path d="M566.77 329.55C566.33 333.07 564.1 336.1 561.65 338.67C559.2 341.24 556.43 343.55 554.48 346.51C552.08 350.18 551 354.73 547.88 357.83C546.682 358.958 545.336 359.916 543.88 360.68C542.248 361.643 540.522 362.437 538.73 363.05C534.07 364.54 529.05 364.2 524.18 363.84C522.599 363.825 521.033 363.524 519.56 362.95C518.889 362.61 518.247 362.215 517.64 361.77C516.419 361.019 515.391 359.991 514.64 358.77C515.577 358.32 516.6 358.074 517.64 358.05C519.8 358.17 521.38 360.21 523.45 360.84C526.4 361.73 529.34 359.65 532.33 358.94C534.28 358.48 536.33 358.6 538.26 357.94C539.868 357.319 541.354 356.418 542.65 355.28C544.425 354.011 546.005 352.488 547.34 350.76C548.448 349.033 549.37 347.192 550.09 345.27C551.669 341.587 553.527 338.03 555.65 334.63C555.964 334.092 556.343 333.595 556.78 333.15C557.25 332.72 557.78 332.42 558.31 332.04C560.31 330.53 561.14 328.04 561.84 325.6C562.029 324.859 562.294 324.138 562.63 323.45C563.253 323.445 563.869 323.59 564.425 323.874C564.98 324.158 565.459 324.572 565.82 325.08C566.68 326.401 567.019 327.994 566.77 329.55V329.55Z" fill="#464353"/>
<path opacity="0.1" d="M389.79 0.0800781C388.799 0.102163 387.83 0.382121 386.98 0.89238C386.129 1.40264 385.426 2.1256 384.94 2.99008C384.278 4.56299 383.866 6.22984 383.72 7.93008C382.863 11.6996 381.209 15.2422 378.87 18.3201" fill="black"/>
<path d="M627.45 195.579V183.159C627.447 174.017 623.813 165.249 617.347 158.785C610.882 152.321 602.113 148.689 592.97 148.689H102.48C93.3371 148.689 84.5685 152.321 78.1025 158.785C71.6365 165.249 68.0027 174.017 68 183.159V206.059L627.45 195.579Z" fill="#33323D"/>
<path opacity="0.1" d="M640.69 207.77V552.77C640.69 556.688 639.918 560.568 638.419 564.188C636.919 567.808 634.721 571.097 631.95 573.867C629.179 576.637 625.889 578.834 622.269 580.332C618.649 581.831 614.768 582.602 610.85 582.6H97.8503C89.9406 582.598 82.3558 579.454 76.7637 573.86C71.1717 568.266 68.0303 560.68 68.0303 552.77V172.99C82.7303 178.45 82.7303 178.45 97.8503 177.99H610.85C618.754 177.99 626.335 181.126 631.929 186.709C637.524 192.292 640.674 199.867 640.69 207.77V207.77Z" fill="black"/>
<path d="M640.69 212.16V557.16C640.688 565.072 637.543 572.66 631.947 578.254C626.351 583.848 618.763 586.99 610.85 586.99H97.8503C89.9406 586.987 82.3558 583.843 76.7637 578.25C71.1717 572.656 68.0303 565.07 68.0303 557.16V177.37C82.7303 182.82 82.7303 182.82 97.8503 182.37H610.85C618.756 182.37 626.338 185.507 631.933 191.092C637.527 196.678 640.677 204.255 640.69 212.16V212.16Z" fill="#504F60"/>
<path opacity="0.1" d="M639.23 339.71V450.04H532.23C517.728 449.845 503.886 443.947 493.7 433.623C483.514 423.298 477.803 409.378 477.803 394.875C477.803 380.372 483.514 366.452 493.7 356.127C503.886 345.803 517.728 339.905 532.23 339.71H639.23Z" fill="black"/>
<path d="M640.69 336.77V447.12H533.69C519.188 446.924 505.346 441.026 495.16 430.702C484.974 420.378 479.263 406.458 479.263 391.955C479.263 377.451 484.974 363.531 495.16 353.207C505.346 342.883 519.188 336.985 533.69 336.79L640.69 336.77Z" fill="#33323D"/>
<path opacity="0.1" d="M538.82 416.39C550.699 416.39 560.33 406.76 560.33 394.88C560.33 383 550.699 373.37 538.82 373.37C526.94 373.37 517.31 383 517.31 394.88C517.31 406.76 526.94 416.39 538.82 416.39Z" fill="black"/>
<path d="M540.28 413.47C552.159 413.47 561.789 403.84 561.789 391.96C561.789 380.081 552.159 370.45 540.28 370.45C528.4 370.45 518.77 380.081 518.77 391.96C518.77 403.84 528.4 413.47 540.28 413.47Z" fill="#1B264F"/>
<path d="M786.284 288H873.708C874.794 288.001 875.862 287.703 876.808 287.136C877.753 286.569 878.544 285.752 879.103 284.764C879.663 283.777 879.971 282.652 879.998 281.501C880.025 280.349 879.771 279.21 879.259 278.193L835.641 191.527C835.106 190.462 834.308 189.571 833.333 188.95C832.357 188.329 831.24 188 830.103 188H830.096C827.776 188 825.651 189.353 824.558 191.52L780.745 278.187C780.232 279.203 779.976 280.342 780.002 281.494C780.027 282.645 780.333 283.771 780.889 284.76C781.449 285.747 782.24 286.564 783.185 287.132C784.13 287.7 785.197 287.999 786.284 288V288ZM830.096 261.333C830.922 261.334 831.74 261.506 832.503 261.842C833.265 262.177 833.959 262.668 834.542 263.288C835.126 263.907 835.589 264.642 835.905 265.451C836.221 266.26 836.383 267.128 836.383 268.003C836.383 268.879 836.22 269.746 835.904 270.555C835.588 271.364 835.124 272.099 834.54 272.718C833.956 273.337 833.263 273.828 832.5 274.163C831.737 274.498 830.919 274.67 830.093 274.67C828.425 274.67 826.826 273.967 825.647 272.716C824.468 271.465 823.806 269.769 823.806 268C823.807 266.231 824.47 264.536 825.649 263.285C826.829 262.035 828.428 261.333 830.096 261.333V261.333ZM823.809 248.107V221.44C823.809 219.672 824.472 217.976 825.651 216.726C826.83 215.476 828.429 214.773 830.096 214.773C831.764 214.773 833.363 215.476 834.542 216.726C835.721 217.976 836.383 219.672 836.383 221.44V248.107C836.383 249.875 835.721 251.57 834.542 252.821C833.363 254.071 831.764 254.773 830.096 254.773C828.429 254.773 826.83 254.071 825.651 252.821C824.472 251.57 823.809 249.875 823.809 248.107Z" fill="#C62121"/>
<defs>
<linearGradient id="paint0_linear" x1="676.679" y1="532.638" x2="705.507" y2="75.8456" gradientUnits="userSpaceOnUse">
<stop stop-color="#808080" stop-opacity="0.25"/>
<stop offset="0.54" stop-color="#808080" stop-opacity="0.12"/>
<stop offset="1" stop-color="#808080" stop-opacity="0.1"/>
</linearGradient>
</defs>
</svg>
