<svg width="1050" height="679" viewBox="0 0 1050 679" fill="none" xmlns="http://www.w3.org/2000/svg">
<path d="M1049.58 670.92H0V678.59H1049.58V670.92Z" fill="#85848B"/>
<path d="M831.54 535.49C831.54 541.39 797.15 558.59 756.3 558.59C715.45 558.59 683.62 541.39 683.62 535.49C683.62 529.59 716.73 531.49 757.62 531.49C798.51 531.49 831.54 529.58 831.54 535.49Z" fill="#504F60"/>
<path opacity="0.2" d="M831.54 535.49C831.54 541.39 797.15 558.59 756.3 558.59C715.45 558.59 683.62 541.39 683.62 535.49" fill="black"/>
<path d="M420.15 427.23C426.78 428.08 433.66 428.62 440.01 426.56C441.01 426.25 442.11 425.56 442.01 424.56C441.938 424.196 441.784 423.854 441.56 423.56C439.166 419.97 437.155 416.139 435.56 412.13C435.497 411.921 435.367 411.738 435.19 411.61C434.983 411.535 434.757 411.535 434.55 411.61C431.62 412.38 429.09 414.27 426.18 415.08C424.696 415.487 423.147 415.602 421.62 415.42C420.3 415.27 418.5 414.18 417.3 414.32C417.98 418.69 419.64 422.77 420.15 427.23Z" fill="#6C63FF"/>
<path d="M545.54 416.16C549.91 413.16 554.44 410.01 557.02 405.38C557.204 405.104 557.311 404.783 557.33 404.45C557.286 404.124 557.158 403.814 556.96 403.551C554.502 399.644 551.338 396.229 547.63 393.48C545.695 394.847 543.947 396.461 542.43 398.28C541.33 399.44 538.29 401.281 538.26 403.051C538.26 404.051 539.42 405.211 539.96 406.051C540.69 407.131 541.38 408.23 542.04 409.35C542.42 409.9 545.89 415.94 545.54 416.16Z" fill="#6C63FF"/>
<path d="M446.14 440.62C446.218 441.651 445.935 442.676 445.34 443.52C444.873 443.99 444.295 444.334 443.66 444.52C434.39 447.84 423.66 443.7 414.41 446.97C412.51 447.64 410.71 448.61 408.8 449.25C406.523 449.935 404.174 450.351 401.8 450.49C398.53 450.8 395.24 451 391.96 451.09C389.468 451.267 386.963 451.048 384.54 450.44C383.328 450.13 382.195 449.568 381.215 448.791C380.234 448.014 379.429 447.039 378.85 445.93C378.347 444.936 378.247 443.787 378.57 442.72C378.715 442.355 378.921 442.017 379.18 441.72C379.807 441.017 380.543 440.42 381.36 439.95L384.77 437.75C386.369 436.62 388.106 435.699 389.94 435.01C391.29 434.57 392.72 434.38 394.09 434.01C398.88 432.61 402.54 428.81 405.94 425.16L410.58 420.21C411.014 419.666 411.564 419.225 412.19 418.92C412.833 418.706 413.517 418.641 414.19 418.73C418.697 419.052 423.049 420.511 426.84 422.97C427.809 423.697 428.855 424.314 429.96 424.81C432.68 425.87 436.17 425.07 438.68 423.73C439.87 423.09 439.61 422.73 440.11 421.59C440.61 420.45 441.83 419.72 442.89 420.76C443.21 421.12 443.436 421.553 443.55 422.02C444.55 425.32 444.17 428.87 444.17 432.33C444.141 432.871 444.208 433.413 444.37 433.93C444.625 434.452 444.93 434.947 445.28 435.41C445.351 435.533 445.415 435.66 445.47 435.79C446.082 437.322 446.312 438.98 446.14 440.62V440.62Z" fill="#514E7F"/>
<path d="M446.14 440.62C446.218 441.65 445.935 442.675 445.34 443.52C444.873 443.989 444.295 444.333 443.66 444.52C434.39 447.84 423.66 443.7 414.41 446.97C412.51 447.64 410.71 448.61 408.8 449.25C406.523 449.934 404.174 450.351 401.8 450.49C398.53 450.8 395.24 451 391.96 451.09C389.468 451.266 386.963 451.047 384.54 450.44C383.328 450.13 382.195 449.568 381.215 448.791C380.234 448.014 379.429 447.039 378.85 445.93C378.347 444.936 378.247 443.786 378.57 442.72C378.715 442.354 378.921 442.016 379.18 441.72C379.72 442.85 380.11 444.35 380.45 444.89C380.909 445.69 381.534 446.383 382.282 446.923C383.031 447.463 383.886 447.837 384.79 448.02C386.143 448.103 387.5 447.93 388.79 447.51C397.19 445.43 406.12 445.4 414.19 442.25C416.96 441.16 419.6 439.71 422.51 439.05C425.42 438.39 428.51 438.57 431.51 438.32C436.25 437.94 440.84 436.51 445.51 435.76C446.113 437.304 446.329 438.973 446.14 440.62V440.62Z" fill="#464353"/>
<path d="M566.77 415.55C566.33 419.07 564.1 422.1 561.65 424.67C559.2 427.24 556.43 429.55 554.48 432.51C552.08 436.18 551 440.73 547.88 443.83C546.682 444.957 545.337 445.916 543.88 446.68C542.248 447.643 540.523 448.437 538.73 449.05C534.07 450.54 529.05 450.2 524.18 449.84C522.599 449.825 521.034 449.523 519.56 448.95C518.889 448.609 518.247 448.214 517.64 447.77C516.419 447.018 515.392 445.991 514.64 444.77C514.271 444.106 514.167 443.327 514.35 442.59C514.628 441.778 515.106 441.049 515.74 440.47C516.836 439.33 518.012 438.271 519.26 437.3C520.972 436.195 522.515 434.848 523.84 433.3C524.653 432.077 525.252 430.724 525.61 429.3C526.318 426.805 526.751 424.239 526.9 421.65C526.894 419.929 527.072 418.213 527.43 416.53C528.17 413.89 530.13 411.53 529.91 408.8C529.821 408.409 529.856 408 530.01 407.63C530.243 407.341 530.567 407.139 530.93 407.06C532.458 406.451 534.07 406.076 535.71 405.95C536.533 405.893 537.358 406.02 538.126 406.321C538.893 406.622 539.585 407.089 540.15 407.69C540.83 408.51 541.28 409.69 542.28 410.01C542.775 410.145 543.295 410.166 543.8 410.07C546.26 409.82 548.86 409.51 550.8 407.92C551.697 407.116 552.417 406.134 552.916 405.038C553.415 403.942 553.682 402.754 553.7 401.55C553.7 400.64 553.29 399.69 554.7 399.55C555.76 399.41 556.6 400.55 557.14 401.25C559.09 403.86 561.09 406.59 561.82 409.77C562.104 409.66 562.405 409.602 562.71 409.6C563.334 409.594 563.949 409.74 564.505 410.024C565.06 410.307 565.539 410.721 565.9 411.23C566.696 412.52 567.005 414.052 566.77 415.55Z" fill="#514E7F"/>
<path d="M566.77 415.55C566.33 419.07 564.1 422.1 561.65 424.67C559.2 427.24 556.43 429.55 554.48 432.51C552.08 436.18 551 440.73 547.88 443.83C546.682 444.958 545.336 445.916 543.88 446.68C542.248 447.643 540.522 448.437 538.73 449.05C534.07 450.54 529.05 450.2 524.18 449.84C522.599 449.825 521.033 449.524 519.56 448.95C518.889 448.61 518.247 448.215 517.64 447.77C516.419 447.019 515.391 445.991 514.64 444.77C515.577 444.32 516.6 444.074 517.64 444.05C519.8 444.17 521.38 446.21 523.45 446.84C526.4 447.73 529.34 445.65 532.33 444.94C534.28 444.48 536.33 444.6 538.26 443.94C539.868 443.319 541.354 442.418 542.65 441.28C544.425 440.011 546.005 438.488 547.34 436.76C548.448 435.033 549.37 433.192 550.09 431.27C551.669 427.587 553.527 424.03 555.65 420.63C555.964 420.092 556.343 419.595 556.78 419.15C557.25 418.72 557.78 418.42 558.31 418.04C560.31 416.53 561.14 414.04 561.84 411.6C562.029 410.859 562.294 410.138 562.63 409.45C563.253 409.445 563.869 409.59 564.425 409.874C564.98 410.158 565.459 410.572 565.82 411.08C566.68 412.401 567.019 413.994 566.77 415.55V415.55Z" fill="#464353"/>
<path d="M357.08 103.771C359.569 105.636 361.618 108.026 363.08 110.771C364.48 113.511 372.55 134.771 372.08 137.861C374.71 135.211 385.08 134.781 387.74 132.131C388.85 131.021 394.84 125.481 395.74 124.191C396.64 122.901 403.32 120.191 404.05 118.831C406.78 113.941 384.69 95.4106 387.52 90.5806C387.677 90.3586 387.757 90.0921 387.75 89.8206C387.686 89.5926 387.557 89.3878 387.38 89.2306C385.57 87.3806 383.17 86.2305 380.99 84.8605C378.81 83.4905 376.71 81.5805 376.12 79.0605C374.041 80.0175 372.133 81.3079 370.47 82.8806C366.417 86.3539 362.434 89.8972 358.52 93.5106C356.99 94.9306 354.03 96.8206 353.32 98.8506C352.48 101.031 355.62 102.581 357.08 103.771Z" fill="#A1616A"/>
<path d="M392.84 95.9004C389.451 98.1779 386.284 100.769 383.38 103.64C380.64 106.35 378.04 109.49 377.38 113.28C377.1 114.77 377.14 116.28 376.91 117.79C375.91 124.34 370.25 129.14 367.75 135.27C367.026 137.162 366.494 139.122 366.16 141.12C365.458 144.908 365.073 148.748 365.01 152.6C364.95 156.33 368.61 158.9 369.95 162.38C371.29 165.86 371.651 169.44 372.331 173.01C373.611 179.75 375.961 186.25 378.331 192.71C383.261 206.33 399.24 243.98 404.17 257.61C419.28 253.82 459.501 245.11 472.881 237.12C477.341 234.46 441.93 204.45 446.7 202.38C446.973 202.338 447.232 202.233 447.457 202.073C447.682 201.913 447.867 201.703 447.997 201.46C448.127 201.216 448.199 200.946 448.206 200.67C448.214 200.394 448.157 200.121 448.04 199.87C443.27 179.01 428.351 161.87 421.581 141.56C419.231 134.51 415.01 128.49 411.81 121.79C408.91 115.72 407.36 109.01 403.89 103.24C403.236 102.052 402.38 100.986 401.361 100.09C400.495 99.4268 399.559 98.8601 398.57 98.4004C396.59 97.4404 394.75 96.8704 392.84 95.9004Z" fill="#514E7F"/>
<path d="M357.88 101.4C370.942 101.4 381.53 90.8111 381.53 77.7496C381.53 64.6881 370.942 54.0996 357.88 54.0996C344.819 54.0996 334.23 64.6881 334.23 77.7496C334.23 90.8111 344.819 101.4 357.88 101.4Z" fill="#A1616A"/>
<path d="M381.94 88.8606C383.119 87.7735 384.6 87.0692 386.187 86.8407C387.774 86.6122 389.393 86.8702 390.83 87.5806C392.43 88.4106 393.83 90.0906 393.47 91.8506L405.2 92.0306C407.067 91.9796 408.934 92.1508 410.76 92.5406C412.599 92.9409 414.24 93.97 415.4 95.4506C415.54 95.6406 415.7 95.8706 415.94 95.9006C416.136 95.9037 416.326 95.8402 416.48 95.7206C418.285 94.8156 420.318 94.4676 422.32 94.7206C428.66 95.1306 434.52 98.3006 439.49 102.261C440.387 102.877 441.082 103.743 441.49 104.751C441.9 106.081 441.41 107.751 442.49 108.701C442.49 119.701 446.27 129.981 448.79 140.701C449.24 142.611 451.07 144.301 452.34 145.801C453.91 147.464 455.19 149.376 456.13 151.461C458.27 157.021 455.32 163.561 457.4 169.141C458.28 171.501 459.98 173.441 461.4 175.491C463.272 177.858 464.456 180.695 464.82 183.691C464.91 185.031 464.74 186.381 464.82 187.691C464.955 189.492 465.29 191.274 465.82 193.001C466.674 196.227 467.567 199.451 468.5 202.671C470.02 207.871 472 213.481 476.66 216.251C465.41 218.161 453.55 220.031 442.83 216.121C441.335 215.611 439.916 214.901 438.61 214.011C434.74 211.251 432.87 206.531 431.2 202.071C429.34 197.071 427.45 191.981 427.07 186.661C427.074 184.969 426.835 183.285 426.36 181.661C425.27 178.761 422.36 177.011 419.72 175.401C416.739 173.767 414.038 171.667 411.72 169.181C410.57 167.928 409.689 166.453 409.132 164.847C408.575 163.24 408.353 161.536 408.48 159.841C408.68 158.191 409.33 156.601 409.39 154.941C409.45 153.281 408.71 151.381 407.12 150.941C398.93 148.461 395.02 138.761 393.2 130.401C392.415 126.08 392.063 121.691 392.15 117.301L392.04 108.771C390.91 107.742 390.001 106.495 389.368 105.104C388.736 103.713 388.393 102.208 388.36 100.681C388.469 99.7894 388.452 98.8873 388.31 98.0006C387.915 96.9169 387.271 95.9409 386.43 95.1506C384.622 93.2949 383.108 91.1737 381.94 88.8606V88.8606Z" fill="#464353"/>
<path d="M356.75 115.901C356.48 118.541 357.08 121.251 356.49 123.841C356.26 124.841 355.86 125.841 355.57 126.771C354.684 130.499 355.067 134.416 356.66 137.901C358.251 141.351 360.156 144.649 362.35 147.751C363.092 148.81 363.704 149.955 364.17 151.161C364.548 152.427 364.783 153.732 364.87 155.051C365.449 160.346 366.378 165.598 367.65 170.771C368.77 175.251 381.49 213.551 384.45 217.101C384.987 217.887 385.802 218.44 386.73 218.651C387.4 218.676 388.065 218.539 388.67 218.251L394.67 215.951C395.18 215.795 395.653 215.536 396.06 215.191C396.623 214.534 396.928 213.695 396.92 212.831C397.35 207.951 384.6 169.381 382.98 164.771C378.08 150.851 371.56 137.431 368.37 123.021C367.48 119.021 367.01 112.861 364.08 109.671C362.87 108.351 363.28 108.911 361.83 109.601C361.098 109.919 360.389 110.29 359.71 110.711C358.862 111.301 358.155 112.073 357.643 112.971C357.131 113.869 356.826 114.87 356.75 115.901Z" fill="#464353"/>
<path d="M374.96 142.31C376.57 150.82 378.23 159.31 379.88 167.82L403.36 161.67C403.55 159.21 402.24 156.93 401.36 154.67C399.22 149.3 399.17 143.32 397.44 137.8C396.13 133.6 393.85 129.74 392.62 125.51C391.91 123.05 391.55 120.51 390.85 118.02C390.1 115.575 389.177 113.185 388.09 110.87C386.772 107.512 385.053 104.325 382.97 101.38C379.97 102.5 376.77 103.8 375.06 106.51C374.183 108.037 373.683 109.751 373.6 111.51C373.19 116.78 375.1 122.08 374.47 127.32C373.821 132.31 373.987 137.373 374.96 142.31V142.31Z" fill="#1B264F"/>
<path d="M403.75 255.51C405.07 260.51 403.16 265.77 401.6 270.72C399.252 278.176 397.65 285.847 396.82 293.62C396.718 295.598 396.321 297.55 395.64 299.41C394.9 301.08 393.64 302.49 392.78 304.08C390.42 308.26 390.48 313.36 390.99 318.14C391.33 321.29 391.84 324.43 392.47 327.53C393.24 331.32 394.19 335.28 393.08 338.98C394.94 338.57 396.2 340.98 396.08 342.87C395.96 344.76 395.35 346.87 396.26 348.5C398.56 349.34 398.58 352.5 398.51 354.95C398.548 359.198 399.085 363.427 400.11 367.55C403.59 384.283 407.284 400.97 411.19 417.61C419.64 420.23 429.51 422.96 437.57 419.33C439.07 418.66 440.57 417.59 440.91 415.97C440.998 415.097 440.889 414.215 440.59 413.39L436.77 399.49C435.84 396.13 434.91 392.66 435.4 389.21C435.77 386.64 436.89 383.87 435.63 381.6C435.2 380.82 434.52 380.21 434.02 379.47C432.02 376.54 433.07 372.62 433.23 369.07C433.293 368.273 433.239 367.471 433.07 366.69C432.796 365.777 432.414 364.901 431.93 364.08C428.773 357.951 427.257 351.109 427.53 344.22C427.65 343.341 427.529 342.446 427.18 341.63C426.938 341.293 426.72 340.939 426.53 340.57C426.381 339.928 426.455 339.254 426.74 338.66C425.594 337.79 424.56 336.783 423.66 335.66C424.215 335.315 424.684 334.849 425.032 334.296C425.38 333.743 425.598 333.119 425.669 332.47C425.74 331.821 425.663 331.164 425.443 330.549C425.224 329.934 424.867 329.377 424.4 328.92C424.808 328.838 425.185 328.644 425.49 328.361C425.794 328.077 426.014 327.715 426.125 327.314C426.236 326.913 426.233 326.489 426.118 326.089C426.002 325.69 425.778 325.33 425.47 325.05C424.98 324.71 424.33 324.56 423.98 324.05C423.44 323.31 423.88 322.28 424.32 321.49L426.65 317.28C428.39 314.15 428.78 310.28 430.65 307.28C433.33 302.91 435.08 298.04 436.81 293.22L443.54 274.65L448.07 278.58C449.579 279.732 450.844 281.174 451.79 282.82C452.434 284.447 452.842 286.157 453 287.9C454.66 297.98 461 306.72 463.35 316.65C463.87 318.86 464.22 321.18 465.49 323.07C465.945 323.65 466.353 324.265 466.71 324.91C467.041 325.893 467.213 326.922 467.22 327.96C467.43 329.991 468.074 331.953 469.11 333.713C470.145 335.473 471.547 336.99 473.22 338.16C475.45 339.69 478.22 340.74 479.43 343.16C479.672 343.909 480.008 344.625 480.43 345.29C481.51 346.59 483.84 346.74 484.3 348.37C484.56 349.28 484.08 350.37 484.59 351.17C484.88 351.54 485.263 351.826 485.7 352L492.21 355.25C499.49 358.89 503.21 367.25 508.58 373.34C510.435 375.323 512.077 377.495 513.48 379.82C515.8 383.97 516.87 389.18 520.79 391.82C521.844 392.366 522.803 393.079 523.63 393.93C524.86 395.55 524.41 397.82 524.52 399.86C524.63 401.9 526.19 404.33 528.13 403.71C527.45 406.181 527.45 408.789 528.13 411.26C536.647 410.822 544.769 407.533 551.19 401.92C553.09 400.26 554.92 398.14 554.94 395.62C554.969 395.185 554.872 394.751 554.66 394.37C554.276 393.878 553.769 393.495 553.19 393.26C547.1 389.96 545.27 382.31 542.19 376.1C539.5 370.62 535.52 365.9 532.19 360.81C524.95 349.86 520.01 336.61 509.06 329.38C506.65 327.79 503.85 326.38 502.64 323.75C501.97 322.28 501.89 320.6 501.36 319.08C500.83 317.56 499.56 316.08 497.94 316.08C498.84 313.88 498.66 311.2 498.72 308.82C498.782 307.763 498.66 306.705 498.36 305.69C497.944 304.598 497.404 303.558 496.75 302.59C493.893 297.753 492.465 292.205 492.63 286.59C492.71 283.7 493.22 280.72 492.35 277.96C491.91 276.57 491.14 275.3 490.61 273.96C489.812 271.532 489.39 268.996 489.36 266.44L488.76 256.83C488.67 253.629 488.254 250.446 487.52 247.33C485.52 239.87 483.52 208.62 476.67 205.1C469.82 201.58 458.05 225.63 450.34 226.1C446.929 226.242 443.559 226.892 440.34 228.03C435.21 229.95 430.91 233.53 426.72 237.03L412.54 248.94C409.54 251.41 407.06 253.77 403.75 255.51Z" fill="#464353"/>
<path d="M335.69 51.4904C338.81 47.2304 344.17 44.9704 349.45 44.7804C354.73 44.5904 359.93 46.2504 364.66 48.6004C366.056 49.3944 367.548 50.006 369.1 50.4204C371.6 50.9304 374.38 50.2504 376.64 51.4204C379.64 53.0104 380.22 57.0604 379.96 60.4204C379.7 63.7804 379.07 67.5104 380.86 70.4204C381.495 71.2503 382.073 72.1223 382.59 73.0304C383.36 74.7604 382.91 76.7604 382.45 78.5904C381.28 77.5904 380.62 76.0804 379.58 74.9204C378.54 73.7604 376.73 72.9804 375.44 73.8504C374.15 74.7204 374.17 76.3004 374.1 77.7204C374.03 79.1404 373.67 80.8404 372.33 81.3004C371.77 81.4278 371.185 81.3844 370.65 81.1758C370.115 80.9672 369.655 80.6031 369.33 80.1304C367.04 77.3304 367.96 72.8604 365.69 70.0404C364.4 68.4404 362.25 67.6604 361.06 65.9804C360.12 64.6604 359.88 62.9804 359.06 61.5604C358.24 60.1404 356.33 59.1004 355.06 60.0804C354.626 60.4945 354.265 60.9778 353.99 61.5104C353.198 62.6448 352.046 63.4789 350.722 63.8781C349.397 64.2773 347.977 64.2183 346.69 63.7104C345.706 63.1067 344.642 62.6455 343.53 62.3404C342.801 62.304 342.077 62.4719 341.439 62.8253C340.801 63.1788 340.275 63.7036 339.92 64.3404C339.202 65.6128 338.855 67.061 338.92 68.5204C338.92 70.5204 339.28 72.6504 338.14 74.2504C337.706 74.8527 337.163 75.3683 336.54 75.7704C334.87 76.8404 332.54 77.5604 331 76.3404C330.478 75.8543 330.089 75.242 329.872 74.5626C329.655 73.8831 329.616 73.1592 329.76 72.4604C330.059 71.0686 330.454 69.6987 330.94 68.3604C331.82 65.2604 330.67 61.7704 331.63 58.8504C332.635 56.2207 334.002 53.7436 335.69 51.4904V51.4904Z" fill="#464353"/>
<path d="M348.36 122.04C348.21 122.769 348.287 123.526 348.58 124.21C348.877 124.676 349.282 125.063 349.76 125.34C353.123 127.435 356.948 128.674 360.9 128.95C361.438 128.959 361.966 129.096 362.44 129.35C363.38 129.97 363.44 131.35 363.09 132.45C362.623 133.488 362.381 134.612 362.38 135.75C362.67 137.84 365.15 138.75 367.24 139.06C370.17 139.43 373.38 139.24 375.7 137.41C377.272 135.977 378.47 134.181 379.19 132.18C384.93 118.99 386.94 104.41 392.75 91.2601C393.19 90.4015 393.484 89.4754 393.62 88.5201C393.681 88.0419 393.614 87.556 393.424 87.1128C393.234 86.6697 392.929 86.2854 392.54 86.0001C391.46 85.3301 389.78 85.7101 389.05 84.6601C388.69 84.1301 388.73 83.4101 388.41 82.8501C387.74 81.6601 385.98 81.8501 384.78 81.1601C383.84 80.6601 383.19 79.6301 382.14 79.4301C381.625 79.401 381.109 79.4925 380.636 79.6973C380.162 79.9021 379.742 80.2147 379.41 80.6101C376 83.7901 374.21 88.3001 372.31 92.5601C369.409 99.09 366.012 105.388 362.15 111.4C362.6 110.7 359.99 105.4 358.97 105.17C357.18 104.81 354.89 107.95 353.92 109.12C350.876 112.811 348.947 117.292 348.36 122.04V122.04Z" fill="#1B264F"/>
<path opacity="0.1" d="M384.69 82.0898C383.972 82.1018 383.265 82.2752 382.623 82.5972C381.981 82.9191 381.419 83.3814 380.98 83.9498C379.91 85.3398 379.7 87.1798 379.43 88.9498C378.52 94.5575 376.519 99.9323 373.54 104.77" fill="black"/>
<path opacity="0.1" d="M389.79 86.0801C388.799 86.1022 387.83 86.3821 386.98 86.8924C386.129 87.4026 385.426 88.1256 384.94 88.9901C384.278 90.563 383.866 92.2298 383.72 93.9301C382.863 97.6996 381.209 101.242 378.87 104.32" fill="black"/>
<path d="M627.45 281.579V269.159C627.447 260.017 623.813 251.249 617.347 244.785C610.882 238.321 602.113 234.689 592.97 234.689H102.48C93.3371 234.689 84.5685 238.321 78.1025 244.785C71.6365 251.249 68.0027 260.017 68 269.159V292.059L627.45 281.579Z" fill="#33323D"/>
<path d="M238.93 220.13C238.93 220.13 237.53 306.99 252.93 335.57C268.33 364.15 274.93 488.48 274.93 488.48C274.93 488.48 436.37 505.18 548.87 468.48C661.37 431.78 900.75 416.77 900.75 416.77L860.41 144.88C860.41 144.88 661.12 132.1 547.75 186.17C434.38 240.24 238.93 220.13 238.93 220.13Z" fill="#8DD070"/>
<path opacity="0.1" d="M238.93 220.13C238.93 220.13 237.53 306.99 252.93 335.57C268.33 364.15 274.93 488.48 274.93 488.48C274.93 488.48 436.37 505.18 548.87 468.48C661.37 431.78 900.75 416.77 900.75 416.77L860.41 144.88C860.41 144.88 661.12 132.1 547.75 186.17C434.38 240.24 238.93 220.13 238.93 220.13Z" fill="black"/>
<path d="M274.66 251.861C274.66 251.861 269.61 323.531 282.28 346.431C294.95 369.331 295.54 471.561 295.54 471.561C295.54 471.561 440.83 478.301 544.18 443.121C647.53 407.941 864.71 385.121 864.71 385.121L840.03 162.771C840.03 162.771 660.33 160.921 555.45 210.441C450.57 259.961 274.66 251.861 274.66 251.861Z" fill="#8DD070"/>
<path opacity="0.1" d="M553.854 402.41C574.527 399.835 586.808 361.805 581.286 317.468C575.763 273.131 554.528 239.276 533.856 241.85C513.183 244.425 500.902 282.455 506.424 326.792C511.947 371.13 533.182 404.985 553.854 402.41Z" fill="black"/>
<path opacity="0.2" d="M751.15 12.4297C751.15 12.4297 557.54 61.4297 466.24 147.68C374.94 233.93 182.74 274.77 182.74 274.77C182.74 274.77 208.06 357.86 231.48 380.34C254.9 402.82 299.32 519.14 299.32 519.14C299.32 519.14 458.09 485.48 553.89 416C649.69 346.52 872.96 258.77 872.96 258.77L751.15 12.4297Z" fill="black"/>
<path d="M179.83 262.33C179.83 262.33 205.14 345.43 228.54 367.91C251.94 390.39 296.38 506.7 296.38 506.7C296.38 506.7 455.17 473.05 550.98 403.57C646.79 334.09 870.04 246.37 870.04 246.37L748.23 0C748.23 0 554.63 49 463.33 135.25C372.03 221.5 179.83 262.33 179.83 262.33Z" fill="#8DD070"/>
<path opacity="0.1" d="M179.83 262.33C179.83 262.33 205.14 345.43 228.54 367.91C251.94 390.39 296.38 506.7 296.38 506.7C296.38 506.7 455.17 473.05 550.98 403.57C646.79 334.09 870.04 246.37 870.04 246.37L748.23 0C748.23 0 554.63 49 463.33 135.25C372.03 221.5 179.83 262.33 179.83 262.33Z" fill="black"/>
<path d="M223.54 281.57C223.54 281.57 240.73 351.34 259.82 369.24C278.91 387.14 310.82 484.24 310.82 484.24C310.82 484.24 451.16 446.06 538.73 380.86C626.3 315.66 826.02 227.39 826.02 227.39L734.31 23.2695C734.31 23.2695 562.72 76.6395 478.09 155.96C393.46 235.28 223.54 281.57 223.54 281.57Z" fill="#8DD070"/>
<path opacity="0.1" d="M535.492 339.179C554.377 330.385 554.396 290.421 535.535 249.917C516.674 209.414 486.074 183.708 467.189 192.503C448.304 201.297 448.285 241.26 467.147 281.764C486.008 322.268 516.607 347.973 535.492 339.179Z" fill="black"/>
<path opacity="0.1" d="M640.69 293.77V638.77C640.69 642.688 639.918 646.568 638.419 650.188C636.919 653.808 634.721 657.097 631.95 659.867C629.179 662.637 625.889 664.834 622.269 666.332C618.649 667.831 614.768 668.602 610.85 668.6H97.8503C89.9406 668.598 82.3558 665.454 76.7637 659.86C71.1717 654.266 68.0303 646.68 68.0303 638.77V258.99C82.7303 264.45 82.7303 264.45 97.8503 263.99H610.85C618.754 263.99 626.335 267.126 631.929 272.709C637.524 278.292 640.674 285.867 640.69 293.77V293.77Z" fill="black"/>
<path d="M640.69 298.16V643.16C640.688 651.072 637.543 658.66 631.947 664.254C626.351 669.848 618.763 672.99 610.85 672.99H97.8503C89.9406 672.987 82.3558 669.843 76.7637 664.25C71.1717 658.656 68.0303 651.07 68.0303 643.16V263.37C82.7303 268.82 82.7303 268.82 97.8503 268.37H610.85C618.756 268.37 626.338 271.507 631.933 277.092C637.527 282.678 640.677 290.255 640.69 298.16V298.16Z" fill="#504F60"/>
<path opacity="0.1" d="M639.23 425.71V536.04H532.23C517.728 535.845 503.886 529.947 493.7 519.623C483.514 509.298 477.803 495.378 477.803 480.875C477.803 466.372 483.514 452.452 493.7 442.127C503.886 431.803 517.728 425.905 532.23 425.71H639.23Z" fill="black"/>
<path d="M640.69 422.77V533.12H533.69C519.188 532.924 505.346 527.026 495.16 516.702C484.974 506.378 479.263 492.458 479.263 477.955C479.263 463.451 484.974 449.531 495.16 439.207C505.346 428.883 519.188 422.985 533.69 422.79L640.69 422.77Z" fill="#33323D"/>
<path opacity="0.1" d="M538.82 502.39C550.699 502.39 560.33 492.76 560.33 480.88C560.33 469 550.699 459.37 538.82 459.37C526.94 459.37 517.31 469 517.31 480.88C517.31 492.76 526.94 502.39 538.82 502.39Z" fill="black"/>
<path d="M540.28 499.47C552.159 499.47 561.789 489.84 561.789 477.96C561.789 466.081 552.159 456.45 540.28 456.45C528.4 456.45 518.77 466.081 518.77 477.96C518.77 489.84 528.4 499.47 540.28 499.47Z" fill="#1B264F"/>
<path d="M826.42 421.82C827.27 431.03 820.3 439.97 822.33 448.99C822.77 450.92 823.6 452.74 823.9 454.69C824.74 460.05 821.55 465.12 818.5 469.6L792.3 508.04C791.251 509.73 789.995 511.282 788.56 512.66C783.56 517.12 776.04 516.66 769.46 517.99C764.835 518.929 760.468 520.86 756.66 523.65C756.501 523.786 756.4 523.978 756.378 524.187C756.355 524.395 756.414 524.604 756.54 524.77C757.628 526.251 759.069 527.436 760.732 528.217C762.395 528.998 764.227 529.35 766.06 529.24C766.75 530.15 766.06 531.48 765.06 532.13C763.65 533.13 761.72 533.37 761.44 535.75C761.341 536.581 761.509 537.422 761.92 538.15C762.976 539.767 764.618 540.911 766.5 541.34C775.57 544.11 785.37 539.24 792.16 532.61C798.95 525.98 803.82 517.61 810.48 510.86C814.17 507.13 818.36 503.93 822.16 500.31C829.74 493.09 835.63 484.31 841.32 475.52C843.03 472.87 844.75 470.15 845.47 467.08C846.19 464.01 845.85 460.91 846.66 457.94C847.72 454.04 850.57 450.94 852.94 447.67C857.59 441.27 860.69 433.44 860.08 425.56C859.47 417.68 854.58 409.89 847.14 407.21C844.835 406.284 842.291 406.13 839.89 406.77C836.84 407.71 834.59 410.23 832.51 412.64L827.51 418.39C826.264 419.652 825.278 421.147 824.61 422.79C824.29 423.615 824.214 424.515 824.391 425.382C824.569 426.25 824.992 427.047 825.61 427.68" fill="#FBBEBE"/>
<path opacity="0.05" d="M826.42 421.82C827.27 431.03 820.3 439.97 822.33 448.99C822.77 450.92 823.6 452.74 823.9 454.69C824.74 460.05 821.55 465.12 818.5 469.6L792.3 508.04C791.251 509.73 789.995 511.282 788.56 512.66C783.56 517.12 776.04 516.66 769.46 517.99C764.835 518.929 760.468 520.86 756.66 523.65C756.501 523.786 756.4 523.978 756.378 524.187C756.355 524.395 756.414 524.604 756.54 524.77C757.628 526.251 759.069 527.436 760.732 528.217C762.395 528.998 764.227 529.35 766.06 529.24C766.75 530.15 766.06 531.48 765.06 532.13C763.65 533.13 761.72 533.37 761.44 535.75C761.341 536.581 761.509 537.422 761.92 538.15C762.976 539.767 764.618 540.911 766.5 541.34C775.57 544.11 785.37 539.24 792.16 532.61C798.95 525.98 803.82 517.61 810.48 510.86C814.17 507.13 818.36 503.93 822.16 500.31C829.74 493.09 835.63 484.31 841.32 475.52C843.03 472.87 844.75 470.15 845.47 467.08C846.19 464.01 845.85 460.91 846.66 457.94C847.72 454.04 850.57 450.94 852.94 447.67C857.59 441.27 860.69 433.44 860.08 425.56C859.47 417.68 854.58 409.89 847.14 407.21C844.835 406.284 842.291 406.13 839.89 406.77C836.84 407.71 834.59 410.23 832.51 412.64L827.51 418.39C826.264 419.652 825.278 421.147 824.61 422.79C824.29 423.615 824.214 424.515 824.391 425.382C824.569 426.25 824.992 427.047 825.61 427.68" fill="black"/>
<path d="M846.25 658.92C840.53 662.41 833.4 662.62 826.75 661.81C825.68 661.68 824.41 661.6 823.75 662.43C822.75 663.63 823.93 665.43 825.15 666.36C829.072 669.305 833.68 671.201 838.54 671.87C842.879 672.485 847.257 672.776 851.64 672.74C863.64 672.95 875.64 673.15 887.45 671.43C888.149 671.377 888.83 671.179 889.45 670.85C890.211 670.315 890.74 669.511 890.93 668.6C891.74 665.52 890.18 662.22 887.82 660.08C885.46 657.94 882.43 656.75 879.47 655.6L869.07 651.55C866.63 650.6 862.72 648.08 860.07 648.28C855.09 648.64 850.38 656.5 846.25 658.92Z" fill="#3F3D56"/>
<path opacity="0.05" d="M846.25 658.92C840.53 662.41 833.4 662.62 826.75 661.81C825.68 661.68 824.41 661.6 823.75 662.43C822.75 663.63 823.93 665.43 825.15 666.36C829.072 669.305 833.68 671.201 838.54 671.87C842.879 672.485 847.257 672.776 851.64 672.74C863.64 672.95 875.64 673.15 887.45 671.43C888.149 671.377 888.83 671.179 889.45 670.85C890.211 670.315 890.74 669.511 890.93 668.6C891.74 665.52 890.18 662.22 887.82 660.08C885.46 657.94 882.43 656.75 879.47 655.6L869.07 651.55C866.63 650.6 862.72 648.08 860.07 648.28C855.09 648.64 850.38 656.5 846.25 658.92Z" fill="black"/>
<path d="M853.54 520.86C849.21 526.62 844.73 533.27 845.8 540.4C846.38 544.24 848.53 547.63 850.11 551.18C852.25 556 853.37 561.18 854.47 566.34C856.09 573.88 857.72 581.44 858.71 589.1C859.84 597.75 854.53 622.78 854.04 631.49C853.92 633.59 853.67 635.86 852.21 637.37C851.64 637.97 850.88 638.45 850.62 639.23C850.467 639.982 850.592 640.763 850.97 641.43C853.41 646.93 858.4 651.03 863.97 653.37C869.54 655.71 882.97 659.75 889.04 659.96C889.84 660.048 890.65 659.942 891.4 659.65C892.207 659.158 892.843 658.428 893.22 657.56C897.57 649.24 893.39 619.66 893.45 610.27C893.51 602.44 895.36 594.66 895.02 586.84C894.74 580.56 893.02 574.42 892.45 568.16C891.45 557.9 893.33 547.59 895.22 537.45C896.66 529.67 898.11 521.89 899.96 514.21C901.09 509.52 902.4 504.79 904.96 500.72C906.96 497.49 909.77 494.79 912.1 491.72C918.567 483.241 921.44 472.559 920.1 461.98C919.96 460.98 905.1 465.75 903.79 466.32C898.445 468.583 893.527 471.746 889.25 475.67C885.81 478.95 883.1 483.33 880.09 487C875.83 492.193 871.623 497.423 867.47 502.69C862.73 508.71 858.087 514.767 853.54 520.86Z" fill="#464353"/>
<path opacity="0.05" d="M853.54 520.51C849.21 526.27 844.73 532.93 845.8 540.05C846.38 543.9 848.53 547.29 850.11 550.84C852.25 555.65 853.37 560.84 854.47 565.99C856.09 573.54 857.72 581.1 858.71 588.75C859.84 597.41 854.53 622.43 854.04 631.14C853.92 633.24 853.67 635.52 852.21 637.03C851.64 637.62 850.88 638.1 850.62 638.88C850.467 639.632 850.591 640.413 850.97 641.08C853.41 646.59 858.4 650.68 863.97 653.08C869.54 655.48 882.97 657.57 889.04 657.77C889.84 657.858 890.65 657.752 891.4 657.46C892.209 656.974 892.845 656.247 893.22 655.38C897.57 647.06 893.39 619.38 893.45 609.98C893.51 602.14 895.36 594.37 895.02 586.54C894.74 580.26 893.02 574.12 892.45 567.87C891.45 557.6 893.33 547.29 895.22 537.15C896.66 529.38 898.11 521.6 899.96 513.91C901.09 509.22 902.4 504.49 904.96 500.42C906.96 497.19 909.77 494.49 912.1 491.42C918.569 482.942 921.442 472.26 920.1 461.68C919.96 460.68 905.1 465.45 903.79 466.02C898.446 468.291 893.529 471.456 889.25 475.38C885.81 478.65 883.1 483.03 880.09 486.7C875.83 491.894 871.623 497.127 867.47 502.4C862.73 508.374 858.087 514.41 853.54 520.51Z" fill="black"/>
<path d="M805.36 394C818.764 394 829.63 383.134 829.63 369.73C829.63 356.326 818.764 345.46 805.36 345.46C791.956 345.46 781.09 356.326 781.09 369.73C781.09 383.134 791.956 394 805.36 394Z" fill="#FBBEBE"/>
<path d="M827.22 368.71C829.462 372.286 832.402 375.375 835.864 377.79C839.326 380.206 843.239 381.899 847.37 382.77L845.54 389.42C842.38 400.84 838.83 412.92 830.01 420.84C831.01 416.97 829.73 412.84 827.55 409.48C825.37 406.12 822.31 403.48 819.31 400.87L805.34 388.77C804.936 388.441 804.597 388.041 804.34 387.59C803.995 386.736 803.995 385.783 804.34 384.93C806.12 379.39 811.2 375.93 815.34 372.19C817.417 370.256 819.272 368.096 820.87 365.75C823.66 361.77 825.39 365.77 827.22 368.71Z" fill="#FBBEBE"/>
<path d="M773.39 345.33L772.84 340.77C776.67 341.77 780.31 338.51 782.76 335.14C785.21 331.77 787.48 327.8 791.21 326.39C795.74 324.69 800.54 327.39 804.87 329.67C809.717 332.36 815.038 334.091 820.54 334.77C821.418 334.799 822.288 334.94 823.13 335.19C825.95 336.19 827.29 339.73 827.7 342.94C828.11 346.15 828 349.56 829.39 352.42C830.39 354.59 832.25 356.2 833.39 358.34C836.39 364.08 833.49 371.93 836.62 377.56L828.84 370.43C828.13 369.78 827.13 369.1 826.34 369.65C825.72 370.09 825.67 371.04 825.42 371.8C824.67 374.02 821.89 374.68 819.88 373.8C817.87 372.92 816.4 371.01 814.88 369.27C811.44 365.21 807.34 361.64 802.54 359.91C800.436 359.123 798.189 358.793 795.947 358.941C793.706 359.09 791.522 359.713 789.54 360.77C785.91 362.82 783.25 367.6 778.8 367.77C772.7 368 770.16 356.64 767.34 352.15C768.372 351.373 769.098 350.259 769.39 349.001C769.683 347.743 769.523 346.422 768.94 345.27C769.35 345.1 773.3 344.63 773.39 345.33Z" fill="#464353"/>
<path d="M473.2 203.44C471.25 205.175 469.447 207.068 467.81 209.1C466.162 211.161 465.285 213.732 465.33 216.37C465.339 217.135 465.583 217.879 466.03 218.5C466.258 218.797 466.574 219.016 466.932 219.125C467.291 219.235 467.674 219.229 468.03 219.11C468.432 218.905 468.776 218.603 469.03 218.23C470.087 216.96 471.208 215.745 472.39 214.59C472.82 214.16 473.39 213.71 473.97 213.87C474.23 213.962 474.463 214.117 474.65 214.32C475.323 214.902 475.812 215.666 476.06 216.52C476.41 218.05 475.52 219.58 474.51 220.78C473.5 221.98 472.31 223.13 471.9 224.64C471.745 225.039 471.745 225.481 471.9 225.88C472.093 226.169 472.363 226.397 472.68 226.54C474.112 227.329 475.7 227.793 477.331 227.9C478.962 228.007 480.597 227.754 482.12 227.16C484.12 226.35 485.9 224.96 487.96 224.24C488.852 223.996 489.716 223.661 490.54 223.24C491.129 222.848 491.635 222.343 492.028 221.754C492.421 221.165 492.693 220.505 492.83 219.81C493.09 218.422 493.14 217.003 492.98 215.6C492.73 210.168 491.567 204.816 489.54 199.77C489.422 199.445 489.223 199.155 488.96 198.93C488.659 198.747 488.312 198.653 487.96 198.66C485.4 198.39 481.2 197.08 478.73 198.03C477.866 198.504 477.121 199.167 476.55 199.97C476.09 200.48 473.2 202.77 473.2 203.44Z" fill="#A1616A"/>
<path d="M472.39 201.18C472.39 198.74 469.39 192.85 474.16 192.46C474.16 189.85 470.47 188.23 471.16 185.46C471.38 184.54 472.16 183.79 472.25 182.85C472.55 180.18 467.73 178.73 468.53 176.17C468.83 175.17 469.89 174.59 470.12 173.6C470.66 171.29 466.53 170.26 466.45 167.89C466.45 167.09 466.9 166.34 466.86 165.54C466.86 164.54 465.99 163.78 465.51 162.91C464.26 160.68 464.87 157.23 462.59 156.08C464.1 156.21 464.59 153.97 463.97 152.6C463.35 151.23 462.08 150.04 462.07 148.52C462.145 147.969 462.145 147.411 462.07 146.86C461.65 145.4 459.26 145.28 458.86 143.86C458.809 143.315 458.792 142.767 458.81 142.22C458.65 141.09 457.49 140.37 456.4 140.05C455.268 139.858 454.178 139.469 453.18 138.9C452.48 138.37 451.67 137.49 450.92 137.9C450.64 138.07 450.5 138.39 450.29 138.63C449.39 139.68 447.67 139.22 446.54 138.45C443.2 136.18 441.54 132.11 440.83 128.14C440.12 124.17 440.14 120.07 439.25 116.14C438.979 114.915 438.618 113.712 438.17 112.54C437.79 111.54 436.57 109.97 436.49 108.96C436.31 106.66 441.07 108.23 442.88 108.46C444.638 108.632 446.375 108.966 448.07 109.46C449.88 110.144 451.652 110.921 453.38 111.79C460.6 114.98 469.32 115.37 475.12 120.73C477.03 122.49 478.64 124.8 481.12 125.6C482.258 125.818 483.38 126.109 484.48 126.47C487.23 127.76 487.66 131.41 489.16 134.05C489.632 134.747 490.043 135.483 490.39 136.25C490.679 137.154 490.815 138.101 490.79 139.05L491 145.98C491.34 157.59 491.68 169.23 490.44 180.77C490.04 184.58 489.44 188.5 490.57 192.16C490.87 193.16 491.29 194.1 491.57 195.11C491.818 196.294 491.945 197.5 491.95 198.71L492.11 203.2C492.166 203.549 492.087 203.906 491.89 204.2C491.723 204.336 491.528 204.432 491.318 204.483C491.109 204.533 490.891 204.535 490.68 204.49C484.43 203.93 478.11 200.41 472.21 202.54" fill="#464353"/>
<path d="M757.61 546.18C798.457 546.18 831.57 541.394 831.57 535.49C831.57 529.586 798.457 524.8 757.61 524.8C716.763 524.8 683.65 529.586 683.65 535.49C683.65 541.394 716.763 546.18 757.61 546.18Z" fill="#504F60"/>
<path d="M821.24 536.011C819.94 530.441 819.13 525.551 819.13 525.551C819.13 525.551 819.43 519.491 816.71 514.941V513.421V502.221C817.484 500.187 818.431 498.223 819.54 496.351C821.54 492.831 819.54 479.931 819.54 479.931C819.54 479.931 812.07 461.741 813.88 450.201C815.69 438.661 798.54 398.961 798.54 398.961C798.646 395.132 799.186 391.327 800.15 387.621C800.333 386.841 800.407 386.04 800.37 385.241C800.37 385.141 800.37 385.051 800.37 384.951C800.37 384.851 800.37 385.011 800.37 385.041C800.11 377.431 794.09 363.171 794.09 363.171L794.9 335.991C794.9 335.991 798.74 319.991 792.48 298.441C790.29 290.931 788.89 284.921 788 280.281C787.9 279.761 787.8 279.281 787.72 278.771C800.61 276.771 810.46 275.171 810.46 275.171C810.46 275.171 802.98 243.881 797.93 238.401C792.88 232.921 788.84 215.711 788.84 215.711C788.84 215.711 786.21 193.621 790.46 187.161C794.71 180.701 795.31 169.561 795.31 169.561C795.31 169.561 805 162.561 806.22 159.391C807.44 156.221 809.45 149.221 809.45 145.511C809.45 141.801 808.24 138.511 808.64 136.511C809.04 134.511 805.81 127.121 807.43 123.601C807.849 122.519 808.066 121.37 808.07 120.211C808.074 120.177 808.074 120.144 808.07 120.111C808.07 120.111 808.07 120.111 808.07 120.111C808.085 117.03 807.8 113.956 807.22 110.931C804.417 108.564 801.146 106.815 797.62 105.801L797.41 104.961L796.86 102.761C796.553 102.558 796.236 102.371 795.91 102.201V101.401L795.82 98.2205L797.34 91.0805C800.34 78.6605 783.75 76.8105 783.75 76.8105C782.744 74.9054 781.071 73.4384 779.05 72.6905C775.72 71.5205 778.5 91.3705 780.05 92.6905C781.22 93.6905 784.84 99.8705 786.59 102.931L786.87 103.431C786.596 103.677 786.342 103.944 786.11 104.231L786.74 108.541L786.84 109.201C785.741 110.566 784.848 112.085 784.19 113.711C784.19 113.711 787.19 117.031 786.62 120.711C786.05 124.391 787.55 129.061 787.62 129.311C787.44 129.101 785.31 126.801 783.18 127.361C781.05 127.921 775.1 129.711 775.1 129.711C775.1 129.711 770.66 130.491 771.1 131.471C771.54 132.451 768.1 136.751 768.1 136.751L756.16 125.431C756.04 125.091 755.91 124.751 755.81 124.431C755.323 122.798 754.988 121.125 754.81 119.431C756.111 119.121 757.388 118.717 758.63 118.221C759.885 117.79 761.017 117.063 761.93 116.101C763.14 114.671 763.37 112.731 763.86 110.951C764.8 107.471 766.86 104.381 768.29 101.071C770.712 95.4774 771.492 89.3106 770.54 83.2905C770.357 81.4353 769.729 79.6516 768.71 78.0905C766.76 75.4105 763.22 74.3205 760.65 72.1805C758.08 70.0405 756.42 66.7705 753.42 65.1805C750.71 63.7305 747.42 63.9005 744.36 64.4005C738.384 65.386 732.642 67.4749 727.43 70.5605C725.69 71.5605 723.77 72.7905 721.77 72.4205C720.05 72.1105 718.77 70.7405 717.69 69.4205C717.702 69.3659 717.719 69.3124 717.74 69.2605C717.691 69.2118 717.648 69.1582 717.61 69.1005C716.345 71.9089 715.71 74.9605 715.75 78.0405C715.75 78.5205 715.75 79.0405 715.81 79.4705V79.9705C715.81 80.1105 715.81 80.2505 715.81 80.3805C715.81 80.5937 715.779 80.8058 715.72 81.0105C715.468 81.6222 715.086 82.1717 714.6 82.6205C714.233 83.0375 713.899 83.4821 713.6 83.9505C713.6 83.7905 713.7 83.6305 713.76 83.4605C712.997 84.574 712.567 85.8816 712.52 87.2305C712.464 88.2125 712.786 89.1785 713.42 89.9305C714.018 90.5119 714.672 91.0343 715.37 91.4905C715.132 92.8106 715.012 94.1492 715.01 95.4905C715.033 99.467 716.081 103.37 718.053 106.823C720.026 110.276 722.856 113.162 726.27 115.201C726.41 115.531 726.54 115.871 726.67 116.201C728.2 120.201 729.35 124.901 728.84 129.201C728.84 129.511 728.75 129.831 728.7 130.141C728.65 130.451 728.4 130.471 728.27 130.641C728.27 130.641 708.54 130.841 703.9 126.641C699.26 122.441 692.18 136.911 692.18 136.911C692.18 136.911 685.11 138.281 683.69 136.911C682.27 135.541 674 136.721 674 136.721C670.612 133.707 666.203 132.098 661.67 132.221C658.924 130.133 655.893 128.45 652.67 127.221V127.221L652.45 127.141C651.028 126.622 649.507 126.431 648 126.581C648 126.581 638.3 118.581 635.47 114.261C632.64 109.941 619.17 93.9905 619.11 93.9205V93.1505L618.96 90.8305C618.56 90.8933 618.155 90.9268 617.75 90.9305C617.68 90.7005 617.58 90.4305 617.48 90.1205C616.704 87.8576 615.748 85.6605 614.62 83.5505C614.62 83.5505 614.62 80.6205 615.47 79.8805C616.32 79.1405 615.12 68.3905 615.12 68.3905C615.12 68.3905 606.38 47.9605 598.55 63.2105C598.55 63.2105 583.75 73.0805 596.17 84.5805C596.17 84.5805 601.17 86.9805 601.83 88.8805C602.29 90.1105 603.97 93.5605 605.1 95.8805L605.61 96.8805L605.47 97.0005L605.65 98.9205L605.73 99.6605C603.39 100.991 601.8 102.311 602.19 103.301C602.879 104.995 603.353 106.769 603.6 108.581C603.6 108.581 620.78 130.101 623 139.291C623 139.291 669.07 166.671 684.22 168.621L681.54 182.271C681.15 185.974 680.949 189.696 680.94 193.421C681.14 196.351 679.12 209.651 679.12 209.651C679.12 209.651 676.49 229.211 674.27 231.951C672.05 234.691 672.45 246.421 672.45 246.421C671.926 252.036 670.922 257.596 669.45 263.041C667.23 270.471 668.84 279.671 668.84 279.671C668.84 279.671 661.17 297.271 679.55 285.341C679.55 285.341 688.55 284.781 698.97 284.421C698.97 284.761 698.97 285.111 698.97 285.421C698.97 286.761 698.97 288.211 698.9 289.731C698.76 299.811 698.7 313.731 699.16 324.211C699.97 342.791 705.63 379.561 705.63 379.561V398.071C705.265 399.807 705.084 401.576 705.09 403.351C704.97 409.863 706.704 416.276 710.09 421.841L711.51 434.161C711.51 434.161 714.83 442.281 714.89 447.161C714.877 447.554 714.83 447.945 714.75 448.331C714.621 448.952 714.567 449.586 714.59 450.221C714.4 455.821 717.77 469.221 717.77 469.221C717.77 469.221 717.97 482.711 719.99 483.501C721.72 484.171 717.68 491.271 716.48 493.311C716.448 493.186 716.425 493.059 716.41 492.931L716.16 493.331C715.743 494.423 715.53 495.582 715.53 496.751C715.416 497.672 715.566 498.606 715.963 499.445C716.359 500.284 716.986 500.994 717.77 501.491C721.61 503.841 723.67 505.791 720.41 506.571C719.211 506.757 718.022 507.007 716.85 507.321C716.85 507.171 716.73 507.011 716.68 506.871C716.22 507.05 715.836 507.383 715.594 507.813C715.352 508.243 715.265 508.744 715.35 509.231C715.381 510.817 715.789 512.373 716.54 513.771C719.77 521.011 722.01 523.771 722.01 523.771L723.56 523.601C723.331 524.193 723.029 524.754 722.66 525.271C722.07 526.109 721.288 526.795 720.38 527.271C719.533 527.777 718.59 528.101 717.61 528.221C716.515 528.256 715.439 528.522 714.454 529.001C713.468 529.48 712.595 530.161 711.89 531.001C709.89 533.611 708.61 537.161 712.59 540.281L727.04 545.281C727.04 545.281 751.9 548.511 750.58 542.931C749.26 537.351 748.46 532.471 748.46 532.471C748.567 529.064 747.882 525.678 746.46 522.581C746.199 522.075 745.905 521.587 745.58 521.121L746.46 521.031C746.46 521.031 748.28 508.701 750.7 506.361C751.26 505.821 751.39 505.361 751.26 505.081C751.51 504.411 750.87 504.021 750.06 503.791L749.88 504.281C749.088 504.108 748.281 504.017 747.47 504.011C747.47 504.011 746.66 497.561 749.29 495.211C749.502 494.943 749.657 494.634 749.745 494.304C749.833 493.973 749.851 493.628 749.8 493.291C749.82 492.406 749.726 491.522 749.52 490.661C749.494 490.716 749.464 490.769 749.43 490.821C748.11 484.961 743.63 475.651 743.63 475.651C743.63 475.651 743.43 469.791 745.05 467.441C746.67 465.091 744.84 435.561 744.84 435.561C744.84 435.561 745.45 421.291 743.63 414.641C741.81 407.991 745.85 400.161 745.85 400.161C745.85 400.161 745.85 400.011 745.85 399.741V399.641L745.62 397.391C745.614 397.437 745.614 397.484 745.62 397.531C745.21 393.751 744.44 386.901 743.87 383.741C743.06 379.241 744.08 357.741 744.08 357.741L747.71 348.541L754.18 364.391L761.05 385.511C761.05 385.511 764.45 389.971 764.53 394.511C764.53 394.731 764.53 394.951 764.53 395.171C764.475 395.638 764.448 396.109 764.45 396.581C764.328 399.249 765.06 401.887 766.54 404.111C766.54 404.111 768.36 414.111 771.19 416.621C774.02 419.131 774.02 424.051 774.02 424.051C774.02 424.051 777.45 438.531 779.02 441.051C780.38 443.191 780.45 449.051 780.44 450.881C780.44 451.211 780.44 451.401 780.44 451.401C780.44 451.401 780.92 456.581 780.9 460.921C780.9 461.461 780.9 461.981 780.9 462.471C780.905 462.434 780.905 462.397 780.9 462.361C780.899 463.546 780.758 464.728 780.48 465.881L780.42 466.081C780.42 465.831 780.42 465.591 780.49 465.351C779.787 468.298 779.451 471.321 779.49 474.351C779.4 479.551 780.19 485.711 783.34 489.351C788.8 495.611 792.23 494.831 792.23 494.831C792.23 494.831 789.61 502.651 786.37 504.221C786.247 504.278 786.133 504.352 786.03 504.441C786.03 504.281 785.97 504.131 785.95 503.981C785.589 504.371 785.313 504.832 785.141 505.335C784.969 505.838 784.904 506.371 784.95 506.901C784.72 510.341 786.89 515.901 788.95 518.491C789.715 519.24 790.653 519.789 791.68 520.091C791.517 520.205 791.347 520.309 791.17 520.401C790.81 520.598 790.44 520.775 790.06 520.931C789.534 521.154 788.978 521.299 788.41 521.361C787.314 521.39 786.236 521.653 785.25 522.132C784.263 522.612 783.391 523.296 782.69 524.141C780.69 526.741 779.41 530.291 783.39 533.411L797.84 538.411C797.84 538.411 822.54 541.581 821.24 536.011Z" fill="url(#paint0_linear)"/>
<path d="M726.33 545.25L712.33 540.25C708.47 537.13 709.7 533.58 711.65 530.97C712.321 530.138 713.163 529.459 714.119 528.979C715.074 528.5 716.122 528.231 717.19 528.19C718.138 528.069 719.049 527.745 719.86 527.24C720.748 526.758 721.508 526.073 722.08 525.24C723.102 523.619 723.652 521.746 723.67 519.83C723.67 519.83 739.03 515.33 743.23 519.83C743.98 520.645 744.606 521.564 745.09 522.56C746.486 525.667 747.169 529.046 747.09 532.45C747.09 532.45 747.87 537.33 749.14 542.91C750.41 548.49 726.33 545.25 726.33 545.25Z" fill="#2D293D"/>
<path d="M794.77 538.35L780.77 533.35C776.91 530.23 778.14 526.68 780.09 524.08C780.756 523.245 781.595 522.563 782.55 522.083C783.504 521.603 784.552 521.336 785.62 521.3C786.173 521.243 786.713 521.098 787.22 520.87C787.589 520.714 787.95 520.537 788.3 520.34C792.21 518.19 792.11 512.91 792.11 512.91C792.11 512.91 807.46 508.41 811.67 512.91C812.233 513.52 812.726 514.191 813.14 514.91C815.77 519.46 815.48 525.53 815.48 525.53C815.48 525.53 816.26 530.42 817.48 535.99C818.7 541.56 794.77 538.35 794.77 538.35Z" fill="#2D293D"/>
<path opacity="0.1" d="M743.24 519.82C743.989 520.635 744.616 521.554 745.1 522.55L722.1 525.22C723.121 523.599 723.672 521.726 723.69 519.81C723.69 519.81 739.04 515.32 743.24 519.82Z" fill="black"/>
<path opacity="0.1" d="M813.16 514.93V519.24C809.58 525.13 792.27 523.84 787.24 520.89C787.61 520.734 787.971 520.557 788.32 520.36C792.23 518.21 792.13 512.93 792.13 512.93C792.13 512.93 807.48 508.43 811.69 512.93C812.254 513.539 812.747 514.21 813.16 514.93V514.93Z" fill="black"/>
<path d="M815.89 496.351C814.82 498.229 813.907 500.192 813.16 502.221V517.671C809.24 524.121 788.91 521.971 786.16 518.451C783.41 514.931 780.54 505.771 783.63 504.181C786.72 502.591 789.3 494.791 789.3 494.791C789.3 494.791 785.97 495.571 780.69 489.311C775.41 483.051 776.98 469.171 777.96 465.851C778.94 462.531 777.96 451.381 777.96 451.381C777.96 451.381 778.16 443.551 776.6 441.011C775.04 438.471 771.71 424.011 771.71 424.011C771.71 424.011 771.71 419.121 768.97 416.581C766.23 414.041 764.47 404.061 764.47 404.061C762.868 401.567 762.179 398.595 762.52 395.651C763.1 390.761 759.19 385.481 759.19 385.481L752.54 364.351L746.28 348.511L742.76 357.701C742.76 357.701 741.76 379.211 742.57 383.701C743.38 388.191 744.57 400.131 744.57 400.131C744.57 400.131 740.66 407.951 742.42 414.601C744.18 421.251 743.54 435.541 743.54 435.541C743.54 435.541 745.3 465.061 743.73 467.411C742.16 469.761 742.36 475.631 742.36 475.631C742.36 475.631 750.36 492.831 747.84 495.181C745.32 497.531 746.08 503.981 746.08 503.981C746.08 503.981 751.55 503.981 749.21 506.331C746.87 508.681 745.1 521.001 745.1 521.001L721.45 523.771C721.45 523.771 719.29 521.041 716.16 513.771C713.03 506.501 716.74 507.321 719.89 506.531C723.04 505.741 721.05 503.801 717.33 501.451C713.61 499.101 715.77 493.821 715.77 493.821C715.77 493.821 721.44 484.241 719.48 483.461C717.52 482.681 717.33 469.181 717.33 469.181C717.33 469.181 713.42 453.181 714.4 448.841C715.38 444.501 711.27 434.181 711.27 434.181L709.9 421.861C705.716 414.87 704.189 406.605 705.6 398.581V379.581C705.6 379.581 700.12 342.821 699.34 324.241C698.84 312.341 698.98 296.101 699.14 285.971C699.24 280.291 699.34 276.521 699.34 276.521L783.82 267.721C783.82 267.721 783.74 271.621 785.35 280.271C786.22 284.911 787.57 290.921 789.69 298.431C795.75 319.941 792.04 335.971 792.04 335.971L791.25 363.161C791.25 363.161 798.68 381.341 797.12 387.601C796.177 391.318 795.647 395.127 795.54 398.961C795.54 398.961 812.16 438.661 810.4 450.201C808.64 461.741 815.87 479.931 815.87 479.931C815.87 479.931 817.85 492.831 815.89 496.351Z" fill="#464353"/>
<path opacity="0.05" d="M767.59 394.47L793.31 391.04C793.31 391.04 778.74 405.91 767.59 394.47Z" fill="black"/>
<path opacity="0.1" d="M789.59 365.91C789.59 365.91 790.47 375.01 784.9 378.43C784.9 378.43 794.87 376.87 789.59 365.91Z" fill="black"/>
<path opacity="0.1" d="M788.01 336.97C788.01 336.97 766.51 354.67 758.69 353.2C750.87 351.73 788.01 336.97 788.01 336.97Z" fill="black"/>
<path opacity="0.1" d="M735.71 402.77C735.71 402.77 719.38 406.48 718.89 413.04C718.4 419.6 735.71 402.77 735.71 402.77Z" fill="black"/>
<path opacity="0.05" d="M739.3 484.33C739.3 484.33 716.23 488.63 722.78 491.56C729.33 494.49 740.09 496.84 740.09 496.84C740.09 496.84 747.54 497.23 739.3 484.33Z" fill="black"/>
<g opacity="0.05">
<path opacity="0.05" d="M718.12 496.22C717.54 495.858 717.049 495.369 716.684 494.791C716.319 494.213 716.088 493.559 716.01 492.88L715.77 493.29C715.77 493.29 713.62 498.57 717.34 500.91C717.76 501.18 718.17 501.45 718.54 501.71C719.23 501.58 719.97 501.48 720.68 501.3C723.83 500.52 721.84 498.57 718.12 496.22Z" fill="black"/>
<path opacity="0.05" d="M747.84 494.65C748.48 494.07 748.46 492.57 748.07 490.65C747.07 492.16 746.78 494.52 746.76 496.31C747.003 495.689 747.37 495.124 747.84 494.65V494.65Z" fill="black"/>
<path opacity="0.05" d="M744.289 397.36C743.44 399.673 742.915 402.093 742.729 404.55C743.175 402.853 743.775 401.199 744.519 399.61L744.289 397.36Z" fill="black"/>
<path opacity="0.05" d="M797.13 387.1C797.284 386.397 797.354 385.679 797.34 384.96C797.05 386.42 796.85 387.77 796.7 388.96C796.83 388.35 796.97 387.77 797.13 387.1Z" fill="black"/>
<path opacity="0.05" d="M743.739 466.89C744.059 466.41 744.239 464.79 744.319 462.54C743.596 464.281 743.212 466.145 743.189 468.03C743.326 467.629 743.511 467.246 743.739 466.89V466.89Z" fill="black"/>
<path opacity="0.05" d="M748.54 503.771C747.327 507.693 746.428 511.706 745.85 515.771L722.2 518.5C722.2 518.5 720.04 515.77 716.91 508.5C716.657 507.939 716.434 507.365 716.24 506.781C714.82 507.431 714.24 508.9 716.12 513.19C719.25 520.43 721.42 523.19 721.42 523.19L745.07 520.451C745.07 520.451 746.83 508.131 749.17 505.781C750.37 504.651 749.63 504.061 748.54 503.771Z" fill="black"/>
<path opacity="0.05" d="M717.34 468.65C717.34 468.65 717.53 482.14 719.49 482.92C720.49 480.69 721.14 478.57 720.26 478.22C718.26 477.44 718.11 463.94 718.11 463.94C718.11 463.94 714.2 447.94 715.18 443.6C716.16 439.26 712.05 428.94 712.05 428.94L710.68 416.62C706.496 409.629 704.969 401.365 706.38 393.34V374.34C706.38 374.34 700.9 337.58 700.12 319C699.62 307.1 699.76 290.86 699.92 280.73C699.92 278.9 699.98 277.28 700.01 275.91L699.34 275.98C699.34 275.98 699.23 279.74 699.14 285.43C698.98 295.56 698.83 311.8 699.34 323.69C700.12 342.27 705.59 379.04 705.59 379.04V398.04C704.186 406.063 705.716 414.322 709.9 421.31L711.26 433.63C711.26 433.63 715.37 443.99 714.39 448.3C713.41 452.61 717.34 468.65 717.34 468.65Z" fill="black"/>
<path opacity="0.05" d="M786.96 513.23C785.039 510.449 783.758 507.276 783.21 503.94C780.8 506.12 783.57 514.58 786.21 517.94C788.94 521.46 809.28 523.61 813.21 517.15V513.43C807.88 518.66 789.54 516.56 786.96 513.23Z" fill="black"/>
<path opacity="0.05" d="M816.679 491.13C815.607 493.008 814.691 494.972 813.939 497V499.77C814.389 498.77 815.019 497.43 815.939 495.85C816.558 494.31 816.851 492.659 816.799 491C816.799 491 816.709 491.09 816.679 491.13Z" fill="black"/>
<path opacity="0.05" d="M788.16 494.22C788.903 492.714 789.548 491.161 790.09 489.57C790.09 489.57 786.76 490.35 781.48 484.09C777.64 479.54 777.42 470.94 777.97 465.32C776.97 468.65 775.42 482.53 780.7 488.79C784.15 492.88 786.76 493.96 788.16 494.22Z" fill="black"/>
<path opacity="0.05" d="M777.96 450.85C778.305 454.703 778.435 458.573 778.35 462.44C778.448 461.83 778.581 461.225 778.75 460.63C779.75 457.3 778.75 446.16 778.75 446.16C778.75 446.16 778.95 438.33 777.38 435.79C775.81 433.25 772.54 418.77 772.54 418.77C772.54 418.77 772.54 413.88 769.8 411.34C767.06 408.8 765.3 398.82 765.3 398.82C763.684 396.331 762.977 393.36 763.3 390.41C763.89 385.52 759.98 380.24 759.98 380.24L753.33 359.12L747.07 343.28L743.54 352.48C743.54 352.48 743.54 353.64 743.42 355.48L746.28 348.01L752.54 363.82L759.19 384.94C759.19 384.94 763.1 390.22 762.51 395.11C762.187 398.06 762.894 401.031 764.51 403.52C764.51 403.52 766.27 413.52 769.01 416.04C771.75 418.56 771.74 423.47 771.74 423.47C771.74 423.47 775.07 437.94 776.63 440.47C778.19 443 777.96 450.85 777.96 450.85Z" fill="black"/>
</g>
<path d="M794.38 91.0494L792.91 98.1894L793 101.369L793.06 103.709L784.9 104.549L783.99 102.859C782.3 99.7994 778.79 93.5795 777.66 92.6195C776.15 91.3595 773.46 71.4995 776.66 72.6795C778.63 73.4403 780.248 74.9047 781.2 76.7895C781.2 76.7895 797.27 78.6294 794.38 91.0494Z" fill="#FFCDD3"/>
<path opacity="0.1" d="M793.06 103.71L784.9 104.55L783.99 102.86C785.088 101.611 786.584 100.78 788.226 100.51C789.867 100.24 791.55 100.548 792.99 101.38L793.06 103.71Z" fill="black"/>
<path d="M795.12 107.581L784.36 110.071L784.13 108.471L783.52 104.161C783.52 104.161 787.78 98.4805 793.94 102.741L794.48 104.931L795.12 107.581Z" fill="#6C63FF"/>
<path d="M620.82 91.8298L609.33 97.9898L608.33 95.8298C607.24 93.5398 605.61 90.0898 605.16 88.8298C604.48 86.9298 599.69 84.5297 599.69 84.5297C587.69 73.0397 601.99 63.1598 601.99 63.1598C609.57 47.9098 617.99 68.3398 617.99 68.3398C617.99 68.3398 619.17 79.1098 618.34 79.8298C617.51 80.5498 617.51 83.4997 617.51 83.4997C618.605 85.6133 619.531 87.8101 620.28 90.0698C620.63 91.1598 620.82 91.8298 620.82 91.8298Z" fill="#FFCDD3"/>
<path opacity="0.1" d="M620.82 91.8293L609.33 97.9893L608.33 95.8293C609.95 94.4693 615.7 89.8293 617.59 90.0193C618.492 90.132 619.403 90.1554 620.31 90.0893C620.63 91.1593 620.82 91.8293 620.82 91.8293Z" fill="black"/>
<path d="M621.99 95.2999L609.08 101.66L608.82 98.8899L608.64 96.9699C608.64 96.9699 616.12 90.5599 618.33 90.8099C619.447 90.9718 620.582 90.9718 621.7 90.8099L621.85 93.1299L621.99 95.2999Z" fill="#6C63FF"/>
<path d="M763.09 138.48C763.09 138.48 706.81 144.83 717.33 141.41C724.65 139.02 727.56 134.41 728.17 129.21C728.67 124.88 727.55 120.21 726.08 116.21C724.757 112.662 723.082 109.255 721.08 106.04C721.08 106.04 764.08 82.3802 755.49 103.89C754.165 107.144 753.342 110.58 753.05 114.08C752.792 117.559 753.168 121.056 754.16 124.4C755.782 129.827 758.873 134.699 763.09 138.48V138.48Z" fill="#FFCDD3"/>
<path opacity="0.1" d="M755.46 103.86C754.135 107.113 753.313 110.549 753.02 114.05C748.97 117.46 744.53 117.23 738.82 117.23C734.44 117.23 729.58 118.29 726.08 116.18C724.757 112.631 723.082 109.224 721.08 106.01C721.08 106.01 764.07 82.3499 755.46 103.86Z" fill="black"/>
<path d="M738.06 118.729C750.912 118.729 761.33 108.311 761.33 95.4594C761.33 82.6078 750.912 72.1895 738.06 72.1895C725.208 72.1895 714.79 82.6078 714.79 95.4594C714.79 108.311 725.208 118.729 738.06 118.729Z" fill="#FFCDD3"/>
<path opacity="0.1" d="M763.09 138.48C763.09 138.48 706.81 144.83 717.33 141.41C724.65 139.02 727.56 134.41 728.17 129.21C730.97 126.21 736.6 123.98 740.17 122.82C743.471 121.71 747.034 121.65 750.37 122.65C751.682 123.045 752.931 123.624 754.08 124.37C755.719 129.816 758.839 134.701 763.09 138.48V138.48Z" fill="black"/>
<path opacity="0.1" d="M795.12 107.58L784.36 110.07L784.13 108.47C785.282 106.887 786.894 105.698 788.746 105.065C790.598 104.432 792.6 104.384 794.48 104.93L795.12 107.58Z" fill="black"/>
<path opacity="0.1" d="M621.99 95.3001L609.08 101.66L608.82 98.8901C613.002 96.6418 617.348 94.713 621.82 93.1201L621.99 95.3001Z" fill="black"/>
<path opacity="0.1" d="M785.35 280.29C763.54 283.77 732.54 288.21 727.62 286.71C723.53 285.47 710.49 285.6 699.14 285.99C699.24 280.31 699.34 276.54 699.34 276.54L783.82 267.74C783.82 267.74 783.74 271.64 785.35 280.29Z" fill="black"/>
<path d="M807.09 275.171C807.09 275.171 735.32 287.491 727.62 285.171C719.92 282.851 680.37 285.361 680.37 285.361C662.57 297.291 670 279.691 670 279.691C670 279.691 668.44 270.501 670.59 263.071C672.034 257.616 673.021 252.05 673.54 246.431C673.54 246.431 673.15 234.691 675.3 231.951C677.45 229.211 680 209.661 680 209.661C680 209.661 681.95 196.361 681.76 193.431C681.57 190.501 682.34 182.281 682.34 182.281L684.89 168.591C670.22 166.641 625.63 139.261 625.63 139.261C623.48 130.071 606.86 108.561 606.86 108.561C606.618 106.752 606.158 104.979 605.49 103.281C604.32 100.151 621.92 93.8906 621.92 93.8906C621.92 93.8906 635.02 109.891 637.76 114.231C640.5 118.571 649.88 126.551 649.88 126.551C651.338 126.401 652.81 126.592 654.18 127.111L654.41 127.181C657.554 128.415 660.501 130.099 663.16 132.181C667.57 132.076 671.848 133.69 675.09 136.681C675.09 136.681 683.09 135.501 684.48 136.871C685.87 138.241 692.69 136.871 692.69 136.871C692.69 136.871 699.53 122.401 704.03 126.601C708.53 130.801 727.62 130.601 727.62 130.601C730.16 127.221 736.35 124.801 740.22 123.601C743.522 122.495 747.084 122.436 750.42 123.431C751.86 123.86 753.213 124.537 754.42 125.431L766.03 136.771C766.03 136.771 769.35 132.461 768.96 131.491C768.57 130.521 772.87 129.731 772.87 129.731C772.87 129.731 778.54 127.971 780.69 127.381C782.84 126.791 784.81 129.121 784.99 129.331C784.92 129.081 783.45 124.331 783.99 120.731C784.53 117.131 781.64 113.731 781.64 113.731C788.48 96.9106 803.93 110.991 803.93 110.991C803.93 110.991 805.69 120.181 804.13 123.701C802.57 127.221 805.69 134.651 805.3 136.611C804.91 138.571 806.09 141.891 806.09 145.611C806.09 149.331 804.09 156.361 802.96 159.491C801.83 162.621 792.4 169.661 792.4 169.661C792.4 169.661 791.81 180.811 787.7 187.261C783.59 193.711 786.17 215.771 786.17 215.771C786.17 215.771 790.08 232.981 794.97 238.461C799.86 243.941 807.09 275.171 807.09 275.171Z" fill="#3F3D56"/>
<path opacity="0.1" d="M702.47 146.49C702.47 146.49 700.32 140.04 698.36 139.49C696.414 138.774 694.52 137.926 692.69 136.95L693.95 134.54C693.95 134.54 701.29 136.54 702.47 138.71C703.65 140.88 702.47 146.49 702.47 146.49Z" fill="black"/>
<path opacity="0.1" d="M663.16 132.219C662.77 134.219 645.36 135.929 645.36 135.929L654.16 127.109L654.38 127.189C657.536 128.43 660.494 130.125 663.16 132.219V132.219Z" fill="black"/>
<path d="M612.8 106.94C613.662 106.94 614.36 106.242 614.36 105.38C614.36 104.519 613.662 103.82 612.8 103.82C611.939 103.82 611.24 104.519 611.24 105.38C611.24 106.242 611.939 106.94 612.8 106.94Z" fill="#575988"/>
<path d="M614.8 110.07C615.662 110.07 616.36 109.372 616.36 108.51C616.36 107.649 615.662 106.95 614.8 106.95C613.939 106.95 613.24 107.649 613.24 108.51C613.24 109.372 613.939 110.07 614.8 110.07Z" fill="#575988"/>
<path d="M616.76 112.96C617.622 112.96 618.32 112.261 618.32 111.4C618.32 110.538 617.622 109.84 616.76 109.84C615.899 109.84 615.2 110.538 615.2 111.4C615.2 112.261 615.899 112.96 616.76 112.96Z" fill="#575988"/>
<path d="M618.81 116.08C619.672 116.08 620.37 115.382 620.37 114.52C620.37 113.658 619.672 112.96 618.81 112.96C617.948 112.96 617.25 113.658 617.25 114.52C617.25 115.382 617.948 116.08 618.81 116.08Z" fill="#575988"/>
<path d="M803.15 115.62C803.851 115.62 804.42 115.051 804.42 114.35C804.42 113.649 803.851 113.08 803.15 113.08C802.449 113.08 801.88 113.649 801.88 114.35C801.88 115.051 802.449 115.62 803.15 115.62Z" fill="#575988"/>
<path d="M803.35 118.511C804.051 118.511 804.62 117.942 804.62 117.241C804.62 116.539 804.051 115.971 803.35 115.971C802.649 115.971 802.08 116.539 802.08 117.241C802.08 117.942 802.649 118.511 803.35 118.511Z" fill="#575988"/>
<path d="M803.52 121.39C804.221 121.39 804.79 120.821 804.79 120.12C804.79 119.418 804.221 118.85 803.52 118.85C802.819 118.85 802.25 119.418 802.25 120.12C802.25 120.821 802.819 121.39 803.52 121.39Z" fill="#575988"/>
<path opacity="0.1" d="M702.54 199.49C702.35 199.26 746.44 254.93 780.66 222.76C780.69 222.77 726.62 230.1 702.54 199.49Z" fill="black"/>
<path opacity="0.1" d="M677.24 228.43C677.24 228.43 703.62 229.15 706.38 236.74V244.64C705.629 245.056 704.784 245.275 703.925 245.275C703.066 245.275 702.221 245.056 701.47 244.64C698.81 243.2 682.86 235.1 677.24 239V228.43Z" fill="black"/>
<path d="M677.73 228.43C677.73 228.43 702.96 229.12 705.6 236.36V243.88C704.882 244.279 704.073 244.488 703.25 244.488C702.428 244.488 701.619 244.279 700.9 243.88C698.36 242.52 683.11 234.79 677.73 238.51V228.43Z" fill="#3F3D56"/>
<path opacity="0.1" d="M691.64 171.15C694.335 177.389 697.769 183.281 701.87 188.7C706.329 194.691 711.733 199.915 717.87 204.17C717.87 204.17 692.08 174.77 691.64 171.15Z" fill="black"/>
<path opacity="0.1" d="M683.01 140.5C683.01 140.5 687.41 159.5 698.75 165.95L683.01 140.5Z" fill="black"/>
<path opacity="0.1" d="M676.26 142.42C676.15 142.07 672.35 157.42 690.88 165.95C690.88 165.95 683.01 163.28 676.26 142.42Z" fill="black"/>
<path opacity="0.1" d="M791.45 129.681C791.16 129.681 800.59 135.681 803.16 138.481C803.16 138.481 797.02 129.281 791.45 129.681Z" fill="black"/>
<path d="M731.77 116.55C731.773 117.058 731.882 117.559 732.089 118.023C732.296 118.486 732.598 118.902 732.974 119.243C733.349 119.584 733.792 119.843 734.273 120.005C734.755 120.166 735.264 120.226 735.77 120.18C742.86 120.62 750.25 120.93 756.77 118.18C757.993 117.744 759.091 117.016 759.97 116.06C761.13 114.63 761.36 112.69 761.83 110.91C762.75 107.43 764.71 104.34 766.12 101.03C768.505 95.438 769.305 89.2967 768.43 83.2802C768.245 81.436 767.636 79.6595 766.65 78.0902C764.77 75.4002 761.34 74.3102 758.85 72.1702C756.36 70.0302 754.76 66.7602 751.85 65.1702C749.23 63.7102 746.02 63.8902 743.07 64.3902C737.267 65.3755 731.707 67.4632 726.69 70.5402C725 71.5402 723.15 72.7702 721.21 72.4002C719.51 72.0802 718.27 70.6502 717.21 69.3102C715.846 72.5104 715.273 75.9919 715.54 79.4602C715.614 79.9692 715.597 80.4872 715.49 80.9902C715.245 81.5984 714.874 82.1473 714.4 82.6002C712.65 84.6002 711.56 87.8502 713.29 89.9102C714.04 90.8002 715.2 91.2902 715.93 92.2002C717.24 93.8302 716.8 96.2002 716.77 98.2802C716.698 99.0065 716.882 99.7352 717.29 100.34C717.668 100.693 718.131 100.942 718.634 101.063C719.137 101.184 719.663 101.172 720.16 101.03C721.151 100.732 722.191 100.633 723.22 100.74C724.304 101.093 725.24 101.796 725.88 102.74C729.11 106.95 730.39 111.53 731.77 116.55Z" fill="#2D293D"/>
<g opacity="0.1">
<path opacity="0.1" d="M760.8 114.29C759.921 115.246 758.822 115.973 757.6 116.41C751.04 119.14 743.66 118.83 736.6 118.41C735.842 118.417 735.092 118.25 734.41 117.92C733.33 117.29 732.92 115.97 732.59 114.77C731.21 109.77 729.94 105.18 726.66 101.01C726.027 100.048 725.091 99.326 724 98.9597C722.97 98.8627 721.932 98.961 720.94 99.2497C720.443 99.3932 719.918 99.4059 719.415 99.2868C718.912 99.1677 718.449 98.9207 718.07 98.5697C717.661 97.9647 717.477 97.236 717.55 96.5097C717.55 94.4097 718.02 92.0597 716.71 90.4297C715.98 89.5197 714.82 89.0297 714.07 88.1297C713.58 87.4662 713.28 86.6825 713.201 85.8619C713.122 85.0413 713.266 84.2146 713.62 83.4697C712.37 85.4697 711.84 87.9797 713.29 89.6997C714.04 90.5897 715.2 91.0797 715.93 91.9897C717.24 93.6297 716.8 95.9897 716.77 98.0697C716.693 98.795 716.873 99.5241 717.28 100.13C717.659 100.484 718.124 100.734 718.628 100.855C719.133 100.976 719.661 100.964 720.16 100.82C721.15 100.521 722.19 100.423 723.22 100.53C724.304 100.882 725.24 101.586 725.88 102.53C729.15 106.7 730.43 111.28 731.81 116.3C731.971 117.535 732.588 118.665 733.54 119.47C734.225 119.8 734.979 119.965 735.74 119.95C742.83 120.39 750.22 120.71 756.74 117.95C757.964 117.516 759.063 116.788 759.94 115.83C760.38 115.266 760.719 114.63 760.94 113.95C760.95 114.08 760.88 114.19 760.8 114.29Z" fill="black"/>
<path opacity="0.1" d="M715.539 80.3796C715.853 80.0385 716.095 79.637 716.249 79.1996C716.339 78.6936 716.339 78.1756 716.249 77.6696C716.054 74.8185 716.425 71.9571 717.339 69.2496L717.209 69.0996C715.841 72.2949 715.268 75.7743 715.539 79.2396C715.569 79.619 715.569 80.0002 715.539 80.3796V80.3796Z" fill="black"/>
</g>
<path opacity="0.1" d="M727.62 130.651C727.62 130.651 756.69 134.511 759.3 130.141Z" fill="black"/>
<path opacity="0.1" d="M784.13 118.62C784.13 118.62 800.29 118.62 803.84 124.7Z" fill="black"/>
<path d="M874.54 658.77C869.747 663.055 863.518 665.383 857.09 665.29C855.45 665.29 853.18 665.6 853.17 667.24C853.21 667.721 853.375 668.184 853.65 668.58C855.679 671.963 858.883 674.48 862.65 675.65C866.15 676.71 869.89 676.53 873.54 676.34L884.19 675.79C886.19 675.68 888.19 675.58 890.19 675.33C892.19 675.08 894.37 674.67 896.46 674.33C901.595 673.6 906.789 673.359 911.97 673.61C913.35 673.66 914.97 673.61 915.79 672.61C916.61 671.61 916.19 669.7 915.88 668.2C915.24 665.11 915.88 661.87 915.29 658.77C914.29 653.33 909.58 649.16 904.42 647.19C899.62 645.37 891.12 643.28 886.58 646.32C881.79 649.51 878.86 654.84 874.54 658.77Z" fill="#3F3D56"/>
<path d="M885.12 476.51C886.06 480.98 890.39 484.4 890.51 488.96C890.62 492.62 888.01 495.69 886.13 498.82C884.359 502.062 882.863 505.447 881.66 508.94C878.12 518.035 873.727 526.774 868.54 535.04C866.04 539.04 863.24 543.31 863.81 547.96C864.208 550.135 864.976 552.225 866.08 554.14L873.58 569.04C875.223 572.015 876.508 575.174 877.41 578.45C878.06 581.28 878.12 584.21 878.5 587.09C879.68 596.23 883.97 605.43 881.43 614.29C881.21 615.05 880.43 615.97 879.82 615.44C882.3 620.07 884.29 624.73 884.1 629.98C884 632.73 883.16 635.6 884.17 638.16C884.6 639.23 885.35 640.23 885.34 641.38C885.34 642.14 884.99 642.85 884.91 643.59C884.7 645.7 886.64 647.46 888.65 648.13C890.66 648.8 892.85 648.75 894.88 649.36C898.78 650.53 901.57 653.89 904.88 656.22C908.276 658.559 912.278 659.862 916.4 659.97C916.988 660.033 917.581 659.914 918.1 659.63C918.394 659.373 918.63 659.057 918.792 658.701C918.954 658.346 919.039 657.961 919.04 657.57C919.221 655.702 918.94 653.819 918.222 652.085C917.503 650.352 916.369 648.822 914.92 647.63C914.285 647.232 913.759 646.683 913.39 646.03C913.203 645.453 913.155 644.839 913.25 644.24C913.854 636.044 913.706 627.81 912.81 619.64C912.406 617.051 912.275 614.427 912.42 611.81C912.63 609.63 913.29 607.47 913.05 605.3C912.81 603.13 911.7 601.15 911.05 599.06C909.89 595.34 910.21 591.34 910.05 587.45C909.85 580.69 908.3 574.05 906.76 567.45C906.15 564.86 905.48 562.15 903.65 560.23C902.09 558.6 899.57 557.04 900.16 554.87C900.487 554.07 900.973 553.345 901.59 552.74C902.314 551.831 902.846 550.784 903.152 549.663C903.458 548.542 903.532 547.371 903.37 546.22C904.028 546.388 904.723 546.322 905.338 546.034C905.953 545.746 906.448 545.253 906.74 544.64C918.92 538.89 928.74 527.39 933.12 514.64C933.378 513.693 933.776 512.79 934.3 511.96C935.43 510.38 937.39 509.7 939.13 508.83C944.59 506.08 948.36 500.93 951.82 495.89C953.82 492.97 955.82 489.95 956.72 486.51C957.193 484.285 957.418 482.015 957.39 479.74L957.7 467.99C957.768 467.216 957.693 466.437 957.48 465.69C957.183 464.992 956.752 464.36 956.21 463.83C952.884 460.313 948.516 457.957 943.75 457.11C940.55 456.54 937.28 456.65 934.04 456.38C927.76 455.86 921.56 453.91 915.28 454.38C905.41 455.11 896.62 461.95 891.97 470.69C890.34 473.77 888.62 476.45 885.12 476.51Z" fill="#464353"/>
<path d="M830.32 400.11C830.453 401.924 830.208 403.745 829.6 405.46C828.83 407.1 826.9 408.38 825.21 407.71C825.72 406.56 824.37 405.25 823.11 405.39C822.49 405.532 821.914 405.824 821.432 406.238C820.949 406.653 820.575 407.178 820.34 407.77C819.505 409.449 819.225 411.351 819.54 413.2C819.94 415.5 821.27 417.71 820.92 420.02C820.64 421.94 819.23 423.85 819.98 425.63C820.467 426.443 821.077 427.175 821.79 427.8C822.778 429.017 823.262 430.566 823.141 432.129C823.02 433.692 822.304 435.149 821.14 436.2L840.06 436.58C839.37 439.74 840.79 442.97 842.41 445.78C846.948 453.505 853.213 460.074 860.715 464.972C868.217 469.87 876.752 472.963 885.65 474.01C885.169 474.29 884.756 474.675 884.442 475.135C884.128 475.595 883.919 476.119 883.832 476.669C883.745 477.219 883.781 477.782 883.938 478.316C884.096 478.851 884.369 479.344 884.74 479.76C886.28 481.29 888.89 481.1 890.82 480.11C892.75 479.12 894.26 477.48 896.02 476.21C899.127 474.008 902.918 472.987 906.71 473.33C909.08 473.56 911.38 474.33 913.76 474.45C920.76 474.82 926.76 469.78 933.5 467.72C938.41 466.21 943.98 466.21 948.1 463.14C949.88 461.82 951.34 459.65 950.82 457.51C950.39 456.28 949.709 455.153 948.82 454.2C946.45 451.13 945.05 447.44 943.35 443.95C939.982 437.04 935.345 430.825 929.68 425.63C925.404 421.892 920.873 418.457 916.12 415.35C914.971 414.501 913.746 413.762 912.46 413.14C910.8 412.41 908.96 412.06 907.46 411.14C905.24 409.74 903.96 407.27 902.25 405.28C898.5 400.9 892.74 398.89 888.12 395.45C885.02 393.14 882.28 390.1 878.58 388.99C876.78 388.44 874.87 388.4 873.07 387.86C868.98 386.62 866 382.99 861.99 381.52C858.82 380.36 855.32 380.66 851.99 380.25C848.236 379.787 844.651 378.421 841.54 376.27C840.538 375.453 839.414 374.799 838.21 374.33C833.14 372.79 832.73 382.23 832.21 385.5C831.54 390.36 830.32 395.19 830.32 400.11Z" fill="#1B264F"/>
<path d="M835.26 431.77C836.11 440.99 829.15 449.92 831.18 458.95C831.61 460.87 832.44 462.7 832.74 464.65C833.59 470 830.39 475.07 827.34 479.55L801.14 518C800.088 519.688 798.832 521.24 797.4 522.62C792.4 527.07 784.88 526.62 778.3 527.94C773.678 528.89 769.313 530.82 765.5 533.6C765.329 533.733 765.216 533.928 765.186 534.143C765.156 534.358 765.211 534.576 765.34 534.75C766.427 536.23 767.866 537.414 769.527 538.194C771.188 538.975 773.018 539.328 774.85 539.22C775.54 540.12 774.85 541.46 773.9 542.11C772.5 543.11 770.56 543.34 770.28 545.73C770.186 546.561 770.353 547.4 770.76 548.13C771.819 549.742 773.46 550.881 775.34 551.31C784.41 554.09 794.21 549.21 801 542.58C807.79 535.95 812.66 527.58 819.32 520.84C823.01 517.1 827.2 513.91 831 510.29C838.58 503.06 844.48 494.29 850.16 485.5C851.87 482.85 853.6 480.13 854.31 477.06C855.02 473.99 854.69 470.88 855.5 467.91C856.56 464.02 859.41 460.91 861.78 457.65C866.43 451.25 869.54 443.42 868.92 435.53C868.3 427.64 863.42 419.86 855.98 417.18C853.672 416.263 851.132 416.109 848.73 416.74C845.68 417.68 843.43 420.2 841.35 422.62L836.35 428.36C835.133 429.631 834.178 431.13 833.54 432.77C833.218 433.597 833.141 434.499 833.318 435.368C833.495 436.237 833.92 437.036 834.54 437.67" fill="#FBBEBE"/>
<path d="M848.54 393.95C845.1 394.15 841.31 394.49 838.88 396.95C837.861 398.08 837.036 399.371 836.44 400.77C834.08 405.58 831.78 410.61 831.61 415.97C831.47 420.25 832.71 424.44 833.36 428.67C833.9 432.19 832.53 435.78 832.27 439.34C836.54 438.03 842.18 436.25 846.05 434.04C848.69 432.53 851.24 430.81 854.12 429.85C858.23 428.48 865.12 430.85 869.03 432.75C869.24 430.01 867.18 425.23 867.4 422.48C867.43 421.323 867.636 420.176 868.01 419.08C868.594 417.921 869.287 416.819 870.08 415.79C871.568 413.37 872.253 410.542 872.035 407.709C871.818 404.876 870.71 402.185 868.87 400.02C865.4 396.12 859.97 394.66 854.79 394.02C851.527 393.642 848.24 393.529 844.96 393.68" fill="#14204D"/>
<defs>
<linearGradient id="paint0_linear" x1="706.22" y1="546.181" x2="706.22" y2="57.5205" gradientUnits="userSpaceOnUse">
<stop stop-color="#808080" stop-opacity="0.25"/>
<stop offset="0.54" stop-color="#808080" stop-opacity="0.12"/>
<stop offset="1" stop-color="#808080" stop-opacity="0.1"/>
</linearGradient>
</defs>
</svg>
