<?xml version="1.0" encoding="UTF-8"?>
<svg width="497px" height="303px" viewBox="0 0 497 303" version="1.1" xmlns="http://www.w3.org/2000/svg" xmlns:xlink="http://www.w3.org/1999/xlink">
    <title>1C5DD898-CA2C-46AB-B610-926C48A8AE33</title>
    <g id="Web" stroke="none" stroke-width="1" fill="none" fill-rule="evenodd">
        <g id="ADDING-A-PRODUCT-1" transform="translate(-716.000000, -515.000000)" fill-rule="nonzero">
            <g id="undraw_shared_goals_3d12" transform="translate(716.000000, 515.000000)">
                <polygon id="Path" fill="#3F3D56" points="496.771009 302.622674 0 302.622674 0 301.622674 497 301.622674"></polygon>
                <path d="M434,102.112172 L421.411032,126.889062 L383.76949,143.901432 C379.749714,150.655128 366.976177,151.172057 366.04722,146.804587 C365.005074,141.904972 381.558613,134.018875 381.558613,134.018875 L413.042832,112.848028 L415.797575,94.6226744 L434,102.112172 Z" id="Path" fill="#A0616A"></path>
                <polygon id="Path" fill="#A0616A" points="431.656287 269.622674 434 287.717724 420.405994 288.622674 419 269.622674"></polygon>
                <path d="M429.667401,284.560077 C430.856918,283.273787 431.954231,281.901497 432.950812,280.453875 C434.857779,277.755327 436.54987,291.598226 436.54987,291.598226 C436.54987,291.598226 438.385192,297.228704 437.92636,300.043989 C437.467528,302.859274 426.914357,302.859286 425.079041,302.390043 C423.243724,301.920799 414.067055,302.390043 414.067055,302.390043 L400.302066,302.390043 C388.372417,296.75956 400.302066,293.005869 400.302066,293.005869 C403.972728,292.536684 416.361221,280.806416 416.361221,280.806416 L419.114225,275.645135 C420.949547,275.17591 422.784887,282.21407 422.784887,282.21407 L429.667401,284.560077 Z" id="Path" fill="#2F2E41"></path>
                <polygon id="Path" fill="#A0616A" points="466.655793 269.622674 469 287.717724 455.406524 288.622674 454 269.622674"></polygon>
                <path d="M464.667392,285.303816 C465.856908,284.054398 466.954222,282.721449 467.950809,281.315329 C469.857775,278.694137 471.549866,292.140196 471.549866,292.140196 C471.549866,292.140196 473.385205,297.153514 472.926356,299.888103 C472.467506,302.622674 461.914355,302.622674 460.079039,302.1669 C458.243722,301.711166 449.067055,302.622674 449.067055,302.622674 L435.302063,302.622674 C423.372421,297.153611 435.302063,293.507525 435.302063,293.507525 C438.972724,293.051751 451.361221,281.657809 451.361221,281.657809 L454.114218,276.644492 C455.949563,276.188717 457.784879,283.025109 457.784879,283.025109 L464.667392,285.303816 Z" id="Path" fill="#2F2E41"></path>
                <path d="M451.039433,149.655378 C452.881546,151.979005 451.960501,159.87944 451.960501,159.87944 C451.960501,159.87944 455.184185,185.439819 453.802614,187.763486 C452.421044,190.087153 454.723665,191.946066 456.105253,195.199196 C457.486841,198.452325 458.868417,206.352777 458.868417,206.352777 C466.697384,212.858989 466.236836,242.601827 466.236836,242.601827 L469,269.091541 C468.078949,271.879916 455.184225,272.344665 453.342112,271.879916 C451.5,271.415168 445.973693,229.589286 445.973693,229.589286 L433.539477,205.887947 C433.539477,205.887947 434.460523,269.0915 434.460523,271.879916 C434.460523,274.668332 422.026324,273.274121 419.26316,273.274121 C416.5,273.274121 416.5,226.800905 416.5,226.800905 L413.736826,214.717914 L399,159.414778 L399,152.908531 L401.302616,149.655402 C401.302616,149.655402 449.19732,147.331781 451.039433,149.655378 Z" id="Path" fill="#2F2E41"></path>
                <circle id="Oval" fill="#A0616A" cx="431.5" cy="30.1226744" r="14.5"></circle>
                <path d="M423.705878,37.6226744 C426.662938,43.9828936 424.91199,52.8665134 419,62.6226744 L443,51.7136164 L439.235297,48.5318005 L440.176465,39.4408857 L423.705878,37.6226744 Z" id="Path" fill="#A0616A"></path>
                <path d="M423.492438,52.3137426 C420.40614,54.1456078 418.559928,57.5114011 417.500114,60.9363987 C415.538013,67.2773636 414.35696,73.8333647 413.983054,80.4595205 L412.863641,100.29703 L399,152.894112 C411.015147,163.044384 417.947008,160.737556 434.121229,152.432717 C450.29545,144.127879 452.143944,155.200968 452.143944,155.200968 C452.143944,155.200968 453.530317,154.739614 452.143944,153.355466 C450.757571,151.971317 452.143944,153.355466 453.5303,151.971323 C454.916656,150.58718 453.5303,151.971323 453.068179,150.587175 C452.606059,149.203026 453.068179,150.125821 453.5303,149.664426 C453.992421,149.203032 451.681823,145.050633 451.681823,145.050633 L455.378794,110.447268 L460,61.5412548 C454.454535,54.6205875 438.742418,48.6226744 438.742418,48.6226744 L424.41665,58.772958 C419.795444,60.6184546 423.492415,53.2364104 423.492415,53.2364104 L423.492438,52.3137426 Z" id="Path" fill="#313130"></path>
                <path d="M468.131491,90.6226744 L470,118.285003 L446.176317,151.940854 C446.176317,159.778534 441.97214,161.622674 441.97214,161.622674 C440.379756,159.114347 438.974644,156.494854 437.767963,153.784995 C435.432301,148.713589 439.169348,144.56423 439.169348,144.56423 L455.51892,110.447352 L448.511956,93.3889539 L468.131491,90.6226744 Z" id="Path" fill="#A0616A"></path>
                <path d="M459.80298,61.575827 C467.620457,64.3486508 469,94.3877009 469,94.3877009 C459.80298,89.3041916 448.766573,97.6226744 448.766573,97.6226744 C448.766573,97.6226744 446.467354,89.7663356 443.708239,79.5992709 C442.014916,73.786522 443.403413,67.5071849 447.387042,62.9622591 C447.387042,62.9622591 451.985509,58.803009 459.80298,61.575827 Z" id="Path" fill="#313130"></path>
                <path d="M443.802981,35.4060412 C441.976181,33.9181634 439.483969,36.6226744 439.483969,36.6226744 L438.022523,23.2319093 C438.022523,23.2319093 428.888419,24.3478324 423.042603,22.8599546 C417.196786,21.3720768 416.283372,28.2534485 416.283372,28.2534485 C415.981992,25.4745267 415.920864,22.6740308 416.100693,19.8842225 C416.466046,16.5365356 421.215762,13.1888311 429.619143,10.9570438 C438.022523,8.72525649 442.406869,18.3963564 442.406869,18.3963564 C448.252703,21.3720885 445.629781,36.893919 443.802981,35.4060412 Z" id="Path" fill="#2F2E41"></path>
                <path d="M23,228.631297 C24.5731312,234.881347 37.9870909,248.937043 51.8283421,262.135547 C30.4839553,209.370191 42.6467965,151.622674 42.6467965,151.622674 C38.6836092,174.302607 93,288.435554 93,288.435554 L80.6286218,295.736731 L76.4494199,301.622674 C34.5549369,282.365112 23,228.631297 23,228.631297 Z" id="Path" fill="#E6E6E6"></path>
                <rect id="Rectangle" fill="#E6E6E6" x="210" y="110.622674" width="176" height="35"></rect>
                <rect id="Rectangle" fill="#E6E6E6" x="210" y="55.6226744" width="176" height="35"></rect>
                <rect id="Rectangle" fill="#E6E6E6" x="210" y="0.622674419" width="176" height="35"></rect>
                <polygon id="Path" fill="#FFFFFF" points="214 31.6226744 382 31.6226744 382 4.62267442 214 4.62267442"></polygon>
                <polygon id="Path" fill="#FFFFFF" points="214 86.6226744 382 86.6226744 382 59.6226744 214 59.6226744"></polygon>
                <polygon id="Path" fill="#FFFFFF" points="214 141.622674 382 141.622674 382 114.622674 214 114.622674"></polygon>
                <circle id="Oval" fill="#313130" cx="228.5" cy="18.1226744" r="10.5"></circle>
                <rect id="Rectangle" fill="#313130" x="253" y="14.6226744" width="102" height="2"></rect>
                <rect id="Rectangle" fill="#313130" x="253" y="19.6226744" width="102" height="2"></rect>
                <circle id="Oval" fill="#CCCCCC" cx="228.5" cy="73.1226744" r="10.5"></circle>
                <rect id="Rectangle" fill="#CCCCCC" x="253" y="69.6226744" width="102" height="2"></rect>
                <rect id="Rectangle" fill="#CCCCCC" x="253" y="75.6226744" width="102" height="2"></rect>
                <circle id="Oval" fill="#CCCCCC" cx="228.5" cy="128.122674" r="10.5"></circle>
                <rect id="Rectangle" fill="#CCCCCC" x="253" y="124.622674" width="102" height="2"></rect>
                <rect id="Rectangle" fill="#CCCCCC" x="253" y="130.622674" width="102" height="2"></rect>
                <path d="M80.2564606,100.808286 C80.2564606,100.808286 77.8370854,115.907085 87.860241,114.534451 C87.860241,114.534451 127.607255,105.612438 129.681016,107.671368 C131.754777,109.730299 144.647134,110.43117 143.974608,101.750908 C143.299797,93.0413413 130.372274,98.0630354 130.372274,98.0630354 C130.372274,98.0630354 110.325928,100.808263 106.17844,98.7493322 C102.030953,96.6904016 90.2796393,97.3766927 90.2796393,97.3766927 L80.2564606,100.808286 Z" id="Path" fill="#A0616A"></path>
                <path d="M111,150.622674 L105.491318,203.119848 C105.491318,203.119848 103.764005,223.938933 98.582106,228.44973 C98.582106,228.44973 98.582106,235.042431 96.8547987,237.124341 L94.4365766,264.536081 C94.4365766,264.536081 97.8911796,274.598645 97.5457251,276.333577 C97.2002705,278.068508 98.9275894,283.620234 98.582106,284.314231 C98.2366226,285.008228 82,284.314231 82,284.314231 L85.454603,228.449765 L96.163907,150.725279 L111,150.622674 Z" id="Path" fill="#2F2E41"></path>
                <path d="M80.5339555,281.106382 C80.5339555,281.106382 73.3259122,299.263607 77.0866265,301.454963 C80.8473407,303.646318 120.334863,302.081064 120.334863,302.081064 C120.334863,302.081064 126.916119,298.011331 119.394685,295.193829 C119.394685,295.193829 113.126814,294.880742 109.052755,292.376333 C104.978696,289.871925 100.277768,285.176034 100.277768,285.176034 C100.277768,285.176034 99.9643832,278.288806 97.4572327,279.854118 C95.9404244,280.852372 94.9161175,282.444018 94.636697,284.23688 L80.5339555,281.106382 Z" id="Path" fill="#2F2E41"></path>
                <path d="M69.0162753,279.235363 C69.0162753,279.235363 61.041445,298.971506 65.2022205,301.35342 C69.362996,303.735335 113.051335,302.033964 113.051335,302.033964 C113.051335,302.033964 120.33273,297.61035 112.011139,294.547864 C112.011139,294.547864 105.076494,294.207592 100.568968,291.485383 C96.0614433,288.763174 90.8604827,283.658976 90.8604827,283.658976 C90.8604827,283.658976 90.5137562,276.172836 87.7398866,277.874235 C86.0616972,278.959301 84.9284153,280.689374 84.6192847,282.638161 L69.0162753,279.235363 Z" id="Path" fill="#2F2E41"></path>
                <path d="M102,150.595574 C102,150.595574 98.1644201,186.142227 96.4209604,193.734738 C95.3247836,198.734698 94.6252708,203.811833 94.328817,208.919727 C94.328817,208.919727 93.9801332,219.963344 90.8419209,223.069389 C88.9859299,224.888185 87.9757486,227.387722 88.0523924,229.971646 C88.0523924,229.971646 84.9141742,264.82809 86.6576106,268.96945 C88.401047,273.11081 90.7678722,278.491121 89.0244591,281.252013 C87.281046,284.012904 67.4796705,282.083756 67.4796705,280.013073 C67.4796705,277.94239 67.4796705,276.216814 66.4335958,275.181452 C65.3875212,274.146091 66.4335958,267.588981 66.4335958,267.588981 C66.4335958,267.588981 62.2493147,236.873908 66.0849179,227.900969 C69.920521,218.928029 71.6639516,194.424993 71.6639516,194.424993 C71.6639516,194.424993 68.8744464,166.470817 65.387527,161.984344 C61.9006076,157.497871 66.0849179,141.622674 66.0849179,141.622674 L102,150.595574 Z" id="Path" fill="#2F2E41"></path>
                <path d="M92,39.6938223 C92.3953779,40.6210413 93.341842,41.1373508 94.2034761,41.6259828 C99.1971951,44.4580183 103.377265,48.5640093 107.495608,52.6226744 C106.467977,49.037846 106.686931,45.196333 108.114755,41.7598085 C108.606495,40.5876682 109.250899,39.3277298 108.899438,38.1033223 C108.552719,37.2280603 107.949909,36.485615 107.174676,35.979034 C105.49422,34.6412099 103.737812,33.4076573 101.914793,32.2849351 C100.641256,31.5006116 98.0229342,29.4126437 96.561479,29.6398521 C96.4847893,31.6725296 96.4447005,33.4898403 95.5799932,35.3896043 C95.3748512,35.8402552 92.1511355,40.0483128 92,39.6938223 Z" id="Path" fill="#A0616A"></path>
                <circle id="Oval" fill="#A0616A" cx="110" cy="29.6226744" r="14"></circle>
                <path d="M110.582495,62.798859 C110.582495,62.798859 113.009896,50.7303758 106.074483,46.5926083 C99.1390704,42.4548409 91.1632619,37.6274464 91.1632619,37.6274464 C91.1632619,37.6274464 88.7358671,37.2826445 87.6955468,42.4548754 C87.6955468,42.4548754 67.9295474,46.2478179 65.8489126,64.8677859 C63.7682777,83.487754 67.2360218,110.72803 67.2360218,110.72803 C67.2360218,110.72803 64.1150724,134.520195 60.3005916,147.27831 C60.3005916,147.27831 57.1796364,150.036812 71.0505432,145.899033 C84.92145,141.761255 109.195415,157.622674 109.195415,157.622674 C109.195415,157.622674 111.622816,155.20898 111.622816,153.484907 C111.622816,151.760834 116.824377,99.3491393 117.864691,94.5217334 C118.905006,89.6943274 113.703445,63.4884975 110.582495,62.798859 Z" id="Path" fill="#E6E6E6"></path>
                <path d="M106.327527,31.6514033 C107.175448,31.1719587 108.126326,30.9136073 109.095675,30.8993033 C110.066174,30.8844953 111.013795,30.5964356 111.833959,30.0669149 C113.167215,29.0227252 113.265033,27.0046862 114.240359,25.6081612 C115.65246,23.5862861 118.469485,23.3429161 120.900976,23.4440803 C122.388155,23.5059566 123.989733,23.5965861 125.242058,22.7759875 C126.527707,21.933563 127.110446,20.3463236 127.543965,18.8515497 C128.05661,17.0838959 128.388184,14.922214 127.117868,13.6112154 C126.235731,12.700873 124.843329,12.5207989 123.863386,11.7213165 C123.333037,11.2886106 116.3225,9.55110604 109.74117,7.98881893 C102.960316,6.38164215 96.0714256,10.1958334 93.6971758,16.8719421 C92.1775122,21.1349136 90.8751257,25.1404728 91.0095627,26.0057086 C91.6529423,30.1464466 95.2424654,33.437827 95.4897957,37.6226744 C95.968705,35.2753394 97.5718001,33.3306278 99.7564945,32.4467504 C100.026179,32.312209 100.332438,32.2743073 100.625833,32.3391634 C100.982446,32.4554491 101.190892,32.8189233 101.415942,33.1241695 C102.005632,33.9239452 103.858117,35.1373694 104.908188,34.5700008 C105.847689,34.0622973 105.146279,32.4687171 106.327527,31.6514033 Z" id="Path" fill="#3F3D56"></path>
                <path d="M112.477731,105.677855 C111.853666,106.280184 111.839146,107.2647 112.445184,107.884593 L122.520806,118.145202 C122.816765,118.44658 123.223221,118.618554 123.649126,118.622674 C124.075031,118.626649 124.484787,118.46243 124.786607,118.166733 L155.531856,88.0466903 C155.871975,87.7133991 156.040913,87.2467938 155.991563,86.7769881 C155.942212,86.3071824 155.679852,85.884438 155.277642,85.626638 L143.187982,77.8788433 C142.564914,77.4754035 141.740032,77.5552922 141.208865,78.070518 L112.477731,105.677855 Z" id="Path" fill="#3F3D56"></path>
                <path d="M155.743159,85.6226744 C155.682261,85.7161435 155.61174,85.8029792 155.532748,85.8817607 L124.917063,117.006091 C124.615805,117.305979 124.206814,117.472523 123.781705,117.468417 C123.356596,117.464312 122.9509,117.289899 122.655493,116.984249 L112.382209,106.145303 C112.312216,106.072587 112.24935,105.993336 112.194473,105.908635 C111.840167,106.515204 111.981136,107.28945 112.526513,107.732292 L122.583321,118.13843 C122.878727,118.444082 123.284424,118.618496 123.709534,118.622674 C124.134644,118.626705 124.543635,118.460158 124.844891,118.160266 L155.53273,87.6130232 C156.065021,87.0828885 156.152823,86.2523466 155.743141,85.6226744 L155.743159,85.6226744 Z" id="Path" fill="#313130"></path>
                <path d="M152.801947,85.9646081 L151.566543,85.1727174 C151.834507,85.6527395 151.737863,86.2551301 151.33337,86.6261102 C150.928877,86.9970903 150.323359,87.0386854 149.872433,86.7264672 L141.87797,81.2008699 C141.507195,80.945021 141.313953,80.4990403 141.380101,80.0518433 C141.44625,79.6046463 141.760211,79.2344947 142.188994,79.0981829 L141.552503,78.6901971 C141.38232,78.5811134 141.15948,78.6062838 141.017616,78.7506139 L114.123648,105.321483 C114.042581,105.403955 113.998027,105.515813 114,105.631743 C114.002108,105.747673 114.050571,105.857876 114.134489,105.937413 L123.901721,115.505386 C124.070053,115.664944 124.334,115.66126 124.497862,115.497066 L152.874047,86.6326406 C152.966105,86.5404024 153.011518,86.4111273 152.997498,86.2812248 C152.983478,86.1513223 152.91154,86.0348488 152.801947,85.9646081 Z" id="Path" fill="#FFFFFF"></path>
                <polygon id="Path" fill="#E6E6E6" points="122 99.8047761 130.287741 107.622674 150 88.1373 139.995658 81.6226744"></polygon>
                <path d="M149.072972,92.5517809 C149.171806,92.6463056 149.327306,92.6463056 149.42614,92.5517809 L150.927026,91.0475099 C151.024325,90.9496811 151.024325,90.7913967 150.927026,90.693568 C150.828192,90.5990432 150.672692,90.5990432 150.573858,90.693568 L149.072972,92.1978389 C148.975676,92.2956688 148.975676,92.453951 149.072972,92.5517809 L149.072972,92.5517809 Z" id="Path" fill="#3F3D56"></path>
                <path d="M146.073011,95.5496851 C146.170648,95.6470042 146.328611,95.6470042 146.426248,95.5496851 L147.927424,94.0484917 C148.024419,93.9508532 148.024158,93.7931509 147.926842,93.6958334 C147.829525,93.5985159 147.671825,93.5982554 147.574188,93.6952508 L146.073011,95.1964441 C145.975663,95.2940697 145.975663,95.4520595 146.073011,95.5496851 Z" id="Path" fill="#3F3D56"></path>
                <circle id="Oval" fill="#313130" cx="122" cy="106.622674" r="2"></circle>
                <path d="M70.2564618,95.8082837 C70.2564618,95.8082837 67.8370809,110.907085 77.8602422,109.534451 C77.8602422,109.534451 117.60725,100.612437 119.681011,102.671367 C121.754772,104.730298 134.647129,105.43117 133.974609,96.750906 C133.299797,88.0413382 120.372274,93.0630387 120.372274,93.0630387 C120.372274,93.0630387 100.325928,95.8082608 96.1784355,93.7493299 C92.0309426,91.6903991 80.2796405,92.3766902 80.2796405,92.3766902 L70.2564618,95.8082837 Z" id="Path" fill="#A0616A"></path>
                <path d="M84.3697746,47.6226744 C84.3697746,47.6226744 69,49.3547106 69,71.8710424 L69,100.622674 L87.7853212,92.6553727 C87.7853212,92.6553727 95.6409753,73.9494835 94.9579025,68.7534038 C94.2748297,63.5573242 94.6163176,48.3154669 84.3697746,47.6226744 Z" id="Path" fill="#E6E6E6"></path>
            </g>
        </g>
    </g>
</svg>