<?xml version="1.0" encoding="UTF-8"?>
<svg width="545px" height="273px" viewBox="0 0 545 273" version="1.1" xmlns="http://www.w3.org/2000/svg" xmlns:xlink="http://www.w3.org/1999/xlink">
    <title>C26CDD29-0F61-432B-A2E7-E8ADA9D41630</title>
    <g id="Web" stroke="none" stroke-width="1" fill="none" fill-rule="evenodd">
        <g id="ADDING-A-PRODUCT-3" transform="translate(-692.000000, -521.000000)" fill-rule="nonzero">
            <g id="undraw_send_gift_7o4m" transform="translate(692.000000, 521.000000)">
                <rect id="Rectangle" fill="#3F3D56" x="0" y="264.886114" width="163" height="1"></rect>
                <path d="M17.2586941,265.886114 L16.9436837,265.206612 C16.8746724,265.057084 10.0759805,250.106684 14.4877707,235.652974 C18.899788,221.198597 32.9563924,212.371581 33.0976169,212.284341 L33.7416305,211.886114 L34.0564137,212.565387 C34.125425,212.714915 40.9238842,227.665093 36.5123267,242.119025 C32.1003039,256.573408 18.043705,265.400418 17.902475,265.487659 L17.2586941,265.886114 Z M15.760204,236.026689 C12.029797,248.247169 16.5894702,260.858663 17.8488302,263.951947 C20.6335083,262.043858 31.5133806,253.954361 35.2398934,241.745349 C38.9659408,229.53769 34.4092534,216.916526 33.1512672,213.82009 C30.3649827,215.729299 19.4864841,223.818345 15.760204,236.026678 L15.760204,236.026689 Z" id="Shape" fill="#3F3D56"></path>
                <path d="M21.9805316,236.811417 C25.6661151,251.446964 18.1733401,265.886114 18.1733401,265.886114 C18.1733401,265.886114 4.70505238,256.596353 1.01946892,241.960811 C-2.66611454,227.325269 4.82665499,212.886114 4.82665499,212.886114 C4.82665499,212.886114 18.2949427,222.175874 21.9805316,236.811417 Z" id="Path" fill="#313130"></path>
                <path d="M494.730897,218.886114 L173.269103,218.886114 C171.464444,218.886114 170,217.423956 170,215.622114 L170,18.1501139 C170,16.348273 171.464445,14.8861139 173.269103,14.8861139 L494.730897,14.8861139 C496.535555,14.8861139 498,16.348273 498,18.1501139 L498,215.622114 C498,217.423956 496.535556,218.886114 494.730897,218.886114 L494.730897,218.886114 Z M173.269103,15.9741139 C172.066023,15.9741139 171.089701,16.9489115 171.089701,18.1501139 L171.089701,215.622114 C171.089701,216.823356 172.065983,217.798114 173.269103,217.798114 L494.730897,217.798114 C495.93405,217.798114 496.910299,216.823388 496.910299,215.622114 L496.910299,18.1501139 C496.910299,16.9488742 495.934015,15.9741139 494.730897,15.9741139 L173.269103,15.9741139 Z" id="Shape" fill="#3F3D56"></path>
                <path d="M496.25,0.886113886 L171.75,0.886113886 C170.238753,0.878754192 169.00756,2.08411558 169,3.57845107 L169,21.8861139 L499,21.8861139 L499,3.57845107 C498.99244,2.08411558 497.761247,0.878754192 496.25,0.886113886 Z" id="Path" fill="#313130"></path>
                <circle id="Oval" fill="#D0CDE1" cx="459.5" cy="11.3861139" r="3.5"></circle>
                <circle id="Oval" fill="#D0CDE1" cx="469.5" cy="11.3861139" r="3.5"></circle>
                <circle id="Oval" fill="#D0CDE1" cx="480.5" cy="11.3861139" r="3.5"></circle>
                <path d="M342,162.886114 L191,162.886114 L191,51.8861139 L342,51.8861139 L342,162.886114 Z M192.086331,161.797879 L340.913669,161.797879 L340.913669,52.9743492 L192.086331,52.9743492 L192.086331,161.797879 Z" id="Shape" fill="#3F3D56"></path>
                <rect id="Rectangle" fill="#3F3D56" x="378" y="78.8861139" width="35" height="6"></rect>
                <rect id="Rectangle" fill="#3F3D56" x="407" y="135.886114" width="35" height="6"></rect>
                <rect id="Rectangle" fill="#3F3D56" x="378" y="95.8861139" width="98" height="6"></rect>
                <rect id="Rectangle" fill="#3F3D56" x="378" y="105.886114" width="98" height="6"></rect>
                <rect id="Rectangle" fill="#3F3D56" x="378" y="115.886114" width="98" height="6"></rect>
                <path d="M473.599193,196.886114 C476.512408,194.483406 481.212186,192.214995 485,190.886727 C481.212186,189.557227 476.512408,187.288822 473.599193,184.886114 L475.652459,190.255862 L465,190.255862 L465,191.517597 L475.65242,191.517597 L473.599193,196.886114 Z" id="Path" fill="#3F3D56"></path>
                <rect id="Rectangle" fill="#3F3D56" x="123" y="217.886114" width="422" height="1"></rect>
                <rect id="Rectangle" fill="#313130" x="235" y="83.8861139" width="65" height="61"></rect>
                <rect id="Rectangle" fill="#3F3D56" x="261" y="82.8861139" width="14" height="64"></rect>
                <path d="M265.817268,70.8449341 C270.130293,74.4991265 268.80942,83.0026128 268.80942,83.0026128 C268.80942,83.0026128 260.495753,85.5814811 256.182728,81.9273047 C251.869704,78.2731283 253.190582,69.7696207 253.190582,69.7696207 C253.190582,69.7696207 261.504249,67.1907364 265.817268,70.8449341 Z" id="Path" fill="#3F3D56"></path>
                <path d="M280.059923,80.678841 C276.416463,84.9971 267.902937,83.7050068 267.902937,83.7050068 C267.902937,83.7050068 265.296619,75.4116322 268.940079,71.093384 C272.583539,66.7751357 281.097065,68.0672182 281.097065,68.0672182 C281.097065,68.0672182 283.703378,76.360582 280.059923,80.678841 Z" id="Path" fill="#3F3D56"></path>
                <polygon id="Path" fill="#FFB8B8" points="55.4444444 251.636114 56 256.886114 51 256.302781 51 249.886114"></polygon>
                <polygon id="Path" fill="#FFB8B8" points="106.555556 251.636114 106 256.886114 111 256.302781 111 249.886114"></polygon>
                <path d="M54.8872597,145.886114 L52.7038544,201.830276 C52.7038544,201.830276 45.607787,243.652611 47.245341,244.738906 C48.882895,245.8252 47.245341,251.799819 47.245341,251.799819 L56.5248137,252.886114 C56.5248137,252.886114 56.5248137,248.540936 58.7082191,246.911495 C60.8916244,245.282053 81.0881238,168.698297 81.0881238,168.698297 L101.830475,242.566317 C101.830475,242.566317 101.284623,246.911495 102.922177,246.911495 C104.559731,246.911495 105.105583,252.886114 105.105583,252.886114 L114.385055,252.886114 L114.385055,246.911495 C114.385055,246.911495 117.114312,246.368347 115.476758,242.02317 C113.839204,237.677992 107.834839,145.886114 107.834839,145.886114 L54.8872597,145.886114 Z" id="Path" fill="#2F2E41"></path>
                <path d="M52.0182194,251.786352 C52.0182194,251.786352 49.3319117,250.185928 48.2573886,251.252878 C47.1828655,252.319827 38.5866807,262.98932 38.5866807,262.98932 C38.5866807,262.98932 26.7669265,270.457965 37.5121576,272.591864 C48.2573886,274.725762 56.3163119,264.589744 56.8535734,263.522795 C57.390835,262.455845 56.3163119,253.920251 55.7790503,254.9872 C55.2417887,256.05415 53.6300041,255.520675 53.0927425,254.9872 C52.555481,254.453726 52.0182194,251.786352 52.0182194,251.786352 Z" id="Path" fill="#2F2E41"></path>
                <path d="M109.981781,251.786352 C109.981781,251.786352 112.668088,250.185928 113.742611,251.252878 C114.817135,252.319827 123.413319,262.98932 123.413319,262.98932 C123.413319,262.98932 135.233073,270.457965 124.487842,272.591864 C113.742611,274.725762 105.683688,264.589744 105.146427,263.522795 C104.609165,262.455845 105.683688,253.920251 106.22095,254.9872 C106.758211,256.05415 108.369996,255.520675 108.907257,254.9872 C109.444519,254.453726 109.981781,251.786352 109.981781,251.786352 Z" id="Path" fill="#2F2E41"></path>
                <circle id="Oval" fill="#FFB8B8" cx="88" cy="53.8861139" r="11"></circle>
                <polygon id="Path" fill="#FFB8B8" points="80.6 60.4266544 79 77.1834112 91.8 79.8861139 95 59.8861139"></polygon>
                <path d="M94.5666667,73.427873 C94.5666667,73.427873 91.3,80.470742 79.3222222,72.8861139 L57,145.48184 C57,145.48184 86.9444444,163.359892 106,149.815913 L99.4666667,76.6784279 L94.5666667,73.427873 Z" id="Path" fill="#575A89"></path>
                <path d="M81,65.5190253 L70.5949068,63.8861139 L69.4996338,70.9620633 C69.4996338,70.9620633 55.2610851,72.5949746 53.6181757,78.0380126 L55.2610851,118.316494 C55.2610851,118.316494 50.3323568,127.025354 54.7134486,132.468392 C54.7134486,132.468392 47.5941743,147.164595 53.0705392,149.886114 C53.0705392,149.886114 65.6661784,143.898772 73.3330892,145.531684 C73.3330892,145.531684 77.7141811,144.443076 77.7141811,141.177253 C77.7141811,137.91143 81,65.5190253 81,65.5190253 Z" id="Path" fill="#2F2E41"></path>
                <path d="M93.5392573,66.8861139 L99.435859,68.524469 L99.9719137,76.1701262 C99.9719137,76.1701262 114.445391,85.4541385 114.981445,90.9153222 C115.5175,96.3765059 104.260351,122.590188 104.260351,122.590188 C104.260351,122.590188 108.548789,130.235845 106.940625,135.15091 C106.940625,135.15091 113.909336,149.349988 109.620898,153.172816 C109.620898,153.172816 101.580078,155.35729 100.507968,152.08058 C99.435859,148.803869 89.7868743,111.121702 94.075312,93.0997957 C94.075312,93.0997957 89.7868743,70.1628241 93.5392573,66.8861139 Z" id="Path" fill="#2F2E41"></path>
                <path d="M100,84.678692 L99.7906341,84.678692 L99.7906341,79.1094435 C99.7906341,78.2545614 99.4408936,77.4346933 98.8183518,76.8302014 C98.19581,76.2257096 97.3514626,75.8861139 96.471057,75.8861139 L84.3195771,75.8861139 C83.4391716,75.8861139 82.5948241,76.2257096 81.9722823,76.8302014 C81.3497405,77.4346933 81,78.2545614 81,79.1094435 L81,109.662779 C81,110.517662 81.3497384,111.337531 81.9722803,111.942024 C82.5948223,112.546517 83.4391706,112.886114 84.3195771,112.886114 L96.471057,112.886114 C97.3514635,112.886114 98.1958118,112.546517 98.8183538,111.942024 C99.4408958,111.337531 99.7906356,110.517662 99.7906341,109.662779 L99.7906341,88.6429814 L100,88.6429814 L100,84.678692 Z" id="Path" fill="#3F3D56"></path>
                <path d="M105,106.415857 C105,106.415857 100.636544,92.3969681 94.0913605,96.7104725 C87.5461768,101.023977 98.4548163,112.886114 98.4548163,112.886114 L105,106.415857 Z" id="Path" fill="#FFB8B8"></path>
                <path d="M75,95.8244701 C75,95.8244701 82.4505596,86.7628262 86.1758393,91.0271292 C89.9011191,95.2914322 79.7896454,104.886114 79.7896454,104.886114 L75,95.8244701 Z" id="Path" fill="#FFB8B8"></path>
                <path d="M55.8918919,77.9039337 C55.8918919,77.9039337 53.1891892,77.3648829 51.5675676,82.2163403 C49.9459459,87.0677977 44,105.395526 44,108.62983 C44,111.864135 46.1621622,124.801355 58.0540541,122.645152 C69.9459459,120.488949 84,105.395526 84,105.395526 L76.4324324,94.0754584 L60.2162162,103.778373 L55.8918919,77.9039337 Z" id="Path" fill="#2F2E41"></path>
                <polygon id="Path" fill="#000000" opacity="0.1" points="58.115415 91.5616453 60.3587614 102.886114 77 93.4381216 61.4323897 99.2118947 58 90.8861139"></polygon>
                <polygon id="Path" fill="#000000" opacity="0.1" points="106 103.171828 108 104.886114 109 96.8861139"></polygon>
                <path d="M55,123.886114 C55,123.886114 71.3233391,119.498263 79,109.886114 C79,109.886114 71.1161959,122.787874 55,123.886114 Z" id="Path" fill="#000000" opacity="0.1"></path>
                <path d="M96,113.886114 C96,113.886114 99.3595524,130.235397 108,130.702568 C108,130.702568 97.6295086,133.870299 96,113.886114 Z" id="Path" fill="#000000" opacity="0.1"></path>
                <path d="M113.284217,87.8861139 C113.284217,87.8861139 114.904612,88.985986 115.984876,93.9354108 C117.065139,98.8848355 124.086852,117.582662 121.386194,121.982151 C118.685535,126.38164 114.36448,136.280489 105.18224,129.681256 L96,112.633238 L105.18224,103.83426 L108.963163,106.583941 L113.284217,87.8861139 Z" id="Path" fill="#2F2E41"></path>
                <path d="M77.9214037,57.0778153 C77.9214037,57.0778153 68.7109437,42.0686761 78.5213447,41.2880372 C81.7951898,41.0578002 84.9919653,40.1819751 87.9294404,38.710488 C91.1813598,37.0466404 95.2747631,35.7819489 97.4530522,38.3432362 C98.403648,39.5144145 99.5118901,40.5467172 100.74582,41.4103754 C102.659289,42.6863194 104.873252,44.7547579 103.647291,46.9735553 L101.637457,50.6110604 L98.8236717,57.8861139 C99.4789306,54.7481853 99.4954092,52.1135122 97.8187522,50.8131405 C97.8187522,50.8131405 88.4642868,54.8158505 83.7499747,47.5797846 C78.4725894,43.5985182 76.7935752,56.129877 77.9214037,57.0778153 Z" id="Path" fill="#2F2E41"></path>
                <circle id="Oval" fill="#313130" cx="90.5" cy="86.3861139" r="2.5"></circle>
            </g>
        </g>
    </g>
</svg>