<svg width="52" height="51" viewBox="0 0 52 51" fill="none" xmlns="http://www.w3.org/2000/svg">
<path d="M0.319336 0V50.36H51.5694V0H0.319336ZM18.6093 7.75998C19.9268 7.99449 21.1652 8.55335 22.2126 9.38611C23.2601 10.2189 24.0838 11.2993 24.6093 12.53C22.2293 14.84 18.9993 21.04 18.9993 21.04L11.1593 16.49C13.3993 12.76 14.5993 9.38998 18.6093 7.75998ZM6.88934 26.7C7.72323 25.1983 8.92389 23.9322 10.3793 23.02L7.83932 20.36L17.2493 20.52L19.4793 31.42L16.7893 29.11C16.7893 29.11 9.78934 33.78 11.2893 39.61C9.47934 37.23 7.96934 33.34 6.88934 26.7ZM22.1993 44.38C17.9593 43.38 14.3793 43.3 11.5893 39.99C11.4086 38.665 11.5588 37.3158 12.0265 36.063C12.4941 34.8101 13.2647 33.6926 14.2693 32.81C17.2093 34.36 24.0993 35.52 24.0993 35.52L22.1993 44.38ZM27.3493 16.06C27.3493 16.06 25.0693 7.96 19.0593 7.59C21.8893 6.59 26.0593 6.36998 32.6993 7.38998C33.8725 8.65182 34.7083 10.1893 35.1294 11.86L38.4394 10.26L35.3794 19.16L24.3193 17.93L27.3493 16.06ZM37.0793 41.42C35.4273 41.8899 33.6833 41.9346 32.0094 41.55L31.9193 45.23L25.3893 38.47L31.5193 29.18L31.7893 32.71C31.7893 32.71 40.0393 34.36 43.0993 29.18C42.7193 32.16 41.0093 35.93 37.0793 41.42ZM43.1593 28.7C42.3479 29.7691 41.2832 30.6195 40.0612 31.1747C38.8393 31.7298 37.4983 31.9722 36.1593 31.88C35.1593 28.71 31.1593 23.01 31.1593 23.01L38.7693 18.09C41.0693 21.78 43.4793 24.38 43.1593 28.7Z" fill="black"/>
</svg>
