<?xml version="1.0" encoding="UTF-8"?>
<svg width="281px" height="225px" viewBox="0 0 281 225" version="1.1" xmlns="http://www.w3.org/2000/svg" xmlns:xlink="http://www.w3.org/1999/xlink">
    <title>001F8D1B-13B4-448F-850E-4AFD262BCF46</title>
    <g id="Mobile" stroke="none" stroke-width="1" fill="none" fill-rule="evenodd">
        <g id="FREE-EXPLORE---BECOME-A-SELLER-3" transform="translate(-47.000000, -142.000000)" fill-rule="nonzero">
            <g id="undraw_Timeline_re_aw6g" transform="translate(47.000000, 142.000000)">
                <path d="M280.994746,209.32143 C280.951527,214.38995 280.590634,219.450327 279.914313,224.471062 C279.890651,224.647382 279.86487,224.823702 279.841107,225 L233.700974,224.734781 C233.565502,224.559674 233.432158,224.38245 233.302967,224.203133 C232.872196,223.609653 232.468461,222.999301 232.097834,222.367903 C230.316428,219.326066 229.500884,215.764679 230.318142,213.307535 L230.332777,213.269354 C230.50919,212.731289 230.787181,212.234372 231.150787,211.807136 C233.014113,209.649382 236.781569,210.009069 240.200462,211.750732 C237.133943,208.297587 234.692196,203.940252 234.506665,200.050824 C234.324748,196.257103 236.253038,193.546983 238.344494,191.243849 C238.41312,191.167713 238.481735,191.093693 238.550349,191.019685 C238.58365,190.981609 238.618963,190.945661 238.652165,190.907589 C240.283949,189.152432 242.186325,187.422227 244.939896,187.631522 C247.959847,187.861474 251.308073,190.463733 253.655708,193.49607 C256.003357,196.526276 257.56342,199.968634 259.14472,203.328224 C260.728051,206.685686 262.44108,210.128935 264.981823,212.998678 C261.540561,208.520802 258.765996,203.425974 257.741076,198.47088 C256.716156,193.515787 257.61816,188.756743 260.685124,186.423078 C261.616228,185.736444 262.693648,185.289213 263.827228,185.118808 C263.959531,185.096187 264.093939,185.077822 264.230452,185.061582 C267.069605,184.729256 270.459473,185.739427 273.343648,188.154063 C276.519928,190.81275 278.722077,194.754146 279.817752,198.495726 C280.91335,202.237321 281.030107,205.839338 280.994746,209.32143 Z" id="Path" fill="#F2F2F2"></path>
                <path d="M251,225 L250.128126,224.99473 C249.851289,224.807548 249.573145,224.622555 249.293691,224.439752 C249.120699,224.321658 248.945689,224.207963 248.77059,224.092048 C245.878573,222.181838 242.968473,220.349555 240.040289,218.595198 C237.114768,216.839386 234.174535,215.16447 231.219593,213.570449 C231.057969,213.494351 230.969618,213.304314 231.009535,213.118626 C231.0127,213.10684 231.017607,213.095685 231.024065,213.085594 C231.065278,213.001916 231.157395,212.967127 231.29184,213.038615 C231.654283,213.235161 232.018822,213.431717 232.381242,213.632682 C235.344255,215.253988 238.294551,216.956208 241.232131,218.739341 C244.167686,220.521712 247.086515,222.382756 249.988618,224.322474 C250.049636,224.362595 250.110743,224.404927 250.171758,224.445048 C250.448497,224.630055 250.723252,224.815026 251,225 Z" id="Path" fill="#FFFFFF"></path>
                <path d="M262,225 L261.450929,224.996945 C261.327093,224.8244 261.205387,224.651853 261.081548,224.479293 C258.171949,220.416985 255.262959,216.354679 252.354579,212.292373 C247.591775,205.641749 242.830392,198.991133 238.070429,192.340525 C238.042212,192.304728 238.021232,192.263824 238.00865,192.220077 C237.967942,192.072829 238.076581,191.986466 238.215823,192.001739 C238.33458,192.018629 238.440284,192.085609 238.505937,192.185573 C241.176212,195.915245 243.845825,199.643529 246.514774,203.370424 C251.252783,209.987788 255.990121,216.604449 260.726787,223.220408 C261.028067,223.640369 261.329339,224.062387 261.630619,224.482345 C261.754458,224.654905 261.878294,224.827464 262,225 Z" id="Path" fill="#FFFFFF"></path>
                <path d="M273.981753,221.672283 C273.952668,222.618092 273.889086,223.548831 273.806067,224.470953 C273.78999,224.647306 273.77388,224.823655 273.757736,225 L273.159746,224.996712 C273.178034,224.820382 273.196322,224.644039 273.212396,224.467687 C273.338755,223.135518 273.428412,221.78828 273.440588,220.404469 C273.456491,216.567894 273.076781,212.739642 272.307297,208.978597 C271.489369,204.928969 270.314953,200.957146 268.79735,197.108109 C267.204526,193.048577 265.284121,189.121158 263.054549,185.363507 C263.012553,185.302261 262.993864,185.228382 263.001776,185.154894 C263.026447,184.987085 263.25337,184.937318 263.423015,185.097672 C263.456521,185.129136 263.485378,185.165073 263.508742,185.204433 C263.784593,185.671488 264.055411,186.139941 264.321197,186.60979 C266.468551,190.388298 268.30655,194.329369 269.817726,198.395546 C271.257117,202.257197 272.352006,206.235017 273.089969,210.283862 C273.7812,214.040081 274.080019,217.856122 273.981753,221.672283 L273.981753,221.672283 Z" id="Path" fill="#FFFFFF"></path>
                <path d="M189.99722,216.160715 C189.974336,218.694975 189.783275,221.225165 189.425225,223.735534 C189.412696,223.823694 189.399049,223.911849 189.386468,224 L164.959345,223.867391 C164.887622,223.779837 164.817032,223.691233 164.748635,223.601569 C164.52058,223.304828 164.306835,222.999654 164.110622,222.683952 C163.167513,221.163032 162.735766,219.382339 163.168427,218.153765 L163.176176,218.134675 C163.26957,217.865644 163.416741,217.617187 163.609239,217.403572 C164.595705,216.324694 166.590242,216.504539 168.400242,217.375369 C166.776793,215.648795 165.484096,213.470127 165.38588,211.525414 C165.289573,209.628548 166.310432,208.273491 167.417671,207.121926 C167.454004,207.083858 167.490327,207.046847 167.526653,207.009842 C167.544285,206.990805 167.562976,206.972846 167.580571,206.953794 C168.444458,206.076219 169.451596,205.211128 170.90937,205.315759 C172.508166,205.430737 174.280755,206.731868 175.523622,208.248035 C176.766495,209.76314 177.59241,211.484319 178.429569,213.16411 C179.267801,214.842847 180.1747,216.564467 181.519801,217.999337 C179.697954,215.760399 178.229067,213.212983 177.686462,210.735437 C177.143858,208.257891 177.621389,205.878364 179.245079,204.711532 C179.738017,204.368215 180.308416,204.144599 180.908546,204.059396 C180.978591,204.048087 181.049748,204.038904 181.122019,204.030791 C182.6251,203.864628 184.419738,204.369711 185.946652,205.577032 C187.581187,206.94113 188.772043,208.737722 189.374097,210.747865 C189.954125,212.618656 190.015936,214.419682 189.99722,216.160715 Z" id="Path" fill="#F2F2F2"></path>
                <path d="M174,225 L173.52047,224.997365 C173.368208,224.903771 173.215229,224.811276 173.06153,224.719879 C172.966384,224.660845 172.870138,224.603984 172.773816,224.546032 C171.183209,223.590924 169.582655,222.674781 167.972152,221.797602 C166.363119,220.919696 164.745994,220.082237 163.120777,219.285226 C163.031884,219.247176 162.983291,219.152157 163.005243,219.059312 C163.006987,219.05342 163.009686,219.047844 163.013237,219.042798 C163.035904,219.000957 163.08657,218.983564 163.160512,219.019307 C163.359855,219.117581 163.560352,219.215861 163.759682,219.316342 C165.389336,220.126995 167.011997,220.978106 168.627663,221.869676 C170.242215,222.760863 171.847569,223.691386 173.443725,224.661244 C173.477285,224.681304 173.510894,224.70247 173.544454,224.722532 C173.696674,224.815026 173.847799,224.907513 174,225 Z" id="Path" fill="#FFFFFF"></path>
                <path d="M180,225 L179.725463,224.998336 C179.663545,224.904218 179.602697,224.810102 179.540773,224.715977 C178.085974,222.500177 176.631479,220.284373 175.17729,218.068567 C172.795886,214.440955 170.415193,210.813347 168.035214,207.185742 C168.021106,207.166216 168.010617,207.143905 168.004325,207.120043 C167.983971,207.039724 168.038289,206.992618 168.107912,207.000949 C168.167291,207.010161 168.220144,207.046695 168.252972,207.101222 C169.588111,209.135588 170.922917,211.169198 172.257389,213.202051 C174.626394,216.811518 176.995062,220.420607 179.363395,224.029315 C179.514037,224.258385 179.664671,224.488577 179.81531,224.717644 C179.877229,224.811769 179.939147,224.905891 180,225 Z" id="Path" fill="#FFFFFF"></path>
                <path d="M185.991707,222.336139 C185.978486,222.809045 185.949589,223.274416 185.91185,223.735475 C185.904542,223.823651 185.897219,223.911826 185.88988,224 L185.618066,223.998355 C185.62638,223.910189 185.634692,223.822018 185.642001,223.733842 C185.699436,223.067757 185.740189,222.394138 185.745722,221.702233 C185.752951,219.783948 185.580356,217.869824 185.230591,215.989304 C184.858804,213.96449 184.324978,211.978577 183.635158,210.054058 C182.91115,208.02429 182.038242,206.060578 181.024801,204.18175 C181.00571,204.151128 180.997212,204.114189 181.000806,204.077445 C181.012009,203.993541 181.115166,203.968658 181.19228,204.048841 C181.20751,204.064574 181.220627,204.082542 181.231248,204.102221 C181.356633,204.335752 181.479732,204.569977 181.600545,204.804899 C182.576611,206.694154 183.412061,208.664691 184.098954,210.69778 C184.753225,212.628607 185.250903,214.617519 185.586339,216.641943 C185.900539,218.520048 186.03637,220.428063 185.991707,222.336139 Z" id="Path" fill="#FFFFFF"></path>
                <path d="M50.2540873,122 L4.7459188,122 C2.12605833,121.997023 0.00298546386,119.879095 0,117.265581 L0,62.7344191 C0.00298546386,60.1209051 2.12605833,58.0029766 4.7459188,58 L50.2540873,58 C52.8739454,58.0029799 54.9970145,60.1209074 55,62.7344191 L55,117.265581 C54.9970145,119.879093 52.8739454,121.99702 50.2540873,122 Z M4.7459188,58.6041744 C2.46037611,58.6067448 0.608219832,60.454413 0.605641495,62.7344191 L0.605641495,117.265581 C0.608219832,119.545587 2.46037611,121.393255 4.7459188,121.395826 L50.2540873,121.395826 C52.5396283,121.393254 54.3917818,119.545585 54.3943585,117.265581 L54.3943585,62.7344191 C54.3917818,60.4544135 52.5396264,58.6067448 50.2540842,58.6041744 L4.7459188,58.6041744 Z" id="Shape" fill="#3F3D56"></path>
                <path d="M38.1945817,62 L16.8054183,62 C14.7047238,61.9977556 13.0023639,60.3814399 13,58.386923 L13,57.613077 C13.0023639,55.6185601 14.7047238,54.0022444 16.8054183,54 L38.1945817,54 C40.2952769,54.0022428 41.9976378,55.6185594 42,57.613077 L42,58.386923 C41.9976378,60.3814406 40.2952769,61.9977572 38.1945817,62 L38.1945817,62 Z" id="Path" fill="#CCCCCC"></path>
                <path d="M47.8505029,92 L6.15460012,92 C5.38514,92.0008464 4.6737389,91.6198344 4.28874524,91.0006844 C3.90375159,90.3815345 3.90375159,89.6184655 4.28874524,88.9993156 C4.6737389,88.3801656 5.38514,87.9991536 6.15460012,88 L47.8505029,88 C49.0380494,88.0013099 50,88.8963564 50,90 C50,91.1036436 49.0380494,91.9986901 47.8505029,92 L47.8505029,92 Z" id="Path" fill="#313130"></path>
                <path d="M47.8505029,102 L6.15460012,102 C5.38514,102.000846 4.6737389,101.619834 4.28874524,101.000684 C3.90375159,100.381535 3.90375159,99.6184655 4.28874524,98.9993156 C4.6737389,98.3801656 5.38514,97.9991536 6.15460012,98 L47.8505029,98 C49.0380494,98.0013099 50,98.8963564 50,100 C50,101.103644 49.0380494,101.99869 47.8505029,102 L47.8505029,102 Z" id="Path" fill="#313130"></path>
                <path d="M37.8160655,83 L18.1839345,83 C17.4039984,83.0008464 16.6829117,82.6198344 16.2926764,82.0006844 C15.9024412,81.3815345 15.9024412,80.6184655 16.2926764,79.9993156 C16.6829117,79.3801656 17.4039984,78.9991536 18.1839345,79 L37.8160655,79 C38.5960016,78.9991536 39.3170883,79.3801656 39.7073236,79.9993156 C40.0975588,80.6184655 40.0975588,81.3815345 39.7073236,82.0006844 C39.3170883,82.6198344 38.5960016,83.0008464 37.8160655,83 L37.8160655,83 Z" id="Path" fill="#313130"></path>
                <path d="M146.254078,67 L100.745919,67 C98.1260522,66.9970351 96.0029721,64.8791042 96,62.2655919 L96,7.73440811 C96.0029721,5.12089581 98.1260522,3.00296493 100.745919,3 L146.254078,3 C148.873946,3.00296327 150.997028,5.12089464 151,7.73440811 L151,62.2655919 C150.997028,64.8791054 148.873946,66.9970367 146.254078,67 Z M100.745919,3.60417297 C98.4603695,3.6067301 96.6082052,5.45440227 96.6056419,7.73440811 L96.6056419,62.2655919 C96.6082052,64.5455977 98.4603695,66.3932699 100.745919,66.395827 L146.254078,66.395827 C148.539629,66.3932716 150.391795,64.5455989 150.394358,62.2655919 L150.394358,7.73440811 C150.391795,5.45440109 148.539629,3.60672843 146.254078,3.60417297 L100.745919,3.60417297 Z" id="Shape" fill="#3F3D56"></path>
                <path d="M134.194577,8 L112.805423,8 C110.704726,7.99775557 109.002364,6.38144049 109,4.38692428 L109,3.61307572 C109.002362,1.61855885 110.704725,0.00224283643 112.805423,0 L134.194577,0 C136.295275,0.00224283643 137.997638,1.61855885 138,3.61307572 L138,4.38692428 C137.997636,6.38144049 136.295274,7.99775557 134.194577,8 L134.194577,8 Z" id="Path" fill="#CCCCCC"></path>
                <path d="M144.84564,38 L103.15436,38 C102.384986,38.0008464 101.673664,37.6198344 101.288713,37.0006844 C100.903762,36.3815345 100.903762,35.6184655 101.288713,34.9993156 C101.673664,34.3801656 102.384986,33.9991536 103.15436,34 L144.84564,34 C145.615014,33.9991536 146.326336,34.3801656 146.711287,34.9993156 C147.096238,35.6184655 147.096238,36.3815345 146.711287,37.0006844 C146.326336,37.6198344 145.615014,38.0008464 144.84564,38 L144.84564,38 Z" id="Path" fill="#313130"></path>
                <path d="M144.847955,47 L103.152045,47 C102.383193,47 101.672745,46.6188022 101.288319,46 C100.903894,45.3811979 100.903894,44.6188021 101.288319,44 C101.672745,43.3811978 102.383193,43 103.152045,43 L144.847955,43 C146.036497,43 147,43.8954305 147,45 C147,46.1045695 146.036497,47 144.847955,47 Z" id="Path" fill="#313130"></path>
                <path d="M133.818418,29 L114.18417,29 C113.40415,29.0008464 112.682985,28.6198344 112.292708,28.0006844 C111.902431,27.3815345 111.902431,26.6184655 112.292708,25.9993156 C112.682985,25.3801656 113.40415,24.9991536 114.18417,25 L133.818418,25 C135.023273,25 136,25.8954313 136,27 C136,28.1045687 135.023273,29 133.818418,29 L133.818418,29 Z" id="Path" fill="#313130"></path>
                <path d="M239.546049,159.720134 L199.907689,181.424292 C197.624331,182.671181 194.767295,181.825766 193.521091,179.534457 L167.573002,131.696636 C166.331974,129.402491 167.173414,126.531957 169.453952,125.279866 L209.092309,103.575708 C211.375667,102.328819 214.232703,103.174234 215.478907,105.465543 L241.426999,153.303367 C242.668026,155.597511 241.826585,158.468043 239.546049,159.720134 L239.546049,159.720134 Z M169.741442,125.809888 C167.751898,126.902176 167.017828,129.406425 168.100526,131.407806 L194.048615,179.245631 C195.135769,181.244571 197.628243,181.982108 199.620214,180.894298 L239.258572,159.19014 C241.248116,158.097851 241.982185,155.593602 240.899487,153.592221 L214.951384,105.75439 C213.86423,103.75545 211.371756,103.017913 209.379784,104.105723 L169.741442,125.809888 Z" id="Shape" fill="#3F3D56"></path>
                <path d="M200.0742,113.047971 L181.840342,123.525841 C180.048438,124.552784 177.806312,123.856509 176.828343,121.969403 L176.449686,121.236781 C175.475746,119.347361 176.136085,116.983218 177.925793,115.952028 L196.159651,105.474158 C197.951554,104.447217 200.193679,105.143492 201.171648,107.030595 L201.550322,107.763227 C202.524252,109.652649 201.863907,112.016786 200.0742,113.047971 Z" id="Path" fill="#CCCCCC"></path>
                <path d="M222.90251,134.999231 L187.110604,154.740385 C186.450618,155.104402 185.648879,155.084423 185.007395,154.687973 C184.365911,154.291522 183.982138,153.578832 184.00064,152.818364 C184.019142,152.057897 184.437108,151.365186 185.097094,151.001168 L220.889,131.260018 C221.90925,130.697296 223.187066,131.078172 223.743081,132.110728 C224.299097,133.143284 223.92276,134.436512 222.90251,134.999234 L222.90251,134.999231 Z" id="Path" fill="#CCCCCC"></path>
                <path d="M227.90251,141.999231 L192.110604,161.740385 C191.450618,162.104402 190.648879,162.084423 190.007395,161.687973 C189.365911,161.291523 188.982138,160.578832 189.00064,159.818365 C189.019142,159.057897 189.437108,158.365186 190.097094,158.001169 L225.889,138.260018 C226.90925,137.697296 228.187066,138.078172 228.743081,139.110728 C229.299097,140.143284 228.92276,141.436512 227.90251,141.999234 L227.90251,141.999231 Z" id="Path" fill="#CCCCCC"></path>
                <path d="M208.894144,131.871223 L192.135446,140.74867 C191.470189,141.10107 190.662048,141.081729 190.01544,140.69793 C189.368833,140.314132 188.981995,139.624184 189.000645,138.887985 C189.019295,138.151786 189.440599,137.48118 190.105856,137.12878 L206.864554,128.25133 C207.529811,127.89893 208.337952,127.918271 208.98456,128.30207 C209.631167,128.685868 210.018005,129.375816 209.999355,130.112015 C209.980705,130.848214 209.559401,131.51882 208.894144,131.87122 L208.894144,131.871223 Z" id="Path" fill="#CCCCCC"></path>
                <polygon id="Rectangle" fill="#3F3D56" transform="translate(73.895870, 55.870278) rotate(-30.139630) translate(-73.895870, -55.870278) " points="61.6143364 55.5726893 86.1776373 55.5632021 86.1774038 56.1678659 61.614103 56.1773532"></polygon>
                <polygon id="Path" fill="#3F3D56" points="85.0130873 53 88 48 82 48.013587"></polygon>
                <path d="M146.69844,131 C146.650615,131 146.603474,130.988485 146.560953,130.966292 L65.1631342,88.5769965 C65.0154959,88.4997016 64.9574362,88.3158378 65.033349,88.1659921 C65.1092617,88.0161465 65.2904958,87.9568742 65.4384749,88.0334964 L146.836363,130.422792 C146.960145,130.487279 147.024266,130.629311 146.9915,130.766432 C146.958734,130.903553 146.837606,131 146.698437,131 L146.69844,131 Z" id="Path" fill="#3F3D56"></path>
                <polygon id="Path" fill="#3F3D56" points="145 132 151 131.724085 147.745319 127"></polygon>
                <path d="M231.448103,165.647427 C230.621605,165.218314 230.019734,164.429289 229.804441,163.492665 C229.589148,162.556041 229.782549,161.56803 230.332603,160.794485 L228,137 L233.040974,137 L234.894745,160.234103 C236.105612,161.307911 236.355323,163.156914 235.475992,164.538 C234.596661,165.919086 232.866231,166.395715 231.448097,165.647443 L231.448103,165.647427 Z" id="Path" fill="#A0616A"></path>
                <circle id="Oval" fill="#A0616A" cx="227.5" cy="116.5" r="7.5"></circle>
                <path d="M225.009866,150.967906 L214.108804,148.527897 C213.519931,148.394905 213.089991,147.87553 213.057866,147.258342 C212.931971,144.765049 212.841507,138.315116 214.715259,132.293826 C215.446403,129.961495 217.067127,128.031623 219.208487,126.943531 C221.349846,125.855438 223.829622,125.701717 226.08331,126.51736 L226.08331,126.51736 C228.464176,127.374822 230.374718,129.233225 231.334656,131.625394 C232.294594,134.017564 232.212629,136.715985 231.109366,139.042313 C228.691956,144.130403 227.169459,147.814974 226.584275,149.994226 C226.395526,150.696233 225.703768,151.124045 225.009866,150.967906 L225.009866,150.967906 Z" id="Path" fill="#313130"></path>
                <polygon id="Path" fill="#A0616A" points="214.999447 221 211.611584 220.999704 210 207 215 207.000296"></polygon>
                <path d="M207.636364,219 L215,219 L215,224 L203,224 L203,224 C203,221.238576 205.075771,219 207.636364,219 Z" id="Path" fill="#2F2E41"></path>
                <polygon id="Path" fill="#A0616A" points="252 216.253585 248.663492 218 240 206.577928 244.924478 204"></polygon>
                <path d="M246.387382,217.509462 L253.532865,217.506779 L253.531175,222.007922 L241.886691,222.012295 L241.886691,222.012295 C241.887625,219.526382 243.902653,217.510395 246.387382,217.509462 Z" id="Path" fill="#2F2E41" transform="translate(247.709778, 219.759537) rotate(-28.800960) translate(-247.709778, -219.759537) "></path>
                <path d="M214.301107,212.996177 L208.575138,212.558702 C207.913565,212.509786 207.383831,211.994822 207.320937,211.339469 C206.504918,202.893057 202.924646,160.090917 212.607985,146.912819 L212.635093,146.876069 L212.678349,146.860194 C212.765012,146.828737 221.400866,143.772869 226.355566,149.373038 C226.671998,149.735175 226.771921,150.236333 226.618299,150.690759 L226.429274,151.253481 C226.319773,151.577206 226.375894,151.93356 226.579708,152.208696 C227.954726,154.053285 232.582633,161.157561 234.401545,175.127703 C234.413076,175.216707 234.436128,175.303863 234.470132,175.387014 L247.89926,208.123357 C248.037782,208.461046 248.033284,208.839887 247.886782,209.174243 C247.740279,209.508599 247.464143,209.770238 247.120794,209.900015 L242.895224,211.497628 C242.259206,211.734537 241.544224,211.474152 241.213633,210.885219 L221.827631,175.983253 C221.66927,175.698275 221.344274,175.546574 221.022072,175.607236 C220.69987,175.667898 220.453452,175.927181 220.411282,176.249913 L215.759675,211.819577 C215.671514,212.494279 215.092708,213 214.407099,213 C214.371991,213 214.336661,212.998823 214.301107,212.996177 Z" id="Path" fill="#2F2E41"></path>
                <path d="M198.300911,125.415625 C198.338245,125.576531 198.362581,125.740072 198.373693,125.904729 L211.438869,133.294969 L214.614544,131.502446 L218,135.848046 L212.692614,139.557045 C211.811884,140.172532 210.622516,140.144122 209.773398,139.487315 L196.300954,129.066115 C195.056062,129.517944 193.655911,129.167341 192.784423,128.185563 C191.912936,127.203785 191.751966,125.7957 192.38014,124.649105 C193.008314,123.50251 194.294553,122.856666 195.610575,123.027043 C196.926597,123.197421 197.997788,124.148467 198.300911,125.415631 L198.300911,125.415625 Z" id="Path" fill="#A0616A"></path>
                <path d="M210.028288,131.98961 C210.108991,131.605433 210.358003,131.27449 210.710303,131.083193 L216.790353,127.780302 C218.472289,126.519314 220.887356,126.818244 222.190105,128.448667 C223.492855,130.079091 223.192039,132.4262 221.517524,133.696476 L216.669834,138.586987 C216.389867,138.869394 215.997236,139.019423 215.594254,138.997979 C215.191273,138.976535 214.817857,138.785743 214.571312,138.475319 L210.289172,133.083561 C210.042431,132.773196 209.947176,132.373769 210.028288,131.98961 Z" id="Path" fill="#313130"></path>
                <path d="M226.718301,142.687207 C226.434509,142.430463 226.264773,142.048073 226.253412,141.639881 L226.056134,134.594569 C225.714553,132.478998 226.967044,130.453006 228.856491,130.064797 C230.745938,129.676587 232.559819,131.072556 232.912021,133.185946 L234.934038,139.885751 C235.050786,140.272669 235.011262,140.697294 234.825763,141.048977 C234.640264,141.40066 234.327166,141.644566 233.968055,141.717136 L227.730719,142.977538 C227.371571,143.050324 227.001911,142.944316 226.718301,142.687207 Z" id="Path" fill="#313130"></path>
                <path d="M224.642077,114.236859 C222.759638,115.553727 220.287951,116.907391 218.36533,115.505033 C217.102901,114.584221 216.70515,112.879088 217.217087,111.382726 C218.137703,108.691825 220.667071,107.507167 223.085784,106.599099 C226.230108,105.418629 229.653817,104.479484 232.899821,105.324893 C236.145825,106.170302 239.014555,109.382596 238.42859,112.753628 C237.957371,115.464542 235.455553,117.720232 235.810707,120.449564 C236.168149,123.196419 239.190423,124.642289 241.858612,125.133219 C244.5268,125.624148 247.512564,125.781886 249.430086,127.740798 C251.876235,130.239745 251.265391,134.706343 248.963662,137.344736 C246.661932,139.98313 243.188507,141.17909 239.822753,141.992117 C235.363335,143.069328 230.540125,143.635448 226.304804,141.847708 C222.069482,140.059969 218.773614,135.247585 220.000517,130.734969 C220.518759,128.828848 221.739583,127.217916 222.919443,125.64962 C224.099303,124.081324 225.294025,122.441352 225.744087,120.51722 C226.11914,118.913777 225.841547,117.052104 224.801241,115.849339 C224.41305,115.417436 224.341466,114.779014 224.623992,114.268543 L224.642077,114.236859 Z" id="Path" fill="#2F2E41"></path>
                <path d="M279.697128,225 L164.302872,225 C164.1356,225 164,224.776142 164,224.5 C164,224.223858 164.1356,224 164.302872,224 L279.697128,224 C279.8644,224 280,224.223858 280,224.5 C280,224.776142 279.8644,225 279.697128,225 Z" id="Path" fill="#3F3D56"></path>
            </g>
        </g>
    </g>
</svg>