<svg width="50" height="50" viewBox="0 0 50 50" fill="none" xmlns="http://www.w3.org/2000/svg">
<path fill-rule="evenodd" clip-rule="evenodd" d="M24.9998 4.16699C13.4998 4.16699 4.1665 13.5003 4.1665 25.0003C4.1665 36.5003 13.4998 45.8337 24.9998 45.8337C36.4998 45.8337 45.8332 36.5003 45.8332 25.0003C45.8332 13.5003 36.4998 4.16699 24.9998 4.16699ZM19.354 33.9378L11.8748 26.4587C11.0623 25.6462 11.0623 24.3337 11.8748 23.5212C12.6873 22.7087 13.9998 22.7087 14.8123 23.5212L20.8332 29.5212L35.1665 15.1878C35.979 14.3753 37.2915 14.3753 38.104 15.1878C38.9165 16.0003 38.9165 17.3128 38.104 18.1253L22.2915 33.9378C21.4998 34.7503 20.1665 34.7503 19.354 33.9378Z" fill="#48C10F"/>
</svg>
