<?xml version="1.0" encoding="UTF-8"?>
<svg width="300px" height="223px" viewBox="0 0 300 223" version="1.1" xmlns="http://www.w3.org/2000/svg" xmlns:xlink="http://www.w3.org/1999/xlink">
    <title>undraw_deliveries_131a</title>
    <g id="Mobile" stroke="none" stroke-width="1" fill="none" fill-rule="evenodd">
        <g id="FREE-EXPLORE---RETURN-ORDER-5" transform="translate(-38.000000, -164.000000)">
            <g id="undraw_deliveries_131a" transform="translate(38.000000, 164.000000)">
                <path d="M215.944603,132.088985 L218.304511,130.632457 C218.528813,130.490279 218.749956,130.338623 218.977417,130.196446 C208.550091,128.403038 200.773367,119.597823 200.281382,109.027813 C200.107953,105.499204 200.774939,101.97985 202.227438,98.7594468 C204.965258,92.6598325 210.265117,88.0872204 216.699647,86.273113 L216.582757,95.5620354 L221.684835,85.4516437 C221.705766,85.4483322 221.727087,85.4483322 221.748019,85.4516437 C227.719132,85.1728107 233.556421,87.2777612 237.975639,91.3033906 C242.394856,95.3290199 245.033968,100.945538 245.312351,106.917269 C245.331306,107.346961 245.312351,107.770333 245.312351,108.181068 C247.087811,106.15583 248.698993,103.985256 249.766796,101.606154 C251.927676,96.7879204 251.978223,91.3314684 251.79815,84.6996833 C251.456958,71.5561741 250.891465,58.3147204 250.152217,45.1111808 C239.147427,43.8888792 230.662814,34.8488817 230.138804,23.7877327 C230.107212,23.0958028 230.116689,22.4165109 230.138804,21.7403784 C230.138804,21.572925 230.138804,21.4023122 230.164077,21.2348588 C230.208306,20.5808429 230.26833,19.9331459 230.369424,19.2949274 C230.369424,19.1875045 230.407334,19.0864006 230.426289,18.9789777 C230.518959,18.4376504 230.62953,17.9026422 230.758003,17.373953 C230.80855,17.1780641 230.855938,16.9790158 230.909644,16.783127 C231.067603,16.2080984 231.225562,15.6425484 231.443546,15.0833174 C231.509888,14.896907 231.588868,14.7168157 231.65837,14.5335648 C231.819488,14.1228301 231.993243,13.7184145 232.176476,13.3171583 C232.27441,13.105472 232.369186,12.8969452 232.473439,12.6852588 C232.498712,12.6315474 232.520826,12.5778359 232.549259,12.5241245 L232.549259,12.5241245 C237.457422,2.82860189 248.587749,-1.97960667 259.010561,1.09306282 L258.85892,13.1812999 L263.91361,3.1972881 C272.423636,8.06890044 276.775985,17.9100332 274.654826,27.4843447 L274.680099,27.4843447 C274.645348,27.6454791 274.594801,27.8002944 274.556891,27.9582693 C274.487389,28.2552621 274.411569,28.5490953 274.32943,28.8429286 C274.222018,29.2189088 274.101969,29.58857 273.978761,29.9582312 C273.883986,30.2331074 273.792369,30.5143027 273.688116,30.7860195 C273.536476,31.1841162 273.372198,31.5727343 273.188966,31.9613525 C273.087872,32.1888363 272.996256,32.4194797 272.873048,32.643804 C272.584509,33.2251515 272.268591,33.793861 271.925293,34.3499326 C271.808403,34.5426619 271.675718,34.7259128 271.55251,34.9186421 C271.312412,35.2914628 271.069155,35.661124 270.806943,36.0213067 C270.645825,36.2424715 270.47207,36.4541578 270.301474,36.6721632 C270.055058,36.9881129 269.802323,37.3040627 269.540111,37.5915769 C269.35372,37.8032632 269.164169,38.0117901 268.9683,38.2234764 C268.693451,38.5141502 268.409125,38.7953454 268.115321,39.0733812 C267.922611,39.2597916 267.726741,39.4462019 267.524554,39.6231338 C267.19284,39.916967 266.84533,40.1981623 266.494661,40.4730386 C266.317747,40.6120564 266.147151,40.7573933 265.963918,40.8900922 C265.43107,41.2860826 264.880319,41.6578501 264.311667,42.0053948 C264.204254,42.0685847 264.090524,42.1222962 263.995748,42.1854862 C263.521871,42.4666814 263.047994,42.7289197 262.539366,42.9753605 C262.327701,43.0796239 262.106558,43.1712493 261.888575,43.2691938 C261.48104,43.4524446 261.070347,43.6293765 260.650176,43.7905108 C260.406919,43.8821363 260.157343,43.9674427 259.907768,44.0527491 C259.493915,44.1949265 259.073744,44.3244659 258.644096,44.4413673 C258.391361,44.5108762 258.141786,44.5803852 257.885892,44.6404156 C257.424652,44.7509981 256.953934,44.8426235 256.480056,44.9216109 C256.448465,44.9216109 256.420032,44.9216109 256.38844,44.9405679 C256.700146,50.5097087 256.977101,56.0820089 257.219305,61.6574687 C259.935118,56.0816945 264.829366,51.8723834 270.748366,50.0217632 C276.667367,48.171143 283.087427,48.8429499 288.495198,51.8788242 L284.511471,62.7948878 L292.706387,54.9245797 C297.093164,58.9458393 299.70623,64.5429065 299.972504,70.488264 C300.076753,72.5743722 299.884227,74.6647155 299.400692,76.6966764 C297.294152,85.694451 289.907304,92.4933918 280.766843,93.8474892 C271.626381,95.2015865 262.58595,90.8362354 257.961712,82.8355798 C257.961712,83.4011299 258.002782,83.9698394 258.018578,84.5353895 C258.167059,90.3867787 258.353451,97.6662607 255.437527,104.168506 C253.463038,108.576005 250.281743,112.155716 247.138358,115.362606 C245.094367,117.451033 242.974557,119.469952 240.80104,121.425681 C238.663965,124.29563 235.874366,126.615475 232.662989,128.193325 C229.093115,130.944194 225.396873,133.520237 221.574264,135.921455 L219.252265,137.419057 C217.107181,138.749206 214.908391,140.114108 212.750671,141.526404 C213.129772,141.48849 213.505715,141.447416 213.891135,141.431619 C223.69133,140.972394 232.663574,146.903814 236.081224,156.101165 L221.997594,167.566981 L237.477582,163.974633 C237.468985,171.722223 233.483945,178.922889 226.924041,183.044087 C220.364136,187.165284 212.148056,187.629854 205.165477,184.274404 C205.512986,184.710414 205.863656,185.143266 206.211165,185.576117 C206.903026,186.438659 207.591728,187.294883 208.264633,188.144788 C217.426259,199.749622 219.978877,210.769949 215.439134,219.171053 L209.923203,216.188487 C214.346057,208.011708 207.711777,197.547452 203.342629,192.03097 C202.68236,191.196863 202.006295,190.356436 201.323912,189.503372 C195.469949,182.236528 188.835669,173.983921 189.003106,163.870369 C189.240044,148.641592 204.053445,139.456933 215.944603,132.088985 Z" id="Path" fill="#F2F2F2" fill-rule="nonzero"></path>
                <ellipse id="Oval" fill="#3F3D56" fill-rule="nonzero" cx="144" cy="215.671053" rx="144" ry="6.5"></ellipse>
                <path d="M259.921551,213.171053 C260.841271,211.445204 259.798922,209.33096 258.609417,207.789912 C257.419913,206.248863 255.969821,204.6577 256.000478,202.687538 C256.043398,199.868547 258.971174,198.205342 261.313394,196.711277 C263.047887,195.601411 264.648037,194.286172 266.080609,192.792879 C266.681883,192.218289 267.179025,191.539646 267.549096,190.788263 C268.030416,189.685725 268.018153,188.43284 267.987496,187.223806 C267.885305,183.202045 267.691141,179.184461 267.405006,175.171053" id="Path" stroke="#3F3D56" stroke-width="4"></path>
                <path d="M272,174.464776 C271.927173,172.93384 271.081734,171.544738 269.755451,170.776866 L268.748611,172.771544 L268.777469,170.359972 C267.380005,169.94124 265.86624,170.227767 264.718423,171.128273 C263.570607,172.028778 262.931897,173.430948 263.005773,174.888084 C263.081381,176.492075 264.006862,177.933882 265.433597,178.670391 C266.860333,179.4069 268.571567,179.326218 269.922695,178.458737 C271.273823,177.591256 272.059575,176.068767 271.983968,174.464776 L272,174.464776 Z" id="Path" fill="#57B793" fill-rule="nonzero"></path>
                <path d="M264.501744,204.730444 C263.52813,206.621374 261.363298,207.572506 259.311693,207.010724 C257.260088,206.448942 255.882065,204.527686 256.007967,202.404631 C256.133869,200.281577 257.72931,198.536592 259.832937,198.22114 C261.936564,197.905687 263.973814,199.105925 264.717119,201.098637 L261.901172,203.390211 L265,202.670277 C265.000361,203.386871 264.829537,204.093188 264.501744,204.730444 L264.501744,204.730444 Z" id="Path" fill="#57B793" fill-rule="nonzero"></path>
                <path d="M262.712242,196.165853 C261.518247,196.223257 260.35053,195.803489 259.467304,194.999373 C258.584078,194.195256 258.058109,193.073038 258.0057,191.88087 C257.969904,191.177075 258.103091,190.47493 258.394167,189.832924 C258.940271,188.61592 259.998305,187.702887 261.283585,187.339494 L261.261112,189.195144 L262.282039,187.176042 L262.282039,187.176042 C264.768799,187.060106 266.878864,188.978558 266.995002,191.461025 C267.111139,193.943493 265.18937,196.049916 262.70261,196.165853 L262.712242,196.165853 Z" id="Path" fill="#57B793" fill-rule="nonzero"></path>
                <path d="M272.708435,189.165969 C270.227789,189.282995 268.122025,187.365496 268.005081,184.883114 C267.888136,182.400732 269.804295,180.293495 272.284941,180.176468 C273.126965,180.134924 273.96351,180.333074 274.697576,180.747943 L273.90192,182.931108 L275.538148,181.357945 C276.416176,182.161028 276.940007,183.279855 276.994713,184.468955 C277.015153,184.885435 276.976263,185.302706 276.879214,185.708221 C276.417846,187.664313 274.714863,189.076156 272.708435,189.165969 L272.708435,189.165969 Z" id="Path" fill="#57B793" fill-rule="nonzero"></path>
                <path d="M271.481726,175.994095 C270.425621,176.101868 269.398852,176.40423 268.339488,176.464103 C267.280123,176.523977 266.116452,176.29047 265.444978,175.533068 C265.083164,175.125927 264.903887,174.611014 264.597486,174.167949 C264.308882,173.753922 263.913702,173.411543 263.446853,173.171053 C262.693819,174.616741 262.904342,176.330257 263.98921,177.585478 C265.074079,178.840699 266.843344,179.417849 268.547258,179.072353 C270.251172,178.726858 271.591398,177.51921 272,175.961165 C271.823982,175.967152 271.651225,175.979127 271.481726,175.994095 Z" id="Path" fill="#000000" fill-rule="nonzero" opacity="0.1"></path>
                <path d="M272.782796,189.165644 C271.181753,189.240529 269.656006,188.53358 268.765995,187.304475 C267.875985,186.075371 267.752931,184.505326 268.442035,183.171053 C268.804272,183.396516 269.115658,183.684575 269.35896,184.019287 C269.68411,184.471879 269.879201,184.993409 270.262878,185.410033 C270.971707,186.180338 272.18777,186.432111 273.290031,186.384154 C274.392292,186.336197 275.452283,186.051454 276.541538,185.958538 C276.691107,185.958538 276.847179,185.934559 277,185.931562 C276.535915,187.757016 274.81446,189.077163 272.782796,189.165644 L272.782796,189.165644 Z" id="Path" fill="#000000" fill-rule="nonzero" opacity="0.1"></path>
                <path d="M261.812772,196.16613 C260.593305,196.220472 259.400677,195.823098 258.498608,195.06188 C257.596539,194.300662 257.059348,193.238312 257.005822,192.109744 C256.969262,191.443496 257.105291,190.778808 257.402576,190.171053 C257.784187,190.401979 258.117458,190.694929 258.386263,191.035727 C258.743669,191.502955 258.966638,192.039964 259.36995,192.470784 C260.147062,193.271746 261.452087,193.553903 262.629233,193.526597 C263.806378,193.499292 264.865481,193.24444 266,193.165558 C265.426334,194.881771 263.752114,196.081519 261.812772,196.16613 Z" id="Path" fill="#000000" fill-rule="nonzero" opacity="0.1"></path>
                <path d="M264,204.65923 C263.052971,206.802635 260.576911,207.759352 258.469566,206.796118 C256.36222,205.832885 255.421598,203.314457 256.368627,201.171053 C256.7122,201.403304 257.021479,201.684171 257.287135,202.005182 C257.683764,202.499593 257.946195,203.057702 258.408431,203.521781 C259.264314,204.37411 260.645059,204.73506 261.873713,204.759326 C262.583798,204.7688 263.29381,204.735376 264,204.65923 L264,204.65923 Z" id="Path" fill="#000000" fill-rule="nonzero" opacity="0.1"></path>
                <path d="M253,211.174008 C253,211.174008 256.491008,211.060297 257.544302,210.264316 C258.597596,209.468336 262.905379,208.518511 263.17974,209.796093 C263.454101,211.073675 268.430443,216.150558 264.48532,216.170625 C260.540198,216.190691 255.321031,215.501734 254.270891,214.832842 C253.22075,214.163951 253,211.174008 253,211.174008 Z" id="Path" fill="#656380" fill-rule="nonzero"></path>
                <path d="M264.566003,215.720352 C260.620178,215.75368 255.392749,215.053788 254.341581,214.387224 C253.542946,213.87397 253.220966,212.024255 253.116796,211.171053 L253,211.171053 C253,211.171053 253.220966,214.147261 254.262664,214.837154 C255.304362,215.527048 260.538105,216.196945 264.487087,216.170282 C265.626641,216.170282 266.021224,215.73035 265.999127,215.097114 C265.850764,215.473723 265.415145,215.713686 264.566003,215.720352 Z" id="Path" fill="#000000" fill-rule="nonzero" opacity="0.2"></path>
                <path d="M61.1933306,203.171053 C58.9109541,198.944923 61.5077075,193.769173 64.4754257,190.002132 C67.4431439,186.235091 71.0773412,182.317117 70.998747,177.515555 C70.8855713,170.61665 63.5668764,166.544599 57.7194655,162.887613 C53.3804188,160.173589 49.3778017,156.955401 45.7951486,153.300211 C44.3584461,151.831757 42.9657563,150.265825 42.1295136,148.391738 C40.9223062,145.693808 40.9537439,142.627977 41.0323382,139.672202 C41.2838397,129.819619 41.770076,119.985903 42.4910471,110.171053" id="Path" stroke="#3F3D56" stroke-width="4"></path>
                <path d="M31.0121904,109.645706 C31.1910822,105.906838 33.2597698,102.515759 36.50252,100.645728 L38.9648107,105.515359 L38.8908777,99.6203734 C43.4807945,98.2679559 48.4185464,100.037733 51.1041309,103.997818 C53.7897154,107.957904 53.6069975,113.199762 50.6521883,116.963262 C47.697379,120.726762 42.6483801,122.14847 38.1637715,120.479777 C33.6791629,118.811084 30.7878176,114.434826 31.0121904,109.655349 L31.0121904,109.645706 Z" id="Path" fill="#57B793" fill-rule="nonzero"></path>
                <path d="M50.2155761,183.190324 C52.4902064,187.625313 57.4608477,189.976378 62.3302424,188.920442 C67.1996372,187.864506 70.7511692,183.665395 70.9861929,178.686183 C71.0630075,177.163819 70.8186726,175.642326 70.2690777,174.22065 C68.6240876,169.951216 64.5110206,167.144786 59.9375547,167.171053 C55.3640888,167.197691 51.2837301,170.051511 49.6881909,174.339688 L56.5602776,179.931257 L49,178.171424 C48.9968853,179.917727 49.4138063,181.639145 50.2155761,183.190324 Z" id="Path" fill="#57B793" fill-rule="nonzero"></path>
                <path d="M56.4836966,162.159414 C62.0726244,162.414708 66.9649121,158.442928 67.8577208,152.925468 C68.7505295,147.408008 65.3600665,142.098675 59.9752718,140.581861 L60.0331966,145.111476 L57.5553045,140.183229 L57.5263421,140.183229 C51.4507264,139.900042 46.2956645,144.590729 46.0121891,150.660173 C45.7287137,156.729616 50.4241711,161.879441 56.4997869,162.162629 L56.4836966,162.159414 Z" id="Path" fill="#57B793" fill-rule="nonzero"></path>
                <path d="M29.4808247,144.157932 C34.1437281,144.385434 38.4407981,141.636443 40.1947713,137.303833 C41.9487444,132.971223 40.7763706,128.001686 37.2716746,124.913216 C33.7669787,121.824746 28.6957508,121.292185 24.6275091,123.585374 L26.553428,128.911738 L22.5764055,125.064027 C20.4292235,127.020758 19.1473595,129.752379 19.0134556,132.656587 C18.9624796,133.674087 19.0565103,134.693671 19.2927138,135.68461 C20.4145159,140.472818 24.5747752,143.932852 29.4808247,144.157932 L29.4808247,144.157932 Z" id="Path" fill="#57B793" fill-rule="nonzero"></path>
                <path d="M33.2138924,112.592998 C35.6665139,112.873741 38.0508346,113.66434 40.5096653,113.82246 C42.968496,113.980579 45.6725888,113.370689 47.2279855,111.382898 C48.0662232,110.311557 48.4853421,108.956245 49.1931873,107.788095 C49.8638964,106.699658 50.7832596,105.800601 51.8693388,105.171053 C53.715455,108.990747 53.2748215,113.574808 50.7381348,116.939355 C48.201448,120.303902 44.0244127,121.844509 40.0147579,120.894435 C36.005103,119.94436 32.8831456,116.674282 32,112.499417 C32.4129097,112.518779 32.8165056,112.547821 33.2138924,112.592998 Z" id="Path" fill="#000000" fill-rule="nonzero" opacity="0.1"></path>
                <path d="M29.8597192,144.159856 C33.5899911,144.3297 37.1378359,142.557768 39.2099512,139.489986 C41.2820665,136.422203 41.5757011,132.506795 39.9838158,129.171053 C39.1388329,129.732148 38.4121066,130.449798 37.8439146,131.284228 C37.0849962,132.414531 36.6277789,133.719909 35.7351166,134.758068 C34.0773152,136.680812 31.2469226,137.310464 28.6777971,137.19682 C26.1086715,137.083175 23.6297452,136.358307 21.0730609,136.127946 C20.7184843,136.097231 20.357687,136.072659 20,136.063445 C21.0857366,140.634448 25.1105174,143.939439 29.8597192,144.159856 L29.8597192,144.159856 Z" id="Path" fill="#000000" fill-rule="nonzero" opacity="0.1"></path>
                <path d="M55.7618345,162.159298 C59.4873008,162.332785 63.0365775,160.576362 65.1365701,157.520044 C67.2365628,154.463726 67.5862645,150.545596 66.0602403,147.171053 C65.1761157,147.753463 64.4071805,148.491694 63.7915787,149.349124 C62.9569121,150.515949 62.4360299,151.86013 61.4601602,152.93672 C59.6496239,154.937434 56.6059146,155.643752 53.8603006,155.57841 C51.2025463,155.522402 48.6420651,154.875204 46,154.672954 C47.3400688,158.957426 51.2429894,161.950573 55.7618345,162.159298 Z" id="Path" fill="#000000" fill-rule="nonzero" opacity="0.1"></path>
                <path d="M51,183.170484 C53.1887835,187.620185 57.9718281,189.979049 62.6574473,188.91961 C67.3430665,187.860171 70.7605603,183.64713 70.986714,178.651401 C71.0606296,177.123986 70.8255161,175.597446 70.2966634,174.171053 C69.4255065,174.767957 68.6434949,175.49561 67.9758652,176.330529 C66.970186,177.621695 66.3048905,179.061346 65.141397,180.255675 C62.9753187,182.470026 59.4817438,183.386754 56.3718742,183.483591 C54.5768913,183.490051 52.7831198,183.385498 51,183.170484 Z" id="Path" fill="#000000" fill-rule="nonzero" opacity="0.1"></path>
                <polygon id="Path" fill="#313130" fill-rule="nonzero" points="136 209.613676 94.4541833 218.171053 93.5099602 218.075971 57 214.367774 57 167.77761 101.693227 160.171053 134.111554 163.974331 134.120996 164.180342 134.124143 164.281763"></polygon>
                <polygon id="Path" fill="#000000" fill-rule="nonzero" opacity="0.1" points="136 209.612203 93.9555556 218.171053 93 218.075954 93 170.304895 134.098444 164.171053"></polygon>
                <polygon id="Path" fill="#000000" fill-rule="nonzero" opacity="0.05" points="134 165.224178 133.987431 165.233553 93.4511916 171.171053 57 168.671053 101.621286 161.171053 133.987431 164.921053 133.996858 165.124178"></polygon>
                <polygon id="Path" fill="#3F3D56" fill-rule="nonzero" points="182 211.613676 140.454183 220.171053 139.50996 220.075971 103 216.367774 103 169.77761 147.693227 162.171053 180.111554 165.974331 180.120996 166.180342 180.124143 166.281763"></polygon>
                <polygon id="Path" fill="#000000" fill-rule="nonzero" opacity="0.1" points="182 211.612203 139.955556 220.171053 139 220.075954 139 172.304895 180.098444 166.171053"></polygon>
                <polygon id="Path" fill="#000000" fill-rule="nonzero" opacity="0.05" points="180 166.224178 179.987431 166.233553 139.451192 172.171053 103 169.671053 147.621286 162.171053 179.987431 165.921053 179.996858 166.124178"></polygon>
                <polygon id="Path" fill="#3F3D56" fill-rule="nonzero" points="153 166.613676 111.454183 175.171053 110.50996 175.075971 74 171.367774 74 124.77761 118.693227 117.171053 151.111554 120.974331 151.120996 121.180342 151.124143 121.281763"></polygon>
                <polygon id="Path" fill="#000000" fill-rule="nonzero" opacity="0.1" points="153 166.612203 110.955556 175.171053 110 175.075954 110 127.304895 151.098444 121.171053"></polygon>
                <polygon id="Path" fill="#000000" fill-rule="nonzero" opacity="0.05" points="151 121.224178 150.987431 121.233553 110.451192 127.171053 74 124.671053 118.621286 117.171053 150.987431 120.921053 150.996858 121.124178"></polygon>
                <polygon id="Path" fill="#3F3D56" fill-rule="nonzero" points="177 168.742661 155.439008 173.171053 154.947634 173.120801 136 171.201832 136 147.106354 159.194733 143.171053 176.020382 145.140274 176.026641 145.247058 176.026641 145.297309"></polygon>
                <polygon id="Path" fill="#000000" fill-rule="nonzero" opacity="0.1" points="177 168.730607 155.490207 173.171053 155 173.120665 155 148.351797 176.028953 145.171053"></polygon>
                <polygon id="Path" fill="#000000" fill-rule="nonzero" opacity="0.05" points="176 145.196786 175.993745 145.20277 154.935022 148.171053 136 146.920305 159.179295 143.171053 175.993745 145.047175 176 145.14891"></polygon>
                <polygon id="Path" fill="#3F3D56" fill-rule="nonzero" points="118 120.745338 96.4390076 125.171053 95.9476336 125.123937 77 123.204766 77 99.1067662 100.194733 95.1710526 117.020382 97.1404799 117.026641 97.247275 117.026641 97.2975315"></polygon>
                <polygon id="Path" fill="#000000" fill-rule="nonzero" opacity="0.1" points="118 121.733257 96.4902072 126.171053 96 126.123809 96 101.352155 117.028953 98.1710526"></polygon>
                <polygon id="Path" fill="#000000" fill-rule="nonzero" opacity="0.05" points="117 98.1967857 116.993745 98.2027702 95.9350223 101.171053 77 99.9203046 100.179295 96.1710526 116.993745 98.0471747 117 98.1489102"></polygon>
                <polygon id="Path" fill="#313130" fill-rule="nonzero" points="157 120.745338 135.439008 125.171053 134.947634 125.123937 116 123.204766 116 99.1067662 139.194733 95.1710526 156.020382 97.1404799 156.026641 97.247275 156.026641 97.2975315"></polygon>
                <polygon id="Path" fill="#000000" fill-rule="nonzero" opacity="0.1" points="157 120.733257 135.490207 125.171053 135 125.123809 135 100.352155 156.028953 97.1710526"></polygon>
                <polygon id="Path" fill="#000000" fill-rule="nonzero" opacity="0.05" points="156 97.1967857 155.993745 97.2027702 134.935022 100.171053 116 98.9203046 139.179295 95.1710526 155.993745 97.0471747 156 97.1489102"></polygon>
                <polygon id="Path" fill="#3F3D56" fill-rule="nonzero" points="168 95.745338 146.439008 100.171053 145.947634 100.123937 127 98.2047664 127 74.1067662 150.194733 70.1710526 167.020382 72.1404799 167.026641 72.247275 167.026641 72.2975315"></polygon>
                <polygon id="Path" fill="#000000" fill-rule="nonzero" opacity="0.1" points="168 95.7332574 146.490207 100.171053 146 100.123809 146 75.352155 167.028953 72.1710526"></polygon>
                <polygon id="Path" fill="#000000" fill-rule="nonzero" opacity="0.05" points="167 72.1967857 166.993745 72.2027702 145.935022 75.1710526 127 73.9203046 150.179295 70.1710526 166.993745 72.0471747 167 72.1489102"></polygon>
                <path d="M182.646867,46.6231456 C182.414892,48.6840887 180.838733,50.3455259 180.254029,52.3303727 C179.376974,55.3266669 180.889577,58.5449088 182.974174,60.8912132 C186.367591,64.6568545 191.130309,66.9107535 196.199921,67.1501389 C196.937246,67.2134528 197.67987,67.1326779 198.386205,66.9123378 C199.015176,66.6569199 199.581913,66.2698431 200.048162,65.7772337 C201.611609,64.2077463 202.45371,62.0358293 202.787373,59.8448883 C203.121035,57.6539472 202.993926,55.424958 202.863638,53.2149929 C202.863464,52.7576359 202.779461,52.3041668 202.615775,51.8769652 C202.403013,51.4706782 202.110083,51.1115309 201.754608,50.8211282 C200.627542,49.787667 199.385404,48.8865903 198.052542,48.1355608 C197.480549,47.8184926 196.867246,47.5014245 196.501806,46.9528965 C196.25103,46.5160858 196.088041,46.0346678 196.021968,45.5356018 L195.612039,43.4556346 C195.539537,42.8559197 195.334397,42.2797695 195.011447,41.768832 C194.2901,40.7986034 192.907784,40.6654347 191.697066,40.6178745 L187.248232,40.443487 C185.865916,40.3895854 184.048249,39.9932502 182.69771,40.2659288 C181.426615,40.5164127 181.85561,41.6768822 182.084407,42.7295485 C182.415389,44.0027139 182.604026,45.3085406 182.646867,46.6231456 L182.646867,46.6231456 Z" id="Path" fill="#FFC0C6" fill-rule="nonzero"></path>
                <path d="M182.646867,46.6231456 C182.414892,48.6840887 180.838733,50.3455259 180.254029,52.3303727 C179.376974,55.3266669 180.889577,58.5449088 182.974174,60.8912132 C186.367591,64.6568545 191.130309,66.9107535 196.199921,67.1501389 C196.937246,67.2134528 197.67987,67.1326779 198.386205,66.9123378 C199.015176,66.6569199 199.581913,66.2698431 200.048162,65.7772337 C201.611609,64.2077463 202.45371,62.0358293 202.787373,59.8448883 C203.121035,57.6539472 202.993926,55.424958 202.863638,53.2149929 C202.863464,52.7576359 202.779461,52.3041668 202.615775,51.8769652 C202.403013,51.4706782 202.110083,51.1115309 201.754608,50.8211282 C200.627542,49.787667 199.385404,48.8865903 198.052542,48.1355608 C197.480549,47.8184926 196.867246,47.5014245 196.501806,46.9528965 C196.25103,46.5160858 196.088041,46.0346678 196.021968,45.5356018 L195.612039,43.4556346 C195.539537,42.8559197 195.334397,42.2797695 195.011447,41.768832 C194.2901,40.7986034 192.907784,40.6654347 191.697066,40.6178745 L187.248232,40.443487 C185.865916,40.3895854 184.048249,39.9932502 182.69771,40.2659288 C181.426615,40.5164127 181.85561,41.6768822 182.084407,42.7295485 C182.415389,44.0027139 182.604026,45.3085406 182.646867,46.6231456 L182.646867,46.6231456 Z" id="Path" fill="#000000" fill-rule="nonzero" opacity="0.1"></path>
                <path d="M210.741035,139.281229 L208.881498,159.726037 C208.396265,165.088404 207.901641,170.472747 206.949959,175.766044 C206.636905,177.590128 206.236197,179.404793 205.779139,181.20376 C204.508142,186.198798 202.664258,191.080813 202.069457,196.201433 C202.050674,196.348993 202.035021,196.515389 202.019368,196.65039 C201.897277,197.780632 201.790839,198.923431 201.393262,199.978323 C201.080208,200.760073 200.638803,201.472753 200.316358,202.245085 C199.690251,203.789748 199.590074,205.497668 199.511811,207.171053 C197.255192,205.89347 194.783906,205.042149 192.220798,204.659405 C190.968585,204.474171 189.606803,204.34545 188.777211,203.403582 C187.838051,202.380086 187.94762,200.813446 188.104147,199.438319 C188.596684,195.168519 189.087134,190.900811 189.575497,186.635197 C189.738296,184.799727 190.052423,182.980936 190.514658,181.197481 C190.683706,180.604104 190.887191,180.020146 191.093806,179.436188 C191.378685,178.632461 191.666694,177.828734 191.882701,177.00303 C192.182291,175.676402 192.389407,174.330462 192.502546,172.974976 C193.006562,168.680059 193.613886,164.394561 194.146076,160.102784 L194.174251,159.876736 C194.972537,153.371569 195.579861,146.835008 195.404551,140.282748 C195.379507,139.312624 195.33881,138.342501 195.276199,137.369237 C195.188544,135.959575 195.060192,135.21236 196.215359,134.330144 C197.502008,133.356881 199.195627,132.675597 200.666978,132.038266 C201.459003,131.692915 210.180669,128.584751 210.371632,129.269175 C210.776525,130.722958 210.987068,132.224239 210.997738,133.733628 C211.015391,135.586182 210.92969,137.438276 210.741035,139.281229 L210.741035,139.281229 Z" id="Path" fill="#605D82" fill-rule="nonzero"></path>
                <path d="M207,175.158161 C206.684729,176.993472 206.281182,178.819307 205.820887,180.629347 C204.540887,185.65513 202.683941,190.567194 202.084926,195.719332 C202.06601,195.8678 202.050246,196.035221 202.034483,196.171053 C198.118818,190.567194 194.821084,184.540044 191,178.876167 C191.286897,178.067492 191.576946,177.258818 191.794483,176.428032 C192.107964,175.085693 192.327089,173.722977 192.450246,172.349914 C192.957833,168.028561 193.569458,163.716686 194.105419,159.398492 L194.133793,159.171053 C194.355022,160.087432 194.672045,160.977892 195.079606,161.827673 C197.645911,167.052466 203.743251,169.693293 206.725714,174.693805 C206.824499,174.849643 206.915928,175.004429 207,175.158161 Z" id="Path" fill="#000000" fill-rule="nonzero" opacity="0.1"></path>
                <path d="M175.017611,129.488749 C175.147815,133.657378 175.821064,137.791424 176.494312,141.909752 L177.882094,150.397909 C178.641086,155.050676 179.435012,159.794613 181.658003,163.960097 C183.32207,167.078709 185.716549,169.738331 187.885553,172.533136 C193.21438,179.405399 197.218939,187.192497 202.27148,194.265961 C203.74183,196.321981 205.840968,198.547764 208.346596,198.117069 C209.99161,197.837274 211.185673,196.479169 212.475008,195.43544 C213.999345,194.203085 215.8349,193.300826 217.035315,191.754095 C218.23573,190.207364 218.470732,187.642055 216.844773,186.541738 C216.289025,186.16763 215.612601,186.026161 214.983812,185.787235 C212.465481,184.844107 210.833171,182.404547 209.797892,179.939838 C208.762613,177.475129 208.130649,174.831225 206.749219,172.539423 C203.745005,167.562848 197.600023,164.934663 195.015002,159.731738 C193.566883,156.820614 193.427152,153.444214 193.319178,150.215571 L193.03654,141.944334 C193.004783,141.03893 192.982553,140.098945 193.354111,139.272136 C194.341754,137.071503 197.326913,136.864015 199.746797,136.58422 C202.491089,136.267017 205.149624,135.437046 207.581252,134.138373 C208.975385,133.393302 210.334585,132.443885 211.074524,131.06063 C211.754124,129.803126 211.846219,128.322414 211.925612,126.895146 L212.763997,111.902546 C212.837038,110.613604 212.900552,109.277505 212.446427,108.070301 C211.293647,105.033427 207.419292,104.039998 204.145144,104.184611 C198.054148,104.454974 192.433157,107.048578 186.678786,108.802797 C185.252896,109.236636 183.820655,109.626463 182.350305,109.918832 C181.080025,110.173477 179.492174,110.069733 178.272705,110.478422 C176.087822,111.207775 176.141809,115.94228 175.833766,117.903987 C175.198173,121.732022 174.924936,125.610434 175.017611,129.488749 L175.017611,129.488749 Z" id="Path" fill="#605D82" fill-rule="nonzero"></path>
                <path d="M207.235575,199.829003 C207.782334,200.36469 207.960273,201.147859 208.102625,201.88717 C208.893432,205.990166 209.30486,210.153265 209.332023,214.32702 C209.296604,214.716426 209.376269,215.107557 209.561727,215.454783 C209.716842,215.660544 209.925628,215.822709 210.16672,215.924684 C211.748762,216.654597 213.583155,215.636478 214.903141,214.518113 C217.345762,212.447416 219.413092,209.665601 219.552209,206.523528 C219.587796,205.715298 219.493974,204.89767 219.639561,204.098838 C219.853088,202.914687 220.56808,201.884037 221.195721,200.850255 C222.26961,199.088154 223.137686,197.215827 223.783928,195.267829 C224.023337,194.534783 224.1851,193.613777 223.589813,193.103151 C223.38135,192.942734 223.143019,192.822562 222.887761,192.749159 L215.737838,190.180366 C215.116668,189.957946 213.576684,193.789207 213.33404,194.208985 C212.735517,195.23337 212.140229,195.812914 210.939948,196.050998 C209.739666,196.289081 208.257917,195.944487 207.112635,196.536562 C205.17148,197.535885 206.138822,198.760761 207.235575,199.829003 Z" id="Path" fill="#535070" fill-rule="nonzero"></path>
                <path d="M196.999433,201.394856 C196.868992,201.132514 196.686963,200.899711 196.464439,200.710633 C196.139262,200.501747 195.768951,200.375027 195.384898,200.341216 C194.047413,200.109929 192.461538,199.95895 191.534852,200.964406 C190.668672,201.905615 190.818342,203.437891 190.095464,204.497956 C189.866181,204.819188 189.554101,205.108296 189.356663,205.461651 C189.111249,206.002548 189.001869,206.596152 189.038214,207.189879 C189,208.824949 188.961786,210.466443 189.076428,212.098301 C189.168778,213.466749 189.394876,214.902655 190.245135,215.975569 C191.608095,217.697372 194.06652,217.94472 196.24471,218.053939 L198.0121,218.147097 C198.498071,218.204471 198.990568,218.158512 199.457858,218.012179 C200.043018,217.740735 200.493625,217.240967 200.706177,216.62767 C201.626494,214.321225 200.171183,211.838103 199.273157,209.525234 C198.238199,206.862222 198.422899,203.910102 196.999433,201.394856 Z" id="Path" fill="#535070" fill-rule="nonzero"></path>
                <path d="M182.115342,34.6537327 C182.092504,34.4229576 182.126751,34.1901689 182.215156,33.9752611 C182.475959,33.5218899 183.158557,33.6582183 183.673725,33.7723537 C185.744057,34.285963 187.927082,33.8199101 190.06181,33.9403864 C192.196537,34.0608626 194.598508,35.1102744 195.026742,37.1710526 C196.575469,36.0918232 197.910136,34.7421611 198.964558,33.1889949 C199.557001,32.3171272 200.072169,31.3184423 199.991674,30.272201 C199.875761,28.7630772 198.591061,27.6344048 197.415834,26.6769355 L193.874053,23.8235502 C193.407475,23.4021457 192.869022,23.065138 192.283472,22.8280358 C191.465643,22.5522085 190.570538,22.6853665 189.707631,22.6853665 C187.131791,22.6853665 184.369202,21.5281603 182.073484,22.6853665 C181.107544,23.170442 180.389529,24.0042646 179.694052,24.8158942 L176.528988,28.5062726 C176.289408,28.7415144 176.114369,29.0327717 176.020259,29.3527769 C175.930105,29.8029777 176.16515,30.2468376 176.248865,30.7002088 C176.396976,31.5245201 176.036358,32.4058992 176.313261,33.1985062 C176.773693,34.5110634 178.396472,34.6981187 179.388171,35.4526806 C179.755228,35.7316783 180.334792,36.6859771 180.775905,36.6732954 C181.551877,36.6574433 182.092803,35.2624549 182.115342,34.6537327 Z" id="Path" fill="#3F3D56" fill-rule="nonzero"></path>
                <circle id="Oval" fill="#FFC0C6" fill-rule="nonzero" cx="188" cy="36.1710526" r="10"></circle>
                <path d="M189.813642,57.8097939 C189.125907,55.8440146 187.245279,54.5475808 185.161485,54.6027713 C184.870187,54.6582922 184.568762,54.6198287 184.300789,54.4929418 C184.148886,54.3770863 184.027136,54.2264015 183.94583,54.0536236 C183.345952,52.9717966 182.86264,51.8294543 182.504007,50.6457698 C182.346945,50.121726 182.130201,49.5035426 181.599333,49.3686091 C181.172126,49.2587796 180.735496,49.5349224 180.449644,49.870687 C180.196275,50.230989 179.921445,50.5757438 179.626643,50.9030847 C178.370152,52.0139321 176.171293,51.0003623 174.855119,52.0202081 C174.638374,52.1865214 174.459324,52.3999045 174.226874,52.5536658 C174.000718,52.6913398 173.756508,52.7969495 173.50125,52.8674645 C170.946317,53.6978008 168.441701,54.6753536 166,55.7952063 C166.879544,61.0795763 167.777934,66.4643619 169.838579,71.4066913 C170.818642,73.7601815 171.927495,76.0666019 172.712802,78.4922657 C174.453042,83.8676373 174.528431,89.6195674 174.55042,95.2710818 C174.55042,99.1370817 174.55042,103.084669 173.293929,106.743562 C173.011219,107.571991 172.665684,108.394143 172.587153,109.253952 C172.508622,110.11376 172.766203,111.086536 173.472979,111.601166 C173.882132,111.870763 174.351404,112.035647 174.839413,112.081278 C177.010001,112.395076 179.196295,111.823963 181.332329,111.328161 C187.058786,110.00393 192.901468,109.244538 198.728444,108.503973 L208.49766,107.248778 C209.198493,107.199818 209.884278,107.022166 210.52061,106.724734 C212.307968,105.74882 212.477595,103.062703 211.3656,101.355638 C210.834733,100.536624 210.08398,99.8650947 209.634784,98.9990103 C209.185589,98.1329259 209.151035,96.915387 209.920636,96.3160315 C211.491249,95.0922166 211.020065,92.823452 211.095455,90.8402443 C211.30487,85.2922834 211.276599,79.7485065 211.010642,74.2089136 C210.93068,73.0601278 210.911806,71.9079122 210.9541,70.757128 C211.064043,68.8053001 211.547792,66.8942661 212.03154,64.995784 L215,53.3224726 C214.224117,52.0986577 212.738317,51.320437 211.334188,50.9689824 C209.93006,50.6175279 208.463107,50.5139743 207.077826,50.0840701 C204.250721,49.2054338 201.71261,46.9774631 198.750433,47.1845702 C198.525793,47.1885648 198.304818,47.2421442 198.10334,47.3414696 C197.4374,47.721166 197.54106,48.68139 197.500224,49.4470588 C197.405988,51.1447097 196.155779,52.5599418 194.779922,53.5546837 C193.404064,54.5494255 191.827168,55.2711625 190.561254,56.4039758 C190.116247,56.7391181 189.842531,57.2538174 189.813642,57.8097939 Z" id="Path" fill="#3F3D56" fill-rule="nonzero"></path>
                <path d="M150.362867,68.7754083 C149.694576,69.1924602 148.984157,69.5437301 148.242402,69.8238823 C147.537716,70.0913816 146.784983,70.3035361 146.208422,70.7708911 C145.922957,71.0086324 145.683335,71.292769 145.500532,71.6102853 C144.805314,72.7944201 144.836249,74.2478449 145.581272,75.4037343 C146.326295,76.5596237 147.667421,77.234925 149.08162,77.1662754 C150.007321,77.1201548 150.881772,76.7604144 151.730599,76.4068235 L158.847929,73.4335848 C160.052302,72.932408 161.352768,72.3482143 161.922924,71.2105738 C161.98826,71.1040631 162.01316,70.9791217 161.993392,70.8569828 C161.938269,70.7229692 161.833246,70.6133911 161.698705,70.5495125 C160.094828,69.5478535 158.691909,68.2772088 157.557072,66.7983736 C157.265589,66.4171103 156.916449,65.5192968 156.493637,65.288694 C154.988171,64.4861963 151.570443,68.0251805 150.362867,68.7754083 Z" id="Path" fill="#FFC0C6" fill-rule="nonzero"></path>
                <path d="M225.887474,66.1710526 L228.495715,69.0936435 C229.056217,69.7181288 229.616718,70.342614 230.126265,71.0170581 C231.380187,72.710198 232.38572,74.5673952 233.113482,76.5343851 C233.680353,77.9925581 234.151683,79.5475264 233.954234,81.0962498 C233.82192,81.890249 233.603047,82.6680265 233.301377,83.4162124 C232.82355,84.8545769 232.230413,86.2536249 231.527518,87.6002635 C230.940553,88.6220731 230.2774,89.5999721 229.543471,90.5259768 C227.523249,93.1505366 225.312669,95.6288814 222.928918,97.941739 C222.037212,98.806651 221.655052,100.20862 221.276076,101.376408 C220.559526,103.534004 218.85573,105.216992 217.209257,106.809429 C216.679694,107.358322 216.0938,107.852197 215.460875,108.283214 C214.512964,108.882914 213.404111,109.191673 212.276209,109.169983 C211.784057,109.172745 211.296835,109.073801 210.846293,108.879598 C209.718921,108.35503 209.145681,107.077958 209.027849,105.860212 C208.923787,104.753695 209.112446,103.639562 209.575611,102.625378 C211.072405,99.3749326 214.916297,97.9667184 217.632818,95.5936745 C219.225151,94.2041948 220.444878,92.4556362 221.648682,90.7289345 C222.464035,89.6496384 223.145064,88.4787714 223.677315,87.2411845 C224.282402,85.6518695 224.046736,83.772169 224.578576,82.1609971 C224.801502,81.4771857 225.215509,80.8620678 225.44162,80.1845013 C225.667732,79.5069348 225.744164,78.7044713 225.320603,78.1205776 C225.003233,77.7473149 224.597628,77.4557565 224.139092,77.2712777 C222.403448,76.4094881 220.460802,75.2979043 220.129596,73.4150814 C219.996945,72.3724038 220.274846,71.3193739 220.906655,70.4706335 C221.535035,69.6327229 222.270308,68.8771911 223.094521,68.2224866 C223.849287,67.5542874 225.126338,66.8142724 225.887474,66.1710526 Z" id="Path" fill="#FFC0C6" fill-rule="nonzero"></path>
                <path d="M148.95455,72.7441307 C148.499776,71.8366395 147.928151,70.9105012 147.00597,70.4598634 C146.098929,70.0747824 145.070673,70.0747824 144.163632,70.4598634 C143.269989,70.8400763 142.432829,71.3377167 141.675008,71.9391984 L139.445352,73.5583866 C138.939931,73.8848068 138.492816,74.2911967 138.122086,74.7611233 C137.768493,75.3312768 137.534406,75.9652917 137.433609,76.6258313 C137.117794,78.1393527 136.861983,79.6963839 137.083054,81.2285524 C137.436767,83.7148298 138.95268,85.8654597 140.620185,87.7550306 C141.662375,88.9297966 142.950902,90.1169941 144.536295,90.1698275 C145.221614,90.1915824 145.982728,89.9243076 146.266962,89.3120618 C146.366064,89.0688046 146.418532,88.8095907 146.421712,88.5475315 C146.592252,85.7877636 145.587959,83.0932604 144.419443,80.5790124 C144.103628,79.8952861 143.762547,79.1866971 143.787812,78.437706 C143.778121,78.3105415 143.811431,78.1837923 143.882557,78.0771958 C143.982809,77.973809 144.117119,77.9088251 144.261535,77.8938328 C145.862719,77.5830481 148.622944,78.8075398 149.744088,77.057822 C150.470464,75.901703 149.472487,73.772828 148.95455,72.7441307 Z" id="Path" fill="#FFC0C6" fill-rule="nonzero"></path>
                <path d="M182.109722,31.6537327 C182.089526,31.4227479 182.124826,31.1903256 182.212769,30.9752611 C182.473608,30.5187194 183.156297,30.6582183 183.671535,30.7723537 C185.742144,31.285963 187.925462,30.8199101 190.060476,30.9403864 C192.19549,31.0608626 194.594563,32.1102744 195.026075,34.1710526 C196.573499,33.0900854 197.908051,31.7407214 198.964419,30.1889949 C199.556942,29.3139567 200.072179,28.3152719 199.991673,27.2690306 C199.875745,25.7599068 198.587652,24.6312344 197.415487,23.6769355 L193.873231,20.8235502 C193.407763,20.4021951 192.870301,20.0651711 192.285657,19.8280358 C191.464497,19.5522085 190.572493,19.6853665 189.709471,19.6853665 C187.133285,19.6853665 184.370325,18.5281603 182.074299,19.6853665 C181.10823,20.170442 180.390118,21.0042646 179.694547,21.8158942 L176.525839,25.5062726 C176.287619,25.7420385 176.113719,26.0332052 176.020262,26.3527769 C175.930096,26.8029777 176.165173,27.2468376 176.248899,27.7002088 C176.397029,28.5245201 176.036363,29.4058992 176.313303,30.1953358 C176.773797,31.5110634 178.396794,31.6981187 179.388625,32.4526806 C179.755732,32.7316783 180.335374,33.6859771 180.776546,33.6732954 C181.539741,33.6574433 182.08074,32.2624549 182.109722,31.6537327 Z" id="Path" fill="#3F3D56" fill-rule="nonzero"></path>
                <path d="M161.221572,58.5638176 C160.828393,58.8309754 160.48259,59.1676318 160.199609,59.5587496 C159.84347,60.1258932 159.769145,60.8550779 159.462556,61.4384257 C158.806022,62.7153091 157.266884,63.1722649 156.309954,64.21905 C156.154816,64.3621427 156.046499,64.5525752 156.000269,64.7635079 C155.994379,65.0485581 156.085479,65.3265226 156.257308,65.5477866 L160.884014,73.157234 C162.432444,73.2998301 163.900354,72.288694 165.44259,72.4248085 C166.015509,72.4734208 166.607009,72.6808333 167.158249,72.5025882 C167.552235,72.3189174 167.921782,72.0825245 168.257634,71.79933 C169.186692,71.1900557 170.40066,71.1187576 171.171778,70.3182749 C171.942896,69.5177921 172.00793,68.3413742 171.998639,67.2492175 C172.012531,66.3013299 171.920024,65.3550135 171.723019,64.4297034 C171.04171,61.5129646 168.907974,59.2638349 167.570132,56.6776598 C166.916695,55.4169805 166.563653,54.6813142 165.185551,55.5466133 C163.807449,56.4119125 162.525349,57.5656447 161.221572,58.5638176 Z" id="Path" fill="#3F3D56" fill-rule="nonzero"></path>
                <path d="M217.947809,55.6810259 C218.817975,56.2577995 219.602756,56.9587974 220.27826,57.7626781 C220.981734,58.6896145 221.381506,59.8285123 222.060188,60.7775939 C222.73887,61.7266755 223.60969,62.4100142 224.353451,63.2578604 C225.484587,64.5422841 226.250041,66.1051051 227,67.6584353 C225.164103,70.0969363 223.163468,72.4014399 221.012724,74.5550947 C220.772823,74.8431008 220.456387,75.0540609 220.101617,75.1625069 C219.613062,75.2161042 219.130876,75.0151668 218.818629,74.6278576 C218.483937,74.2735338 218.248413,73.8306291 217.929215,73.4604872 C217.177212,72.6687362 216.174819,72.1744643 215.099825,72.0653373 C214.033775,71.9593285 212.960966,71.9434564 211.892356,72.0178833 C211.6578,72.0462722 211.420183,72.0056607 211.207476,71.9008299 C211.049233,71.7898769 210.921256,71.6396354 210.835595,71.4642523 C209.595994,69.287692 209.983369,66.554337 210.426527,64.0677433 L211.439901,58.3732539 C211.5878,57.2860355 211.872145,56.2227675 212.285929,55.2096487 C212.670206,54.3712933 213.525531,52.947671 214.58539,53.2007594 C215.645249,53.4538478 217.052197,55.022996 217.947809,55.6810259 Z" id="Path" fill="#3F3D56" fill-rule="nonzero"></path>
                <polygon id="Path" fill="#313130" fill-rule="nonzero" points="128 96.745338 106.439008 101.171053 105.947634 101.123937 87 99.2047664 87 75.1067662 110.194733 71.1710526 127.020382 73.1404799 127.026641 73.247275 127.026641 73.2975315"></polygon>
                <polygon id="Path" fill="#000000" fill-rule="nonzero" opacity="0.1" points="128 96.7332574 106.490207 101.171053 106 101.123809 106 76.352155 127.028953 73.1710526"></polygon>
                <polygon id="Path" fill="#000000" fill-rule="nonzero" opacity="0.05" points="127 73.1967857 126.993745 73.2027702 105.935022 76.1710526 87 74.9203046 110.179295 71.1710526 126.993745 73.0471747 127 73.1489102"></polygon>
                <polygon id="Path" fill="#3F3D56" fill-rule="nonzero" points="139 72.7426607 117.439008 77.1710526 116.947634 77.1208014 98 75.2018315 98 51.1063541 121.194733 47.1710526 138.020382 49.1402737 138.026641 49.2470577 138.026641 49.2973089"></polygon>
                <polygon id="Path" fill="#000000" fill-rule="nonzero" opacity="0.1" points="139 72.7306072 117.490207 77.1710526 117 77.1206646 117 52.3517972 138.028953 49.1710526"></polygon>
                <polygon id="Path" fill="#000000" fill-rule="nonzero" opacity="0.05" points="138 49.1967857 137.993745 49.2027702 116.935022 52.1710526 98 50.9203046 121.179295 47.1710526 137.993745 49.0471747 138 49.1489102"></polygon>
            </g>
        </g>
    </g>
</svg>