<svg width="55" height="55" viewBox="0 0 55 55" fill="none" xmlns="http://www.w3.org/2000/svg">
<path fill-rule="evenodd" clip-rule="evenodd" d="M46.9447 8.05482C57.685 18.7941 57.685 36.2056 46.9454 46.9459C36.2062 57.6848 18.794 57.6848 8.05441 46.9452C-2.6848 36.2056 -2.6848 18.7941 8.05441 8.05482C18.794 -2.68511 36.2055 -2.68477 46.9447 8.05482Z" fill="#112633"/>
<path fill-rule="evenodd" clip-rule="evenodd" d="M51.8869 27.4999C51.8869 40.9685 40.9685 51.8869 27.5002 51.8869C14.0317 51.8869 3.11328 40.9685 3.11328 27.4999C3.11328 14.0317 14.0317 3.11328 27.5002 3.11328C40.9685 3.11328 51.8869 14.0317 51.8869 27.4999Z" fill="#FFFFFE"/>
<path fill-rule="evenodd" clip-rule="evenodd" d="M31.0906 36.0936L28.438 33.3937C28.438 33.3937 31.9408 31.0638 35.2494 27.5252C35.381 28.3963 33.4294 33.5556 31.0906 36.0936ZM44.4775 13.4902C40.8372 21.434 35.2138 27.7131 27.532 32.4707L26.1424 31.0567L19.7168 40.0716C19.7168 40.0716 23.5535 41.837 21.7718 45.7872C23.7854 47.9692 21.5225 50.0125 21.4922 50.0452C23.3697 50.5632 25.3405 50.8487 27.3805 50.8487C39.7685 50.8487 49.8111 40.693 49.8111 28.1655C49.8111 22.5675 47.8014 17.4468 44.4775 13.4902Z" fill="#16385A"/>
<path fill-rule="evenodd" clip-rule="evenodd" d="M20.8946 24.8521C23.4403 22.5268 28.5988 20.6038 29.4655 20.7412C25.9165 24.0313 23.5699 27.5248 23.5699 27.5248L20.8946 24.8521ZM24.9183 28.8312L24.4828 28.4369C29.295 20.7536 35.6133 15.1496 43.5847 11.5575C39.5089 7.61978 33.947 5.18945 27.8113 5.18945C15.3171 5.18945 5.18848 15.2462 5.18848 27.6513C5.18848 31.545 6.19038 35.2059 7.94767 38.397C8.1352 37.4081 10.0502 35.7066 12.022 36.8537C15.1791 34.2742 17.6935 36.9392 17.8997 37.3649L26.087 29.8881C33.5583 18.3128 40.3075 14.2183 42.968 12.9606C40.0171 14.2859 32.1097 18.5604 24.9183 28.8312Z" fill="#20517D"/>
</svg>
