<svg width="52" height="51" viewBox="0 0 52 51" fill="none" xmlns="http://www.w3.org/2000/svg">
<path d="M0 0V50.36H51.26V0H0ZM35.74 22.06C34 19.25 29.79 20.14 29.33 22.4C28.579 21.4555 27.6561 20.6615 26.61 20.06C26.61 20.06 26.39 35.91 26.39 37.78C26.39 39.65 26.27 43.09 22.82 43.35C19.37 43.61 18.87 40.46 18.82 38.59C18.77 36.72 20.99 37.36 20.97 38.31C20.87 42.52 24.32 41.2 24.34 38.08C24.34 35.84 24.28 24.41 24.34 20.33C23.3694 20.8984 22.5063 21.6329 21.79 22.5C20.65 20.02 16.89 19.7 15.04 22.5C12.87 19.5 8.66002 21.1 7.68002 22.1C7.68002 12.83 18.14 8.57999 25.79 8.57999C33.44 8.57999 43.72 13 43.72 21.42C41.91 19 36.64 19.17 35.74 22.06Z" fill="black"/>
</svg>
