<svg xmlns="http://www.w3.org/2000/svg" viewBox="0 0 48 48"><path fill="#1565c0" d="M17.202 32.269h3.885l2.497-15.537h-4.162zM13.873 16.454l-3.607 11.098-.681-3.126c-1.942-4.717-5.272-6.659-5.272-6.659l3.456 14.224h4.162l5.827-15.538h-3.885zm31.075 0h-4.162l-6.382 15.538h3.884l.832-2.22h4.994l.555 2.22H48l-3.052-15.538zm-4.994 10.543l2.22-5.826 1.11 5.826h-3.33zm-11.099-6.104c0-.832.555-1.665 2.497-1.665 1.387 0 2.775 1.11 2.775 1.11l.832-3.329s-1.942-.832-3.607-.832c-4.162 0-6.104 2.22-6.104 4.717 0 4.994 5.549 4.162 5.549 6.659 0 .555-.277 1.387-2.497 1.387s-3.884-.832-3.884-.832l-.555 3.329s1.387.832 4.162.832c2.497.277 6.382-1.942 6.382-5.272 0-3.884-5.55-4.161-5.55-6.104z"/><path fill="#ff9800" d="M9.711 25.055l-1.387-6.936s-.555-1.387-2.22-1.387H0s8.046 2.497 9.711 8.323z"/></svg>