<svg width="35" height="35" viewBox="0 0 35 35" fill="none" xmlns="http://www.w3.org/2000/svg">
<path d="M17.5 0C7.84766 0 0 7.84766 0 17.5C0 27.1523 7.84766 35 17.5 35C27.1523 35 35 27.1523 35 17.5C35 7.84766 27.1523 0 17.5 0Z" fill="#CF2121"/>
<path d="M18.9766 26.2705C18.9766 27.0771 18.3203 27.7266 17.5205 27.7266C16.7207 27.7266 16.0645 27.0703 16.0645 26.2705C16.0645 25.4707 16.7207 24.8145 17.5205 24.8145C18.3203 24.8145 18.9766 25.4639 18.9766 26.2705Z" fill="#ECEFF1"/>
<path d="M18.9766 20.4395C18.9766 21.2461 18.3203 21.8955 17.5205 21.8955C16.7207 21.8955 16.0645 21.2393 16.0645 20.4395V8.77051C16.0645 7.96387 16.7207 7.31445 17.5205 7.31445C18.3203 7.31445 18.9766 7.9707 18.9766 8.77051V20.4395Z" fill="#FAFAFA"/>
</svg>
